<svg xmlns="http://www.w3.org/2000/svg" xmlns:xlink="http://www.w3.org/1999/xlink" version="1.1" x="0px" y="0px" viewBox="-0.387 20.898 162.191 124.25" style="enable-background:new 0 0 161.5 162.6999969;" xml:space="preserve"><g><path d="M158.6833344,32.2248459c-0.0046844-0.1274567-0.0551605-0.2492714-0.141861-0.3426437l-0.3642578-0.39221   c0.0007324-0.0019207,0.0023499-0.0031204,0.003006-0.004921V31.484951   c0.2485504-0.6826477,0.3399353-1.1483078,0.3413849-1.5115948c0.0005341-0.2880363-0.0636139-0.5265064-0.1925049-0.7068901   c-0.1002197-0.1429386-0.2223816-0.2109871-0.3184052-0.2487926l0.003006-0.0068398l-1.5106354-0.6501236   c0.0130157-0.1142559,0.0315094-0.2306709,0.0315094-0.3395252c0.00354-0.6419621-0.2355347-1.1867123-0.5796814-1.5749626   c-0.51828-0.5859146-1.2144928-0.8629112-1.7708893-1.0212116c-0.5588531-0.1554203-0.9934235-0.1825428-1.0176086-0.1843433   l-0.1828461,0.0204029l-0.4303131,0.1261368c-0.1113739-0.1034546-0.3196564-0.2928391-0.5791931-0.5043049   c-0.3864441-0.3072395-0.8247528-0.6480846-1.3039093-0.8069839c-0.1517639-0.0466862-0.2932587-0.0582085-0.4354706-0.0588093   c-0.527298,0.0048008-1.1242523,0.1717434-1.6352234,0.3283634c-0.504837,0.1583004-0.8980103,0.3140793-0.9056854,0.3169613   c-0.1832123,0.0724888-0.3104858,0.2387104-0.3328705,0.4344559l-0.0050354,0.099493   c-0.0023956,0.1324959,0.0374451,0.4015713,0.193222,0.6893673l-1.0088501,0.5188274   c-0.1539154,0.0790901-0.2550964,0.226469-0.2811279,0.3906498l-0.551712,0.3809299   c-0.2390747-0.0710487-0.5149384-0.1351376-0.8498383-0.1357384c-0.5317841-0.0050392-1.1788483,0.1763039-1.7070313,0.7106113   c-0.3089905,0.301239-0.4510193,0.7017307-0.4456787,1.0506153c0.0050964,0.4864235,0.2089386,0.8683128,0.3851776,1.1439877   c0.1802063,0.2748356,0.35112,0.4457378,0.3677368,0.4629002l0.0496216,0.0438061l0.0041504,0.0033607   c0.0018005,0.00144,0.0093536,0.0080395,0.0119934,0.0102005c-0.0687103,0.0781307-0.1225281,0.1703014-0.1358643,0.2813168   c-0.0002289,0.0015602-0.0912018,0.7595768-0.2330627,1.6713352c-0.1398163,0.9073181-0.3386841,1.9819336-0.5218201,2.5250053   c-0.1883087,0.5646706-0.4011536,0.94524-0.6937561,1.5037918c-0.291275,0.5560341-0.6454468,1.2658043-1.062973,2.4153137   c-0.1854858,0.5130653-0.6651917,1.531395-1.2906494,2.7649155c-1.8772278,3.7083588-5.1127167,9.4993439-6.1944733,11.1802788   c-0.7570648,1.1783142-1.6626434,2.8678894-2.4189148,4.452095c-0.3778076,0.7919807-0.7172699,1.556118-0.9806519,2.2176437   c-0.2633057,0.6651268-0.4510193,1.2128792-0.5276489,1.6367722c-0.0896454,0.5202675-0.1130524,1.332653-0.1145477,2.5125237   c0.0001221,2.4383545,0.1225281,6.3995819,0.1813965,11.7361908c-0.5093994-0.0724869-1.3140411-0.2311478-2.2148209-0.5806351   c-0.0342636-0.0264053-0.0652313-0.0562897-0.1067505-0.0742874c-0.0408096-0.0176468-0.0831146-0.0195618-0.1251221-0.0266418   c-0.4008484-0.1674271-0.812439-0.3637695-1.2222366-0.6150818c-1.1673889-0.7113342-3.9010391-1.9975357-7.1686401-3.2535019   c-3.2623215-1.2513962-7.029068-2.4587555-10.2260971-2.9620972l0,0l-0.0032425-0.0004807   c-0.0008392-0.0001221-0.0016785-0.0003586-0.0025177-0.0004807l0,0c-0.0510101-0.0084-1.5974045-0.2629547-4.16082-0.2629547   c-3.4677277,0.0001221-8.7920303,0.4698639-14.7542191,2.6543808c-0.3158188,0.005043-1.5327148,0.0292816-2.9998474,0.1226578   c-1.7085953,0.1104126-3.7302628,0.3050766-5.1050949,0.6953659c-2.7444534,0.7919846-6.220459,3.2424622-9.892395,7.2174911   c-1.7861938,1.9383698-5.3820343,5.3360062-8.9876595,8.6726761c-3.6080818,3.3393097-7.2313499,6.624855-9.1115112,8.3816452   c-1.8535805,1.7322998-4.0716438,3.5226898-5.822731,4.8759842c-0.8756943,0.6767654-1.6349716,1.2449188-2.1748619,1.6432495   c-0.4237137,0.312767-0.7037086,0.5149918-0.8079414,0.5898819c-0.3896904,0.1586609-2.8501282,1.1703873-5.8472748,2.6085358   c-3.2670593,1.5696793-7.155262,3.6308289-9.711771,5.6796112c-4.9469166,3.970108-19.7279015,16.8177643-20.0338211,17.0835953   c-0.0904312,0.0680542-1.0903401,0.8252258-2.2652316,1.9772644c-1.2231374,1.2036285-2.6310391,2.8152008-3.3603175,4.5617828   c-0.5077808,1.2259521-0.6917045,2.010376-0.6933248,2.6433411c-0.0021002,0.5459442,0.1529598,0.9451141,0.2658343,1.2561951   c0.1130545,0.3180389,0.1995857,0.5667114,0.2025261,1.0361023c0.006901,0.6525269,0.0064809,1.02565,0.1501994,1.3981781   c0.0708091,0.1851807,0.2381105,0.3841705,0.4389565,0.4721375c0.1980855,0.0898895,0.3670671,0.0944519,0.513726,0.0962524   c0.2109876-0.0009613,0.4093728-0.0216064,0.6582851-0.0211182c0.1257758-0.0008392,0.4090724,0.0250854,0.7584977,0.0674438   c1.0615964,0.1260223,2.7849588,0.3871765,4.1830187,0.3882446c0.4392567-0.000351,0.8483896-0.0251923,1.214736-0.0969696   c0.1790037-0.037323,0.3511057-0.0826874,0.5131264-0.1508484c0.475441,0.3929291,1.0663376,0.5892639,1.6605339,0.588913   c0.5816555-0.0003662,1.1706305-0.1747437,1.6786566-0.5205078c0.2461519-0.1686249,0.4402161-0.3474426,0.5809345-0.5589142   c0.141078-0.2093048,0.2166882-0.4584656,0.2146473-0.6909332c-0.0007801-0.264389-0.0826302-0.4900208-0.1774426-0.6813202   c-0.1448584-0.2872009-0.3268023-0.5226746-0.4737606-0.7460175c-0.1489992-0.2215576-0.2577333-0.4235382-0.2948179-0.5881958   c-0.1778631-0.7041321-0.6212006-1.1936798-0.976326-1.763031c-0.3621464-0.568634-0.6741266-1.1817932-0.7310143-2.0799866   l-0.0004797-0.016449c-0.0040808-0.0870056,0.0554466-0.2852783,0.2306089-0.5348969   c0.299859-0.43927,0.9017363-0.9979401,1.6253099-1.546524c1.086319-0.8278656,2.4455547-1.6568146,3.5273132-2.2729797   c0.541151-0.3084412,1.0135307-0.5643005,1.3498154-0.7427673c0.3363419-0.1783447,0.533289-0.2776031,0.533289-0.2776031   l0.0175209-0.0092316c0.0015011-0.0008392,3.8281937-2.1062775,7.9036789-4.4362564   c2.0379219-1.1649933,4.1376514-2.3860245,5.8555546-3.4300385c0.8591309-0.5221939,1.6226082-0.999855,2.2379875-1.4063416   c0.6174202-0.4090195,1.0783386-0.7365341,1.3705177-0.999733c1.9871559-1.8112717,3.8966599-3.8008881,6.4558716-4.3603973   c2.8743706-0.6434097,5.2209129-2.0114594,9.4957428-3.8401413c2.2378082-0.962883,5.7469978-3.2700577,9.5138664-5.8250656   c3.7593651-2.5524902,7.7521553-5.3468094,10.8327141-7.2375336c3.0489349-1.8720016,6.1244507-3.0092697,8.4334259-3.6752319   c1.1543655-0.333046,2.116951-0.5485916,2.7883224-0.6803665c0.3356781-0.0658875,0.5985107-0.1108932,0.7761993-0.1392212   c0.1776199-0.0284424,0.2645721-0.0392456,0.2648087-0.0393677c1.2046585-0.1544571,2.2754364-0.3474426,3.2065125-0.5505066   c0.0351715,0.0172806,0.0668488,0.0397263,0.106514,0.0490875v-0.0001221   c0.0041428,0.0009613,3.0675354,0.7240524,6.7748184,1.4481049c3.7131577,0.7233353,8.044693,1.4508667,10.6832352,1.4536285   c0.1024933,0,0.1942444-0.0051575,0.2918167-0.0074387c0.4115295,0.0386429,0.7305908,0.0578461,0.8771286,0.0645676   c0.2422562,0.10009,1.5208359,0.6812057,2.3235016,2.6811447c0.45504,1.0951385,1.5705261,1.7863083,2.8644714,2.2651749   c1.3036652,0.4728546,2.8335648,0.7127686,4.2422485,0.7138519c1.2381363-0.0037231,2.375946-0.1775055,3.2211533-0.6164017   c1.8692398-0.9850845,3.4338837-1.0792999,3.8504562-1.0855408c0.9891663,0.5188293,1.4803925,1.0879364,1.7288818,1.5154343   c0.0174026,0.0301208,0.0251999,0.0534058,0.0403214,0.0820923c-1.3997955,0.0184784-2.67556,0.264389-3.6629868,0.6177216   c-0.5127716,0.1842194-0.9489059,0.3946075-1.2961655,0.6294785c-0.3427048,0.2399139-0.6205444,0.4853439-0.7577209,0.8726349   c-0.0569458,0.1788177-0.067627,0.3437195-0.0690079,0.5255432c0.0023956,0.5266266,0.1272125,1.2132339,0.3050156,1.9986191   c0.4280396,1.869957,1.184494,4.2279053,1.4725952,5.1048584l-0.674614,0.5447464l-0.0082779,0.0068436   c-0.3551865,0.2976379-0.533287,0.7263336-0.5316696,1.1408691c-0.0022812,0.5061035,0.2627792,1.0207291,0.7573624,1.3002472   c0.9397812,0.5322647,2.2139206,1.2772064,2.8998108,1.7605057c0.7692413,0.5549469,0.7900009,1.0018845,0.8017654,1.1839523   l-0.0042648,0.0710449l-0.0010757,0.0070877l0.0040741,0.0008392c-0.0215378,0.0962524-0.0199203,0.1989822,0.0126038,0.2921143   c0.4106369,1.1441116,1.4606476,2.4018707,2.4146576,3.4438477c0.9538727,1.0322495,1.8128357,1.8068314,1.8202057,1.8136673   c0.0066681,0.0060043,0.0153046,0.0075607,0.0221405,0.0130844c0.0089417,0.0074387,0.0147095,0.0174026,0.0242462,0.0242462   c0.0073242,0.0038376,0.1151581,0.0794449,0.2959595,0.1953812c-0.0211182,0.0740509-0.0302429,0.152298-0.0164337,0.2333145   c0.0001068,0.0005951,0.0450592,0.2649918,0.1135254,0.7097702c0.2056427,1.3308487,0.6156158,4.2744675,0.6142426,6.2789688   c0.0001221,0.4157257-0.0177612,0.7897034-0.0553284,1.0901031c-0.2041473,1.6424103-0.5531464,3.902298-0.5549469,5.4853058   c0.000351,0.3904114,0.0206451,0.7419281,0.078125,1.0534973c0.0628357,0.3096313,0.1413116,0.5935974,0.3826141,0.8467102   c0.1958618,0.1905823,0.4154358,0.2634277,0.6302032,0.3110809c0.2174072,0.0453644,0.4461517,0.0594025,0.6957245,0.0597534   c0.6647644-0.0010681,1.4863281-0.1074066,2.3533783-0.2096558c0.8643494-0.1029816,1.7686157-0.202713,2.541687-0.2023468   c0.351532-0.0001221,0.6750946,0.020874,0.9496918,0.0670776c1.3092499,0.2178345,3.3148804,0.5248413,5.4124451,0.5251923   c1.4734955-0.0007172,2.9952393-0.1501312,4.3682098-0.6065521c0.6302032-0.209671,1.1322327-0.2753143,1.5520935-0.2756805   c0.4342194,0.0003662,0.7831726,0.0702057,1.1085358,0.1481018c0.3260803,0.0751343,0.6256409,0.1731873,0.9920349,0.1773834   c0.2718964,0.0044403,0.5888062-0.0805359,0.8444366-0.2772369c0.2577362-0.1944275,0.4589386-0.463623,0.6557007-0.8203125   l0.0583954-0.1684875l0.1228943-0.737381c0.0474548-0.2851563-0.1413879-0.5563965-0.4253998-0.6103973l-1.8627014-0.3548889   c-1.8827972-1.4404297-4.5647888-2.4608002-6.8910522-3.2950287c-1.1868896-0.423645-2.2793274-0.796051-3.100769-1.1304169   c-0.4100342-0.1665802-0.7525024-0.324646-0.9945068-0.4647064c-0.2437592-0.1350098-0.3762512-0.2714691-0.3742065-0.2820282   c-0.125-0.199707-0.2829437-0.683136-0.4005585-1.248764c-0.182724-0.8539124-0.3117981-1.9171295-0.3925629-2.7589188   c-0.0405121-0.4213715-0.0693817-0.7882614-0.0879822-1.049057c-0.0053406-0.0748901-0.0095978-0.1377716-0.0133209-0.1937027   c1.4202728-0.1012955,2.914093-0.493866,4.3734283-1.3493347c2.210556-1.2947235,3.8503876-2.8560028,4.93396-4.6233521   c1.0843353-1.76651,1.6047821-3.7339249,1.6037598-5.8025131c-0.000061-0.8702316-0.0991364-1.7594223-0.2767487-2.6607361   c0.0969086,0.0127182,0.2124176,0.02388,0.3538513,0.0240021c0.469574,0.002037,1.1835938-0.1224213,1.8212433-0.6878128   c0.6384277-0.5644302,1.1511841-1.5238342,1.3498688-3.0503082c0.0423126-0.3224869,0.0626526-0.6436462,0.0626526-0.9620438   c-0.0011444-1.9428101-0.7529144-3.7732849-1.8966064-5.2228317c-1.1459045-1.4489517-2.6872711-2.5311279-4.3359222-2.9556274   c-0.3922729-0.1006927-0.7763214-0.1480942-1.1465607-0.1480942c-1.3118286-0.0004807-2.4244385,0.5950317-3.19104,1.4162979   c-0.3026123,0.3248825-0.5397644,0.6909332-0.7365265,1.0701828c-0.1526642-0.6142426-0.2865448-1.3739395-0.2850342-2.1828461   c0-0.2473526,0.0127106-0.497818,0.0397186-0.7486572c0.0527496-0.0891647,0.0883942-0.1892624,0.0810699-0.3003922   c-0.0016174-0.0243683-0.0136719-0.0446472-0.0184174-0.0680542c0.108078-0.6420822,0.3099365-1.2798462,0.676712-1.8691177   c0.0346222-0.055687,0.0537567-0.1161728,0.0659485-0.1769028c0.1764832-0.0361252,0.3536835-0.0729675,0.5342407-0.117012   c0.9120636-0.2238312,1.8630676-0.5542374,2.7020874-1.0627441c0.8365631-0.5071793,1.5710602-1.2054291,1.9784546-2.1557159   c0.8575134-2.0059357,1.431427-4.8175354,1.4332886-7.7235947c-0.0008392-2.3029785-0.3629303-4.6637955-1.2722321-6.7124634   c-0.7274628-1.624527-1.0275116-4.1434097-1.0239716-6.7853165c-0.0024567-4.0220718,0.6711273-8.3648338,1.2938385-10.4628258   c1.0435333-3.550415,2.5407257-6.5250015,2.8868408-10.0126495c0.1644897-1.6866951,0.4099121-4.6514397,0.7262115-7.4162331   c0.1580048-1.3815002,0.3338318-2.7128296,0.5241699-3.800293c0.1580048-0.9209976,0.3403015-1.661972,0.4986115-2.0748253   c0.0093536-0.0026398,0.0196228-0.0057602,0.0294037-0.0086403c0.0687714,0.0337219,0.1436615,0.0561676,0.2253265,0.0572472   v-0.0001221c0.0019226,0,0.0635529,0.000721,0.1719818,0.000721c0.4091339-0.0002403,1.4738464-0.0116425,2.5289612-0.1288948   c0.5287323-0.059288,1.0538635-0.1434212,1.5107574-0.275795c0.2289886-0.0668488,0.4414825-0.1452217,0.63591-0.2496338   c0.1927948-0.1054955,0.376236-0.2357101,0.5174408-0.4435768c0.3248749-0.4933853,0.4684143-1.0660973,0.552124-1.5742416   c0.0810242-0.5079079,0.0918121-0.9532852,0.0919952-1.1749535   C158.6853638,32.2826958,158.6835632,32.2306061,158.6833344,32.2248459z M156.9438171,30.1616611   c-0.1431122-0.1542206-0.3650208-0.2096672-0.5638275-0.1408978c-0.0058136,0.0022793-0.02388,0.0091209-0.0417633,0.0159626   l-0.1224213-0.0577278c-0.2480011-0.1189365-0.8213806-0.4110527-1.3009033-0.7502174l-0.0722504-0.0823307l-0.0229797-0.1332169   c-0.0010223-0.058567,0.0102539-0.1312962,0.0287476-0.2058258l2.6044464,1.1209431l0.0043182,0.0450058   c0.0009613,0.1134148-0.0279541,0.3227215-0.1097412,0.6230011L156.9438171,30.1616611z M153.182663,26.3119259   c0.1929779,0.0195618,0.77211,0.1017723,1.2925568,0.3496037c0.2854614,0.134058,0.5413361,0.3121605,0.7137909,0.5275879   c0.1512909,0.191906,0.2387848,0.4188557,0.2626648,0.7190132l-0.5821381-0.2504711   c-0.1810455-0.2070274-0.388916-0.3757687-0.616394-0.467701c-0.4249268-0.1709023-0.8245087-0.1599808-1.2129974-0.1641808   c-0.3916168-0.000721-0.7864075-0.0008411-1.2302856-0.0950527c-0.1609344-0.0337238-0.2760925-0.0727291-0.3642426-0.1095734   L153.182663,26.3119259z M149.9387054,26.990612c-0.7210541,0.3264427-1.258194,0.4442978-1.6181183,0.4429779   c-0.4956512-0.0082817-0.6902618-0.1649017-0.8304443-0.3205605l0.9033661-0.4647007   C148.7746124,26.8356724,149.2841949,26.9555683,149.9387054,26.990612z M149.2781372,25.2548294   c0.3641815-0.1020126,0.7481689-0.1758232,0.9565277-0.1733017l0.1176758,0.0102005   c0.176712,0.0459652,0.6192169,0.3401241,0.9496155,0.6166401c0.0143433,0.0116405,0.0261688,0.0222015,0.0402679,0.033844   l-0.6695099,0.1962242c-0.1287689,0.0057621-0.2535858,0.0099621-0.3680267,0.0099621   c-1.0732422-0.0004807-1.5285187-0.2491512-1.7084198-0.4180145c-0.0178833-0.0166817-0.0265808-0.0318031-0.0409241-0.0478859   C148.7661438,25.4095287,149.0108643,25.3283978,149.2781372,25.2548294z M107.2476425,68.7774734   c0.3430634,0.0313263,0.6067352,0.0626526,0.7831573,0.0858154l0.1982651,0.0277176l0.0613937,0.0096054l0.0057602,0.0009613   c3.0695114,0.480423,6.7967148,1.6686935,10.0152283,2.9052124c0.1375961,0.052803,0.2685928,0.1058502,0.404335,0.158783   c-1.3541946,0.7440948-2.4306793,2.0228577-3.4360428,3.7113571c-1.1801147,1.9843369-2.2883987,4.5614243-3.6406708,7.663826   c-2.2126083,5.0800171-3.3214874,9.4166489-3.663353,10.8820419c-0.1641846,0.0170441-0.3479843,0.0283203-0.5493088,0.0345612   c-0.4190979-0.0410461-0.9251404-0.1032104-1.4508667-0.2014999c-0.9679871-0.1727066-1.9786987-0.500351-2.4106293-0.8893204   c-0.8038635-0.6834869-2.0517883-1.1514282-3.245224-1.5127945c-1.1933136-0.3548813-2.3063354-0.572113-2.8084183-0.639679   c-0.4441757-0.0588074-1.487709-0.2196274-2.4863586-0.5321503c-0.4987259-0.1552963-0.9853287-0.3494873-1.3711166-0.5741501   c-0.3883743-0.2234726-0.6626053-0.4780273-0.7829819-0.7077332c-3.0994568-5.7572632-3.9227676-10.0594559-3.9231262-13.0180817   c0.0001221-1.7705841,0.2948761-3.0627899,0.5822525-3.9054184c0.1437836-0.421257,0.28582-0.7299347,0.3889084-0.929039   c0.031929-0.0616913,0.0514297-0.0937347,0.0747757-0.1343002c5.7816238-2.1051941,10.9497299-2.5619659,14.3066788-2.5618515   C105.5580063,68.6513367,106.5615158,68.7145844,107.2476425,68.7774734z M21.7773724,127.0172577   c-1.128685,0.6281586-1.8423576,1.0209656-1.8862228,1.0450897c-0.0549679,0.0280914-1.9241486,0.9726105-3.8180523,2.1824799   c-0.9596434,0.6136475-1.923007,1.2918549-2.6699829,1.9699402c-0.3736687,0.3402405-0.6944094,0.6796417-0.9363613,1.0292511   c-0.2382908,0.3492432-0.4150133,0.7163696-0.4190941,1.1395416l0.0025206,0.0816193   c0.0659485,1.1288605,0.4913435,1.9597321,0.897296,2.589325c0.4129734,0.628891,0.7684584,1.0917816,0.8363876,1.4322662   c0.1233158,0.5040741,0.4047518,0.8708344,0.6088982,1.1752014c0.1038132,0.1507263,0.1910648,0.2845459,0.2429113,0.389679   c0.0533466,0.1060944,0.0666084,0.1748657,0.0658884,0.2069092l-0.0377445,0.1033325   c-0.0373249,0.057373-0.1248159,0.1525421-0.2933779,0.2672729c-0.3257818,0.2225189-0.7114515,0.3356934-1.0786991,0.3353271   c-0.4129734-0.000473-0.7903614-0.1392212-1.061657-0.3995361c-0.0229225-0.0223236-0.0416451-0.0514832-0.0634279-0.0757294   c-0.0216026-0.0355225-0.0383444-0.0733185-0.0690689-0.1040497c-0.0121212-0.0121155-0.028204-0.0166779-0.0411654-0.027359   c-0.1753426-0.2514343-0.292057-0.5910797-0.2946978-1.0711365c0-0.2940369-0.2382908-0.5322723-0.5322084-0.5322723   s-0.5322084,0.2382355-0.5322084,0.5322723c-0.0018606,0.4661407,0.0925312,0.8840332,0.2525721,1.2488708   c-0.0152416,0.0033722-0.0217829,0.0081635-0.0378647,0.0110474c-0.2601938,0.0518494-0.6128588,0.0771637-1.0086699,0.0768127   c-0.8468895,0.000473-1.8904839-0.1105347-2.8069816-0.2238312c-0.4589391-0.0566559-0.8869143-0.1135406-1.2497211-0.1568604   c-0.3655071-0.0430908-0.6549845-0.074173-0.8848138-0.0750122c-0.2965584,0.0004883-0.5244079,0.0212402-0.6506639,0.0207672   c-0.0253234-0.1360931-0.0498667-0.4368591-0.0460858-0.9017944c0.0029402-0.6207275-0.1446791-1.0674286-0.2658346-1.3977051   c-0.1212754-0.3372498-0.2003658-0.5392303-0.202466-0.8945923c-0.0016203-0.4110565,0.1284165-1.0730591,0.6119587-2.2351685   c0.6226401-1.5101624,1.9491711-3.0631561,3.1225023-4.2098999c0.5861559-0.5749969,1.1326456-1.0518188,1.5309772-1.3833008   c0.1991653-0.165863,0.3612461-0.2953644,0.4728012-0.3828583c0.1114941-0.0874786,0.169281-0.1304474,0.169281-0.1304474   l0.0309649-0.0250854c0.0023994-0.0020447,0.9404411-0.817543,2.4292927-2.1067505   c2.5556087-2.2129669,6.7289066-5.8166733,10.5290165-9.0544434c0.0864716,0.5986328,0.273035,1.4259033,0.6918888,2.332016   c0.6477242,1.4089813,1.8834629,2.9822617,4.0906067,4.0093536c-0.4079933,0.2328339-0.8137646,0.4637451-1.211195,0.6891327   C24.5368881,125.4769821,22.9410419,126.3696518,21.7773724,127.0172577z M128.6333771,119.3391495   c-0.7794418-0.8719101-1.5304947-1.8840027-1.8041916-2.6019363c0.0025787-0.0362473,0.0070801-0.064209,0.0070801-0.1082535   c0.0117645-0.4582214-0.2181854-1.3398514-1.2537384-2.0545425c-0.7583237-0.5326309-2.0328217-1.2742081-2.9872513-1.815834   c-0.1467743-0.084137-0.2156677-0.2226334-0.2179413-0.3743286c0.0016174-0.1233749,0.0465622-0.2357101,0.1521759-0.3259659   l0.9534607-0.7697754c0.1737823-0.140419,0.2413559-0.3727722,0.1698837-0.5843582   c-0.0002975-0.0008392-0.1151581-0.3410797-0.2890549-0.8835526c-0.1356201-0.4228134-0.3068237-0.969368-0.4852829-1.565361   l1.2765427-0.5061035c0.2732773-0.1082535,0.4069748-0.4176559,0.2986603-0.6909332   c-0.1083145-0.2731552-0.4176559-0.4069672-0.6908722-0.2985992l-1.1822739,0.4686661   c-0.0657043-0.2328339-0.1315918-0.466507-0.1937027-0.6993332c-0.3255386-1.2065125-0.5779343-2.4031906-0.5725327-2.9406204   c-0.0013809-0.1166534,0.0147018-0.1937027,0.0159607-0.1939468l0.0140457-0.0260391   c0.0398407-0.0699692,0.2079239-0.2343903,0.4797592-0.3922119c0.8191071-0.4916992,2.4920044-0.9801636,4.3656845-0.9753647   c0.1421585,0,0.2892914,0.0139236,0.4336166,0.0195618c0.0596466,0.0190811,0.1224747,0.0313263,0.1887207,0.0278473   c0.0229263-0.0012054,0.0419464-0.0124817,0.0639114-0.016449c1.113327,0.0685349,2.2729034,0.3007584,3.3795166,0.7909088   c0.2687683,0.1189346,0.5831451-0.0025253,0.7021484-0.2712402c0.118927-0.2688293-0.0024567-0.5831528-0.2712402-0.7020874   c-1.1515503-0.5095901-2.3407745-0.7714615-3.4825439-0.8672333c-0.0587463-0.1857834-0.1416168-0.4019318-0.2864761-0.6531219   c-0.3571701-0.6221619-1.0399399-1.3782578-2.2712936-1.9920197l-0.2114105-0.0555649l-0.1033325-0.0019226   c-0.4362564,0.0003586-2.2484283,0.0717697-4.4111099,1.2096405c-0.2620544,0.1404114-0.622879,0.2513123-1.03405,0.335083   c0.0851517-0.1177368,0.3227234-0.3575287,0.6636276-0.6023636c0.5914307-0.4358902,1.4692841-0.9350357,2.408165-1.3145294   c0.9383469-0.3815231,1.9437714-0.6411209,2.7719421-0.6390762c0.262413,0,0.50634,0.025322,0.7249527,0.0763245   c0.4268341,0.098053,0.9931259,0.1547012,1.6858521,0.1931076c0.6908188,0.0374451,1.500679,0.0529251,2.3765488,0.0529251   c3.6667786-0.0001221,8.4953003-0.270874,10.2365417-0.3762512c-0.0077362,0.1473846-0.023468,0.2976456-0.023468,0.441658   c0.0039673,2.1803207,0.8102875,3.9590759,0.8240814,3.9967575c0.0100861,0.0223236,0.0284576,0.0372086,0.0411072,0.0573654   c0.003006,0.1968307,0.0273743,0.3910141,0.0682983,0.5823135c-0.1735535-0.0157166-0.3452301-0.0283203-0.5086365-0.0283203   c-1.5723114-0.0052795-2.6452484,0.7205734-3.2638702,1.4310608c-0.4363861,0.4961472-0.6723938,0.9757309-0.7821503,1.2378464   c-0.0778809,0.0361176-0.162262,0.0636063-0.2316895,0.1093292c-0.3947906,0.2599564-0.6553345,0.634407-0.8287659,1.0149689   c-0.1718597,0.3836899-0.2594757,0.7775803-0.2610321,1.1419525c0.0016174,0.2035446,0.0247192,0.4000092,0.1155243,0.602478   c0.1226501,0.2670288,0.4386444,0.3840485,0.7057495,0.2613907c0.2670288-0.1226578,0.3841095-0.4386597,0.2614441-0.7056885   l-0.000061-0.0001221l-0.0094147-0.038887l-0.0088196-0.1191711c-0.0040894-0.2427902,0.1026764-0.6514435,0.2927704-0.935524   c0.0935516-0.1440201,0.2033081-0.2580338,0.314209-0.3299179c0.1124573-0.0718918,0.220459-0.108139,0.3610687-0.1093369   c0.1903992-0.0003586,0.4748993,0.0778885,0.8653107,0.3754044c1.7173615,1.3234177,2.1273346,2.5164871,2.135376,3.4922104   c0.0007172,0.68853-0.2255707,1.2966537-0.4604492,1.7405853c-0.1170654,0.22155-0.2346802,0.4003754-0.3239136,0.5274734   l-0.0921783,0.1275711c-0.2775879,0.1562653-0.5324402,0.2261124-0.782196,0.2274323   c-0.5926361,0.0081635-1.2377167-0.3790131-1.7217407-0.8185043c-0.2412872-0.2161484-0.4407043-0.436615-0.5769806-0.6003189   l-0.1551819-0.1955032l-0.0380402-0.0516129l-0.0094147-0.0131989c-0.1242828-0.1797791-0.348114-0.2657166-0.5607147-0.2151871   l-1.4299927,0.3394012c-0.0089417,0.0016861-0.0177612-0.0004807-0.0267029,0.0016861   c-0.0117035,0.0027542-0.020813,0.0100784-0.0321655,0.0136795c-0.0527954,0.0163193-0.0932465,0.0340805-0.1216278,0.0513687   c-0.0046844,0.0028763-0.009964,0.0044403-0.0145874,0.0074387c0,0-0.0015564,0.0007172-0.0020294,0.0010757   c-0.0816803,0.0574875-0.1023865,0.0871353-0.1202698,0.1096954c-0.0022736,0.0027618-0.0046082,0.0051651-0.0067749,0.0080414   c-0.0010834,0.0013199-0.0028839,0.0036011-0.0039673,0.0047989l-0.0556793,0.0908585l-0.0151215,0.0342026l-0.0029449,0.0073166   c-0.0005951,0.001564,0.0001221,0.0032425-0.000473,0.0046844c-0.0021667,0.0059967-0.0038452,0.0117645-0.0058289,0.0177612   l-0.0013123-0.0004807c-0.0120697,0.0343246-0.1077118,0.2925949-0.5460663,1.4500275   c-0.2067413,0.5453491-0.2799377,1.0722198-0.2798157,1.5393219c0.0020905,0.8531876,0.2362976,1.5071487,0.3608856,1.7974701   c-0.2893066,2.775116-1.0361633,4.1316528-1.6657562,4.7768555c-0.4525757,0.4621811-0.8542175,0.5937119-1.0688629,0.6340408   C130.2245941,120.9965591,129.4250641,120.2321854,128.6333771,119.3391495z M139.8104706,111.9713974L139.8104706,111.9713974   v-0.0044403V111.9713974z M139.6110687,112.0153275L139.6110687,112.0153275l-0.0032349-0.0078049L139.6110687,112.0153275z    M133.7617645,111.1137695l-0.0014496-0.0004807L133.7617645,111.1137695L133.7617645,111.1137695z M133.7533569,111.1629715   L133.7533569,111.1629715l-0.006546-0.0014343L133.7533569,111.1629715z M139.4011688,131.2455292   c0.5460052,0.3133545,1.2978973,0.6087036,2.1908722,0.9355164c1.33638,0.487381,2.9785461,1.0314026,4.5688782,1.6805725   c0.8078156,0.3289642,1.6000977,0.6868439,2.3299713,1.0735321c-0.1002045,0.0765839-0.1768951,0.1854248-0.2024078,0.3192444   c-0.0550232,0.2887573,0.1345367,0.5674438,0.4233551,0.6225281l1.8493805,0.3522339   c0.0160217,0.0048065,0.0319214,0.0057678,0.0481873,0.0091248l1.4626923,0.2785645l-0.019928,0.1195374   c-0.1339264,0.22995-0.2488556,0.3653259-0.3190613,0.4163208c-0.0799866,0.0543671-0.1046448,0.06073-0.2069092,0.0651703   c-0.1330261,0.0042114-0.3909454-0.0604858-0.7439117-0.1481018c-0.3536224-0.0848389-0.8052979-0.1777344-1.3566589-0.1773834   c-0.5343628-0.000351-1.1600037,0.0868988-1.8886108,0.3301697c-1.2124634,0.4048157-2.6315918,0.5527954-4.0316925,0.5520782   c-1.9953766,0.000351-3.9463959-0.2953644-5.2369843-0.5106659c-0.3543549-0.0592957-0.7322845-0.0814972-1.1251526-0.0816193   c-0.8606873,0.0003662-1.7962646,0.1066895-2.66716,0.209671c-0.8681946,0.1038055-1.6772766,0.2034302-2.2279053,0.2023468   c-0.2042694,0.000351-0.3713837-0.0141602-0.4757996-0.03685l-0.0984802-0.0291595   c-0.0121765-0.0148773-0.0655823-0.1279449-0.0948639-0.3220062c-0.0350494-0.2071381-0.0533447-0.4904938-0.0530548-0.8186188   c-0.0018005-1.4398346,0.3384552-3.6968384,0.5467377-5.3534088c0.0453033-0.3647308,0.0634308-0.7761383,0.0635529-1.2220001   c-0.0018616-2.2063675-0.4480896-5.296524-0.6476135-6.5734863c1.3561249,0.7048492,3.5646362,1.5996857,6.1105347,1.671814   c0.0236359,0.3667679,0.0874939,1.2574005,0.206955,2.2500458c0.0782013,0.64785,0.1794891,1.33638,0.3113251,1.9543304   c0.1358643,0.6210785,0.2851563,1.1592407,0.5288544,1.5740051   C138.8326569,130.8857117,139.0899048,131.0603333,139.4011688,131.2455292z M151.8980713,35.2099915   c-0.1513367,0.0378036-0.2771759,0.1387367-0.3469086,0.2783165c-0.2770538,0.5664711-0.4756775,1.4439049-0.6768188,2.5722923   c-0.5869904,3.3586311-1.0156403,8.783329-1.2613068,11.2965736c-0.3092804,3.2305756-1.7615814,6.1549911-2.8482666,9.8143845   c-0.663147,2.2528114-1.3349304,6.6193352-1.3373871,10.7644234c0.00354,2.7226715,0.2840118,5.3342133,1.1156616,7.2177353   c0.8297272,1.8638382,1.181366,4.0890427,1.1805267,6.2800446c0.0018616,2.7616806-0.5595703,5.4712677-1.347229,7.3042603   c-0.2963715,0.6917725-0.8443146,1.2344818-1.5524597,1.6651001c-1.0583038,0.6454391-2.4559937,1.0023651-3.6319122,1.1808319   c-1.1762085,0.1804962-2.1297913,0.1908188-2.3160553,0.1907043l-0.0348663-0.0001221   c-0.2939758-0.0026398-0.5343628,0.233551-0.5369415,0.5274658c-0.0026398,0.2940369,0.233551,0.5344315,0.5275269,0.5370712   v-0.0001221l0.044281,0.0001221c0.1935883-0.0006027,0.9724274-0.0100784,1.9912415-0.1371765   c-0.0214233,0.0454865-0.0489655,0.0897675-0.0690765,0.135376c-0.3307648,0.0182419-0.9182892,0.0487289-1.6800995,0.0790863   c-1.2041016,0.0482483-2.8343353,0.0964966-4.5334015,0.0964966c-1.8803406,0.0002365-3.8482361-0.0597687-5.4008179-0.2403946   c-0.775177-0.0895309-1.4476242-0.2109833-1.9359055-0.3594437c-0.2436905-0.0734482-0.4406357-0.1543427-0.5749283-0.22995   c-0.1359177-0.0748901-0.2007904-0.1449814-0.2114716-0.1649017c-0.272377-0.4160919-0.6392593-1.330368-0.9141006-2.5802078   c-0.2782516-1.2529678-0.4792786-2.8539734-0.4791565-4.7030487c0.000061-3.0689163,0.5640106-6.8234787,2.2205276-10.8357162   c1.5275574,0.5331116,2.7273407,0.5836334,2.7618561,0.586998c0.1460571,0.0051575,0.2858124-0.0486069,0.3905334-0.1506195   c0.1047668-0.1020126,0.1623077-0.2402725,0.1608734-0.3864517c-0.0561066-5.6566925-0.1884766-9.824707-0.1883698-12.3222275   c-0.0014954-1.1538277,0.0320435-1.9654922,0.0982971-2.3274612c0.0463257-0.2726746,0.2171021-0.8003807,0.4684143-1.4281845   c0.7532196-1.896122,2.2280273-4.8136978,3.305954-6.4876747c0.7561493-1.1772308,2.4315796-4.1212082,4.0346832-7.0749092   c0.8006134-1.4755898,1.58078-2.9498596,2.214035-4.2001839c0.6342316-1.2539215,1.1171722-2.2685318,1.3413544-2.8820496   c0.4017487-1.1035423,0.7235107-1.7456245,1.0057373-2.2854538c0.2809601-0.5373116,0.5392303-0.9964905,0.7605286-1.6607742   c0.226532-0.6858902,0.4168243-1.7619476,0.5637817-2.6980667c0.0633087-0.407093,0.1158752-0.7789021,0.155899-1.074379   c0.1116791,0.2157879,0.2004242,0.4495773,0.2358856,0.6926079c0.1244049,0.7759018,0.5751801,1.535717,0.9830475,2.1533165   c0.2157898,0.3214035,0.4190369,0.590477,0.5682678,0.7802238c-1.0263062,1.9366875-2.6190948,5.723774-4.1291199,9.4136505   c-1.5864258,3.8797417-3.069046,7.6243439-3.5848083,8.7336464c-0.510849,1.1114616-0.7488403,2.6564217-0.8857117,4.0860443   c-0.1330414,1.4259033-0.1483459,2.7223129-0.1484528,3.2595024c0,0.1017723,0.000473,0.1647797,0.000946,0.2076263   c-0.1516876,0.8368683-2.298233,12.6718292-2.6990814,15.8731232c-0.1918488,1.5492783-0.8297272,3.2994614-1.4234467,4.6445999   c-0.2964935,0.6732864-0.5809937,1.2474365-0.7906036,1.6515274c-0.1048279,0.2019882-0.1908722,0.3616104-0.250351,0.469986   c-0.0594635,0.1083755-0.0906677,0.1626205-0.0906677,0.1626205c-0.1465912,0.2549133-0.0586853,0.5802765,0.196228,0.7268143   c0.2548523,0.1465378,0.5802155,0.0585632,0.7267456-0.196228l-0.000061-0.0001221   c0.0063629-0.0112762,0.5673828-0.9880829,1.1828766-2.3856659c0.6147156-1.3996201,1.2877045-3.2134094,1.5055389-4.9413986   c0.2009583-1.6104813,0.8775482-5.5912781,1.5015717-9.1503372c0.3121643-1.7810287,0.6116638-3.4599228,0.8330231-4.6935616   c0.2213745-1.2335205,0.3642578-2.0193825,0.3646088-2.0214195l0.0085297-0.1039352c0,0-0.0013885-0.0848503-0.0013885-0.2436295   c-0.0001221-0.5158272,0.0153656-1.7860718,0.1438446-3.1606102c0.1246338-1.3708153,0.3789978-2.8600883,0.7912598-3.7366791   c0.5493011-1.1847954,2.0162048-4.8957901,3.604599-8.7790108c1.5826416-3.8725395,3.2906494-7.9179001,4.2427826-9.620079   c0.1088562-0.1951447,0.0847321-0.4362564-0.0606537-0.6058388l-0.056839-0.0680504   c-0.1335144-0.1620178-0.480835-0.5980339-0.805603-1.1101418c-0.3267975-0.5075455-0.6210175-1.1093025-0.6744232-1.5037918   c-0.1152191-0.7528591-0.4930878-1.3482552-0.8275604-1.762188c-0.2853394-0.3505669-0.5361176-0.5649128-0.6225281-0.6354828   c-0.0257416-0.0268841-0.1380768-0.1491795-0.2417145-0.316c-0.1126862-0.175703-0.1938171-0.3893299-0.189743-0.5272293   c0.0053406-0.1089725,0.0189056-0.1758213,0.1336365-0.2977581c0.3227234-0.3166008,0.6307983-0.3940105,0.9546051-0.3990517   c0.2815552-0.0008392,0.5606537,0.0778904,0.7554474,0.1519413c0.163147,0.061327,0.3463593,0.0388832,0.4898376-0.0601292   l0.5763702-0.39785c0.3028564,0.3641262,0.8592529,0.7076111,1.6413879,0.6992092   c0.6737671-0.00144,1.5007324-0.2285099,2.5571136-0.7798595c0.1981506,0.103693,0.4235382,0.1920242,0.7111511,0.2538319   c0.7599335,0.1602211,1.3827057,0.1027336,1.7977753,0.1237354c0.2085266,0.008522,0.3567963,0.034565,0.4598999,0.0778904   c0.0281982,0.0123615,0.0524445,0.0306034,0.0780029,0.0459652c-0.081192,0.2059479-0.1674194,0.4723816-0.169342,0.793663   c0,0.1775036,0.0290527,0.3744488,0.1163025,0.5691128c0.0859833,0.1944256,0.2343903,0.3796101,0.4295349,0.5159473   c0.4147034,0.2918777,0.8500061,0.5331078,1.1641541,0.6951294c-0.0796967,0.1560192-0.1411438,0.3368835-0.1402435,0.5419903   c-0.0004883,0.2747154,0.0934296,0.5567513,0.2651672,0.825346c0.0957794,0.1500206,0.2219696,0.2999191,0.3686981,0.4517365   c-0.0683594,0.3284836-0.2982483,0.6694489-0.6699982,0.9936104c-0.5703125,0.5022621-1.4302216,0.9203987-2.1385498,1.1930733   c-0.3543396,0.1375389-0.6711273,0.2413521-0.8973541,0.3101196c-0.1131134,0.0343246-0.2036591,0.060009-0.2649384,0.0768089   L151.8980713,35.2099915z M157.1555939,34.5299835l-0.0282745,0.0270042   c-0.0829163,0.0758476-0.3754578,0.2055855-0.7510529,0.2911568c-0.378952,0.0919304-0.8368683,0.1549416-1.2983246,0.200428   c0.3194885-0.1890259,0.6312256-0.3966522,0.9115753-0.6411247c0.4172974-0.3656883,0.7685852-0.8167038,0.9430847-1.3606148   c0.0658875-0.0325241,0.1268005-0.0770493,0.1764221-0.1375389c0.186142-0.2274284,0.1527252-0.5627518-0.074646-0.7488937   c-0.2867126-0.234272-0.4572601-0.4301376-0.5460663-0.5707951c-0.0896606-0.142458-0.0984802-0.2190285-0.0989532-0.2541924   l0.0259094-0.0823307l0.0494537-0.0432053l1.1550293,1.2439613c-0.0026398,0.2042656-0.0171661,0.5488281-0.0774689,0.9242363   C157.4766388,33.8035316,157.3428192,34.2550278,157.1555939,34.5299835z"/><polygon points="130.3439636,122.7237015 130.3439636,122.723587 130.3439636,122.723587  "/></g></svg>