<svg xmlns="http://www.w3.org/2000/svg" xmlns:xlink="http://www.w3.org/1999/xlink" version="1.1" x="0px" y="0px" viewBox="-0.612 29.065 160.333 103.128" style="enable-background:new 0 0 161.5 162.6999969;" xml:space="preserve"><g><g><path d="M128.4849854,88.8967133c-0.4083252,0.0002441-0.6619873,0.1278687-0.7098999,0.1538696    c-0.2235107,0.1218262-0.3058472,0.4016113-0.184021,0.6251221c0.119751,0.2196045,0.3918457,0.3009033,0.6134033,0.1878052    l0.0007935,0.00177l0.0018921-0.0007935c0.0170288-0.0071411,0.1154785-0.0466309,0.277832-0.0466309    c0.2120361,0.0020752,0.5421143,0.0596313,0.9956665,0.3972778c0.2034912,0.1526489,0.4922485,0.1113892,0.6448975-0.0922241    c0.1526489-0.2033691,0.1114502-0.4920654-0.092041-0.6447144    C129.4432373,89.0327606,128.8927002,88.8946381,128.4849854,88.8967133z"/><polygon points="23.9393311,110.0861053 23.9394531,110.0861053 23.9400635,110.0858612   "/><path d="M156.6378174,125.1777802c-0.00177-0.2158203-0.0613403-0.352417-0.0749512-0.3873291    c-0.0545654-0.1271362-0.1618042-0.222168-0.2946167-0.2606812c-0.0012817-0.0002441-4.2150879-1.2261963-5.6019287-1.6115112    c-0.3967285-0.1090698-0.986084-0.1982422-1.6802979-0.2828369c-0.75354-0.0912476-1.6200562-0.1717529-2.4190063-0.2377319    c0.0352783-0.0296021,0.0612183-0.0524902,0.0665283-0.057373c0.1331177-0.1240845,0.1809082-0.3164673,0.1210327-0.4884644    c-0.0598145-0.1719971-0.2166748-0.293335-0.3982544-0.3078613c-0.0067749-0.0002441-2.5888672-0.2078857-5.2122192-0.2078857    c-0.5593262,0-1.1207275,0.0093994-1.6606445,0.0325928h0.0019531c-0.1257935,0.0048218-0.2449341,0.0073853-0.357605,0.0073853    c-1.1613159-0.0004883-1.6473999-0.2680664-1.8358154-0.4436646c-0.0966797-0.0899658-0.1311646-0.1625366-0.1481323-0.2076416    l-0.0117188-0.0428467l-0.0008545,0.0002441l-0.0027466-0.0410156c-0.048645-0.3508911-0.0756836-1.1563721-0.0790405-2.229187    c0.2438354-0.0344238,0.4585571-0.1190186,0.6332397-0.2377319c0.4096069,0.048645,2.1149292,0.2415771,3.6356812,0.2420654    c0.6365967-0.0004883,1.2385254-0.0321045,1.730835-0.1337891c0.2471924-0.0527344,0.4685059-0.1192627,0.670166-0.2364502    c0.1003418-0.0593872,0.1975098-0.1333008,0.2811279-0.2354736c0.083313-0.1011963,0.149292-0.2357178,0.170105-0.3807373    c0.0354004-0.2392578-0.1201172-0.4655762-0.3563843-0.5175171l-0.77771-0.1717529    c0.0672607-0.1090698,0.1143188-0.2168579,0.1436157-0.3103638c0.0635376-0.2023315,0.0647583-0.3504028,0.0652466-0.3822632    c0-0.223999-0.1621704-0.416626-0.3829346-0.4543457l-5.769104-0.9877319    c0.1275635-6.0757446,0.4945068-14.7988892,0.6260986-18.2181396c0.0181885-0.4747314,0.0269775-0.8982544,0.0269775-1.28125    c0.003418-1.8795776-0.222168-2.8175659-0.5488892-3.8636475c-0.322876-1.0442505-0.7390137-2.21698-1.1804199-4.8005981    c-0.6004639-3.5229492-1.4213867-8.2947998-1.9666138-11.4592285c0.3587036-0.2685547,0.6835327-0.5493774,0.9803467-0.8342896    c0.0317383,0.0300903,0.0614624,0.0621948,0.1019897,0.0838623v-0.0003052    c0.0409546,0.0194092,0.9592896,0.510437,2.2478027,0.5137329c1.0568848,0.0056152,2.3782959-0.3602905,3.5192261-1.590332    c1.012146-1.0942383,1.5137329-2.7421875,1.5175171-4.4346924c-0.0008545-1.3468018-0.3245239-2.7315063-1.0369263-3.8947754    c-0.7092285-1.1617432-1.8304443-2.0969238-3.3519287-2.4659424c-0.0006104-0.0002441-0.0012207,0-0.0018311,0    c-0.5117798-1.3931274-1.3859253-2.8547974-2.7880249-4.2883911c-0.2423706-1.3625488-0.6558228-2.446106-1.0529175-3.2312012    c-0.2927856-0.5797119-0.4424438-1.2183228-0.4424438-1.8622437c0-0.2487183,0.0223389-0.4979248,0.0673218-0.7446289    c0.0566406-0.3121338,0.0932617-0.666626,0.0932007-1.0613403c0.0006714-1.1056519-0.288147-2.5255737-1.1971436-4.2084351    c-1.1514282-2.1313477-2.8085327-3.7667847-4.1761475-4.87677c-1.2398682-1.0053101-2.2363281-1.5740967-2.4277344-1.6801147    c-0.2671509-0.2186279-2.2472534-1.8323975-4.475647-3.4528198c-1.1976929-0.8710327-2.465271-1.743042-3.5856934-2.4047852    c-0.5519409-0.3259277-1.0664673-0.5996094-1.5292969-0.8001709c-0.0073853-0.0040894-0.0118408-0.0109253-0.0195313-0.0147705    v-0.0002441c-0.0464478-0.0224609-3.2844849-1.5860596-8.8814697-1.5860596    c-1.4249268-0.0002441-3.0028076,0.1014404-4.7185669,0.3555298c-0.1716919,0.0150146-3.7822266,0.3562012-9.0001221,2.7462158    c-5.312439,2.4330444-12.2804565,6.9938965-18.9334106,15.4797974c-0.1171875,0.1261597-1.7900391,1.9267578-3.7299194,4.1592407    c-2.0120239,2.3171387-4.2981567,5.0765991-5.4473267,6.9485474c-1.0189819,1.6576538-2.3705444,4.1480713-2.3669434,7.9054565    c-0.0001221,2.416748,0.5533447,5.350769,2.065979,8.9326172l0.0049438,0.0145264    c0.0807495,0.2316284,0.7539063,2.3196411,0.75,4.0894165c0,0.3592529-0.0057983,0.9553223-0.0057983,1.7271729    c0.0012207,3.4780884,0.1136475,10.5280762,1.4086914,16.291687c0.6015015,2.6733398,1.1246948,4.9700928,1.5263672,6.8919678    c-0.7271729-0.1748047-1.973938-0.4597168-3.4857788-0.7451172c-2.4273682-0.4573975-5.5323486-0.9171143-8.2832642-0.9176025    c-0.9675903,0-1.892334,0.0563354-2.7340698,0.1949463c-2.9858398,0.4885254-6.8071289,1.012146-10.3399048,1.4130249    c-3.5304565,0.401062-6.7842407,0.6785889-8.5971069,0.6780396c-0.3567505,0-0.6566772-0.0111694-0.8833618-0.0321045    c-0.2232056-0.0188599-0.3828125-0.0578003-0.4076538-0.071106c-0.277771-0.117981-0.7491455-0.3921509-1.2943726-0.7285156    c-0.8228149-0.5063477-1.8320313-1.1563721-2.8009033-1.6861572c-0.4851685-0.2650146-0.9603271-0.5004883-1.4067383-0.6742554    c-0.4477539-0.1723022-0.8626709-0.2894897-1.2645264-0.2915649c-0.0536499,0-0.1109619,0.0089111-0.1669922,0.0142822    c-0.0579834-0.0096436-0.1327515-0.0186157-0.2351074-0.0183105c-0.3353882-0.0012817-0.8936157,0.1008911-1.5837402,0.5496216    c-0.6915894,0.4484863-1.519165,1.2359009-2.4441528,2.6099243c-1.0714722,1.5980225-2.8789673,2.8953247-4.4204712,3.7711182    c-0.7702026,0.4388428-1.4724731,0.7752075-1.9801025,1.0004883c-0.2538452,0.1126099-0.4589844,0.1976929-0.5996704,0.2542725    c-0.0703735,0.0280762-0.1246338,0.0491943-0.1607666,0.0632324l-0.0366821,0.0137329    c-0.1322632,0.0361938-0.8174438,0.2354736-1.6972656,0.7301025c-0.920166,0.5177612-2.0478516,1.3656006-2.9331665,2.6845703    c-0.1712646,0.0366821-0.4319458,0.1016846-0.7067261,0.2053833c-0.2315063,0.0891724-0.4733887,0.2020874-0.6890869,0.3771362    c-0.1072998,0.0884399-0.2094727,0.194397-0.2897339,0.3302612c-0.0484009,0.081543-0.081665,0.1773071-0.1047363,0.2782593    c-0.354187,0.1309814-0.6340942,0.2876587-0.8562012,0.4678345c-0.2235718,0.1819458-0.3834229,0.3911743-0.4812622,0.6047363    c-0.0985718,0.213501-0.1340942,0.4273071-0.1337891,0.6130981c0.0015259,0.1712036,0.0308228,0.3103638,0.0648193,0.4301147    c-0.2163086,0.100647-0.4234619,0.2005615-0.6187744,0.3004761c-0.3843994,0.1967163-0.7249146,0.3919067-1.0119629,0.5927124    c-0.2866211,0.2020874-0.522583,0.4049072-0.6943359,0.6517944c-0.000061,0-0.000061,0-0.000061,0.0003052    c-0.0837402-0.0135498-0.1675415-0.0318604-0.2508545-0.0313721c-0.3555298,0-0.6875,0.1251221-0.958252,0.3317871    c-0.2505493-0.1429443-0.496582-0.225769-0.7479248-0.2275391c-0.1762085-0.0007935-0.3475952,0.0427856-0.4918823,0.1171875    c-0.2550659,0.1322632-0.4197998,0.3378906-0.5355225,0.5397339c-0.1725464,0.3057861-0.2518921,0.6276245-0.3001709,0.8817139    c-0.046814,0.2532959-0.0567017,0.4377441-0.0574951,0.4515381c-0.001709,0.0310669,0.008667,0.0585938,0.0130005,0.0881348    c-0.052124,0.1226196-0.0874023,0.2584229-0.0869751,0.4013672c-0.000061,0.168457,0.0401001,0.3381348,0.1118164,0.5020142    c0.1309204,0.2947998,0.3687744,0.4833984,0.6166382,0.6138916c0.3768921,0.1954346,0.8193359,0.2902222,1.2809448,0.3513794    c0.4606934,0.0591431,0.9383545,0.0767212,1.3592529,0.0767212c0.5172729,0,0.9462891-0.0267944,1.1400146-0.0410767    c0.0109253,0.0023193,0.0213013,0.005127,0.0322876,0.0074463c0.7636719,0.1528931,1.5811157,0.2359619,2.3417358,0.3095703    h0.0003662c1.2120361,0.1162109,4.9646606,0.367981,8.4693604,0.3682251c1.2208862,0,2.4107056-0.0303345,3.4554443-0.1088257    c1.0463257-0.0797119,1.9414673-0.2025757,2.607666-0.4084473c1.4282837-0.4449463,3.2581177-0.791748,4.7219238-1.0231323    c0.7323608-0.1159668,1.3742676-0.2038574,1.8323975-0.2624512c0.2290649-0.0292969,0.4121704-0.0512085,0.5376587-0.06604    c0.1255493-0.0147705,0.1920166-0.0219116,0.1922607-0.0219116l0.0134888-0.0015259    c0.8480835-0.1171875,1.8908691-0.1689453,3.0576782-0.1689453c3.6293335-0.0004883,8.451355,0.5002441,12.628418,1.0119019    c2.0892944,0.2556152,4.0186768,0.5139771,5.5640869,0.7132568c1.5494385,0.1992798,2.6973267,0.3399658,3.286377,0.361084    c1.2529297,0.043335,4.3217163,0.1957397,7.3770142,0.3371582c3.0588379,0.1414185,6.0965576,0.2719116,7.338501,0.2721558    c2.3068237-0.0023193,4.8458252-0.4469604,7.2921143-0.4451904c0.203186,0,0.4058228,0.0032959,0.6077881,0.0099487    l0.0032349,0.0002441c0.1188965,0.0030518,0.2364502,0.0053711,0.3531494,0.0053711    c2.5396118,0.0058594,3.4907837-0.9346924,3.565918-1.0256958l0.0219727-0.026001    c0.8453979-1.0860596,1.5866089-2.8017578,2.2785034-4.9272461c2.0621948-6.3660278,3.5756836-16.4000244,4.1670532-22.8878174    c0.1072388-1.1811523,0.1517334-2.5531006,0.1517944-4.039978c-0.0001221-3.9900513-0.3212891-8.8123779-0.6417236-12.8974609    c-0.1602783-2.0421753-0.3204346-3.899292-0.4403687-5.3721924c-0.1200562-1.4692993-0.1992188-2.5691528-0.1985474-3.0430908    c-0.0010376-1.1296387,0.3266602-2.2070313,0.659729-2.9959717c0.1660767-0.3944702,0.3325195-0.7168579,0.4560547-0.9382935    c0.0617676-0.1105957,0.112793-0.196228,0.1477051-0.2527466l0.0392456-0.0627441    c0.8065186-0.9464111,1.9244995-2.5181274,2.8563232-3.8720093c0.7949829-1.1553955,1.4429932-2.1375122,1.6248169-2.4142456    c0.2242432-0.140625,0.8881226-0.5608521,1.6140747-1.0536499c0.4450073-0.3022461,0.9100952-0.6294556,1.3088989-0.93573    c0.199646-0.1534424,0.3825684-0.3014526,0.5404663-0.4413452c0.1582642-0.1409302,0.2904053-0.2698975,0.3973999-0.4064941    c0.0855103-0.1133423,0.274292-0.2578735,0.5142212-0.3811646c0.3592529-0.1885986,0.8208618-0.3391724,1.1852417-0.435791    c0.1824341-0.0488892,0.3411865-0.085083,0.453064-0.1085205c0.0335083-0.0071411,0.0532837-0.0109863,0.0778198-0.0158081    c0.0161133,0.0076294,0.0340576,0.0175781,0.0576782,0.0349121c0.0892944,0.0637207,0.2237549,0.2280884,0.3640137,0.4678345    c0.2139282,0.3590698,0.4490356,0.871521,0.7505493,1.418396c0.3026733,0.5473022,0.6757202,1.1339111,1.1919556,1.6506958    c0.5230713,0.5206299,1.2305298,0.8778687,2.0140381,1.1151123c0.7844238,0.2362671,1.6497803,0.3501587,2.5037842,0.3504028    c1.0388184-0.0010376,2.0593872-0.1669312,2.901001-0.5183105c0.5841064-0.2451172,1.8257446-0.7191162,2.9125977-1.1281128    c0.5339355-0.2010498,1.0303345-0.3862915,1.3991699-0.5233765c0.0310059,0.4533081,0.111084,1.0098267,0.2192383,1.6321411    c0.354248,2.0233154,1.001709,4.642395,1.1859741,5.3752441l-0.7160034,1.0338135l-0.0372314,0.064209    c-0.0639648,0.1343384-0.0940552,0.2775269-0.0940552,0.4171753c-0.0005493,0.3016968,0.1470947,0.5873413,0.3951416,0.7736206    c-0.0081177,0.0499878-0.0129395,0.1014404-0.00354,0.1541748c0.0005493,0.0028076,0.5563354,3.126709,1.2081909,6.6065674    c0.3261108,1.7407227,0.6761475,3.5701294,0.993042,5.1439209c0.3174438,1.5753174,0.5994873,2.8878784,0.7975464,3.621521    c0.0864258,0.3180542,0.1884766,0.8735352,0.2975464,1.5932007c0.3845825,2.527832,0.8812866,7.1157227,1.6083984,11.965271    c0.7280273,4.8488159,1.6817017,9.958252,3.008667,13.607605c0.005249,0.0158081,0.3508911,1.0615845,0.7553711,2.1547852    c0.2037354,0.5507202,0.4216919,1.1118164,0.6218872,1.565918c0.1005249,0.2277832,0.1958618,0.4278564,0.2883911,0.5939941    c0.0466309,0.083313,0.0921631,0.1582642,0.1426392,0.2283325c0.0525513,0.0700684,0.1020508,0.1360474,0.2020264,0.2094727    c0.713623,0.5027466,1.5921021,0.7687988,2.4415283,0.9234619c0.8497925,0.1531372,1.6744385,0.1888428,2.2790527,0.1888428    c0.2166748,0,0.4044189-0.0045776,0.5550537-0.010437c0.3239136,2.5026245,0.5900269,4.4535522,0.7467041,5.3482056    l0.0079956,0.0367432c0.0095215,0.0336304,0.1376343,0.5210571,0.5269775,1.085022    c0.3864136,0.5618896,1.0567017,1.2075806,2.1070557,1.4690552c0.5020752,0.1246338,1.3320313,0.2525024,2.3253174,0.3834839    c2.8671265,0.3764038,7.0128174,0.7496948,7.3007813,0.7754517c0.0577393,0.0119629,0.2824707,0.0588379,0.6347046,0.1345215    c1.2188721,0.260437,3.840332,0.8381348,5.1264038,1.2300415c0.385376,0.1164551,0.7098389,0.1697388,0.9946289,0.1699829    c0.2833862,0.0005493,0.5289917-0.0547485,0.7303467-0.1569824c0.3052979-0.1526489,0.4786377-0.4071655,0.5534668-0.6039429    c0.0775146-0.1995239,0.0789795-0.3488159,0.0797119-0.3862915c0-0.1865234-0.1120605-0.3544312-0.2842407-0.4257813    l-0.1613159-0.0667725c1.6455688,0.272644,2.8401489,0.3809204,3.710144,0.3814697    c0.8538818-0.0023193,1.40271-0.0968628,1.8025513-0.2890015c0.1984863-0.0970459,0.3626709-0.2272949,0.4746704-0.3921509    c0.112915-0.1638794,0.1602783-0.3544922,0.1588745-0.5160522c-0.0020142-0.2372437-0.0802002-0.414856-0.1462402-0.5391846    c-0.0566406-0.1036987-0.1036377-0.1633301-0.1280518-0.1934204c0.1275024-0.1029053,0.2260742-0.2303467,0.2821045-0.3600464    C156.6195679,125.4227142,156.6378784,125.2883759,156.6378174,125.1777802z M142.0999146,116.3981171    c-0.0493164,0.0254517-0.1149902,0.0478516-0.2109375,0.0634155c-0.0160522,0.0023193-0.0285645,0.0119629-0.0439453,0.0158081    l-2.4694824-0.5455933L142.0999146,116.3981171z M142.0722046,117.4711761    c-0.237793,0.0145264-0.487854,0.0239258-0.7537842,0.0239258c-0.8260498,0-1.7334595-0.0614014-2.4304199-0.1230469    c-0.2263794-0.0201416-0.4274292-0.0400391-0.6000366-0.0578613c0.0018921-0.0064087,0.005188-0.0137939,0.007019-0.0198975    c0.0764771-0.2685547,0.0765991-0.4703979,0.0771484-0.4981689c0-0.0565796-0.0107422-0.1105957-0.0296021-0.1610718    c0.0194702,0.0071411,0.0352173,0.0201416,0.0559692,0.0247192L142.0722046,117.4711761z M137.0754395,115.5378265    l1.3197632,0.2260132c-0.1676025,0.0390015-0.3078003,0.1671753-0.3473511,0.3465576    c-0.0203857,0.0922241-0.0037842,0.1809082,0.0281372,0.2626953c-0.0328369-0.0126953-0.0645142-0.0282593-0.100708-0.0333862    l-0.9105835-0.1273804C137.0678101,115.9926605,137.0714111,115.7676239,137.0754395,115.5378265z M137.053772,117.1411591    l0.2947998,0.0412598c-0.0238037,0.0494385-0.0471802,0.1004028-0.0800781,0.1383667    c-0.045105,0.0530396-0.095459,0.0947876-0.166687,0.1281738c-0.0140381,0.0064087-0.0344238,0.0107422-0.0504761,0.0163574    C137.052002,117.3590546,137.0527954,117.2512665,137.053772,117.1411591z M3.7901001,122.4200897    c0.0640869-0.0611572,0.0803833-0.0667725,0.1403198-0.0708618c0.0355225-0.0012207,0.1050415,0.0122681,0.2034912,0.0571289    c-0.0183716,0.0519409-0.0348511,0.1047363-0.0482178,0.1589966c-0.1201172,0.022644-0.2741699,0.057312-0.4432983,0.1108398    C3.6889648,122.5658417,3.7421875,122.4695282,3.7901001,122.4200897z M4.2138672,124.3978119    c-0.2416382-0.0494385-0.4490967-0.1174927-0.5856323-0.1898804c-0.1401367-0.0731201-0.19104-0.140625-0.2007446-0.1674194    c-0.0296631-0.0680542-0.0346069-0.1098022-0.034668-0.1327515l0.012085-0.0514526    c0.0135498-0.0298462,0.0651245-0.0897217,0.1627808-0.1488647c0.142395-0.0891724,0.3643188-0.1638184,0.5446777-0.2058716    c0.0083008,0.0290527,0.0119629,0.0576172,0.0216064,0.0866699c0.1182861,0.3572388,0.3381958,0.651062,0.6082764,0.8872681    C4.5575562,124.4556122,4.3771362,124.4316864,4.2138672,124.3978119z M52.6936646,124.8641205    c-0.0477905-0.0061035-0.0924683-0.0117188-0.1409912-0.0180664c-4.6309204-0.5965576-12.7510986-1.7315674-18.3103638-1.732605    c-1.1885376,0-2.2611694,0.0515137-3.1699829,0.1755981c-0.005188,0.0004883-1.1205444,0.1207886-2.607605,0.3562622    c-1.4880981,0.2362061-3.3440552,0.585083-4.8514404,1.0534058c-0.5392456,0.1689453-1.3942871,0.2946167-2.4031982,0.3695068    c-1.010498,0.0759277-2.1811523,0.1065063-3.3862915,0.1065063c-3.4584351,0.0003052-7.2098389-0.2514648-8.3813477-0.3641357    h0.0003662c-0.7474976-0.0715942-1.5300903-0.1544189-2.2263184-0.2919922    c-0.0318604-0.0125122-0.0654297-0.017334-0.1000977-0.0224609c-0.204895-0.0425415-0.4050293-0.0884399-0.5900879-0.1424561    c-0.4178467-0.1207886-0.7736206-0.2741699-1.0292969-0.4533081c-0.2574463-0.1811523-0.4108887-0.3723145-0.4888916-0.6034546    c-0.0393066-0.1182251-0.0552979-0.2254639-0.0552979-0.3223267c0.0006104-0.1279297,0.0308228-0.2405396,0.0786743-0.3391724    c0.0331421-0.0239258,0.067749-0.0455933,0.0945435-0.0789795c0.03479-0.043335,0.0565186-0.09198,0.0733032-0.1419678    c0.1218262-0.1062622,0.2757568-0.168396,0.4372559-0.1694336c0.2130737,0.00354,0.4608765,0.0930176,0.7183838,0.4298706    c0.1524048,0.2036133,0.4411011,0.2451782,0.6447754,0.0927734c0.2037354-0.1524048,0.2453003-0.4411011,0.0928955-0.6447144    c-0.1043091-0.1414185-0.2206421-0.2614746-0.3434448-0.3656616c0.0848999-0.0879517,0.2044678-0.1908569,0.3609619-0.2991943    c0.4125366-0.2897339,1.0449219-0.6159058,1.7930298-0.9505005c1.1236572-0.5037842,2.5112915-1.0345459,3.8770752-1.5750122    c1.3668213-0.5412598,2.7107544-1.0909424,3.7698975-1.6495361c1.6723022-0.885498,2.7301025-2.2515869,3.8062134-3.473999    c1.0800781-1.2305298,2.156311-2.3158569,3.8562012-2.8428345l0.0007324-0.0002441    c0.3434448-0.1069946,0.6528931-0.1516113,0.9368896-0.1518555c0.6017456,0.0015259,1.0985107,0.1995239,1.5618286,0.5280151    c0.6928101,0.491272,1.2719116,1.2919312,1.7801514,2.0383301c0.2556152,0.3730469,0.4943848,0.7310791,0.7400513,1.0355835    c0.2486572,0.3016968,0.494751,0.5651855,0.8485718,0.7127686l0.0018311,0.0007324    c0.1053467,0.0405273,0.1992188,0.0588989,0.3101807,0.0767212c0.3260498,0.0491943,0.796814,0.0670166,1.4232178,0.0675049    c2.382019-0.0002441,6.9316406-0.291748,11.5437622-0.7127075c3.9560547-0.3616333,7.9382324-0.8167114,10.6295776-1.270813    c-1.2181396,2.5446777-1.5216064,5.5339966-1.5241699,7.9199219    C52.465332,122.8102264,52.5998535,124.1335297,52.6936646,124.8641205z M54.8984985,112.1888885    c-2.5452271,0.50354-7.1112061,1.0427246-11.6225586,1.4545288c-4.5911865,0.4197388-9.1420898,0.7094727-11.4598999,0.7091675    c-0.4025269,0-0.7369995-0.0091553-0.984436-0.0264893c-0.1234741-0.0083618-0.2252808-0.0193481-0.2988281-0.0305786    l-0.0860596-0.0160522l-0.0219727-0.0058594l-0.0024414-0.0007324c-0.0552368-0.0206299-0.1583252-0.0897217-0.2789307-0.2145996    c-0.2143555-0.2175903-0.4744873-0.5873413-0.763855-1.0123901c-0.4376221-0.638855-0.9487305-1.4058838-1.6209717-2.0337524    c-0.6676025-0.6260986-1.5330811-1.1212158-2.6083374-1.1192017c-0.381958-0.0002441-0.7865601,0.0611572-1.2107544,0.1931763    c-1.9528809,0.6039429-3.1815186,1.8668213-4.2758179,3.1152344c-1.0983887,1.2565308-2.0845947,2.4998169-3.5435791,3.2670898    c-1.5192871,0.8029175-3.7927856,1.6410522-5.8058472,2.4475708c-0.4294434,0.1725464-0.8430786,0.3432617-1.2406616,0.5130005    c-0.0014038-0.0163574-0.0046387-0.0324097-0.0043335-0.0491943c0.0003052-0.0734253,0.0125732-0.1470337,0.0493774-0.2278442    c0.0560303-0.1187134,0.1706543-0.2719116,0.4698486-0.4370117c0.2976685-0.1635742,0.77771-0.3251343,1.5046387-0.4263306    c0.2518921-0.0354004,0.4276123-0.2680664,0.392395-0.5200806c-0.0168457-0.1203003-0.0807495-0.2214355-0.168396-0.2922974    c0.0239868-0.006897,0.0491943-0.0147705,0.0720825-0.020874c0.1069336-0.0285645,0.2010498-0.0494385,0.2669678-0.0629272    l0.0759277-0.0145264l0.0223999-0.0038452c0.1300049-0.020874,0.2457886-0.0971069,0.3162842-0.2081909    c0.7954712-1.2550049,1.8569946-2.0571899,2.7234497-2.5444336c0.4326782-0.2433472,0.8153076-0.4074707,1.0863647-0.5096436    c0.135498-0.0509644,0.243103-0.0866089,0.3151245-0.1088257l0.0803223-0.0239258l0.0182495-0.005127l0.0028076-0.0007324    l0.0445557-0.0137939c0.0159302-0.0061035,1.3245239-0.4864502,2.9315796-1.4022827    c1.6060791-0.9181519,3.5169678-2.2628174,4.7286987-4.0570679c0.8739014-1.2990723,1.6225586-1.9899292,2.1807251-2.3510132    c0.5596313-0.361084,0.9248047-0.4005737,1.0827026-0.4018555l0.0827026,0.0053711l0.0064697,0.0010376l0.0006104-0.0033569    c0.0651245,0.0166016,0.1325073,0.0219116,0.1987305,0.0097046c0.0262451-0.0048218,0.0645142-0.008667,0.1135864-0.008667    c0.2770996-0.0048218,0.7764893,0.1422119,1.3374634,0.4018555c0.8474731,0.3860474,1.8562012,0.9979248,2.7719116,1.5671997    c0.4585571,0.2848511,0.8949585,0.559082,1.2832031,0.791748c0.3896484,0.232605,0.7259521,0.4224854,1.0114746,0.5455322    l0.0012817,0.0005493c0.2020874,0.0828247,0.411438,0.1136475,0.6837158,0.1408691    c0.2697754,0.0250244,0.5928345,0.0359497,0.9685059,0.0359497c1.8942261-0.0004883,5.1503296-0.281311,8.7009888-0.6837158    c3.5482788-0.402832,7.3793945-0.9277954,10.3851929-1.4193115c0.3725586-0.0614624,0.7702026-0.1052856,1.1851807-0.1350708    c-0.9672852,1.5831909-1.1880493,3.0910034-1.1870117,4.1026611    C54.8093872,111.5923309,54.859436,111.969223,54.8984985,112.1888885z M58.8035889,111.8290863    c-1.0290527,0-2.0393066,0.0614014-2.9969482,0.2023315c0,0,5.7851563-2.2050171,14.2069092,1.3859863    C68.3916626,113.0023041,63.4197998,111.8311005,58.8035889,111.8290863z M99.4449463,56.8397675l-0.0358887,0.0005493    c-0.0128174,0.0025024-0.5286865,0.09198-1.1381836,0.2871704c-0.3051147,0.0980835-0.6338501,0.222168-0.94104,0.3825073    c-0.3063965,0.1618042-0.5960083,0.3544312-0.8148804,0.6324463c-0.0452881,0.0591431-0.1468506,0.1638794-0.2811279,0.2823486    c-0.4744263,0.4215088-1.3424683,1.03125-2.078064,1.5210571c-0.3533325,0.2357178-0.6759033,0.444397-0.9179688,0.5993652    c-0.8261719-1.5901489-2.2195435-2.9694824-3.8615112-4.1669312c-2.711731-1.9728394-6.107605-3.4599609-8.8331909-4.4650269    c-1.8911133-0.6966553-3.4569092-1.1578979-4.2429199-1.3762817c6.3696899-7.8695068,12.944397-12.1434326,17.9760742-14.4493408    c2.5987549-1.1904907,4.7856445-1.8581543,6.3180542-2.2276611c0.7661133-0.1847534,1.3686523-0.295105,1.7770386-0.3587646    c0.2041626-0.0318604,0.3598022-0.0522461,0.4631348-0.0645142c0.0392456-0.0045776,0.0635986-0.0071411,0.0875244-0.0096436    c0.2053833,0.7927246,0.9899292,4.1052246,0.9893799,8.3518677    C103.9120483,46.3868866,102.9837646,52.068222,99.4449463,56.8397675z M115.046814,69.156723l0.0012817-0.0056152    l0.8012695-1.1569214c0.0758667-0.1098022,0.100647-0.2476807,0.0675049-0.3765869    c-0.0001831-0.0010376-0.090332-0.3527222-0.2264404-0.911499c-0.1288452-0.5290527-0.2985229-1.2423096-0.4700928-2.0103149    l0.9163208-0.4676514c0.2266846-0.1156616,0.3165894-0.3931885,0.2009277-0.6196899    c-0.1156616-0.2268066-0.3931274-0.3167725-0.619751-0.2010498l-0.6999512,0.3572388    c-0.0313721-0.1485596-0.0622559-0.2971191-0.0924072-0.4451904c-0.1271362-0.6243286-0.2412109-1.236145-0.3228149-1.7681885    c-0.0818481-0.5308228-0.1298828-0.9874878-0.1292114-1.2723389c-0.0001221-0.0379639,0.0016479-0.0682983,0.0031738-0.0991211    c0.1021118-0.0942993,0.2907104-0.2497559,0.5824585-0.4049683c0.4241943-0.2252197,1.048584-0.4433594,1.9119873-0.4441528    c1.1831055,0.0005493,2.8340454,0.4135742,5.0147705,1.8704224c0.0596924,0.0400391,0.1257324,0.0591431,0.1928101,0.0682983    c0.1268921,0.4688721,0.2034302,0.9194336,0.2027588,1.309021c0.0006104,0.3325806,0.0443115,0.8793945,0.1200562,1.6209717    c-0.0478516,0.0096436-0.0947876,0.0252075-0.1384888,0.050415c-0.0168457,0.010437-0.3494263,0.2008057-0.701355,0.5193481    c-0.1759033,0.1600342-0.3579712,0.352417-0.5064087,0.5845947c-0.1467896,0.2310791-0.2655029,0.5114136-0.2664185,0.8360596    c-0.00354,0.3353271,0.1445923,0.6879883,0.420166,0.9691162c0.2475586,0.2542725,0.5658569,0.7463379,0.8041992,1.3375244    c0.2409058,0.59198,0.4086914,1.286377,0.4080811,1.9621582c0,0.1016846-0.0037842,0.203125-0.0114746,0.3045044    c-0.0085449,0.111145-0.0126343,0.220459-0.0126343,0.3282471c0.0009766,0.9125366,0.286499,1.6785278,0.5418701,2.3779907    c0.2316895,0.6279297,0.4287109,1.2045898,0.4689941,1.8087769c-0.3600464-0.1536865-0.8439941-0.3764038-1.359375-0.6622925    c-0.9008789-0.4956665-1.8740845-1.1903076-2.3831177-1.9417725c-0.0435791-0.1348267-0.1442871-0.4304199-0.2868042-0.7522583    c-0.0963745-0.2168579-0.2105713-0.4454346-0.3495483-0.6533813c-0.1428833-0.2053833-0.2960205-0.4038696-0.5671387-0.5333252    c-0.2080688-0.09375-0.8578491-0.3730469-1.5722656-0.6831665c-0.7123413-0.3091431-1.486084-0.647522-1.9118042-0.8460083    L115.046814,69.156723z M129.1612549,117.5662079c-0.5670776,0-1.3439941-0.0351563-2.1155396-0.1743164    c-0.763916-0.1362915-1.517334-0.3814697-2.0540771-0.7578125c-0.0213623-0.0283203-0.0787964-0.1162109-0.1389771-0.2352295    c-0.2659302-0.5096436-0.663208-1.5444946-0.980835-2.4295044c-0.159729-0.4441528-0.3018188-0.854187-0.4038086-1.1530762    s-0.1633301-0.4846802-0.1635132-0.4851685l-0.0046387-0.0132446c-1.4718018-4.0325928-2.5096436-10.0958862-3.2635498-15.4879761    c-0.3778687-2.6975708-0.6866455-5.2297363-0.9492798-7.2686157c-0.1313477-1.0195313-0.2510986-1.9157715-0.362793-2.6499023    c-0.1121826-0.7357178-0.2138062-1.3039551-0.3190308-1.6951294c-0.1853027-0.6846924-0.4686279-1.9975586-0.7836914-3.5631714    c-0.4733887-2.350769-1.0229492-5.2845459-1.4539185-7.6292114c-0.2155151-1.1724243-0.4014282-2.197876-0.5333862-2.9299316    c-0.0487061-0.2701416-0.0899658-0.4997559-0.1227417-0.6824341c0.3500366,0.1544189,0.7380371,0.3236084,1.1113892,0.4856567    c0.7133179,0.3096313,1.3724365,0.5930176,1.5602417,0.6778564l0.0009155,0.0004883    c0.019104,0.0066528,0.1178589,0.1022339,0.2060547,0.24646c0.1376953,0.215332,0.2740479,0.5228882,0.3682251,0.7687988    c0.0475464,0.123291,0.0855103,0.2318726,0.1113281,0.3088379l0.0291748,0.0891724l0.0090332,0.0288086l0.0563354,0.1203003    c0.703125,1.055481,1.9052734,1.8359985,2.932312,2.3897095c1.027832,0.5491333,1.8869629,0.8531494,1.9009399,0.8582764    c0.0223999,0.0078735,0.0450439,0.0053101,0.067688,0.0096436c0.0618896,0.0170898,0.1238403,0.0344238,0.1859131,0.0507202    c0.0344849,0.0091553,0.0681763,0.005127,0.102356,0.0061035c0.02771,0.1849976,0.0552979,0.369751,0.0831299,0.5545044    c0.7418823,4.9176025,1.5248413,9.6772461,1.9892578,11.8228149c-0.0158691,0.1760864-0.0532227,0.6654053-0.0532837,1.3793945    c0.0001221,0.9938354,0.0737915,2.4126587,0.3843994,3.9867554c0.0037231,0.3954468,0.0410156,4.1194458,0.1383667,8.0562134    c0.0515137,2.0819702,0.1196899,4.2219849,0.2089233,5.9611206c0.0446777,0.8699951,0.0944824,1.6395264,0.1506348,2.255188    c0.0281372,0.3081055,0.0577393,0.5776978,0.0898438,0.8049927c0.0325928,0.2280884,0.0653687,0.4102783,0.1099854,0.5649414    c0.2924805,1.0055542,0.805603,1.6760254,1.2503052,2.0870361c0.2848511,0.2637329,0.5393677,0.4227295,0.6963501,0.5078735    c0.1378174,1.0941772,0.270813,2.1430664,0.3968506,3.1256714    C129.4724121,117.562912,129.3286743,117.5662079,129.1612549,117.5662079z M127.6039429,101.708725    c0.4450073,3.4821777,0.9603271,7.6470337,1.4373779,11.4510498c-0.3204346-0.322876-0.6790161-0.8169556-0.9020996-1.5796509    c-0.022522-0.0754395-0.0537109-0.2316284-0.0821533-0.43573c-0.1098633-0.7739258-0.204834-2.2453003-0.2803345-3.9887695    C127.7041016,105.4860077,127.647522,103.5595551,127.6039429,101.708725z M155.3417358,126.8000336    c-0.2338867,0.0718384-0.6309814,0.1304321-1.2267456,0.1299438c-1.345459,0.0010376-3.6931763-0.2902222-7.6098633-1.180603    c-0.0770264-0.0175781-0.1515503-0.0089111-0.2227173,0.0109863l-2.0027466-0.8305054    c-0.2351685-0.0975952-0.5048828,0.0140381-0.6022949,0.2492065c-0.0974731,0.2352295,0.0142212,0.5048218,0.2493896,0.602417    l-0.000061-0.0002441l5.7572021,2.387207c-0.0509644,0.0111694-0.1126099,0.0195923-0.1970215,0.0198364    c-0.166626,0.0003052-0.4064331-0.0330811-0.7269287-0.1304321c-0.9077148-0.276001-2.3651733-0.6204834-3.6069946-0.8997803    c-1.2401733-0.2788086-2.2578735-0.4900513-2.2594604-0.4905396l-0.0527344-0.0076904    c-0.0012207-0.0002441-0.4823608-0.0430298-1.2358398-0.1148682c-1.130127-0.1075439-2.8690186-0.2798462-4.4944458-0.4678955    c-0.8126221-0.0939941-1.5969238-0.1918945-2.260498-0.2871704c-0.6621704-0.0950317-1.2095337-0.1895752-1.5214844-0.2680664    c-0.7895508-0.1985474-1.2692261-0.6643677-1.572876-1.0993042c-0.1499634-0.2166138-0.2510986-0.4230347-0.3128662-0.5713501    c-0.0309448-0.0744019-0.052124-0.1340332-0.0649414-0.1730347l-0.0109863-0.0349121    c-0.1602783-0.9193726-0.4478149-3.0400391-0.7949829-5.7363281c-0.5252075-4.0769653-1.1895752-9.4799805-1.77771-14.1394653    c-0.2940674-2.329834-0.5690918-4.4736938-0.7983398-6.1743774c-0.2298584-1.7034912-0.411438-2.9523926-0.5267944-3.5313721    c-0.3032227-1.5154419-0.3751831-2.8945313-0.375061-3.8526611c0-0.4260864,0.0140991-0.7685547,0.0280762-1.0027466    c0.007019-0.1171875,0.013916-0.2073975,0.019043-0.2672729l0.0060425-0.0670166l0.0019531-0.0196533    c0.0054932-0.0509644,0.0029907-0.0983887-0.0079956-0.1483154c-0.515564-2.3502197-1.4797363-8.3098145-2.3100586-13.9610596    c-0.4155273-2.8272705-0.7984619-5.5814209-1.0771484-7.7764893c-0.1394043-1.0975342-0.2526855-2.0553589-0.3308716-2.8112183    c-0.0783081-0.7529907-0.1206665-1.3143921-0.1201172-1.5768433c-0.0010376-0.6801147-0.1655273-1.3969116-0.401001-2.1025391    c-0.7089844-2.1091919-2.0810547-4.1381226-2.0911255-4.1564331l-0.0805054-0.0910034l-0.0140991-0.012207    c-0.1581421-0.1391602-1.6136475-1.4405518-3.1848755-3.4620361c-1.5726318-2.0209961-3.2541504-4.7629395-3.8933716-7.7553101    c-0.3873901-1.8074951-0.5562744-3.4572144-0.5562134-4.8913574c-0.0009766-1.7784424,0.2623901-3.2279053,0.6716309-4.2224731    c0.2034912-0.4971313,0.4429321-0.8786011,0.6867676-1.1334229c0.2454834-0.2561035,0.4835815-0.3835449,0.7146606-0.4222412    l0.0023193-0.0005493l0.0612793-0.0043335c0.1573486-0.0037842,0.4962158,0.0810547,0.9067993,0.260437    c0.7251587,0.3103638,1.6949463,0.8804321,2.7208862,1.5564575c1.5415039,1.0142212,3.2211304,2.2674561,4.5119629,3.2653198    c0.6455688,0.4989624,1.1943359,0.9342041,1.5813599,1.2443237c0.3869629,0.3103638,0.6104126,0.4940796,0.6110229,0.4946289    l0.0742188,0.0496826l0.0087891,0.0048218c0.1072998,0.0588989,1.1590576,0.6470337,2.4400024,1.7034912    c1.2816772,1.0562744,2.7891235,2.5814209,3.8224487,4.4979248c0.8446655,1.5666504,1.0860596,2.8250122,1.0866699,3.770874    c-0.000061,0.3378906-0.03125,0.6362915-0.0783691,0.8964844c-0.0549316,0.3012085-0.0821533,0.6054688-0.0821533,0.9094849    c0,0.786377,0.1827393,1.567688,0.5413818,2.2778931c0.362854,0.7183228,0.7468872,1.7208252,0.9714966,2.9954224    c-0.0027466,0.0657349,0.0054321,0.1314697,0.0307007,0.1934204c0.0996704,0.6238403,0.1646118,1.3041992,0.1647339,2.0556641    c-0.000061,0.9500122-0.0963745,2.0026855-0.3320313,3.1598511c-0.6848755,3.359314-1.0925903,5.3487549-1.3289795,6.4979858    c-0.2363892,1.1495361-0.3009644,1.4560547-0.3012695,1.4575806c-0.0119629,0.0568237-0.0130615,0.1159668-0.0031738,0.1732788    c0.0002441,0.0015259,0.0978394,0.5667725,0.2598877,1.5065308c0.4862061,2.8191528,1.550354,8.9960938,2.2841187,13.3008423    c0.4468384,2.6275024,0.8921509,3.897522,1.2084961,4.9185791c0.3126221,1.019043,0.5043335,1.769043,0.5076904,3.5910034    c0,0.3690186-0.0084839,0.7807617-0.0263062,1.2458496c-0.1602173,4.1689453-0.6710815,16.2144775-0.6712646,21.7826538    c0.0008545,1.2157593,0.0223389,2.1073608,0.0852661,2.6050415c0.0033569,0.0588989,0.0160522,0.1633301,0.0648193,0.2984009    c0.0881348,0.2530518,0.3192139,0.5970459,0.7722778,0.84375c0.4526978,0.2492065,1.1062622,0.414856,2.0780029,0.4151001    c0.1258545,0,0.2568359-0.0025635,0.3933716-0.0079346h0.0019531c0.5232544-0.022644,1.0721436-0.0321045,1.6209717-0.0321045    c0.8770752,0,1.7510986,0.0239868,2.5253296,0.055542c-0.1008911,0.0784912-0.1714478,0.1947021-0.1795044,0.3323364    c-0.0149536,0.2540283,0.178894,0.472168,0.4329224,0.4871826l-0.000061-0.0002441    c0.0008545,0.0002441,0.3234253,0.019104,0.8319092,0.053772c0.7626343,0.0517578,1.9397583,0.138916,3.0506592,0.24823    c0.5552368,0.0545044,1.0940552,0.1149292,1.5535278,0.1785889c0.4579468,0.0629883,0.8423462,0.1322632,1.060791,0.1934204    c0.6855469,0.1906128,2.0853271,0.5932617,3.3111572,0.9474487c0.727356,0.2102051,1.3872681,0.4018555,1.8092041,0.5244141    c-0.1051636,0.0296021-0.2669067,0.0552979-0.5011597,0.0550537c-0.1826172,0-0.4076538-0.0150146-0.6789551-0.0509644    c-0.0894775-0.0119629-0.1724243,0.0101929-0.2487183,0.0453491l-3.621582-0.8047485l-0.0043335-0.0009766l-5.0598755-1.0733643    c-0.2489624-0.0529785-0.4935913,0.1060181-0.5463867,0.3549805s0.1062622,0.4935913,0.3552246,0.5466309l-0.000061-0.0002441    l5.0599365,1.0733032l-0.0043335-0.0010376l5.3244019,1.1831665l0.0150146,0.0476685    C155.6258545,126.6588593,155.5719604,126.72966,155.3417358,126.8000336z"/></g></g></svg>