<svg xmlns="http://www.w3.org/2000/svg" xmlns:xlink="http://www.w3.org/1999/xlink" version="1.1" x="0px" y="0px" viewBox="34.608 1.673 80.464 160.736" style="enable-background:new 0 0 161.5 162.6999969;" xml:space="preserve"><path d="M110.6782684,38.3341599c1.0230484-7.4596348,1.3028336-13.2266674,1.3028336-17.3035107  c0-4.8837929-0.4015045-7.341692-0.407753-7.3796177l-0.0224152-0.0951414  c-0.8358307-2.7170181-2.5647125-4.7432728-4.6732864-6.1237044c-2.1103821-1.3837194-4.5970001-2.1444144-7.0352783-2.4044099  C98.119957,4.8449459,96.5159149,4.763834,95.0264282,4.763834C84.2657166,4.7590113,79.5096741,8.9899664,79.1904831,9.2938061  c-2.0385284,1.5873747-4.5765533,3.7683992-6.8012009,5.7041159c-1.1168213,0.9718046-2.1536255,1.8806925-3.0034866,2.6177111  c-0.8478317,0.7357044-1.5176086,1.3054581-1.8659515,1.5735645c-7.73563,5.9671822-14.4412537,16.2896156-17.8493118,28.9623108  c-3.851593,14.3400879-3.952652,26.0236626-3.9534187,27.2495461v0.0004349  c-0.6944923,2.1281891-0.962326,4.0604019-0.9621048,5.7499313c0.0019722,4.1947861,1.5981178,6.8758545,2.090374,7.6041031  c0.0152931,0.5680008,0.0764542,2.2478867,0.3071861,4.4284744c0.0694351,0.6539307,0.154438,1.3519287,0.2572556,2.0744781  c-0.6784363-0.2025604-1.3413582-0.274025-1.9353333-0.2742462c-1.4441719,0.0021973-2.5029526,0.4029312-2.5526581,0.4198074  l-0.0578194,0.0247726c-1.9219627,0.9264297-3.2030869,2.624733-4.0091591,4.3929596  c-0.8058548,1.7759094-1.1531563,3.6373062-1.1556778,5.0578537c0.0002747,0.439537,0.0334854,0.8380814,0.1062698,1.1938782  c0.2279892,1.0974197,0.6291084,2.2325439,1.2930145,3.1521683c0.3328857,0.4583893,0.7366371,0.86483,1.2287865,1.1609955  c0.4903412,0.2966003,1.0725365,0.473732,1.7012062,0.4724197c0.4065971,0,0.8306808-0.0714645,1.2653961-0.216156  c0.0339241-0.0113983,0.0582008-0.0355072,0.0891685-0.0510788c0.396183,1.7658234,1.0603676,3.2025986,1.7289352,4.2901459  c1.0132904,1.6494141,2.0174866,2.5087585,2.1280289,2.6014938c0.0966759,0.0876846,1.8439178,1.6748428,4.5689354,3.0585632  c0.0314064,0.2185593,0.0635757,0.4112549,0.0989265,0.5721664c0.0588036,0.259552,0.0881233,0.6469193,0.0873032,1.1114426  c0.0015907,1.1581421-0.1683083,2.7779617-0.1692924,4.4979706c0.0015335,1.6268311,0.1500015,3.3593292,0.7912216,4.943634  c0.7910004,1.9350586,2.3143654,3.9260254,3.6429482,5.473938c0.980793,1.138855,1.8534546,2.0218658,2.2496948,2.4125214  c-0.011013,1.0572968-0.0466919,4.7145538-0.0466919,7.6479492c0.0005493,1.739502,0.0110168,3.1927185,0.0517349,3.776062  l0.0239525,0.1394348l1.1849403,4.3089905c-0.1408501,0.2727051-0.2102318,0.5717316-0.2100677,0.865921  c0.0002747,0.3338776,0.0797386,0.6684113,0.2352791,0.9799194c0.331459,0.666214,0.9072418,1.0220032,1.3811417,1.1864166  c0.4802017,0.1690216,0.8901443,0.1832733,1.0741806,0.1845856l0.0812759-0.0010986  c0.1223793-0.0037231,0.2309494-0.0458221,0.3301468-0.1028137c0.2226181,0.3117371,0.5961685,0.5419159,1.0104408,0.6144714  c0.6440735,0.1194763,1.450798,0.162674,2.2370377,0.1637573c0.8838959-0.002182,1.7004395-0.0539246,2.2392807-0.1676941  c0.5004807-0.1118011,1.4304123-0.1823883,2.6316299-0.2165985c3.6222382-0.1082916,9.7846909,0.0469208,16.506752-0.5177917  c0.8650436-0.0725708,1.6512222-0.1001892,2.3709793-0.1001892c2.2070007-0.0013123,3.7778854,0.2591248,5.1430206,0.2628479  c0.7351608,0,1.4311829-0.0813293,2.0914764-0.3748627c0.6403427-0.2834625,1.205986-0.7644196,1.7135925-1.4387512  c0.1187057-0.1146545,0.4106522-0.42836,0.702652-1.0167389c0.3426437-0.6883545,0.6634216-1.7329407,0.6625443-3.1769409  c0-0.5099182-0.0408859-1.0704498-0.131752-1.6818695c0.5283737-0.082428,0.9569473-0.22229,1.3130188-0.4754791  c0.255722-0.1843719,0.4554825-0.4406433,0.5658112-0.7115936c0.1123505-0.2711792,0.1441879-0.5421295,0.1444092-0.7924805  c-0.0013199-0.3621521-0.0630798-0.6975555-0.1223831-1.0296783c-0.048996-0.2663574-0.1637573-1.1129761-0.2992859-2.1838684  c-0.2046967-1.6141205-0.4650803-3.7795868-0.6740494-5.5403595c-0.2090302-1.7610016-0.3664322-3.1144714-0.3664322-3.1144714  c-0.0205994-0.1769104-0.108017-0.3220367-0.2253571-0.4338379c0.3305283-2.4418945,0.6890106-4.4383392,0.8582535-5.5927582  c0.0864258-0.611618,0.4802551-2.0486145,1.0125732-3.917244c0.7995529-2.8167648,1.9162674-6.6855698,2.8344116-10.7744675  c0.9175491-4.091095,1.6405945-8.3992081,1.6418533-12.1410828c0-0.7659607-0.0305786-1.5086746-0.0967865-2.2211456  c-0.8470688-9.0969925-2.9383774-16.9729233-3.2108078-17.9749832l0.3296509-8.7173004  C103.8092728,74.0572281,108.0758514,57.3074722,110.6782684,38.3341599z M68.3983765,20.3289261  c0.4077988-0.3148022,1.0736847-0.8834591,1.9302902-1.6259594c0.5170822-0.4485245,1.1139145-0.9696121,1.7422485-1.5181007  c-0.0433502,0.6201744-0.0801239,1.3887615-0.0802307,2.2502975c0.0104675,2.4686413,0.2695313,5.6186199,1.675499,7.8520374  c3.5138321,5.4818268,9.4382095,8.4158745,9.4885788,8.4500732c0.0258102,0.0129318,0.0536499,0.0120583,0.0801239,0.0217018  c-0.1354828,2.0435753-0.2511215,4.6413345-0.2511749,7.5948944c0,2.9767952,0.1170654,6.3058739,0.4500046,9.7673683  c0.2061768,2.1430969,0.3927917,4.0351906,0.5608749,5.7365608c-0.0342484,0.056118-0.0711899,0.1107063-0.0894394,0.1773491  c-0.0009842,0.0046005-0.1367416,0.5006981-0.3437958,1.3102798c-0.9913101-0.2360992-4.0936661-1.1169281-10.3321838-4.0172157  c-4.0641327-1.8872681-9.7784386-3.5998192-14.4993515-4.8552933c-3.7006607-0.9832039-6.7742424-1.6776962-7.9354515-1.9330864  c0.0871925-0.3373795,0.1746063-0.6747627,0.2660789-1.0149918C54.3895836,36.1200333,60.9738693,26.0457573,68.3983765,20.3289261z   M86.8962479,90.1098633c0.4323044,1.01828,0.820488,2.2763901,0.815834,3.2922592  c0,0.1131134-0.0046616,0.2240372-0.0138702,0.3323364c-0.0321121,0.3812256-0.0492096,1.216011-0.0652695,2.4774094  c-0.0537643,4.3898926-0.0591354,13.6797943-0.2228394,22.4492722c-0.0817719,4.3837509-0.20327,8.6368484-0.3894424,12.0724716  c-0.0930634,1.7173767-0.2024002,3.2308655-0.3299332,4.4481964c-0.1256638,1.2136078-0.2776413,2.1459503-0.4243546,2.6313019  l-0.0168762,0.0550232c-0.0534363,0.1723175-0.2335815,0.7311096-0.5105667,1.4556274  c-0.0063553,0.0032959-0.0134277,0.0024109-0.0197296,0.0059204l-0.0000534-0.0002136  c-0.0012054,0.0006561-0.4808578,0.2566986-1.2354736,0.6574402c-1.1319427,0.6011047-2.8792419,1.5255585-4.5382462,2.3899384  c-1.6565399,0.8632965-3.2350922,1.6713409-3.9927139,2.0227509c-0.5110092,0.2385101-1.6190567,0.653717-2.5714035,0.9954834  c-0.4693527,0.1687927-0.9030762,0.3211517-1.2248383,0.4331665c-0.1945038-0.4879761-0.4876556-1.1598816-0.8336945-1.9251862  c0.191597-0.1578369,0.7061615-0.5945282,1.2405624-1.1728363c0.3320694-0.3603973,0.6706009-0.7727509,0.9416656-1.223465  c0.2668457-0.4513702,0.4851913-0.9441833,0.4903946-1.5143738c0-0.0942688-0.0066833-0.1902771-0.0214844-0.2869568  c-0.1173401-0.7536774-0.3981018-1.8822327-0.6507034-3.1668549c-0.2527542-1.2791595-0.4730759-2.698822-0.4721451-3.9277802  c0-0.1356964,0.0026321-0.2685394,0.0081177-0.3985443c0.0409927-1.1581421,0.6211014-2.8571014,1.5099869-4.8447723  c0.885376-1.9929276,2.0628662-4.2927704,3.2468185-6.7730331c1.1915207-2.5013046,1.5018234-5.1707535,1.5030289-7.3603287  c0-1.1954041-0.0938263-2.249855-0.1949387-3.0589981c-0.1001816-0.8025665-0.2120438-1.3881073-0.2350082-1.5529633  c-0.0310745-0.2056274-0.0933838-0.370697-0.1674805-0.5430069c-0.2601624-0.5850983-0.7205811-1.2570114-1.1294785-1.8280792  c-0.2741394-0.3799057-0.5124283-0.6892242-0.646698-0.8610992c1.0492401-1.1750183,2.1043472-2.3596878,2.1053925-2.3607864  c0.1278-0.1435852,0.192421-0.3297043,0.1809616-0.5215225c-0.0114517-0.1918182-0.0976639-0.3691635-0.2416916-0.496315  l-1.5511475-1.3714447c-0.0098648-0.6664276-0.0417023-2.3053207-0.1361923-4.0733337  c-0.0614319-1.1476212-0.148735-2.343689-0.2757187-3.3643723c-0.0637436-0.510788-0.1369629-0.9775085-0.2255783-1.3813095  c-0.0920715-0.4066544-0.1851883-0.7407455-0.3521271-1.0472183c-0.2778015-0.4741745-0.7016678-0.7190399-1.167511-0.9272995  c-0.7062225-0.3020859-1.5889664-0.487114-2.541481-0.6133804c-0.950592-0.1238632-1.9631195-0.1795425-2.885376-0.1797638  c-0.6735535,0.0002213-1.2971268,0.0295944-1.8202972,0.0879059c-0.0443954,0.005043-0.0776062,0.0138168-0.120575,0.0190735  c0.5029526-0.4504929,1.7423096-1.5299377,3.2911606-2.6661606c1.5835419-1.1638412,3.4956894-2.3800735,5.2058258-3.0248032  c1.9156036-0.7205734,3.4077301-2.1722565,4.4738541-4.227005c1.0714417-2.0580444,1.7586975-4.7257385,2.1591568-8.0328979  c0.3070145-2.5473404,0.9199066-5.5052795,1.4558945-7.8169632c0.033432-0.1442451,0.0653839-0.2777519,0.0981598-0.4169579  c0.4775162,4.9596443,0.7164078,8.037281,0.7159195,11.5149956c0.000824,2.8310089-0.2543488,5.4393005-0.2555008,7.8193741  c0.0013657,2.0799637,0.1939545,4.0045013,0.9964066,5.7291107l0.0385895,0.0718994l0.0172577,0.028717  C86.0052261,88.2971344,86.4665756,89.0885162,86.8962479,90.1098633z M68.4292297,137.7438354  c-0.1209564-0.3468018-1.0985718-3.3481445-1.0946274-6.3904877c0-0.2711792,0.0076752-0.5419159,0.0240631-0.8111115  c0.0090408-0.1530151,0.013588-0.3053741,0.013588-0.4583893c-0.0040512-1.6189423-0.4821167-3.250824-1.0353165-4.6371765  c0.0012589-0.0078888,0.0063553-0.0138092,0.0073395-0.0219193l0.6607895-5.2862854  c0.8141251-0.55616,1.6219559-1.2177658,2.4155884-2.0060883c0.0608902-0.0605011,0.1025925-0.1341629,0.1380539-0.2100143  c0.016716-0.0122757,0.0369339-0.016655,0.0528336-0.0306854l-0.000061-0.0002213  c0.0176544-0.0162201,1.0802689-0.9621582,2.2340775-2.3647308c1.1494293-1.4082718,2.4121933-3.2517014,2.769249-5.2064896  l0.0064697-0.2071609l-0.0083847-0.0826416c-0.0162811-0.1696777-0.0497131-0.5811539-0.0495987-1.0318756  c-0.0004425-0.3297043,0.0188522-0.6819916,0.0670242-0.9579926c0.0235138-0.1376724,0.0544739-0.2556076,0.0847321-0.3351898  l0.0398407-0.0883408l0.0117798-0.0186386l0.0012054-0.0019684c0.1666107-0.1826172,0.5440521-0.6030807,1.0021667-1.1149597  c0.2079315,0.2718353,0.5075531,0.6736679,0.7887573,1.0877762c0.1929703,0.2836685,0.3760147,0.5726013,0.5077667,0.8137436  c0.0658264,0.1199112,0.1185989,0.2282104,0.1525803,0.3106384l0.0366135,0.0993042l0.0073929,0.0269623l0.0012589,0.0056992  c0.0355759,0.244873,0.1351013,0.756752,0.2316132,1.5279694c0.0956345,0.7648621,0.1838684,1.7605591,0.1838684,2.8805542  c0.0012054,2.0534439-0.3002243,4.5177002-1.3627319,6.740593c-1.1731033,2.4583359-2.3526688,4.7603683-3.2631454,6.8081131  c-0.9069748,2.0529938-1.5615082,3.8335114-1.6327591,5.3693695c-0.0063553,0.1512604-0.0093155,0.3042755-0.0093155,0.4586029  c0.0009308,1.3942413,0.239769,2.8847198,0.4993286,4.2059631c0.2597809,1.3155365,0.544548,2.4771881,0.6401825,3.1072388  l0.0048218,0.0683899c0.0052032,0.1536713-0.0867615,0.4496155-0.2853699,0.7740631  c-0.2915649,0.4897461-0.7808685,1.0283661-1.1922913,1.424057c-0.1421585,0.1374512-0.2672806,0.2507935-0.3797379,0.3507538  c-0.2080994-0.4494019-0.4206848-0.9049377-0.6291656-1.3490753  C69.2540436,139.4557343,68.5217361,137.9358826,68.4292297,137.7438354z M66.9135361,90.8074265  c0.0981064-0.0065765,0.1962051-0.0306931,0.2886581-0.0797958l0.0619354-0.023674  c0.1476974-0.0502014,0.4860611-0.1128998,0.9049911-0.1506042c0.4216156-0.0392456,0.9343185-0.0609436,1.4858246-0.0609436  c1.150795-0.0006638,2.4764252,0.0960159,3.5378876,0.3016434c0.5296402,0.1017227,0.9938354,0.2325974,1.3190536,0.3737717  c0.162384,0.0697098,0.2888718,0.1418381,0.3690567,0.2012482c0.0814896,0.0594025,0.1114197,0.1039047,0.1117477,0.106102  c0.0410461,0.0662003,0.1320801,0.3191833,0.2031631,0.6545868c0.2403717,1.082077,0.3956375,3.023056,0.4839783,4.7926025  l-1.3788376-0.089447c-0.3965683-0.0256424-0.738884,0.2749023-0.7646408,0.6714783  c-0.0257034,0.3965683,0.2749557,0.7389908,0.671524,0.7646408l1.5333405,0.0993042  c0.0212631,0.6000061,0.0361176,1.1452103,0.0454865,1.5755386c0.0139236,0.6361771,0.0171509,1.0292358,0.0171509,1.0292358  c0.0017014,0.2038803,0.0909271,0.3994217,0.2430115,0.5340271l1.2487335,1.1039886  c-0.3401794,0.3818817-0.8211441,0.9211655-1.3298492,1.4913559c-0.9420395,1.0555496-1.9640503,2.1987839-2.2602158,2.5230103  c-0.3225861,0.3702621-0.4162445,0.7681503-0.4934082,1.1702042c-0.0690536,0.4031448-0.0875244,0.8211975-0.0879669,1.202858  c0.0002213,0.5070572,0.0351334,0.945282,0.0545349,1.1513443c-0.2813187,1.4812775-1.3799362,3.1784821-2.4447479,4.4628906  c-0.5397186,0.6563492-1.0641479,1.211853-1.4512405,1.6007538c-0.1699524,0.1705475-0.3070755,0.3025208-0.4138336,0.4035797  c-1.4059677-1.2456055-2.4680939-2.4618454-3.1664734-3.5934601c-0.7849197-1.2701645-1.1347961-2.4274292-1.1339188-3.4174271  c0.0002213-0.480751,0.0805054-0.924675,0.2360992-1.3389969c0.1107635-0.2944183,0.1673203-0.5903625,0.167099-0.8766632  c0.0019226-0.6756363-0.3193436-1.2201843-0.7049561-1.6130295c-0.142601-3.9597778-0.2962189-7.8237534-0.413887-10.6887512  C64.4342117,94.6393967,65.635704,93.4709549,66.9135361,90.8074265z M64.6735458,121.4279175  c0.2551727-0.1115799,0.5102844-0.2319336,0.7652969-0.3628082l-0.2438812,1.9512863  c-0.225853-0.4149857-0.4126282-0.7289124-0.5261841-0.9137115  C64.6715164,121.8944244,64.6731033,121.6706009,64.6735458,121.4279175z M72.6381531,149.624054  c0.221962-0.3610535,0.2776413-0.7427216,0.279068-1.0939026c-0.0030136-0.4877777-0.110817-0.9549255-0.2363739-1.3607025  c0.3200607-0.1115875,0.7358627-0.2578125,1.187294-0.4200287c0.9726791-0.3503113,2.0720215-0.7582855,2.6906586-1.0443726  c1.0817413-0.5026703,3.5238571-1.7713013,5.7185822-2.9246216c0.9376068-0.4927979,1.8156967-0.9573364,2.5265198-1.3343964  c-0.2892075,0.5787506-0.6029663,1.1531067-0.9469223,1.6496429c-0.4304962,0.6258698-0.9002304,1.1259155-1.3203659,1.3824005  c-0.5462418,0.338913-1.928154,1.0877686-3.6513367,1.9933777c-1.8820648,0.9897766-4.1874924,2.1775055-6.3618317,3.2896118  C72.560051,149.7128448,72.6047745,149.6771088,72.6381531,149.624054z M57.1086845,135.918396  c-1.2175522-1.4385223-2.5318336-3.2405243-3.1582565-4.7928162c-0.5334702-1.3076477-0.6869812-2.8652191-0.6854477-4.401947  c-0.0009842-1.6290283,0.1677055-3.2159653,0.1692963-4.4979706c-0.000824-0.5191116-0.02631-0.9902191-0.1215057-1.4236145  c-0.0450478-0.1997147-0.1016617-0.5870743-0.1590996-1.0871124c-0.2043114-1.7629776-0.4504433-4.9769669-0.8664131-8.3731308  c-0.418602-3.4020767-0.9989319-6.9843597-1.9166451-9.5919876c-0.9796944-2.7713852-1.5108681-6.0982742-1.7869186-8.7173004  c-0.1386566-1.3100662-0.2149467-2.4447479-0.2564888-3.2497253c-0.020771-0.4024887-0.0328827-0.7225494-0.0397339-0.9411163  c-0.0069046-0.2185593-0.0084419-0.331459-0.0084419-0.331459c-0.0023537-0.1571808-0.0541992-0.3055954-0.1501656-0.4296722  l-0.000164-0.0004425c-0.0654373-0.0863724-1.9364815-2.6179276-1.9345665-6.9286804  c0.0002213-1.5731277,0.2470627-3.3876114,0.9255486-5.4232941l0.0368843-0.235878l-0.0003281-0.0911942  c-0.0004921-0.7183914,0.0395699-5.5535126,1.0117569-12.5576096c1.1306305,0.2510071,4.0310249,1.0138931,7.159687,2.7689743  c3.141098,1.76297,6.484539,4.4988403,8.5789719,8.7021713c-0.0879059,0.0835266-0.1628799,0.1812973-0.2002029,0.3058167  c-0.5079346,1.6928177-0.9881897,3.4152374-1.3440933,4.923912c-0.3545914,1.5150299-0.5906906,2.7895813-0.5944176,3.7008743  c0.001152,0.108078-0.02565,0.3240128-0.0843468,0.5851059c-0.2030525,0.9286118-0.7594337,2.4217224-1.2606239,3.6456299  c-0.250843,0.6144791-0.4882622,1.1671371-0.6626511,1.5654602s-0.2842178,0.638588-0.2842178,0.638588  c-0.1654015,0.3621521-0.0061951,0.7889709,0.3553543,0.9542618c0.361496,0.1650772,0.7884293,0.0059204,0.9536095-0.3555756  L60.7850113,90.27845c0.0030136-0.0067978,0.5958405-1.3050232,1.1929436-2.8117218  c0.298687-0.7541199,0.5984154-1.5595398,0.8278847-2.2912979c0.1147614-0.3663177,0.2120972-0.7139969,0.2830124-1.0345001  c0.0702057-0.3220367,0.1170654-0.6111832,0.1182175-0.8957367c-0.003727-0.6602859,0.2091331-1.9111633,0.5560532-3.3705139  c0.2633896-1.1169281,0.6015396-2.3706436,0.9697189-3.6449738c0.113121,0.3082199,0.2225113,0.6206131,0.322258,0.9426498  c1.2480774,4.0316772,1.5908279,6.8247681,1.5906067,8.6688538c-0.0000534,1.2057114-0.1459503,2.0056458-0.2799454,2.4872742  c-0.0670776,0.240921-0.1312027,0.4022675-0.1733475,0.4958725l-0.0444489,0.0907593l-0.0055313,0.0098648l0.0023499,0.0015335  c-0.0587463,0.0940475-0.0881805,0.1957626-0.0996857,0.2994537c-0.8381348,1.9690399-1.646843,3.18396-2.2436142,3.8977432  c-0.0100822,0.0120544-0.0187988,0.0210419-0.0287704,0.0328827c-0.0715752-1.7103577-0.1173401-2.7580109-0.1173401-2.7595444  c-0.0174828-0.3972321-0.3534355-0.7047958-0.7504463-0.6874771c-0.3970604,0.0175323-0.704792,0.3533783-0.6873093,0.7506104  l-0.0000572-0.0002213c0.0001678,0.0037308,0.0636292,1.4560623,0.1589928,3.7589722  c0.2863007,6.9050064,0.8586845,21.4454651,0.8583565,27.0761414c0,0.3739853-0.0025749,0.7080841-0.0077286,0.9970169  c-0.0026283,0.1435852,0.0377617,0.2843246,0.1161346,0.4048996l0.0253716,0.0398941  c0.135643,0.21418,0.788044,1.2732315,1.3979683,2.6740494c0.6125031,1.3986282,1.1705856,3.1451569,1.1664734,4.6729126  c0,0.1247253-0.0036697,0.2485962-0.0110168,0.3720093c-0.0181961,0.2992401-0.0266342,0.59935-0.0266342,0.8974915  c0.0046616,3.5693512,1.1778717,6.8637848,1.1887817,6.9047852l0.0305786,0.0734406  c0.0004959,0.0008698,0.1957092,0.4053345,0.5003738,1.0426178c0.4569092,0.9560089,1.1583557,2.4324646,1.8073044,3.8352509  c0.6475754,1.3986359,1.2486267,2.7413635,1.4827499,3.3676758l0.0301437,0.069046l0.0036774,0.0076752  c0.025589,0.0521698,0.167923,0.3509674,0.2982483,0.7278137c0.1321869,0.3742065,0.243988,0.8354492,0.2407532,1.1484985  c0.0014267,0.186554-0.0385818,0.3012085-0.0608292,0.3321075c-0.0592422,0.0971222-0.1823959,0.2159424-0.3569489,0.3237915  c-0.2593918,0.1631012-0.6168823,0.2911224-0.9002838,0.365448c-0.141777,0.0377045-0.2653122,0.0637817-0.3505325,0.0797882  l-0.0966721,0.0168915l-0.0223083,0.0032806l-0.0024643,0.0004425c-0.2161026,0.028717-0.4081879,0.1551971-0.520813,0.3417664  l-0.0002213-0.0002289l-0.0008774,0.0013123l0,0c-0.0090408,0.0166626-0.2173004,0.3457184-0.5185623,0.6390381  c-0.1503372,0.1477509-0.3226929,0.2845459-0.4888077,0.3742065c-0.1675415,0.0909729-0.3197327,0.1334991-0.4577332,0.1332855  c-0.1288452-0.0017548-0.2609863-0.0298157-0.4475937-0.1470947c-0.2524338-0.1620026-0.5772629-0.1508331-0.8178558,0.0280609  c-0.2406006,0.1788788-0.3448944,0.4866638-0.2625732,0.7751617l0.2974854,1.0412903  c-0.6293869,0.3181-1.026886,0.5184631-1.1201096,0.5655975c-0.0762863,0.0260773-0.2473373,0.0839539-0.4861221,0.1624451  c-0.1076355,0.0352936-0.2327042,0.0758514-0.3630829,0.1177216l-0.550354-1.5409088  c-0.1336708-0.3744202-0.5454216-0.5693207-0.919632-0.4358063c-0.3742638,0.133728-0.569313,0.5454254-0.4356422,0.919632  l0.5274429,1.4768829c-0.0749741,0.0214844-0.1501656,0.0438385-0.2245369,0.0644531  c-0.3577118,0.0993042-0.7050667,0.1878662-0.9955902,0.2492523c-0.28685,0.0624847-0.531662,0.0936127-0.6125565,0.0914154  c-0.1081314-0.0013123-0.2137947,0.0122833-0.3181992,0.0289307l-1.0253487-3.7285004  c-0.0316772-0.5195465-0.0451584-1.9528046-0.0446091-3.608139c0-1.7261505,0.0124931-3.711853,0.0249329-5.2654572  c0.0124969-1.5536194,0.0249367-2.6723022,0.0249367-2.6749268c0.0021935-0.2003784-0.0786438-0.3917542-0.223877-0.5296478  l-0.0464211-0.0447083C59.443985,138.4573975,58.3260155,137.3612976,57.1086845,135.918396z M100.3773804,148.9091797  c0.0002136,0.1262665-0.0177078,0.2014618-0.0340958,0.2398224c-0.028717,0.0508575-0.0292053,0.0857239-0.22892,0.1813049  c-0.1065369,0.0475616-0.2744598,0.094696-0.4966431,0.1330566c-0.1237488-1.2309113-0.1791534-2.504364-0.1791-3.7846222  c-0.0000534-1.0746155,0.0465851-2.1459503,0.1099396-3.2063141c0.1438065,1.1938782,0.2915573,2.4026489,0.418541,3.4040527  c0.1380539,1.0862427,0.2477798,1.9091949,0.3110809,2.2603912  C100.337532,148.4578094,100.3786926,148.7283173,100.3773804,148.9091797z M100.6153946,126.7039032  c-0.5345688,1.8890228-0.9300995,3.2887421-1.0521469,4.1018372c-0.1701736,1.1640472-0.5621338,3.3308258-0.9099274,5.9711151  c-0.347908,2.6429291-0.6536636,5.769455-0.6538315,8.901886c0.0001144,1.5301666,0.0794678,3.0590057,0.2581329,4.5389709  c-0.0012589,0.0238953-0.0117798,0.0451508-0.0106277,0.0697021c0.0026855,0.0561218,0.024826,0.1047974,0.0395126,0.1565247  c0.0269089,0.209137,0.0487747,0.4208984,0.0800705,0.6276245c0.0842896,0.5572662,0.1193085,1.0557709,0.1193085,1.4990387  c-0.0008774,1.233551-0.2676086,2.0418091-0.5124817,2.5370331c-0.122818,0.2474976-0.2413635,0.4165192-0.3220901,0.517807  l-0.088562,0.1023712l-0.0150146,0.0149078l0.0008163,0.0008698l-0.0972748,0.1058807  c-0.4202499,0.5664673-0.7907867,0.8589172-1.1904221,1.038681c-0.4001923,0.1784363-0.8718948,0.2505646-1.5061035,0.2505646  c-1.17173,0.0037231-2.8297501-0.2615356-5.1430206-0.2628479c-0.7565308,0-1.584137,0.0289307-2.4915466,0.1054382  c-4.4208603,0.3713684-8.6104889,0.4277039-12.0022125,0.4557648c-1.6963272,0.0140381-3.192894,0.0208282-4.4267197,0.0574341  c-1.2376633,0.0385895-2.1971359,0.0986481-2.895134,0.2490387c-0.3231888,0.0732117-1.127121,0.136795-1.9330292,0.1345978  c-0.724472,0.0010986-1.483963-0.0464783-1.9709587-0.1389771c-0.1223793-0.0289459-0.1063766-0.0423126-0.1164055-0.0477905  c-0.0067978-0.0072479-0.0315132-0.0587616-0.0311852-0.1569672c-0.0023003-0.1131134,0.0395164-0.272049,0.0863724-0.3603973  l0.0025787-0.0043793c0.063736-0.0173187,0.1291199-0.0370483,0.2079277-0.0609436  c0.5045395-0.1569672,1.3822403-0.4732971,2.1508255-0.755661c0.7660675-0.2812653,1.4121094-0.5254669,1.4133682-0.5259094  c0.3716888-0.1405182,0.5591278-0.5557251,0.4187164-0.9273071c-0.1404648-0.3717957-0.5556183-0.5592194-0.9273071-0.4187012  l-0.0000534-0.0002289c-0.0017014,0.0006561-0.8386841,0.3167725-1.7318954,0.6425476  c-0.4463348,0.1626587-0.9063644,0.3277283-1.277504,0.4546509c-0.1852989,0.0635834-0.3486748,0.1177216-0.4730263,0.156311  l-0.151535,0.0447235l-0.042366,0.0109558l-0.0083313,0.0017548l0.0002213,0.0008698  c-0.2785187,0.0523987-0.4486885,0.1900635-0.574688,0.3152466c-0.1878166,0.1959839-0.3016472,0.4099426-0.3912544,0.6473541  c-0.0529938,0.14534-0.0876312,0.3023071-0.1114159,0.4645386c-0.0322266-0.0035095-0.0612183-0.0171051-0.0945396-0.0160065  l-0.004715-0.0002289l-0.0317307,0.0002289c-0.0807838,0.0013123-0.3475723-0.0127258-0.5924988-0.1015015  c-0.2512245-0.0929565-0.4489632-0.2240448-0.5757256-0.4741821c-0.0574379-0.114212-0.0835228-0.2347717-0.083252-0.3360596  c0.0002213-0.1341553,0.0419807-0.2205353,0.0794678-0.2606506c0.0405579-0.037262,0.0758514-0.0771637,0.2581329-0.0828705  c0.3734436-0.0041656,0.776371-0.088562,1.2566261-0.2012329c1.4132614-0.3404541,3.3065605-0.9946136,3.3176842-0.9978943  l0.089386-0.0377045c0,0,3.7337112-1.8809204,7.7629242-3.9446564c2.0146942-1.0318756,4.1033173-2.1095581,5.8381195-3.0217438  c1.7387466-0.9147949,3.1067352-1.6531372,3.7390213-2.0437927c0.72995-0.456192,1.3209152-1.1535339,1.8450699-1.9319763  c0.7809677-1.1693268,1.3968201-2.5425262,1.8290634-3.6338043c0.4308777-1.0906219,0.6728439-1.896698,0.6770096-1.9102936  c0.2247009-0.7637634,0.3861542-1.9210205,0.5318298-3.4483337c0.5000381-5.3200378,0.6876907-14.9797745,0.77845-23.6185913  c0.0027924-0.2678909,0.0052032-0.5309525,0.0078354-0.7966461c1.5730209,0.2729263,5.2473755,0.8310623,9.0530396,0.8321609  c2.2391205-0.0026321,4.5181885-0.193573,6.4775772-0.7786713c-0.4863892,3.1940384-1.2381516,6.5123825-2.0184708,9.5321426  C101.8193512,122.4906998,101.1492538,124.8234253,100.6153946,126.7039032z"/></svg>