<svg xmlns="http://www.w3.org/2000/svg" xmlns:xlink="http://www.w3.org/1999/xlink" version="1.1" x="0px" y="0px" viewBox="0.353 53.049 161.801 67.513" style="enable-background:new 0 0 161.5 162.6999969;" xml:space="preserve"><g><path d="M159.0397797,66.7605667c-0.0135498-0.1224289-0.0743561-0.2329636-0.1706696-0.3097153   c-0.0014191-0.0010757-2.609787-2.0823212-3.0714569-2.4417572l-0.0009766-0.0010834   c-0.0169983-0.0108109-0.0905457-0.1270218-0.142334-0.2878227c-0.0832367-0.2416077-0.1434021-0.5729446-0.1770477-0.8342819   c-0.0171967-0.131073-0.0285797-0.2456627-0.0355377-0.3264656l-0.0074005-0.0937805l-0.0019531-0.0299988l-0.0264893-0.1302643   c-0.4368744-1.19561-1.4335785-2.2228546-2.3116608-2.9876785c-0.6325073-0.5467262-1.2048035-0.9458961-1.4843903-1.1326408   c-0.040329-0.0743217-0.0952606-0.141346-0.1735382-0.1851273c-2.3751678-1.3307381-4.5118103-1.8401718-6.3701935-1.8396301   c-2.7167816-0.0002708-4.8111725,1.0834541-6.2111206,2.1569099c-1.3043671,0.9996796-2.0141602,1.9817886-2.1234436,2.137455   c-0.0526581,0.0572968-0.1944733,0.2170143-0.3911285,0.4780846c-0.2102814-0.0400009-0.5262451-0.0843201-0.9156952-0.0845909   c-0.5462189,0-1.2332458,0.0878334-1.9328308,0.411869c-0.6992493,0.3226852-1.4035034,0.8883324-1.9578705,1.7955818   c-0.5669556,0.9280586-0.8459015,2.1074562-0.84729,3.3157692c0.001358,1.3626328,0.3580627,2.7703934,1.144577,3.8862762   c0.7814026,1.1158905,2.0328217,1.9209824,3.6808777,1.9809799c0.0123291,0.0005417,0.0229034-0.0051346,0.0350342-0.0056763   c0.1730347,0.3440323,0.358963,0.690773,0.573761,1.04319c1.0493927,1.7201767,2.2988892,2.8433609,3.3367767,3.5581894   c-0.3652496-0.0373001-0.7644501-0.0640564-1.2102356-0.0640564c-0.1591187,0-0.3247528,0.0040588-0.4934235,0.0108109   c-0.3681641-0.3007965-0.8080597-0.5132141-1.2919312-0.6521225c-0.5930786-0.1694565-1.2519531-0.2391815-1.9448242-0.2394485   c-2.5070953,0.006752-5.4763336,0.9034653-7.183876,1.8580093c-1.2813492,0.7223892-3.3758011,2.1023178-5.1635437,3.3090134   c-1.6571426,1.1185837-3.0407486,2.0825882-3.2327347,2.2166367c-2.3126755,0.9026566-4.1060257,1.6074829-4.6772461,1.8471985   c-0.1510086,0.0640488-0.3974457,0.1294556-0.7028046,0.181076c-1.0766602,0.1853943-2.8605576,0.2218781-4.5977249,0.2443085   c-0.8703613,0.0118942-1.7325745,0.021347-2.5031433,0.0478363c-0.7716522,0.0270233-1.4476242,0.0694504-1.968277,0.1543121   c-1.0486603,0.1721573-3.687912,0.6234818-6.4672241,1.0315704c-2.7743454,0.4086227-5.7048645,0.7721176-7.2569733,0.7707672   c-0.1629333,0-0.3094482-0.0037842-0.4360962-0.0113525c-1.1954422-0.0724258-2.3544693-0.4707794-3.3383713-0.8648148   c-0.4925385-0.1964798-0.9405518-0.3913345-1.3379669-0.5421371c-0.1550903-0.0575638-0.2989731-0.1072922-0.4394989-0.1502609   c-0.002739-0.0078354-0.0014191-0.0159454-0.0046005-0.0235138l-0.0000305-0.000267   c-0.1501617-0.3675461-0.4195709-0.6429367-0.7226639-0.8023911c-0.3035965-0.1616135-0.6324997-0.2207947-0.9467773-0.2210693   c-0.3992004,0.0010834-0.780426,0.0935059-1.1025391,0.2456665c-0.1611099,0.0770187-0.3081284,0.1694489-0.4362259,0.2867355   c-0.1262131,0.117836-0.2418442,0.2640457-0.2973175,0.4664612c-0.0049286,0.0186539-0.0028,0.0348663-0.0064545,0.0532455   c-0.1541443-0.0291901-0.3715668-0.0594559-0.6339493-0.0599976c-0.3004913,0.0005417-0.6561127,0.0397263-1.0128174,0.1897202   c-0.2637024,0.1081009-0.4463654,0.3332214-0.5338211,0.5529404c-0.0912476,0.2229614-0.1164474,0.449707-0.1173248,0.6751022   c0.0009079,0.3732224,0.0755692,0.7507706,0.1682663,1.0818329c0.009491,0.033783,0.0208435,0.0594559,0.0307388,0.0918884   c-0.1731339,0.0721588-0.4157181,0.1835022-0.6692886,0.3345718c-0.2321854,0.1394577-0.4732819,0.3099899-0.6764832,0.5340271   c-0.1996841,0.2210693-0.3766327,0.5188904-0.3779831,0.8883362c-0.0000381,0.0683746,0.0064163,0.1389084,0.0196915,0.2091751   c0.061821,0.3205261,0.2112732,0.6088867,0.4012604,0.8772507c0.1810379,0.2513351,0.403595,0.4883499,0.6447983,0.7107697   c-0.0156708,0.0202713-0.0359802,0.035675-0.0484085,0.0591888l-0.0000381-0.000267   c-0.014389,0.0348587-0.2026215,0.3694382-0.2078552,0.8472519c-0.0000687,0.1791763,0.0306396,0.3829498,0.1248932,0.5850983   c0.093132,0.2018814,0.2526855,0.394577,0.4694672,0.5402451c0.2722778,0.179451,0.5879059,0.2724152,0.9367752,0.3534927   c0.1830978,0.0408096,0.375351,0.0729675,0.5679779,0.1016159c0.010704,0.0037842,0.0184784,0.0118942,0.0296249,0.0151367   l0.0937424,0.0262146c-0.0036163,0.0372925-0.0113144,0.0748596-0.0113144,0.111618   c-0.0007782,0.2259293,0.0708389,0.4380798,0.1773529,0.6102371c0.1689072,0.2705231,0.4068375,0.4588928,0.6613159,0.615097   c-0.8031006-0.0324249-1.5321121-0.0529633-2.1177216-0.0529633c-3.6965256,0.000267-9.1089783,0.3229523-9.4843292,0.3453827   c-0.2143784-0.00811-3.576973-0.1670151-8.347393-2.8463364c-1.3334427-0.7488785-3.751152-2.0623169-7.521862-3.4168396   c-3.7718964-1.3553391-8.9015541-2.7555313-15.6793709-3.6946716c-1.29422-0.1791763-2.6723557-0.3807907-3.8938141-0.5994263   c-1.2194252-0.2175598-2.2903824-0.4572754-2.9301128-0.6915894c-1.0735912-0.3915939-1.7709866-0.7977905-2.2597446-1.1796646   c-0.7338791-0.5748367-1.0069046-1.0923767-1.4143505-1.5893707c-0.2027245-0.2456665-0.4547729-0.4870071-0.8021183-0.6486206   c-0.346941-0.1624222-0.7639465-0.2399826-1.2906418-0.2397156c-0.2010708,0-0.4203491,0.0108109-0.6616535,0.0340576   c-0.0615501,0.0059433-0.1186428,0.0243225-0.1701603,0.0516129c-0.3682232-0.109993-0.7626286-0.1562042-1.172472-0.1567459   c-0.9363689,0.0010834-1.9550648,0.2229614-2.8747787,0.504837c-0.9196815,0.282959-1.7321377,0.6261826-2.2484608,0.8961716   c-0.266304,0.1402588-0.7109089,0.2997131-1.2454414,0.4453812c-1.6076851,0.441864-4.0524187,0.7859039-5.6593266,0.7840118   c-0.2981262,0-0.5665913-0.0113525-0.7906675-0.0343246l0.0019255,0.0002747   c-0.1652956-0.0178375-0.3288002-0.0251389-0.4896021-0.0251389c-1.0226488,0.0013504-1.9818878,0.3045807-2.6946878,0.599968   c-0.3012004,0.1256714-0.5545316,0.249176-0.7520885,0.352684c-0.0270257-0.0424271-0.0505042-0.0835037-0.0830359-0.1275558   c-0.1163788-0.1564789-0.2714381-0.3218765-0.4818664-0.4534912c-0.209043-0.1318893-0.4785218-0.2243118-0.7796206-0.2232361   c-0.0755367,0-0.152019,0.0059509-0.2290754,0.0170288c-0.3122473,0.0391846-0.5918269,0.1964798-0.7633381,0.4210587   c-0.0088506-0.0016174-0.0158772-0.0070267-0.0248971-0.0078354c-0.0762124-0.00811-0.1470871-0.0108109-0.2113738-0.0108109   c-0.3951144-0.0027008-0.7024965,0.1218872-0.8930945,0.283226c-0.1920507,0.1602631-0.2603915,0.3305283-0.2788365,0.3862   c-0.0284107,0.0851288-0.031147,0.1789093-0.0076685,0.2659302c0.0070941,0.0229721,0.1865778,0.6929321,0.6091568,1.4180298   c0.2123199,0.3624115,0.4861226,0.7410431,0.8460021,1.05616c0.3581567,0.3140411,0.8139095,0.565918,1.3564143,0.6305084   c0.3669062,0.0429688,0.8747845,0.1916122,1.4453621,0.4080887c0.8582649,0.3240356,1.8648338,0.7956314,2.8648815,1.2591171   c1.0014668,0.4637604,1.995266,0.9194107,2.8593073,1.2166977c0.5957117,0.2040405,1.6501484,0.4615936,2.9298096,0.7461777   c3.8285809,0.849411,9.587801,1.8998947,9.5907059,1.9004364l0.0126362,0.0021591   c1.7476768,0.2680969,4.2697372,0.97995,7.0887108,1.9323349c2.9888954,1.0091324,6.3152695,2.2885208,9.4636154,3.5949402   c0.0511131,0.0354004,0.1093216,0.0616226,0.1741829,0.0740509c0.0016212,0.000267,0.0031395-0.000267,0.0047607,0   c1.2464905,0.5186234,2.4658165,1.0404816,3.6193008,1.5515366c2.05756,0.9110336,3.9158058,1.7861252,5.386673,2.5368958   c0.7352638,0.3753815,1.373745,0.7196884,1.889595,1.0204849c0.5150757,0.2997131,0.9100876,0.5591583,1.1429482,0.747261   c1.8794937,1.512886,3.8204384,2.9176788,3.8239517,2.9201126l0.0388145,0.0254059   c1.1328468,0.6556396,2.8551865,1.311821,5.2059059,2.1458282c2.3489952,0.8321152,5.3201256,1.8339539,8.9120216,3.1465912   c3.3216858,1.2129059,7.6488876,2.1139374,11.8843002,2.735527c4.2349777,0.6205063,8.3717194,0.9583282,11.3016968,1.0283279   c0.7834091,0.0181046,1.6671066,0.0267563,2.6136475,0.0267563c3.0588608,0,6.7734222-0.0899963,9.8485336-0.2248535   c1.5377197-0.0675659,2.9149094-0.1464844,3.9735031-0.2313385c0.5295944-0.0424347,0.9791336-0.0864868,1.3336411-0.1321564   c0.1774597-0.0229721,0.3310318-0.0462189,0.4623108-0.0710831c0.1324539-0.0253983,0.2381973-0.0494537,0.3445053-0.0883713   c0.0328674-0.01297,0.1334381-0.0424271,0.2685699-0.0743179c0.5154419-0.1229706,1.5597763-0.3094406,2.8479538-0.5178146   c3.8698654-0.6269913,10.0103455-1.472084,11.6503983-1.6650467c1.2350006-0.1462021,2.8599396-0.5859146,4.3824921-1.1307449   c0.7604675-0.2726898,1.4929657-0.5715942,2.1340179-0.8759003c0.6416931-0.3053894,1.1895599-0.6121292,1.5961304-0.9210358   c0.7946167-0.6086121,1.6128235-1.5942383,2.258255-2.4398651c0.4846039-0.6372681,0.8617096-1.1910172,1.019577-1.4274979   c0.1448822-0.0502625,0.3296509-0.0845871,0.5711517-0.1197205c0.4549103-0.0675659,1.0817261-0.1524277,1.8443909-0.5075378   c0.7649231-0.3545761,1.6645355-0.9707642,2.7504272-2.0750275c2.118576-2.1515045,2.6014862-4.5386734,2.5980682-6.2045364   c-0.0005035-1.3245239-0.2940369-2.209343-0.3045349-2.2420425l-0.0177307-0.0451279l-0.0002747-0.0005417   c-0.0287781-0.0662155-0.8534393-1.9658432-0.853775-5.8121262c0.0000305-1.1945267,0.0796967-2.5763474,0.2878571-4.1497803   c0.0254669-0.1932297,0.0420227-0.3805161,0.0566101-0.566452c0.0696716-0.0345917,0.1341553-0.0802689,0.1805115-0.1494522   c0.7217865-1.0783234,2.5879974-3.8257446,2.8946991-4.2784195c0.4053955-0.5997009,0.8035736-1.3907394,1.1092682-2.0417862   c0.1970215-0.420517,0.3521729-0.7777939,0.4384918-0.9807587c1.0310974-0.4243011,2.4426117-0.9472504,3.6742706-1.4904633   c0.5258484-0.2324142,1.01474-0.4675369,1.4375153-0.7064438c0.6282501-0.2783661,0.9932251-0.5637589,1.015152-0.5794296   c0.1144562-0.090538,0.1674194-0.2240448,0.1681366-0.3594437c0.0574188-0.0829697,0.110733-0.1689072,0.1476898-0.270256   c0.0486755-0.1416092,0.0705109-0.2810669,0.0865784-0.4399719c0.0152435-0.1578293,0.0214233-0.3326874,0.0214539-0.5242996   c-0.0009155-1.015625-0.1750488-2.5431061-0.3475189-3.8373642c-0.1276855-0.9542694-0.254715-1.7717972-0.3126831-2.1358337   l0.8305969-1.0331879C159.0179596,67.0037994,159.0532837,66.8829956,159.0397797,66.7605667z M154.5175171,62.5678177   c0.0107422,0.1413422,0.0389862,0.4524078,0.1017456,0.7988739c0.0426788,0.2337723,0.0999298,0.4826775,0.1861115,0.7175293   c0.0906067,0.2335052,0.1927948,0.46241,0.4260559,0.6523972c0.2220764,0.172699,0.9909668,0.7840118,1.6999817,1.3485794   c0.3828888,0.3051147,0.7448883,0.59375,1.0009918,0.7977982l-0.6690826,0.8323822   c-0.0825653,0.1024323-0.1169891,0.2337723-0.0955811,0.3637695c0.0001068,0.0005417,0.0424347,0.2575531,0.1065216,0.676178   c0.0665131,0.434845,0.1560669,1.043457,0.2446136,1.7104492l-1.0066986,0.2402573   c-0.2476196,0.0589142-0.4004211,0.3075485-0.3413086,0.5553741c0.0590973,0.2475586,0.3077545,0.4002533,0.5553894,0.3410645   l0.9087982-0.2170181c0.1197205,1.0050812,0.2140045,2.0350266,0.2135315,2.7209396   c0.0000305,0.1710739-0.0059052,0.3197098-0.0171967,0.435379c-0.010437,0.1151352-0.0294952,0.1994553-0.0385742,0.2226944   c-0.0025024,0.014595-0.0524597,0.1005325-0.1666107,0.2040405c-0.1481323,0.138916-0.3911285,0.3059311-0.6950378,0.4807892   c-0.5174713,0.2253952-1.2453308,0.4464645-2.1084595,0.4442978c-1.3985138-0.0051346-3.1858826-0.5510483-5.1654053-2.6920166   c-0.1250916-0.1343155-0.2676849-0.2205276-0.4149475-0.2918777c-0.2584229-0.1221542-0.5457764-0.200531-0.8576508-0.2816086   c-0.4661255-0.1191788-0.9848175-0.2364731-1.4597626-0.4156494c-0.4760437-0.1783676-0.8974152-0.4153824-1.1914215-0.7464523   c-0.1936035-0.2151184-0.3138275-0.5510483-0.3135223-0.9450836c-0.0004425-0.731308,0.4125061-1.6007233,1.2953339-2.078804   c0.1025238-0.0554047,0.2066803-0.0802689,0.334198-0.0808105c0.2097931-0.0016174,0.4840393,0.0808105,0.7683411,0.2299881   c0.4273834,0.221344,0.8668213,0.5794296,1.1880798,0.8802261c0.1611786,0.150528,0.2939758,0.2864685,0.3853912,0.3837662   l0.1045532,0.1135025l0.0260773,0.0294571l0.007019,0.00811c0.1177063,0.1370163,0.306076,0.1926956,0.4794464,0.1418839   c0.020401-0.0067596,0.4446259-0.1291809,0.8999786-0.3940353c0.2277222-0.1337738,0.4660187-0.3029556,0.6654663-0.5340195   c0.197525-0.227829,0.3607941-0.5405121,0.3602295-0.9091415c0.0005646-0.2483673-0.0749054-0.5037613-0.2162781-0.7440186   c-0.1283722-0.2180939-0.2670441-0.5667267-0.3665619-0.9775162c-0.1004791-0.4115982-0.1649323-0.8872452-0.1647949-1.373436   c-0.0001373-0.4851151,0.0639801-0.980217,0.2124176-1.4353333c0.1656036-0.5094299,0.2191467-1.001297,0.2189484-1.4655952   c-0.0033417-0.9158974-0.1927643-1.7307205-0.1893158-2.4920311c0.0001678-0.2064743,0.0134735-0.4086266,0.0444946-0.6102371   c0.3166962,0.2278252,0.7374573,0.5488892,1.1734772,0.9383278   C153.4128418,60.8306122,154.2005768,61.7211037,154.5175171,62.5678177z M127.7859344,78.5510178   c1.5226135-0.8648148,4.449295-1.7463913,6.7314301-1.7396317c0.5450745-0.0002747,1.0480804,0.0521545,1.4868164,0.1551208   c-0.9311676,0.1581039-1.9508057,0.4237671-3.0442047,0.8513107c-2.3860474,0.9329224-6.4813766,2.5209427-10.2489777,3.9860001   c0.4376144-0.2953873,0.8918152-0.599968,1.3491516-0.9034653   C125.4554825,79.9744568,126.8676376,79.0680161,127.7859344,78.5510178z M82.9035568,85.9806213   c0.1818466-0.0748596,0.4159241-0.124855,0.6342545-0.1243134c0.1969833-0.0002747,0.377655,0.0394592,0.5119324,0.1121521   c0.0059128,0.0032501,0.0096664,0.0083847,0.0154419,0.0118942c-0.0761108,0.0386505-0.1678619,0.0964813-0.262558,0.1870193   c-0.1994476,0.186203-0.3738937,0.5256424-0.368866,0.9585953c-0.0000305,0.0632401,0.0032806,0.1283722,0.0098038,0.1951218   l0.0021591,0.0440521c-0.0004044,0.0872955-0.0246277,0.166214-0.0747299,0.2532349   c-0.0427322,0.0751266-0.1085739,0.1475601-0.1796188,0.2148514c-0.0851593-0.1694489-0.1826553-0.3718719-0.2740021-0.5813217   c-0.0920563-0.2110672-0.1775894-0.428894-0.2372131-0.6199646c-0.0605774-0.1897202-0.090744-0.3583603-0.0889893-0.4318695   l0.000946-0.0205383C82.6082687,86.1514282,82.7272491,86.0487289,82.9035568,85.9806213z M80.3660889,87.0230026   c0.028717-0.0599976,0.0304413-0.0502701,0.0395966-0.0567551l0.0010757-0.0005417   c0.2014771-0.0856705,0.4377518-0.1178284,0.6545639-0.1172867c0.1728287,0,0.3308258,0.0197296,0.4418335,0.0394516   c0.0555344,0.0097351,0.09935,0.0194626,0.1276627,0.0262146l0.0303345,0.007843l0.0042877,0.0010757l0,0l0.0012894,0.0002747   l0.0000305-0.0002747c0.048851,0.0140533,0.0975952,0.014328,0.1457367,0.0124359   c0.0078735,0.0245895,0.0126648,0.048645,0.020874,0.0735092c0.0213165,0.0629654,0.0460815,0.1267471,0.0698624,0.1902618   l-0.503418,0.4713211c-0.1360703,0.1272964-0.1819458,0.3243103-0.1162415,0.4988937l0.5039215,1.3375015   c0.0373306,0.1391754,0.0509491,0.2470093,0.0508118,0.3197098c-0.0003052,0.0851288-0.0152054,0.1221542-0.0224304,0.1370163   l-0.0490494,0.0381088c-0.0365906,0.0159454-0.1071625,0.0270233-0.1735077,0.0267563   c-0.0814514-0.1072922-0.1945496-0.2572861-0.3189011-0.4245758c-0.2333298-0.3137665-0.5027771-0.6883392-0.6048355-0.8577881   c-0.0162506-0.0259476-0.0559387-0.1056747-0.0952606-0.2064743c-0.1227646-0.3048477-0.2583008-0.8283386-0.2550888-1.195343   C80.3183594,87.1975861,80.3410568,87.0800247,80.3660889,87.0230026z M78.794487,90.2749939   c-0.0013504-0.0551376,0.0292206-0.1464844,0.1408005-0.2707977c0.1618805-0.1837769,0.4731522-0.3797073,0.7378693-0.5086212   c0.1140823-0.056488,0.2150192-0.1002655,0.2969742-0.1340485c0.059082,0.0894547,0.1245193,0.1856689,0.1989441,0.2905273   c-0.0113144,0.006752-0.0213547,0.0113449-0.0329361,0.0189133c-0.0948257,0.0626984-0.200531,0.1475601-0.2923508,0.2756653   c-0.0915146,0.1262054-0.1635056,0.3061981-0.1622238,0.5029449c-0.0001678,0.2053909,0.0729065,0.4070053,0.1930008,0.5902405   c0.1210709,0.1848526,0.289917,0.3616028,0.5196304,0.5491562c0.1853638,0.1505356,0.2887039,0.2775574,0.3417435,0.3694382   c0.0530319,0.0929718,0.0602646,0.1470184,0.0610733,0.187561c0.0007477,0.0386429-0.0146637,0.0799942-0.0374298,0.1218872   c-0.3909225-0.2289124-0.8130951-0.5226746-1.1640625-0.8399582c-0.2204895-0.1986389-0.4122009-0.4056549-0.5506058-0.6007767   c-0.1394577-0.1948547-0.221611-0.3764648-0.2467499-0.5142975L78.794487,90.2749939z M79.7930832,93.3402328   c-0.0876694-0.0605392-0.1241531-0.1121521-0.1507721-0.166748c-0.0255051-0.0545883-0.0383072-0.1194534-0.0383759-0.1951218   c-0.0005722-0.0999985,0.0251312-0.2140427,0.0534058-0.297287l0.0083466-0.0216141   c0.3247147,0.2294464,0.6557083,0.4291611,0.9608612,0.5902328c0.1446533,0.0754013,0.3164673,0.069191,0.4553146-0.0164795   c0.0191193-0.0124359,0.1075974-0.0683746,0.2168808-0.172699c0.4770355,0.1297226,0.7378693,0.2889023,0.8556976,0.4078217   c0.1225967,0.1280975,0.1300278,0.1986313,0.134758,0.281601c0.0000687,0.0091934-0.0050354,0.0172958-0.0057449,0.0267563   c-0.2826843-0.0140533-0.7131042-0.0424271-1.1479111-0.0975647c-0.2907639-0.0367508-0.5835495-0.0859375-0.828064-0.1470184   C80.0639801,93.4731979,79.8659821,93.392662,79.7930832,93.3402328z M83.3842087,94.2404556   c0.040062,0.0389175,0.0733032,0.0778351,0.1001282,0.1267471l-0.3750153-0.1054001   c0.0170288-0.0429688,0.0320587-0.0945892,0.0467224-0.1475601C83.2388763,94.1455994,83.3227234,94.185051,83.3842087,94.2404556z    M83.8439102,95.4260712c0.1235428,0.0345917,0.2543793,0.0167542,0.3640671-0.0500031   c0.1096954-0.0664825,0.1858368-0.1745834,0.2119522-0.2999802c0.031517-0.1516113,0.0473633-0.2962036,0.0473633-0.4343033   c0.0016174-0.3275528-0.0942535-0.6194229-0.2470474-0.8386002c-0.2307358-0.331604-0.5479431-0.489975-0.7886429-0.5737534   c-0.1710358-0.0586472-0.3091049-0.0816193-0.3876114-0.0913467c-0.0622253-0.1127014-0.1368561-0.2237778-0.2402573-0.3240356   c-0.2483978-0.2448578-0.6063919-0.4391708-1.0937653-0.5915909c0.0018921-0.0262146,0.0088196-0.0491867,0.0089188-0.0764847   c0.0008163-0.2108002-0.0610046-0.4372711-0.1856613-0.6505051c-0.1246567-0.2140427-0.3076553-0.4186249-0.5572052-0.6215897   c-0.1784363-0.1448593-0.2809982-0.2626877-0.3291702-0.3375473l-0.0364151-0.0699997l0.0091858-0.0086441l0.0995255-0.0570297   c0.1517181,0.2016144,0.2627563,0.3464737,0.2634277,0.3472824c0.0660172,0.0859375,0.1615524,0.1464767,0.2675247,0.1697159   c0.0212784,0.0043259,0.1516113,0.0327072,0.3393021,0.0329742c0.1900635-0.0021591,0.4514618-0.0237808,0.7159424-0.1953964   c0.1301956-0.0856705,0.2538757-0.2153931,0.3347168-0.3783569c0.0818176-0.1629639,0.12043-0.351059,0.1201248-0.5502396   c-0.0001373-0.1786423-0.0293198-0.3686295-0.0866165-0.5772705l-0.0131073-0.0402679l-0.4056168-1.0766983l0.0385437-0.0362091   c0.1791763,0.3670044,0.3282547,0.6326675,0.3314667,0.6396942c0.1184387,0.2108002,0.3811951,0.2943039,0.5997009,0.1905289   c0.0235062-0.0121613,0.2751541-0.1302643,0.5482788-0.3716049c0.1361771-0.1213455,0.2791443-0.2748489,0.3945084-0.4718628   c0.1148911-0.1959381,0.2006607-0.4418716,0.2002563-0.717804l-0.0064545-0.1329651l-0.0055008-0.1062088   c0.0050278-0.2170181,0.0590515-0.2610703,0.0880661-0.295929l0.0405731-0.0294571l0.003952-0.0016251l-0.0003052-0.0008087   l0.033783-0.0113525l0.0000381,0.0002747l0.0380325-0.0029755c0.1093521-0.0048676,0.4021072,0.0686417,0.7645874,0.2097168   c1.1084595,0.4159241,2.9101868,1.3375015,4.9473419,1.465332c0.1516113,0.0091858,0.3154221,0.01297,0.4921036,0.01297   c1.6713943-0.0013504,4.5945816-0.3705215,7.3909531-0.7805023c2.7914047-0.4099731,5.4398804-0.8629227,6.4825974-1.0337296   c0.5064926-0.0840454,1.287529-0.1289063,2.1801224-0.1532288c1.341713-0.0373001,2.9449081-0.0332413,4.3745956-0.0845947   c0.7154388-0.0256729,1.387558-0.0651321,1.9692535-0.1324234c0.5835495-0.0691833,1.0700073-0.1578293,1.4552612-0.3172836   c0.8014755-0.3364639,4.253891-1.6842346,8.1051102-3.1817169c3.8539124-1.4985733,8.1172638-3.1514587,10.5740356-4.1122131   c1.5806885-0.6178055,2.986557-0.8775253,4.1651154-0.9550858c0.1377563,0.0672913,0.2971039,0.0575638,0.4309235-0.0213547   c0.120163-0.0037842,0.2411652-0.0078354,0.3557587-0.0078354c0.9544678,0,1.7126465,0.1175613,2.2274475,0.2332306   c0.2573853,0.0578384,0.4538879,0.1151276,0.5834045,0.1570206c0.0647736,0.0208054,0.1128082,0.0378342,0.1433105,0.0491867   l0.0325623,0.0124283l0.0062561,0.0024338h0.0000305l0.0522919,0.0178375l0.0097961,0.0029755   c0.133606,0.0378342,1.516922,0.4670029,2.8332367,1.5453186c0.6590424,0.5388947,1.3013153,1.2366943,1.7785797,2.1271896   c0.4768982,0.891304,0.7935791,1.9755707,0.7943115,3.3171158c-0.0000305,0.3834915-0.0262451,0.7880707-0.0826569,1.2158813   c-0.2133636,1.6123505-0.2957916,3.0352478-0.2957611,4.2705841c-0.0000305,0.2264786,0.0037842,0.4443054,0.0090179,0.6580734   c-0.0058746,0.0137863-0.0166473,0.0237808-0.021286,0.0381088c-0.4635162,1.4274902-1.2815094,2.3590622-2.323349,2.9668655   c-1.0419464,0.6051025-2.3250427,0.8710327-3.6766968,0.8707657c-1.5956879,0.0008087-3.2787476-0.3710632-4.7258606-0.9453583   c-1.9281158-0.7672501-2.8556976-1.8009796-3.328476-2.6276932c-0.2354279-0.414032-0.3546448-0.7791519-0.4150085-1.0356216   c-0.0032501-0.0137863-0.0046692-0.0235138-0.0075684-0.0367584c2.3926086-0.0940475,4.9208221-0.1040421,5.8224182-0.103775   c0.2217102,0,0.3439789,0.0008087,0.3443451,0.0008087c0.2544861,0.0016251,0.4620972-0.2034988,0.4637909-0.4578094   c0.0016632-0.2545853-0.2032928-0.4621429-0.4577789-0.4637604l-0.0000305-0.000267   c-0.000885,0-0.1263428-0.0008163-0.3503265-0.0008163c-0.7865753,0-2.7904816,0.0067596-4.8809814,0.0702667   c-1.0454254,0.0316238-2.1123505,0.0772934-3.0622406,0.1440506c-0.9512329,0.0667496-1.7800751,0.15242-2.3756866,0.2724152   c-1.1072693,0.2237701-3.6814194,0.8159027-6.5457993,1.353714c-2.8599167,0.5380783-6.0124512,1.0172424-8.2003708,1.015892   c-0.1459732,0-0.2846451-0.0032425-0.4213638-0.0075684c-0.0011826-0.0067596,0.0011139-0.01297-0.0003738-0.0197296   c-0.0551605-0.2483673-0.3013-0.4053802-0.5497971-0.3499832l-0.0000381-0.000267   c-0.0001678,0-0.0548248,0.0121613-0.1624908,0.0345917c-0.7521515,0.1570206-4.0085373,0.7899551-7.1045227,0.7888794   c-0.3452835,0-0.6886749-0.00811-1.0261917-0.0245972c-0.6220932-0.0316162-1.3911438-0.0445938-2.2490005-0.0445938   c-4.5998917,0.0002747-11.7667389,0.3753891-11.7708282,0.3753891c-0.0984039,0.0051346-0.1940079,0.0424271-0.2698822,0.1054001   c-0.0123291,0.0102692-0.3131638,0.2594452-0.6605759,0.6537476c-0.3459244,0.3964691-0.7460403,0.9313049-0.9344101,1.5669403   c-0.1086731,0.3783646-0.3965302,0.6761856-0.746109,0.8869858c-0.3413696,0.2102585-0.7459717,0.3129501-0.9162674,0.3156586   c-0.4070053,0.0159454-1.2027054,0.0808029-1.6433258,0.1183701c-0.0186844-0.0559464-0.0322647-0.1091843-0.030777-0.1345901   l0.0007095-0.0091858l0.0081787-0.0051346c0.1722565-0.0943222,0.2660675-0.2870102,0.2337341-0.4807892   c-0.0323639-0.1934967-0.1837387-0.3456573-0.3772736-0.3783569l-0.0224991-0.0040512   c-0.1226273-0.0218887-0.7320938-0.1437759-1.2735519-0.3648453c-0.27005-0.1089172-0.5211182-0.2453918-0.6746216-0.3778152   c-0.0560455-0.0472946-0.094017-0.0913467-0.1237106-0.1316147L83.8439102,95.4260712z M124.1364975,92.3875809   c-0.7262802,0.8756332-1.667511,1.8642273-2.5748596,2.4668961c-1.9140549,1.2764206-4.330513,3.0609207-4.7298508,3.3568497   c-0.0120621,0.0037842-0.0193253,0.006218-0.0346985,0.0108109c-0.2454605,0.0748596-0.8932953,0.2653885-1.663826,0.4356537   c-0.7691498,0.1707993-1.6659241,0.3189011-2.3799057,0.3180847c-0.3347473,0.0005417-0.6281815-0.0337753-0.8344498-0.0970154   c-0.3277588-0.0972977-0.9881287-0.4105225-1.8020325-0.8167191c-1.228447-0.6102371-2.8439026-1.4353256-4.5375671-2.1233978   c-1.695816-0.6869888-3.466095-1.2442551-5.0557785-1.2996597c-0.1298523-0.0045929-0.2599182-0.0070267-0.3896408-0.0070267   c-3.6088943,0.0051346-6.3017883,1.6445084-6.9451675,2.0704269c-0.580986-0.0481033-2.6893158-0.2197189-5.1540833-0.3940277   c0.1228943-0.1824265,0.231842-0.3794403,0.2995453-0.6102371c0.1173248-0.4145737,0.4403763-0.8769836,0.7412109-1.2153473   c0.1496506-0.1699905,0.2918701-0.311058,0.3951111-0.4080811c0.0222931-0.020813,0.0342178-0.0310822,0.0525665-0.0478363   c0.1911697-0.0097275,0.545372-0.027298,1.0281906-0.0499954c2.227005-0.1054001,7.116478-0.3159332,10.5334244-0.3159332   c0.8481598,0,1.6054535,0.01297,2.2028503,0.0435104c0.3545761,0.0175705,0.7129059,0.0256729,1.0723419,0.0256729   c2.4318695-0.0008087,4.9012985-0.3688965,6.302742-0.6188812c0.5456161,0.122963,1.1966934,0.1724243,1.9358444,0.1729584   c2.3112946-0.0013504,5.4834595-0.490509,8.3704681-1.0315628c1.4170151-0.2659302,2.7633286-0.5453796,3.8956375-0.7867126   C124.6591034,91.7392349,124.413002,92.0548935,124.1364975,92.3875809z M48.6182861,89.1877518   c-0.1032028,0.0945892-0.182827,0.1816101-0.2399864,0.2529602c-0.1035423-0.0321579-0.2052917-0.0653992-0.3096809-0.096756   c-3.3535347-1.0083237-7.1159019-1.7177429-10.3408661-2.2614975c0.2437019,0.0345917,0.487812,0.0691833,0.7269859,0.1024246   C42.3912201,87.7302628,45.7563782,88.4321136,48.6182861,89.1877518z M27.2953339,82.7099915   c0.2738361,0.2929535,0.5633144,0.8199539,1.1549377,1.3991089c0.5940914,0.5802383,1.4891109,1.1912918,2.9912605,1.7377472   c0.5688896,0.2064743,1.3380699,0.3937607,2.2217751,0.5699692c-0.1531029-0.0251312-0.3146477-0.0513458-0.4600105-0.075943   c-1.2076721-0.2024231-2.1497841-0.3832169-2.6437454-0.5372696c-1.410532-0.4386215-2.1338387-0.898056-2.6705666-1.4399185   c-0.5335197-0.5375443-0.9057636-1.216423-1.5000896-2.0963745c0.1068535,0.01297,0.2010708,0.0302658,0.2816753,0.0518875   C26.9625473,82.4013596,27.110445,82.5121613,27.2953339,82.7099915z M26.1472874,93.0551147L26.1472874,93.0551147   c-0.0016232-0.0005417-0.6385479-0.116478-1.6320419-0.3034973c-1.4901581-0.2802582-3.7778397-0.718338-5.897356-1.1572342   c-1.059639-0.2194519-2.0773544-0.4391708-2.9303503-0.6386185c-0.8513737-0.1986389-1.5447149-0.3805161-1.9265194-0.5121307   c-1.0632544-0.3648453-2.4434843-1.0353546-3.7719278-1.6439667c-0.66537-0.3043137-1.3195238-0.5932159-1.9259777-0.8226624   c-0.6077385-0.2289047-1.1635871-0.4002457-1.6615-0.4610596c-0.3223138-0.0391846-0.6016569-0.1851196-0.859684-0.4094315   c-0.3854523-0.3340378-0.6924968-0.8453598-0.8880944-1.2726364c-0.0889482-0.1926956-0.1535053-0.3616028-0.2002597-0.4937592   c0.0455379-0.0140533,0.1052985-0.0267563,0.2055297-0.0270233c0.0128708,0.2110672,0.0507069,0.4113235,0.1043186,0.5861816   c0.0650306,0.2078247,0.1396546,0.3780899,0.2193465,0.5126801c0.1308713,0.2180939,0.4139981,0.2891693,0.6323647,0.1580963   c0.2183332-0.130806,0.2892079-0.414032,0.1583366-0.6321259l-0.0000339-0.0002747   c-0.0270934-0.0435104-0.0867186-0.1705322-0.12925-0.310524c-0.0441866-0.1410751-0.0743203-0.3021469-0.0736446-0.4275436   c-0.0006418-0.1210709,0.0270257-0.1964722,0.0473962-0.2229614c0.0222282-0.0240555,0.0307751-0.0502701,0.1703286-0.0751266   l0.0028377-0.0002747l0.0973935-0.0075684c0.1206694,0.0010834,0.2058001,0.0313492,0.2915049,0.0835114   c0.1265135,0.0767517,0.2424531,0.2221527,0.3166723,0.3545761c0.0373626,0.0653992,0.0648613,0.1256714,0.0817862,0.1670151   l0.0177016,0.0456772l0.0030742,0.0089188l0.0005069-0.0002747c0.0430717,0.1356735,0.1463771,0.2443161,0.2800527,0.2935028   c0.1344523,0.0491867,0.284512,0.0329666,0.4054174-0.0435104l0.0144925-0.0089188   c0.0854683-0.0524292,0.534904-0.3197174,1.1629448-0.5697021c0.6275682-0.2508011,1.4337072-0.4802475,2.2171459-0.4791641   c0.1325264,0,0.2633305,0.006218,0.3918028,0.0197296l0.0019264,0.000267   c0.266573,0.027298,0.5632801,0.0391922,0.8846149,0.0391922c1.1524048-0.0005417,2.6289816-0.1570206,3.9949226-0.3978195   c0.6826992-0.1208038,1.3363819-0.2626877,1.9077358-0.4188995c0.5724354-0.1572876,1.0585918-0.3248444,1.4296532-0.517807   c0.4496384-0.2362061,1.2293949-0.5672684,2.0917473-0.8318481c0.8622856-0.2659302,1.8154106-0.4651108,2.6039486-0.4640274   c0.3975468-0.0005417,0.750433,0.0505371,1.0244732,0.1516113c0.2757626,0.1021576,0.4677124,0.2429581,0.603447,0.44133   c0.574091,0.8402252,0.9624157,1.5747833,1.6183605,2.2439346c0.6567211,0.6688843,1.5592747,1.2126389,3.054533,1.6734238   c0.3988647,0.122963,0.9479237,0.2402573,1.6360626,0.3680878c2.400547,0.4440308,6.4762077,0.9956207,10.6316986,1.8663864   c1.412323,0.2948532,2.8324814,0.629425,4.1969032,1.0067062c-0.6721916,0.5278091-1.2443237,1.2226334-1.7354126,1.9928665   c-0.9455948,1.4885712-1.6029243,3.2560425-2.0329323,4.6584015c-0.2401924,0.7850876-0.4053192,1.4466782-0.5066986,1.8866501   c-0.7864113-0.3240356-1.5814018-0.6459045-2.3798027-0.9618378C34.7685852,95.3963394,29.3785667,93.557518,26.1472874,93.0551147   z M93.520462,99.435585c-1.617218,1.3491135-3.9435806,1.0377808-3.9435806,1.0377808   c-5.0505371-1.1069641-13.0068741-1.1069641-19.994606-1.3145218c-6.9877396-0.2075577-14.5289612-4.566246-15.7051125-5.7424011   c-1.1761551-1.1761475-5.7855949-3.1010895-5.7855949-3.1010895c2.1197662,0.6540756,4.0350876,1.4255905,5.4697647,2.3370819   c6.2961197,3.9846497,12.4280243,5.6618576,15.7646027,6.0191345c1.6914978,0.1775589,4.4763489,0.0708084,8.0296402,0.1494522   c3.5486298,0.0772934,7.8456268,0.3359299,12.4800415,1.2283173l0,0c0.0418243,0.0086441,0.2812042,0.055397,0.6611481,0.055397   c0.6719284,0.0008163,1.7816315-0.1545868,2.8823471-0.967247c1.5437698-1.1415558,3.1319275-1.7439575,4.3320389-2.0590744   c0.5997925-0.1575623,1.1020355-0.2434998,1.4511337-0.2897186c0.1745529-0.0229721,0.3107986-0.0362091,0.4018402-0.0435104   l0.1017151-0.0072937l0.0286484-0.0013504C99.6944885,96.7365417,96.564621,97.2994843,93.520462,99.435585z    M138.6707916,108.8304901c-0.5748291,0.7340164-1.2679443,1.5180283-1.8428345,1.9536819   c-0.3198853,0.2445831-0.8270874,0.5345612-1.4329071,0.821579c-1.8175964,0.8664398-4.5492401,1.7296371-6.2287445,1.9239502   c-1.1871719,0.1397171-4.6266861,0.6064529-7.9177933,1.0912933c-1.6450806,0.2424164-3.2513123,0.4891586-4.5191193,0.7018509   c-0.6340866,0.1064835-1.1832504,0.2043152-1.6132278,0.289444c-0.2151871,0.0427017-0.4004135,0.0821609-0.5540237,0.1189117   c-0.1178284,0.0281067-0.2110367,0.0540543-0.2970123,0.0816193c0.1749268-1.1269684,0.5478439-3.9038467,0.5481796-7.1339417   c-0.0015869-2.8644409-0.299881-6.0742722-1.3096924-8.8198013c0.7447586-0.0699997,1.5160675-0.2248535,2.1644821-0.3780899   c0.8687057-0.2062073,1.5085678-0.4113312,1.5161667-0.413765l0.134285-0.0691833   c0.000473-0.000267,0.1673889-0.1243134,0.4519348-0.3334961c0.8531952-0.6269913,2.7581635-2.0134048,4.3025055-3.0428085   c0.7283096-0.4872742,1.4238434-1.1437225,2.0372238-1.8069305c0.5433502,0.8221207,1.9174652,2.7911987,4.0364075,5.0829697   c2.6955719,2.914444,6.5958252,6.3458786,11.5239868,8.5738678   C139.4351807,107.8118973,139.0813751,108.3078156,138.6707916,108.8304901z M151.6904755,77.6972809   c-0.11203,0.0467529-0.2024231,0.1378326-0.2485352,0.2502594c-0.0000305,0.000267-0.0118256,0.0289154-0.0351715,0.0843201   c-0.081543,0.194313-0.2984619,0.7007751-0.5750427,1.2758789c-0.2756805,0.574295-0.6145172,1.2199326-0.9230499,1.6744995   c-0.2419891,0.3572845-1.4562073,2.1450272-2.313736,3.4149551c-0.1029358-1.2023697-0.4434814-2.2320404-0.9212952-3.0909119   c-0.8645172-1.554245-2.1472168-2.5558167-3.205368-3.1719971c-0.3490448-0.2029648-0.670166-0.3607941-0.9507599-0.4864578   c0.6024933-0.3007965,1.0969238-0.6932068,1.4913635-1.1312943c0.8021545-0.8907623,1.2069702-1.9507065,1.418808-2.8360672   c0.0994568-0.4178162,0.1550293-0.7958984,0.1870575-1.1058807c0.5814514,0.4005127,1.2508392,0.608345,1.841217,0.7686081   c0.3994446,0.1062088,0.7689514,0.1889038,1.0495453,0.2740326c0.1398926,0.04216,0.2570496,0.0848618,0.3394012,0.124321   c0.0830688,0.0389175,0.1273651,0.0756683,0.1342468,0.0845871c1.7842407,1.9436798,3.5490112,2.7403946,5.0536957,2.9365997   C153.1934052,77.0983963,152.3578949,77.4183807,151.6904755,77.6972809z"/><polygon points="80.048233,86.1162949 80.0485077,86.1162949 80.0493164,86.1157532  "/><polygon points="5.6569581,83.9891129 5.6594243,83.9888382 5.6597958,83.9888382  "/></g></svg>