<svg xmlns="http://www.w3.org/2000/svg" xmlns:xlink="http://www.w3.org/1999/xlink" version="1.1" x="0px" y="0px" viewBox="46.757 1.506 70.585 162.233" style="enable-background:new 0 0 161.5 162.6999969;" xml:space="preserve"><path d="M114.1899796,143.8044434c0.0132141-0.2146606,0.0213852-0.4260712,0.0213852-0.6322021  c0.0011063-1.7344208-0.4592819-3.1722565-1.151535-4.3266907c-1.0396042-1.7341156-2.5760498-2.830246-3.8418427-3.4990845  c-1.2193604-0.6430359-2.1887665-0.8914948-2.2866135-0.9159546c-0.0326385-0.0093842-0.6410141-0.1847992-1.4414368-0.3624725  c-0.8210678-0.1809235-1.8276825-0.3663635-2.6585999-0.368042c-0.2079315,0.0001221-0.4063568,0.0117188-0.5955658,0.0424957  l-0.1664276,0.058075l-0.0445175,0.024292c-0.1076431,0.0579071-0.3990555,0.2093811-0.7223969,0.3410339  c-0.318367,0.134079-0.6887207,0.2370911-0.8518448,0.2313995l-0.0510101-0.003067l-0.012001-0.0021973  c-0.0737915-0.0237732-0.3360443-0.158432-0.6251297-0.3299561c-0.4420624-0.2592926-0.9951401-0.612381-1.4341888-0.8988037  c-0.4394608-0.2866516-0.7643127-0.5058899-0.7650681-0.5063477c-0.1280518-0.0864258-0.2882767-0.1099701-0.4357452-0.0640564  c-0.1475296,0.0459137-0.2660751,0.1562805-0.3224182,0.3000946l-0.6548691,1.671051  c-0.4894867,0.0602875-1.5090866,0.1947784-2.592514,0.3940735c-0.7505112,0.1383057-1.5265884,0.3061371-2.1820984,0.5065308  c-0.328331,0.1006927-0.6263428,0.2088013-0.8846588,0.333374c-0.2059479,0.1023102-0.3825226,0.219574-0.540947,0.3721008  c-0.8242493-1.5821838-2.7684479-4.8846436-5.7492294-7.2853394c-0.0109024-0.0087433-0.0244064-0.0107727-0.0357666-0.0184937  c-0.0152512-0.2082672-0.0404663-0.4096527-0.0850449-0.5945129l-0.0158768-0.0530396l-0.034668-0.0993042  c-0.0796509-0.231987-0.2827682-0.8462753-0.4638596-1.5714569c-0.1818466-0.7233276-0.3383026-1.5642166-0.336853-2.2102127  c-0.000061-0.163475,0.0096817-0.3134918,0.028923-0.4427643c0.0786667-0.5351639,0.276741-1.4066544,0.4553375-2.3659134  c0.1783142-0.9623871,0.3394623-2.0185089,0.3401642-2.9840851c-0.0033646-0.7797928-0.0969238-1.5087433-0.445549-2.1070862  c-0.0157089-0.0264969-0.0398788-0.04319-0.0592957-0.0656815c0.0136795-0.041153,0.0344315-0.0739059,0.0474701-0.1157608  l0.0200577-0.0933838c0.0001755-0.0015106,0.0300293-0.2555237,0.060173-0.5491943  c0.0299683-0.2988281,0.0608673-0.6148682,0.062027-0.8161316c-0.001564-0.0974503-0.0140915-0.1497955-0.0260315-0.21315  c-0.0433578-0.2060242-0.1240463-0.4821243-0.1980133-0.8561325c-0.0735092-0.3701859-0.1372757-0.8217621-0.1372147-1.3155289  c0-0.5212555,0.0706635-1.0876617,0.2728577-1.6603851c0.1511765-0.4313431,0.6744003-1.6267624,1.3543091-3.3330612  c2.0443039-5.1384125,5.5763702-15.0733566,5.5790939-25.3132629c-0.000061-0.8651733-0.0253296-1.7326126-0.07901-2.599472  l-0.0012741-0.0160522l-0.0035934-0.0451584c-0.0071945-0.0992432-0.022728-0.3570251-0.0226669-0.7393265  c-0.0001144-0.7647171,0.0621414-2.0274353,0.3738327-3.5157166c0.3936081-1.8895264,0.9892273-6.8302765,0.9912033-10.8918762  c-0.0009918-1.6003265-0.0911865-3.0566635-0.3399277-4.1642036c-0.0487518-0.210598-0.0804596-0.5864639-0.0795364-1.0692215  c-0.0010376-1.4885674,0.2703705-4.0042152,0.6973038-6.9768829c1.2779083-8.9150429,3.9387665-22.0287285,4.7210464-25.4895458  c0.0044022-0.0150719,0.0149002-0.0506058,0.0371017-0.122488c0.1910019-0.6304035,1.0792465-3.3400116,2.264122-5.0601025  c0.4197998-0.6208382,0.7802505-1.6008492,1.1412735-2.7785892c0.9392014-3.0963717,1.7480316-7.4773188,1.9291229-8.4840527  c0.1670074-0.1081114,0.4384155-0.2766829,0.7439117-0.4383554c0.3891373-0.2094393,0.8457565-0.3973722,1.1164093-0.4291973  c0.2450256-0.0326939,0.4301224-0.2349453,0.4409637-0.4818897l0.0009232-0.0501423  c-0.0027237-0.1292114-0.0073624-0.4689627-0.1883926-0.847611c-0.0915298-0.1877589-0.2369766-0.3886189-0.4589386-0.5396838  c-0.1205139-0.0830688-0.2638092-0.1417904-0.4183502-0.1823683c0.0706635-0.0975022,0.1384811-0.1773825,0.1908264-0.2247429  l0.0681152-0.0529828l0.0148392-0.0079994l-0.0001755-0.0004058c0.2437592-0.065794,0.4025879-0.3005071,0.3725052-0.5513935  c-0.0053329-0.0307813-0.0444641-0.3890247-0.2376709-0.7959614c-0.098259-0.2028308-0.2377853-0.4234581-0.4581833-0.6080289  c-0.2174377-0.1848602-0.531105-0.3192306-0.8797836-0.3163905c-0.0775604,0-0.1581345,0.0137386-0.2383041,0.0257382  l-0.0096817-0.0001159c-0.1431808,0.0020285-0.8402481,0.013854-1.600441,0.413661  C99.932579,5.4448209,99.1650238,6.259912,98.9539032,7.635787c-0.0882263,0.1307764-0.2904205,0.4183569-0.5545807,0.7213564  c-0.2784805,0.3228827-0.6318588,0.653244-0.9257507,0.8068018c-0.6853027,0.3635769-1.9070969,1.1452198-2.9116898,2.5999317  c-0.0423737,0.0318251-0.0841141,0.0653305-0.1159897,0.1112413c-1.4445114,2.0798988-2.9997406,3.4171677-4.1885529,4.2337074  c-0.4756317,0.3266506-0.8880768,0.5665245-1.2149582,0.7397327c-0.1621323,0.0684605-0.352211,0.1584263-0.5572433,0.2726822  c-0.0253906,0.0111294-0.0566406,0.0254478-0.0773315,0.0342598l-0.1012726,0.041563l-0.0268402,0.0103188  c-0.1012115,0.0366344-0.1758728,0.1072407-0.2337875,0.1888599c-0.0488052,0.0334473-0.0969772,0.0637646-0.1461945,0.0999947  c-0.2267151,0.1650352-0.4556274,0.3686771-0.6708679,0.6052456c-0.0899048,0.029274-0.1751175,0.0749531-0.2391739,0.1538486  c-0.1354141,0.1652088-0.2844467,0.2661324-0.491745,0.3767357c-0.3027649,0.1651516-0.7520218,0.3242741-1.1726379,0.7422829  c-0.4209671,0.4202118-0.7469177,1.0606441-0.9340439,2.0765953c-0.0504913,0.2708263-0.0747757,0.5191631-0.0747757,0.7506294  c-0.0014496,0.4502392,0.0972137,0.8377571,0.2469406,1.1649284c0.2272949,0.4931355,0.5286713,0.8463364,0.7848892,1.2664909  c0.2583084,0.4206753,0.4980087,0.9089985,0.6456528,1.6934814c0.0128708,0.0686359,0.0215683,0.165617,0.0214462,0.2842197  c0.0049896,0.6749229-0.2872849,1.9561367-0.7641907,3.4922943c-0.7131271,2.3143806-1.8241425,5.2585258-2.8848495,8.0636101  c-1.0612793,2.8078613-2.0712051,5.4714432-2.5937271,7.2766914c-1.3219681,4.5889359-1.8727798,12.4602051-1.8761978,16.2137642  c0,0.3690262,0.0054474,0.6985741,0.0164032,0.9832573c0.0056229,0.1463699,0.008461,0.2914047,0.008461,0.4353409  c-0.0009842,1.3800507-0.2569122,2.6688004-0.8401337,4.2593842c-0.5830383,1.588623-1.4970245,3.4690552-2.7922058,5.9742661  c-2.7653198,5.3529587-4.3719101,11.6788559-5.4363174,15.1624527c-0.4922714,1.6216049-1.5721588,2.9022369-2.8077469,4.3354416  c-1.2296829,1.4307709-2.5999336,3.0095901-3.5267296,5.2335434c-0.5603218,1.3578491-0.7320251,3.2503967-0.7356186,5.2996292  c0.0013351,4.1338882,0.7516174,8.8777161,1.0231972,10.4636078c-0.120224,0.0904312-0.2040482,0.2264252-0.2078743,0.3881531  c0,0.0002365-0.0016823,0.0732727-0.0073624,0.211937c-0.0197067,0.4849625-0.087822,1.7398529-0.2899551,3.0765991  c-0.196167,1.3330994-0.5521469,2.7617798-1.0458641,3.510849c-0.3344765,0.5223465-0.5677986,1.2216187-0.7654686,2.0459824  c-0.3657227,1.548912-0.5740013,3.5412827-0.6789818,5.3506393c-2.2838326,2.7657776-4.4872627,6.4636383-6.1621361,9.6575012  c-0.8511467,1.6239319-1.5640411,3.1148071-2.0779305,4.2840271c-0.2569733,0.5848999-0.4641495,1.0889282-0.6151009,1.4932098  c-0.1510048,0.4100037-0.245842,0.6955566-0.2834625,0.938797l-0.0140305,0.1974945  c0.0031891,0.4745178,0.2266006,0.8647614,0.4910507,1.182373c0.4031677,0.4776001,0.9425049,0.8419952,1.3875847,1.1078339  c0.1610374,0.0953522,0.3012047,0.1707153,0.4259491,0.2357025c-0.0444031,0.1326904-0.0946617,0.2730255-0.135006,0.4004364  c-0.2107735,0.6660004-0.893116,2.8613739-1.5461273,4.9901428c-0.3264198,1.0642395-0.6453629,2.1112518-0.8941612,2.9417114  c-0.2500153,0.8356018-0.4247894,1.4322205-0.4790497,1.664093c-0.0211563,0.0911255-0.0308952,0.1835175-0.0308952,0.2738342  c0.0013313,0.3138428,0.1116447,0.5945892,0.2645073,0.8437958c0.4686165,0.7369385,1.345211,1.3241577,2.2458038,1.6187592  c0.1786575,0.0536804,0.3682747,0.0770874,0.646347,0.1077576c1.8861122,0.1945496,7.3343697,0.2936096,11.1431732,0.2944183  c0.9743805,0,1.8388672-0.0066681,2.5070038-0.0202789c0.3341904-0.0068512,0.6191025-0.0154266,0.8465118-0.0259705  c0.2299042-0.0112,0.3915176-0.0216827,0.522934-0.041748c0.4617157-0.0733795,2.2527542-0.2784729,4.442276-0.4610748  c2.1931076-0.1834106,4.8052139-0.3468781,6.950386-0.3467102c0.603508,0,1.1697388,0.0129242,1.6771927,0.0415649  c0.1575012,0.0087585,0.3133774,0.0131073,0.4677505,0.0131073c2.1242447-0.0012817,3.912384-0.8063354,5.1671066-1.5984802  c1.2558289-0.7940979,1.9879074-1.5822449,2.0085983-1.6039734l0.0292206-0.0345001  c0.2457275-0.3173676,0.4558029-0.6139374,0.6539383-0.9036102c0.006546-0.0044556,0.0143738-0.0050964,0.020752-0.009903  c0.0012741-0.0009918,0.5308151-0.3981934,1.3144836-0.9674377c0.7835617-0.5691833,1.8186951-1.3085785,2.8204422-1.9861603  c0.2535553-0.171814,0.5391083-0.3461304,0.8403091-0.5197449c-0.2214966,0.2236938-0.4392853,0.4863586-0.618927,0.7987366  c-0.082428,0.1444092-0.1267776,0.3147125-0.1259079,0.4780121c0.0008163,0.2489777,0.0908356,0.4672852,0.2113571,0.6526642  c0.2148895,0.3245697,0.5331879,0.588501,0.9311447,0.8415222c1.191124,0.7437897,3.1565399,1.3548889,5.2347565,1.3976135  c0.1018524,0.0017395,0.2015533,0.0027313,0.2995224,0.0027313c3.0629807,0.0046844,4.0843277-0.8948059,4.2230453-1.0416412  c0.6865692-0.0423737,1.3567429-0.1647339,1.9836121-0.3983459c3.4520035-1.2842255,5.3941727-3.3714294,6.4334259-5.3864746  c1.0425034-2.0150299,1.2038269-3.940094,1.2045822-4.9658356  C114.2222061,144.1445313,114.1994247,143.8937073,114.1899796,143.8044434z M108.4619064,136.2428894h-0.000061H108.4619064  L108.4619064,136.2428894z M90.5151825,137.2422638c0.0339661-0.1912384,0.0942001-0.3134308,0.1135559-0.3326874  c0.0040588-0.0125122,0.1170959-0.1083984,0.3048019-0.1956329c0.3288498-0.1601715,0.8649445-0.3281555,1.462883-0.4726105  c0.2565079-0.062439,0.5255966-0.1203461,0.7975845-0.1756439l0.089386,0.8942719  c0.0279388,0.2795258,0.2772064,0.4835052,0.5567245,0.4555664c0.2795258-0.0279388,0.4835129-0.2772064,0.455574-0.5567169  l-0.097847-0.9793854c0.3384171-0.057785,0.6687775-0.1111755,0.9649353-0.154892  c0.4095459-0.0604553,0.7621078-0.1071167,1.0117188-0.1385345s0.3937759-0.0473022,0.3941879-0.0473633  c0.1870575-0.020752,0.3489075-0.1447449,0.4176025-0.3199921l0.5358582-1.3673401  c0.2088013,0.1374969,0.460556,0.3016663,0.72715,0.4719696c0.3331985,0.2128601,0.6857681,0.4328461,0.9983292,0.6162567  c0.3179016,0.1846924,0.5726089,0.3275299,0.7979355,0.4106445c0.1415558,0.0499115,0.2762756,0.0641174,0.4050217,0.0645294  c0.4960327-0.0077667,0.9798355-0.199295,1.3928604-0.3728027c0.2779541-0.1206818,0.5011368-0.2353516,0.6226959-0.2998657  c0.1058502-0.0137329,0.2230606-0.0248108,0.3651962-0.0246887c0.6799698-0.0016785,1.6552277,0.1688538,2.4382019,0.3438568  c0.3927917,0.0871277,0.7405472,0.1746063,0.9891129,0.2400513c0.2485046,0.0653839,0.3940659,0.1077576,0.3945313,0.1078186  l0.0221405,0.0058594l0.0628967,0.0166321c0.2022552,0.0544281,0.8695221,0.2580719,1.6940613,0.6599731  c0.0041199,0.048233,0.0094528,0.0966339,0.0281754,0.1438141l-0.0013885,0.0005188  c0.0030136,0.0079498,0.0644608,0.1789551,0.0642853,0.4605103c-0.0075378,0.5338287-0.1918182,1.4864807-1.5772552,2.6399231  c-1.2135696,1.0012817-1.8284912,1.7294312-2.1842422,2.3722992c-0.3494949,0.6364288-0.422821,1.1355286-0.5769577,1.5695953  c-0.034668,0.0337372-0.3058395,0.1070709-0.6693649,0.1360626c-0.5630417,0.0624847-1.3309479,0.0877533-2.0437241,0.4487305  c-0.3549957,0.1812592-0.6934128,0.4616547-0.9358368,0.8599548c-0.2438126,0.3978271-0.388855,0.8982086-0.4223022,1.5070496  c-0.0081711,0.1469574,0.0488663,0.2922211,0.1548386,0.3944244c0.1060181,0.1021423,0.2532578,0.1538391,0.3998642,0.140274  l0.0181427-0.0013885c0.044632-0.0032959,0.1657867-0.0107269,0.3363266-0.0106659  c0.4542389-0.0026093,1.2626114,0.0604095,1.8857651,0.3520508c0.3130341,0.1446228,0.5746994,0.3373718,0.7576447,0.5910339  c0.1819611,0.2550049,0.3030014,0.5766754,0.3049698,1.055603c-0.0077667,0.7031555-0.2387695,1.0816803-0.58078,1.3548279  c-0.3452606,0.2697296-0.8592606,0.4088593-1.3987122,0.4075775c-0.3854904,0.000412-0.7779922-0.0697937-1.105629-0.1872406  c-0.328392-0.1154633-0.5879135-0.2833405-0.7164917-0.4304047c-0.3698349-0.412796-0.7807693-0.8522491-1.0849915-1.2512512  c-0.1519318-0.1985321-0.2762146-0.3867035-0.3544693-0.542984c-0.0800552-0.1562195-0.10672-0.2773132-0.1048126-0.326828  l0.0130463-0.0519867c0.0105515-0.0145569,0.0502548-0.0574493,0.1652069-0.106842  c0.2582474-0.110611,0.3778992-0.4096069,0.2673492-0.6678467c-0.1106033-0.258255-0.4095993-0.3778992-0.6678467-0.2673035  c-0.2317047,0.0990143-0.4352875,0.2390137-0.5814209,0.4353485c-0.0384903,0.0509491-0.0572739,0.1108856-0.0851593,0.1672363  c-2.3933334-0.9753113-3.9508209-2.1856384-4.9084549-3.149765c-0.4858932-0.4894257-0.8178787-0.9153137-1.0259781-1.2141418  c-0.1040573-0.1493835-0.1771545-0.2669373-0.2229462-0.3447266l-0.0488129-0.0858002l-0.0099106-0.0186005l-0.0007553-0.0014496  l-0.1280518-0.1605835l0.0008087-0.0008087l-0.0268326-0.0341949c-0.0672455-0.0921173-0.1837006-0.3362732-0.2888031-0.6482086  c-0.3260651-0.9429626-0.6208954-2.5390625-0.6177673-3.6496124  C90.4587784,137.6876831,90.4785995,137.4329834,90.5151825,137.2422638z M62.5771141,147.7620392  c-0.0010452-1.5853119,0.2975502-4.432251,0.8334084-7.2785492c0.1815567-0.9719391,0.3946495-1.9438477,0.6298828-2.8712158  c0.213089,0.5097656,0.4774246,1.0955963,0.7794952,1.7415924c1.6242752,3.4621582,4.2705231,8.4184418,4.887825,9.5687561  c-0.0399399-0.0109558-0.0783157-0.0260773-0.1216202-0.0269012v-0.0000458c-0.0010376,0-0.3931961-0.00737-1.0024414-0.0267334  c-0.9136353-0.0290375-2.3108444-0.0852661-3.5702591-0.1834106c-0.629303-0.0489197-1.2246971-0.1086273-1.7011375-0.178833  c-0.2379036-0.0350037-0.4461823-0.0727997-0.6092453-0.1110687c-0.0413322-0.0094452-0.0702591-0.0189514-0.1055031-0.0286865  C62.5850563,148.196579,62.5770569,147.9978027,62.5771141,147.7620392z M62.6481819,149.4234161  c0.0128708,0.002655,0.0226097,0.0057373,0.0357094,0.0084076c0.9838943,0.1923828,2.5781326,0.3050232,4.0013123,0.3774261  c-1.918396,0.5559082-3.4505577,1.0226746-4.1471024,1.2370453c0.0659676-0.4581909,0.1129227-0.976593,0.1132126-1.5550079  C62.6513138,149.4697266,62.6483002,149.4451447,62.6481819,149.4234161z M83.0357208,118.5449677  c0.0006943,0.8519592-0.1486359,1.8626328-0.3230057,2.7981796c-0.1741333,0.9386826-0.371048,1.7960892-0.4615402,2.4026642  c-0.0282288,0.1910095-0.0398788,0.388855-0.0399399,0.5919189c0.0020294,0.9100418,0.2290878,1.9464569,0.4501266,2.7767944  c0.190773,0.7115021,0.3794022,1.2608566,0.4308777,1.4076309c0.0442276,0.1867828,0.071991,0.3975525,0.071991,0.6322632  c-0.0007477,0.7765503-0.2891998,1.805603-1.22052,2.9850769c-0.9307327,1.1779785-2.5097885,2.499527-5.0613174,3.8128052  c-3.5109024,1.8076782-6.7891235,2.1997223-8.9717407,2.1997681c-0.8385086,0.000061-1.5143585-0.0579071-1.977005-0.1151276  c-0.2313538-0.0286255-0.4093704-0.0570374-0.5278015-0.0779572l-0.1157608-0.0216217  c-0.3763885-0.8418732-0.6506958-1.537262-0.7411804-1.8966064c-0.0084076-0.0327454-0.0282898-0.058197-0.0423737-0.0876465  c0.3274612-1.0549622,0.6858215-1.9861603,1.0670776-2.6942444c0.2145996-0.1360016,0.6745148-0.4389954,1.1763458-0.8436127  c0.3415527-0.2758179,0.7018204-0.5976563,1.0179214-0.9530029c0.3151169-0.3565063,0.591217-0.7437286,0.7458191-1.182724  c0.1682816-0.5154572,0.8490601-1.3453217,1.6687927-1.987442c0.8122482-0.6546326,1.7840271-1.1393051,2.3996506-1.1745453  c0.2770309-0.0205231,0.4869919-0.2608032,0.4701767-0.538063c-0.0044022-0.0368652-0.0268402-0.4880905-0.2719879-0.9940948  c-0.1238785-0.2518158-0.3099518-0.5224686-0.5967178-0.7351532c-0.2850952-0.2135544-0.6717377-0.3521042-1.1146164-0.3498993  c-0.1879883,0-0.3864136,0.0231323-0.5955658,0.0704346c-1.3215027,0.3015518-2.3262634,0.9204178-2.8682098,1.3124008  c-0.175354-0.3017883-0.3718033-0.7593307-0.3672256-1.3018494c0.0001144-0.211647,0.0278244-0.4378967,0.0971527-0.6804886  c0.1574402-0.5567856,0.5850143-1.5934906,0.9708481-2.7108307c0.3019638-0.8825607,0.579277-1.8156815,0.6896515-2.6873474  c1.1085281,0.4942932,4.7094498,1.985527,8.1601868,1.9934692c1.3519897-0.0006332,2.6943054-0.2329178,3.8482742-0.8904495  c0.7789764-0.4416046,1.4452667-1.1035995,1.9587479-1.9658737  C83.0114899,117.9049988,83.0373383,118.2109528,83.0357208,118.5449677z M66.1135788,116.8342667  c0.2594681,0.2067719,0.548378,0.4071655,0.8567734,0.5621185c-0.268219,0.7105713-0.6264038,1.6050186-1.0166473,2.4397659  c0.0927505-0.8434372,0.1692047-1.8242645,0.1697311-2.7799225  C66.1233749,116.9804611,66.114624,116.9096222,66.1135788,116.8342667z M102.685257,8.711503  c0.0722275-0.1839905,0.1496201-0.3708229,0.2328568-0.556263l0.1227798-0.0093908  c0.1448059,0.001565,0.2067108,0.0317087,0.2532043,0.0616207c0.0529861,0.0344324,0.0976181,0.1066036,0.1334991,0.1957006  C103.171669,8.4863548,102.920784,8.5939436,102.685257,8.711503z M88.5044403,18.3143425  c0.1536102-0.1136169,0.3076324-0.2077007,0.455162-0.2906532c0.132225-0.0597076,0.3018417-0.1421375,0.5013123-0.2463646  c0.1096725-0.0453892,0.2078705-0.0823154,0.2714615-0.1036472l0.0792465-0.0252743l0.0105515-0.0030727  c0.130249-0.027071,0.9556046-0.2056694,1.9179916-0.6932983c1.0248184-0.5211353,2.2278366-1.4090338,2.7705307-2.891571  c0.8936996-2.4531565,2.6053848-3.5502043,3.4416351-3.9988785c0.5532455-0.299695,1.0041809-0.7828026,1.3472366-1.1931591  c0.3393478-0.4106474,0.5563812-0.7517319,0.5639725-0.7633257l0.0752411-0.2073522  c0.1615601-1.158205,0.6850662-1.6433988,1.2083511-1.9332976c0.5249557-0.2816677,1.0755386-0.2970872,1.1238251-0.2950583  v-0.000174l0.1180267-0.0107818l0.1299591-0.0147243c0.11026,0.0028405,0.1598816,0.0274773,0.2292099,0.0812135  c0.1008072,0.078547,0.2060776,0.266016,0.2625351,0.4420657l0.000351,0.0012751  c-0.0376816,0.0318828-0.0799408,0.060287-0.1146011,0.0941987c-0.2589493,0.2599874-0.4633408,0.5914493-0.6556778,0.9549103  c-0.5660629,1.0836573-0.973114,2.4728651-0.9790878,2.4883432l-0.0125198,0.0534468  c-0.0001144,0.0006952-0.000351,0.0012751-0.0004654,0.0019703l-0.0004044,0.0017977  c-0.0002899,0.0014486-0.0992966,0.5698853-0.2710571,1.4610882c-0.2575531,1.3365154-0.6778259,3.3919516-1.1641159,5.2971926  c-0.2429504,0.9521866-0.5027008,1.867157-0.7639084,2.630249c-0.2584763,0.7610073-0.5300598,1.3780212-0.7466278,1.6893673  c-1.4928589,2.1874886-2.4323502,5.4643154-2.443306,5.4879093l-0.0077057,0.0298538  c-0.5030518,2.2240067-1.7730179,8.3922901-2.9613647,14.901598c-2.2015152-1.3960495-4.7922897-1.6920357-6.6301727-1.6950493  c-0.8186874,0.0001144-1.4819565,0.0579109-1.9058228,0.1072998c0.3173218-0.7743988,0.6386948-1.5461311,0.9608231-2.3032532  c0.9186783-2.1636047,1.8212433-4.2244911,2.5132675-5.989912c0.6905823-1.7719135,1.1780319-3.2216415,1.2509613-4.2825756  c0.0157623-0.249321,0.0233612-0.4796276,0.0233612-0.6937618c0.0002899-0.7803116-0.101738-1.3523407-0.2779007-1.8110428  c-0.2691498-0.6933002-0.6676788-1.0641232-0.9403076-1.4643364c-0.2768555-0.4041538-0.5244904-0.8743343-0.6473846-1.9364853  c-0.0161133-0.1450367-0.0235977-0.2831745-0.0235977-0.4150524C87.2180099,19.5577602,87.8357773,18.8179131,88.5044403,18.3143425  z M86.2233887,30.402626c0.4842682-1.582531,0.8044281-2.878006,0.8093491-3.7919312  c-0.0001144-0.1653843-0.0109558-0.320797-0.0386047-0.4702396c-0.2218399-1.2166367-0.7028656-1.9491806-1.0721207-2.4861393  c-0.1845093-0.2695522-0.3343048-0.4905853-0.4319763-0.7077351c-0.0973892-0.2183075-0.1547775-0.4330788-0.1562271-0.7450066  c0-0.1601086,0.0168076-0.3455486,0.0575638-0.5643787c0.1108932-0.5966091,0.2618408-0.9814587,0.4166183-1.2370415  c0.1538467-0.2479305,0.3082733-0.3878078,0.4894791-0.5058308c-0.0606918,0.2755241-0.1023102,0.5653057-0.101387,0.8816967  c0,0.1704845,0.0096817,0.346302,0.0298538,0.5273952c0.0876541,0.7937012,0.2606277,1.3703098,0.4792252,1.8213615  c0.3329086,0.6795025,0.7264023,1.0369339,0.9580383,1.4136696c0.2334976,0.3767357,0.4165649,0.8161354,0.4220657,1.8644905  c0,0.1900196-0.0067749,0.3990517-0.0213318,0.6294174c-0.0457916,0.8086567-0.5006714,2.2453403-1.1827774,3.9756336  c-0.9352646,2.3869591-2.283432,5.3757973-3.5333939,8.4355927c-0.0248108-0.0077667-0.0508423-0.0221443-0.0751877-0.0286369  c-0.0941391-0.0247536-0.1842804-0.0388374-0.2715225-0.0493317c0.453949-1.2023773,0.924942-2.4433022,1.3798752-3.6677628  C85.0799637,33.8155632,85.7375031,31.9787827,86.2233887,30.402626z M63.5839653,114.9043274  c0.0338516,0.0248108,0.0649223,0.0528107,0.105732,0.0690994c0.0200005,0.0080032,0.040638,0.0057373,0.0609818,0.0110703  c-0.0876465,0.794693-0.2169151,1.7760315-0.4005013,2.7476349c-0.1336174,0.7176514-0.3030586,1.4283371-0.4982376,2.0452957  c0.0323486-0.1122818,0.0662575-0.2230606,0.0959969-0.3378983  C63.3713379,117.7874374,63.527504,115.8951263,63.5839653,114.9043274z M52.4445038,145.9662476  c-0.2323952-0.1769257-0.4425316-0.3737793-0.5785828-0.5569611c-0.1389465-0.1851501-0.192627-0.3410187-0.1910019-0.450119  l0.0037079-0.0532227c0.0070152-0.0688629,0.0884018-0.3546448,0.2295532-0.7272034  c0.9103928-2.4508972,4.2483177-9.3189697,7.8310432-14.0582275c-0.010437,0.409668-0.0175056,0.8028107-0.0177956,1.1513062  c0.0000572,0.4845123,0.0096207,0.8957825,0.0268974,1.217926c-0.0014496,0.0027161-0.0041161,0.0042877-0.0055084,0.0070648  c-0.4734268,0.9468536-1.8269844,3.6092682-3.247612,6.6216583c-1.168232,2.4782562-2.3750153,5.1798553-3.1911507,7.3951721  C53.0513725,146.3761444,52.7360268,146.1897125,52.4445038,145.9662476z M88.0041733,155.901825l-0.0082321,0.0085754  c-0.1405716,0.1452637-0.8705673,0.8687134-2.0023346,1.5458984c-1.1328201,0.6787415-2.6588287,1.3061981-4.4028015,1.3052673  c-0.1353607,0-0.2723389-0.0037689-0.4107666-0.0115356c-0.5322647-0.0299683-1.1161194-0.0431213-1.7341766-0.0431213  c-2.1948471,0.0001678-4.8243484,0.1656036-7.03508,0.350235c-2.214386,0.1853333-3.9893112,0.3872375-4.516243,0.4700165  c-0.04319,0.0075226-0.2005157,0.0210419-0.4115143,0.030365c-0.6429901,0.0299683-1.8529587,0.0452118-3.3062744,0.045166  c-2.1623917,0-4.8740273-0.0331573-7.1375122-0.0969238c-1.1315384-0.0318298-2.1516647-0.0713654-2.9315109-0.1179047  c-0.3896637-0.0231934-0.7195587-0.048233-0.968998-0.0741425c-0.2446251-0.0237122-0.4291382-0.0582123-0.4451942-0.065979  c-0.4494858-0.1403961-0.9403038-0.4207306-1.2881699-0.7298737c-0.1743698-0.1535492-0.3128548-0.3137817-0.397953-0.4526672  c-0.086834-0.1396484-0.1144295-0.2510071-0.1130943-0.309906l0.0046959-0.0445099  c0.0348969-0.1544952,0.2158165-0.7798004,0.4623528-1.6014404c0.7432709-2.4806366,2.1227379-6.9280701,2.4357109-7.9168854  c0.7257614-2.2963562,2.2053413-5.645462,3.6182594-8.6401062c1.413784-2.9977722,2.7610817-5.6480103,3.2374077-6.6006012  c0.0376778-0.0753632,0.0489235-0.1547852,0.0477638-0.2336121c0.0412178-0.0786743,0.0697937-0.1644592,0.064518-0.2595367  c-0.0165787-0.2968445-0.0262566-0.7049408-0.0261993-1.1867828c-0.0001183-0.7640686,0.0253906-1.7169495,0.0824318-2.7290802  c-0.000351-0.0070648,0.0019112-0.0140228,0.0012169-0.0210419c0.0486908-0.8571777,0.1195869-1.7555084,0.2202797-2.6230621  c0.1100235-0.9496307,0.2545929-1.8605423,0.4363823-2.6264191c0.1791229-0.7645416,0.4062424-1.3880539,0.6297112-1.7279739  c0.0501404-0.0779724,0.0932693-0.1651535,0.1394691-0.2483368c-0.0110703,0.1839294,0.0726357,0.3678665,0.2419586,0.4685593  c0.2414398,0.1435852,0.5535965,0.0642242,0.6971855-0.1772156c0.3691406-0.6243134,0.6413612-1.4330292,0.866394-2.3134537  c0.4094849-1.6160355,0.641304-3.4732742,0.7601318-4.6725845c0.0661469,0.1974411,0.1228943,0.4251404,0.1652145,0.6773605  c0.0896149,0.5214844,0.1270676,1.1379776,0.1268921,1.7776566c0.0001755,1.153389-0.1199341,2.3822556-0.240921,3.3174057  c-0.0604019,0.4677429-0.1208038,0.8625031-0.1660156,1.1394196c-0.0451584,0.2769165-0.0744934,0.4320984-0.0744934,0.4320984  c-0.0019684,0.0110703,0.0018005,0.0209808,0.0004654,0.0315857c-0.0168076,0.0124664-0.0374451,0.030899-0.049675,0.0366974  c-0.2439346,0.1393585-0.3286819,0.4500656-0.18927,0.6939926c0.1393585,0.2439346,0.4501266,0.3286819,0.6940536,0.1893234  c0.2517014-0.1469498,0.4452515-0.3530197,0.6392136-0.5986328c0.6604309-0.8545685,1.3016205-2.2890472,1.813652-3.5445251  c0.1835861-0.4530792,0.3461914-0.8781052,0.4803238-1.2388382c0.0094528,0.0906067,0.0201187,0.1796417,0.0199432,0.2832336  c0.0038834,0.8207703-0.3134918,1.9791489-0.6891861,3.0604858c-0.3747025,1.0893402-0.7951508,2.0960159-0.9872513,2.762764  c-0.0959396,0.335289-0.1363449,0.6584625-0.1362839,0.9600754c0.0099716,1.4418945,0.8738098,2.3343201,0.9095764,2.3792419  c0.1902542,0.2003403,0.5051346,0.2122269,0.7100525,0.0269012l0.0076523-0.0067825  c0.1072998-0.0970383,1.2601166-1.0625,2.8497772-1.4176178c0.1439362-0.0325775,0.2667694-0.0453873,0.3712845-0.0453873  c0.2463074,0.0022049,0.3887329,0.0638275,0.5095978,0.1504898c0.1673584,0.120224,0.2872314,0.3376617,0.3597488,0.5493622  c-0.8125992,0.2111206-1.6403809,0.6904602-2.3889236,1.2781372c-0.9165344,0.737999-1.6900635,1.5998611-1.9965973,2.4496841  c-0.08284,0.2436371-0.2816696,0.546463-0.545311,0.8410645c-0.3940125,0.4443207-0.9219818,0.8731689-1.3467712,1.1820831  c-0.2125702,0.154892-0.3995209,0.2807312-0.5320969,0.3671112l-0.1546555,0.0987244l-0.0517044,0.0318146l-0.1829529,0.1891632  c-1.0065575,1.8208313-1.7795639,4.7351227-2.3286972,7.6403198c-0.5448418,2.9042664-0.8498154,5.7696838-0.8508568,7.4664154  c0.0000572,0.3022461,0.0096817,0.5686646,0.0310135,0.7989197c0.0301437,0.3238678,0.0431862,0.6348114,0.0431862,0.9303284  c0.0000572,0.9603119-0.1381378,1.7589874-0.2749443,2.3127594c-0.0684013,0.2768555-0.1363411,0.4924469-0.1860771,0.6360931  l-0.0587234,0.1602173l-0.0148964,0.0372162l-0.0030136,0.007309c-0.1117058,0.2577209,0.0067215,0.557251,0.2645073,0.6689453  c0.2577286,0.1117096,0.5572472-0.0067139,0.6689529-0.2644501v-0.000061  c0.0082321-0.0198822,0.1447487-0.3455353,0.2874069-0.8924103c0.0367508-0.0030212,0.0732155,0.000061,0.1099091-0.0114288  v-0.0000458c0.0022583-0.0007019,0.8869133-0.2771454,2.2867279-0.6956177c2.0994949-0.6276855,5.350235-1.5722809,8.4695587-2.3694  c3.1114426-0.79776,6.1254425-1.4450378,7.6262436-1.4827118c0.2807999-0.0077667,0.502121-0.2417908,0.4943542-0.522583  c-0.0077744-0.2807922-0.2417908-0.502121-0.522583-0.4943542c-1.1420364,0.0335083-2.8410797,0.3399811-4.7939758,0.7763672  c-1.6560898,0.3713531-3.4844666,0.8390961-5.2575378,1.3182068c-0.0228424-0.0423279-0.1813889-0.3365631-0.4363861-0.8145752  c0.0376205-0.0189056,0.0730362-0.0366974,0.1174393-0.0588379c0.9616928-0.4788818,3.4710236-1.6829987,6.4479218-2.7630615  c2.9741745-1.0816803,6.4259491-2.0317841,9.211319-2.028656c1.4944839-0.0013275,2.780159,0.2729797,3.7064362,0.8834381  l0.0093842,0.0060272l0.0731049,0.0471954c0.1730347,0.1133881,0.6283112,0.4237976,1.0846939,0.8208771  c0.4573135,0.3929749,0.9094696,0.8887177,1.0816345,1.2836609c0.2661285,0.5894165,0.5352783,1.2970276,0.534523,2.0856323  c-0.0033035,0.7487183-0.2275848,1.585022-1.0009918,2.550827c-0.8785095,1.0901489-1.4301376,1.9634399-1.9292984,2.7758179  C89.1330414,154.2718201,88.6887741,155.0151978,88.0041733,155.901825z M93.035347,151.8321686  c-0.7219315,0.4884338-1.4534912,1.00354-2.1019287,1.467865c0.3808517-0.594223,0.8143997-1.2246399,1.4177933-1.9739838  c0.9032593-1.1158295,1.2293854-2.2201843,1.2260818-3.1890106c-0.0007553-1.0205231-0.3421249-1.8745117-0.6240845-2.503067  c-0.0024338-0.0052185-0.0063171-0.0098572-0.0087509-0.0150757c1.0553665,0.890686,2.521904,1.8562622,4.5202408,2.654953  c0.0833588,0.0333252,0.1685715,0.0356445,0.2517014,0.0249176c0.0322876,0.0878906,0.0632401,0.1764069,0.1049805,0.2603455  c0.1122208,0.2188263,0.2599869,0.4346924,0.41922,0.6482544c-0.3790512,0.1574402-0.9266739,0.3905334-1.5545273,0.6762543  C95.5149994,150.4173279,94.0914154,151.118866,93.035347,151.8321686z"/></svg>