<svg xmlns="http://www.w3.org/2000/svg" xmlns:xlink="http://www.w3.org/1999/xlink" version="1.1" x="0px" y="0px" viewBox="5.495 34.904 151.658 103.969" style="enable-background:new 0 0 161.5 162.6999969;" xml:space="preserve"><g><polygon points="42.9402771,112.3394089 42.9410477,112.3365173 42.9411392,112.3357925  "/><path d="M153.9799652,129.934021c-0.2489319-0.4037323-0.6259308-0.6584015-1.0141907-0.8139648   c-0.3917389-0.1555634-0.8097992-0.2206726-1.2237091-0.221405c-0.0217896,0-0.0429993,0.0043488-0.064743,0.0050659   c-0.0389404-0.0528107-0.078598-0.1056366-0.1207886-0.1569977c0.1200104-0.1099701,0.2394409-0.2199554,0.3316498-0.3451233   c0.2434998-0.3263092,0.3732452-0.7177353,0.370575-1.092514c-0.0028076-0.5404739-0.2321167-1.001358-0.5225677-1.3855438   c-0.4426117-0.5766525-1.0553436-1.0302963-1.6642303-1.3696289c-0.305191-0.1685791-0.6093445-0.3053284-0.8994751-0.4051743   c-0.2925262-0.0983963-0.5623627-0.1649628-0.8529816-0.1678543c-0.5647583,0.0021667-1.0583801,0.0665588-1.4784393,0.0643921   c-0.2893066,0-0.538559-0.0267715-0.7714539-0.1020203c-0.233017-0.0759659-0.4589844-0.1975174-0.7156982-0.4312134   c-0.3713837-0.3349915-0.8901978-0.6439362-1.5043335-0.9760361c-1.4115448-0.7568054-3.2836151-1.5483322-4.0694885-1.8717499   c-0.0511475-0.6142731-0.1438599-1.0346375-0.1482391-1.0570679l-0.0125275-0.0477524   c-0.0130157-0.0383453-0.1640167-0.5520477-0.5394745-1.1120529c-0.1892853-0.2792816-0.4374084-0.5744781-0.7770233-0.8132401   c-0.2425995-0.1721954-0.5421906-0.3089447-0.877533-0.3733368c0-0.001442,0.0001831-0.0036163,0.0001831-0.0057831   c0.002533-0.5173187-0.2243347-0.9637375-0.5041199-1.2741241c-0.4238892-0.4717407-0.9546356-0.7300339-1.3808899-0.9044037   c-0.4272308-0.1707535-0.7578888-0.2423782-0.7824402-0.2481689c-0.041153-0.0086823-0.0804443-0.0007248-0.1210938-0.0021667   c-0.001358-0.0065155-0.0016327-0.0130234-0.0030365-0.0202637c-0.1091156-0.5484238-0.3105774-0.9955673-0.5645294-1.340683   c-0.3809357-0.5209351-0.8662415-0.794426-1.2436371-0.9246597c-0.238678-0.0824814-0.4295044-0.1128693-0.5578918-0.1251678   c-0.0789032-0.2163391-0.172821-0.4370117-0.291748-0.663475c-0.2416229-0.4630508-0.5421906-0.8139572-0.8932343-1.0447617   c-0.3495483-0.232254-0.7392578-0.3263092-1.0833893-0.3248672c-0.0690002,0.0007248-0.1312256,0.0115814-0.1966553,0.0180893   c-0.0923462-0.6627426-0.4211426-1.2321548-0.8400574-1.6778488c-0.7438812-0.7879105-1.749527-1.3139114-2.5774155-1.677124   c-0.598259-0.2590179-1.1011124-0.4232559-1.343895-0.4970551c-0.4002457-0.2640839-0.8105698-0.4985046-1.1758575-0.6895142   c-0.6261673-0.325592-1.1100235-0.5274506-1.1220932-0.5325165c-0.0647125-0.0274963-0.1411819-0.045578-0.2110443-0.0506439   c-0.0016251,0-1.2305756-0.0926132-2.6819153-0.1859436c-1.4545059-0.0926132-3.1176987-0.1859512-4.0374298-0.1866684   c-0.1003494,0-0.2079239-0.0007248-0.3227386-0.0007248c-0.8816147-0.0007248-1.991272-0.0173645-3.7510071-0.3747864   c-1.7565765-0.3581467-4.1516647-1.061409-7.5214691-2.4440613c-3.6080627-1.4803238-7.9132004-3.2855072-11.3154755-4.720253   c-1.7011795-0.7177353-3.1767578-1.3428574-4.2269516-1.7885513c-0.5196228-0.2199478-0.9336548-0.3957596-1.2205811-0.5180359   c2.2590179-4.5350418,4.6246643-9.9346848,6.6568985-14.791687c3.026268-7.2352219,5.2973175-13.2368317,5.2990799-13.2418976   l0.0069199-0.0188141c0.5758743-1.6698914,0.8415451-3.4070625,0.8414993-5.1464119   c-0.0009537-3.3853607-1.000267-6.7815704-2.6877975-9.765377c-1.6889267-2.982357-4.0681381-5.557373-6.8683472-7.28442   c-1.7711792-1.0903473-3.9831238-1.9491653-6.3152618-2.6422997c-6.6738586-1.9781113-14.3499298-2.585144-15.0522003-2.6394081   c-4.8085251-1.1887474-9.3484879-1.7053413-13.5937996-1.7053413c-13.7549667,0.000721-24.3992882,5.4264145-31.2129669,11.0228577   c-8.6997185,7.146225-11.8653078,15.3336029-12.0519772,15.8248749   c-3.2567081,7.1881866-4.0671883,12.4677277-4.0650635,16.6518555c0,2.1749115,0.2162428,4.0488281,0.4060316,5.7274017   c0.1056795,0.9203186,0.339016,1.9759369,0.6480045,3.0916061c-0.0095863,0.0889969-0.0022154,0.1808853,0.0255041,0.272049   c0.0572939,0.1852188,0.1348467,0.3827438,0.2220764,0.5860519c0.4096041,1.3493652,0.913763,2.7602386,1.4453707,4.1190109   c0.5485201,1.399292,1.124896,2.7356339,1.6536999,3.8722916c0.5297537,1.1380997,1.0079117,2.0714417,1.3770437,2.6878815   c0.3066826,0.5086365,0.6080294,1.2299881,0.8704872,2.0113907c0.3956757,1.1728287,0.7122622,2.4852982,0.9268312,3.49823   c0.1074896,0.5064621,0.1897898,0.9384079,0.2450933,1.2430115c0.0116215,0.0636673,0.0213432,0.11866,0.0305691,0.1714706   c-0.2837563,0.3501892-0.7920303,1.0389786-1.3054142,2.05336c-0.7492523,1.4810486-1.4961987,3.6436539-1.4960632,6.366272   c0,0.4847565,0.023695,0.9868774,0.0750656,1.5056458c0.0731211,0.7452316,0.1791172,1.4528351,0.3093958,2.1314926   c-0.0211172,0.0137482-0.0455818,0.0180893-0.0655241,0.034729c-1.9926243,1.6199722-2.8301916,3.8390121-2.8233633,6.0081329   c0.0015821,1.88694,0.6052713,3.7521896,1.5788603,5.3084793c0.9760771,1.5541229,2.3250837,2.8123322,3.8915997,3.4316711   l0.0011292,0.0007172c0.9242096,0.3617554,1.7976818,0.5158691,2.5981693,0.5158691   c1.6681252-0.0007172,2.9820404-0.6569519,3.8619785-1.2972717c0.555212-0.4044495,0.9466381-0.803833,1.1682625-1.0549011   c0.4283237,0.1635132,0.7133465,0.2460022,0.7983608,0.2691498c0.19734,0.0643921,2.010622,0.6424866,4.5755539,0.6439362   c2.2013149,0,4.9644451-0.432663,7.6833973-2.0186157c2.7196274-1.5838013,5.3678093-4.3208771,7.3427086-8.816124   c0.0531311-0.1208267,0.0583763-0.2488937,0.0402908-0.372612c0.1172562-0.3357162,0.3131943-0.9297256,0.510807-1.6814651   c0.3067284-1.1706619,0.6182022-2.7095947,0.6194229-4.2376709c-0.0004959-0.7958755-0.0843811-1.5910263-0.31464-2.3340836   l-0.0844269-0.1772614l-0.0090446-0.0137482c-0.0513229-0.0774155-0.3095741-0.4782486-0.5449028-0.9405746   c-0.1176147-0.2308044-0.2292213-0.4775238-0.3060036-0.6967545c-0.0783653-0.2177811-0.1151772-0.4131317-0.1127319-0.4963379   l0.0016251-0.0332794l-0.0002251-0.0014496l0.0008583-0.0036163c0.070591-0.2611923,0.2362328-0.8971634,0.4316254-1.6518021   c0.7306252-0.1685791,1.3876724-0.2973633,1.983448-0.3306427l0.0085907-0.0007248   c0.1036911-0.0072403,0.2487564-0.0108566,0.4102821-0.0122986c-0.4102821,2.016449-1.4190521,7.4435883-1.4214935,12.2405396   c0.0004959,1.5613632,0.1066742,3.0568848,0.3882141,4.3679047c0.311161,1.4477692,0.8874893,2.6459198,1.6362915,3.6096497   c1.1239014,1.4492188,2.6192398,2.3608551,4.1414375,2.9049377c1.5247345,0.5455475,3.0838318,0.7336578,4.4051666,0.734375   c0.3902473,0,0.7577972-0.0180817,1.0952301-0.0441284l0.0051079-0.0007324   c0.7742615-0.067276,2.2317047-0.1201019,4.0265388-0.1540985c1.7970467-0.034729,3.9409294-0.0513763,6.125248-0.0513763   c4.3660431-0.0007172,8.9065094,0.069458,11.1410599,0.2069244h0.0006332   c0.2383118,0.0144806,0.5125732,0.0188141,0.8264923,0.0195465c1.5743332-0.0007324,4.1831284-0.1599121,7.3130417-0.3979492   c4.6909103-0.358139,10.5327606-0.8964386,15.63974-1.3522644c5.1005173-0.456543,9.492157-0.8313141,11.1885452-0.8617096   h0.0005875c0.0755157-0.0014496,0.1477814-0.0021667,0.2171478-0.0021667   c2.095726-0.0036163,5.1432953,0.549881,8.2095795,1.1142273c3.075058,0.5614471,6.1700516,1.1337585,8.5324936,1.1366425   c0.6043243-0.0007172,1.1626129-0.0383453,1.6698914-0.1287842l0.0020294-0.0007172   c1.66922-0.3031616,3.9945221-0.7445068,6.2386169-1.1091614c2.2389374-0.365387,4.4151611-0.6504517,5.6952515-0.6482849   c0.2840729-0.0007172,0.5214691,0.0137482,0.6884308,0.0383606c0.0832062,0.0122986,0.1484528,0.0267639,0.1892395,0.0390625   l0.0416565,0.0144653l0.0002747-0.0007172l0.0028381,0.0021667c0.2470398,0.1490479,0.5184479,0.245285,0.8443146,0.3400574   c0.966568,0.2713165,2.401413,0.4536438,3.8196869,0.4558258c0.9450989-0.0014496,1.8714905-0.0810394,2.6547394-0.3053284   c0.3920593-0.1136017,0.7524261-0.2626343,1.0668335-0.4898224c0.3111115-0.2221222,0.5870056-0.5513306,0.6911011-0.9724121   c0.0453644-0.1816101,0.0691833-0.3617706,0.0691833-0.539032   C154.2382202,130.5265808,154.1451111,130.2002716,153.9799652,129.934021z M139.7789001,122.1424103   c0.5487061,0.2322464,1.2863007,0.5520477,2.0272675,0.9000626c0.5663452,0.2655334,1.1326752,0.546257,1.6063995,0.8096161   c0.4714661,0.2590256,0.8590088,0.5158768,1.0192719,0.6663666c0.3867188,0.3559723,0.8041382,0.5911179,1.2189941,0.7235184   c0.4150238,0.1338577,0.8181152,0.1685867,1.1902313,0.1685867c0.5419312-0.0021744,1.0293121-0.0665665,1.4784393-0.0643997   c0.0615845-0.0057831,0.3304138,0.0484772,0.6228943,0.1743698c0.4470062,0.1845016,0.9888763,0.5115356,1.3764648,0.8711243   c0.1945801,0.1787109,0.3501434,0.3639297,0.4455109,0.5274429c0.0969391,0.1642456,0.1303253,0.2959213,0.129776,0.3899841   c-0.0026703,0.0882645-0.0179138,0.1606216-0.1054077,0.2843399c-0.0476685,0.0651169-0.1243134,0.1439819-0.2312622,0.2286377   c-0.02211-0.0166473-0.042099-0.033287-0.0645294-0.0499268c-0.90448-0.6584015-2.075058-1.2567596-3.3363342-1.8051834   c-2.846283-1.2336121-6.1577148-2.1930008-7.6254272-2.5938263   C139.6652679,122.9607086,139.742691,122.5432434,139.7789001,122.1424103z M126.7971573,108.7724457   c0.0012665,0.0007248,0.002533,0.0014496,0.0037994,0.0021667c0.4788361,0.2742157,0.9269257,0.6041412,1.2272263,0.9485397   c0.3035278,0.3494644,0.4497681,0.6779404,0.4503479,1.0223389l-0.007782,0.1374664   c-0.0010834,0.0101318,0.0032654,0.0188141,0.0025787,0.0282211c-0.1366882,0.0955048-0.2246857,0.1707458-0.240799,0.184494   l-0.1316223,0.1584549l-0.6253128,1.0418701c-0.0080948,0-0.0169983-0.0007248-0.0250473-0.0007248   c-0.2433777,0.0007248-0.4863892,0.0260468-0.7291336,0.0535431c0.0593338-0.511528,0.1564178-1.483223,0.1570969-2.4194565   C126.877739,109.5241852,126.8511505,109.137825,126.7971573,108.7724457z M86.8383942,96.2772217   c1.8642426,0.7929764,10.4496918,4.4380798,16.8615417,7.0688095c3.4289093,1.4065247,5.9047089,2.1387329,7.7667847,2.5185776   c1.8588181,0.3798523,3.1155319,0.4037247,4.0236435,0.4029999c0.1089325,0,0.2160187,0.0007248,0.3227386,0.0007248   c0.8398743-0.0007248,2.5106659,0.0911636,3.9502487,0.1837769c1.1984253,0.0759735,2.2326965,0.1526642,2.553894,0.1758194   c0.2533264,0.1114197,0.9776154,0.4413452,1.6739578,0.8653259c0.0915298,0.0557175,0.1760864,0.1164932,0.2650833,0.1743698   c0.0318756,0.0282211,0.069046,0.0484772,0.1063538,0.0701828c0.242836,0.164238,0.4729614,0.3328171,0.6499939,0.4970627   c0.272049,0.2438278,0.4077988,0.4811401,0.4130859,0.5498734c0.059288,0.2705994,0.0891342,0.6945801,0.0881805,1.1446152   c0.0001373,0.6019669-0.0470734,1.2589264-0.0949173,1.7603302c-0.0042038,0.0441284-0.0082321,0.0795822-0.0123901,0.1215515   c-0.0454865-0.0354538-0.0843811-0.0752487-0.1213226-0.1461563c-0.0433655-0.0860977-0.0879059-0.2279053-0.0883636-0.4710083   l0.0028992-0.1063614l0.0001297-0.0028915l0.0029449-0.1135941c-0.000412-0.6323624-0.2747116-1.1721039-0.6161728-1.5903015   c-0.5179977-0.6309128-1.2068787-1.0664749-1.7707291-1.3717957c-0.564209-0.3024368-1.0073242-0.4637833-1.028038-0.4717407   l-0.1371002-0.0340042c-0.0280838-0.0043411-0.16185-0.0217056-0.3808441-0.0217056   c-0.5712204,0-1.7391663,0.1179352-3.0833817,0.9007874c-1.2237473,0.7112198-2.5730743,1.9781036-3.7504654,4.1204529   c-0.1097031-0.0434113-0.2153854-0.0846481-0.3263092-0.1287842c-4.6276932-1.8493195-10.3106842-4.3505402-15.4174881-6.5985184   c-5.1115952-2.2494354-9.6304398-4.2405624-12.0068054-5.0921478c-0.4826279-0.1714783-1.1658173-0.3357162-1.9748459-0.4999542   C85.3941574,99.020813,86.1080933,97.7025604,86.8383942,96.2772217z M123.8372269,111.0117493l-0.0049744,0.1823273   c-0.0004501,0.4145737,0.0801773,0.7814026,0.235733,1.0881729c0.1289673,0.2583008,0.3092194,0.4536514,0.5015411,0.6041412   c-0.2596588,0.0983963-0.5170975,0.2033081-0.7672043,0.3183517c-1.0155563,0.4702911-1.9315796,1.0592346-2.6781616,1.6394958   c-1.318573-0.3349838-3.2004547-0.9876022-5.4087372-1.8399124c1.0520477-1.8594513,2.1864853-2.8752747,3.1577225-3.4417953   c1.0967712-0.6381454,2.0071411-0.7155609,2.3968506-0.7155609c0.0602722,0,0.0984421,0.0021667,0.1313629,0.0043411   c0.2120361,0.0839233,0.8304672,0.3487396,1.387352,0.7350998c0.3075867,0.2112656,0.5917053,0.4594345,0.7774658,0.7039871   c0.1883469,0.2481613,0.272049,0.4688416,0.272049,0.6808319l-0.0011292,0.0434113L123.8372269,111.0117493z    M70.0633545,67.5230103c-7.2236443,6.8531952-16.1551361,28.6969223-16.1551361,28.6969223   C61.5023079,73.1598434,70.0633545,67.5230103,70.0633545,67.5230103z M49.1982002,86.7158737   c0.1238594-0.5867767,0.2194099-1.1945343,0.2464066-1.8464279c0.0255928-0.6171646,0.0373077-1.187294,0.0373077-1.7154694   c-0.0004997-2.645195-0.2909012-4.2579269-0.6064491-5.2469788c-0.1394119-0.4370117-0.2845688-0.7473984-0.4140358-0.9724121   l1.5790405-2.7066956c0.426384-0.1070862,1.2904472-0.3306503,2.2735786-0.6215057   c0.6927719-0.2054825,1.439991-0.4435196,2.1294632-0.6989288c0.6910057-0.2568436,1.3186188-0.5238266,1.806179-0.8204727   l0.0030746-0.001442c0.1290131-0.0817642,0.3405533-0.138916,0.6553764-0.1381989   c0.5562515-0.0043411,1.3618507,0.1873932,2.2243805,0.4001083c0.2619133,0.0629501,0.5309715,0.1258926,0.8026543,0.1859512   c-0.8493233,1.6684418-3.6660385,7.330719-6.8371925,15.0998993L49.1982002,86.7158737z M52.5801239,88.9132156   c-0.7509232,1.8724747-1.5160942,3.8549194-2.275341,5.9227524c-0.8462486-0.0889969-1.6319923-0.1620712-2.3279305-0.2105484   c-1.4451447-0.1012955-2.7432785-0.2611923-3.9031296-0.4536514c0.5417824-0.383461,1.1772156-0.8884811,1.8242683-1.5302429   c1.1201477-1.1091614,2.2600136-2.6473694,2.9385414-4.6095657L52.5801239,88.9132156z M25.3948708,49.8980103   c6.6181908-5.4329262,16.9607124-10.7124672,30.3470001-10.7117424c4.0444412,0,8.3709679,0.4847603,12.9600868,1.5939178   c-0.665863,0.8219223-1.9201813,2.4976006-3.176712,4.8548355c-1.8187981,3.414299-3.6448784,8.2662392-3.6456909,14.0160675   c0.0004959,5.6239357,0.2541809,8.6366844,0.5179939,10.2834206c0.1010208,0.626564,0.2025414,1.0541687,0.2988167,1.3623886   c-0.2406158,0.0810318-0.5147858,0.1237259-0.8396492,0.1244431c-0.6924553,0.0028992-1.5444946-0.1895599-2.4015045-0.4001007   c-0.8616714-0.2069321-1.7212143-0.4348373-2.5470695-0.4391785c-0.464817,0.0007172-0.9428825,0.0781403-1.3731079,0.3422241   l0.0030746-0.0014496c-0.3459358,0.2127151-0.9222641,0.4666748-1.568325,0.7047119   c-0.9718246,0.3603134-2.1112823,0.6981964-3.0020294,0.9441986c-0.4455986,0.1229935-0.8296509,0.2235641-1.1015625,0.2930222   c-0.2719078,0.0687332-0.4286385,0.1063614-0.4290466,0.1063614c-0.1799774,0.0426865-0.3368454,0.1598969-0.4301338,0.3197937   l-0.0773735,0.1324081c-0.1187477-0.0875473-0.2533226-0.1866684-0.4194603-0.3096695   c-1.8899307-1.4021835-6.7119789-5.0313721-11.7611237-9.25457c-4.9648056-4.148674-10.153635-8.892086-12.9503193-12.5820465   C24.3085461,50.8147125,24.8392963,50.3538322,25.3948708,49.8980103z M24.6350822,110.9878693   c-0.1888847-0.2619171-0.406168-0.5382996-0.657095-0.818306c-0.5271301-0.5860519-1.1960258-1.1807861-2.0242329-1.6358795   c-0.8267155-0.4543762-1.818346-0.7640381-2.9465446-0.7633133c-0.4706059,0-0.9650421,0.0593262-1.4772949,0.1743622   c-0.1002979-0.5346756-0.2550869-1.305954-0.463913-2.1741791c-0.1933613-0.8031082-0.430994-1.6821899-0.7127151-2.5185776   c-0.2828979-0.8371201-0.605588-1.6286545-0.9934864-2.2776489c-0.325449-0.5411987-0.7945175-1.4521103-1.3098917-2.5605469   c-0.232069-0.4992294-0.4746304-1.0425949-0.7197685-1.6105576c0.5285788,0.735817,0.8968506,1.2241974,0.8998356,1.2285385   c0.0657501,0.0868225,0.1505833,0.1475983,0.2421083,0.1931839c0.4199142,0.8110657,0.8826513,1.5541229,1.3310995,2.2009506   c1.0136099,1.4564514,1.9480829,2.4295883,2.1505346,2.6350632c0.1922302,0.2763901,1.393774,1.9564056,3.514101,3.8136902   c1.0031166,0.8776321,2.2229309,1.7870941,3.6232624,2.6003342   C24.9075317,109.9626389,24.7527447,110.4698257,24.6350822,110.9878693z M30.9153423,113.9818039   c-0.1681728,0.4442444-0.3826065,0.8443527-0.616848,1.1149445c-0.237133,0.272049-0.461153,0.4080658-0.7202644,0.4493103   c-0.1984272,0.0282135-0.3911552,0.0412369-0.5771904,0.0412369c-0.9530602,0.0007248-1.7887726-0.3610306-2.3799801-0.8812485   c-0.5943737-0.5194855-0.9134922-1.1865768-0.9084282-1.7350006l0.0050201-0.1222763   c0.0711765-0.8761902,0.280365-1.8630676,0.584425-2.7247849c1.5224705,0.7531891,3.2263203,1.3710709,5.121767,1.6908722   l0.0005417,0.0007248c0.0040703,0.0007172,0.0077343,0.001442,0.0118027,0.001442   C31.3589077,112.3813705,31.2015858,113.2351303,30.9153423,113.9818039z M44.2625618,117.3917618   c0.0012207,1.3414078-0.2843018,2.7906265-0.5745697,3.8911057c-0.092701,0.352356-0.1844521,0.6641922-0.2676125,0.9326172   c-0.5971298-0.5824356-1.0351334-1.2936554-1.5001755-2.0851898c-0.6417656-1.0860062-1.3341293-2.3174438-2.657814-3.2457199   c-0.8749657-0.6106567-1.6013336-1.4991379-2.1161652-2.3955841c-0.4798317-0.8284302-0.7652626-1.6619263-0.8550224-2.228447   c0.0773277,0.0007248,0.16008,0.0050659,0.236412,0.0050659c2.5234604,0,4.5070877-0.3639297,6.138855-0.7401657   c0.1828728-0.0426865,0.34589-0.0832062,0.5201225-0.1244431c-0.1107903,0.4254303-0.2009583,0.7705536-0.2455444,0.9355164   c-0.0379868,0.140358-0.0499229,0.2705917-0.0502396,0.3964844c0.0029411,0.3603134,0.0959587,0.6859055,0.2114029,1.0085907   c0.286335,0.7748947,0.750473,1.5222931,0.9215889,1.7885513C44.186409,116.0814667,44.2630577,116.7196121,44.2625618,117.3917618   z M59.505722,124.3860474c7.7793121-12.2246246,15.9290619-9.7241364,15.9290619-9.7241364   C66.7293625,114.661911,59.505722,124.3860474,59.505722,124.3860474z M79.6918488,114.0686264   c-3.2708588-1.0317459-6.5550156-2.0511856-8.5594025-2.4824066c-0.9680252-0.2061996-2.6387711-0.4435196-4.7045593-0.6924057   c-3.0940552-0.37117-7.0491867-0.7611465-10.6458168-1.0585175c-3.5999718-0.2966385-6.8245316-0.502121-8.5090256-0.5028458   c-0.2562599,0.0007248-0.4796486,0.0036163-0.6801987,0.0173645c-0.0016289,0-0.003212,0.0007248-0.0048409,0.0007248   c-0.0011749,0-0.0025787,0-0.0037537,0c-1.3292465,0.0832062-2.6428452,0.4833145-4.2239189,0.8450699   c-1.5843353,0.3639374-3.4389915,0.7047119-5.8327179,0.7047119c-0.3247261,0-0.6622047-0.0079575-1.0074158-0.0217056   c-0.0463524-0.010849-0.0942841-0.0043411-0.1419907-0.0050659c-1.1252136-0.0499191-2.3599472-0.175087-3.7280827-0.4044495   l0.0005417,0.0007248c-3.9508362-0.664917-7.1111813-2.7182693-9.2838726-4.6218567   c-1.0855541-0.9507065-1.9222164-1.8601761-2.4841232-2.5287094c-0.2809963-0.3342667-0.493351-0.6084824-0.6339855-0.7966003   c-0.0703621-0.0940552-0.1227722-0.1664047-0.1569138-0.2148819l-0.0374413-0.0535431l-0.0097675-0.0137482l-0.0855122-0.1034622   l-0.0079136-0.0079575c-0.0998001-0.0998459-1.0936489-1.1127777-2.1276073-2.6271057   c-1.0363998-1.5136108-2.1013784-3.5300674-2.3920984-5.5892105c-0.0659771-0.4608841-0.1015644-1.0440445-0.1013842-1.7111282   c-0.0033007-3.0445786,0.7389421-7.8140411,2.2187252-11.7348022c0.7368164-1.9621964,1.6608448-3.7123947,2.7222977-4.9286346   c0.5299339-0.6092072,1.0908451-1.0838394,1.6705208-1.4014587c0.5811253-0.317627,1.1766281-0.4833145,1.8203812-0.4840393   c0.094738,0,0.1880264,0.0036163,0.2805023,0.0130234L23.055994,73.66716   c3.0303822,0.2423782,5.2736626,1.3471985,7.0017033,2.9128952c2.588356,2.3463821,3.9935265,5.7983093,4.724556,8.9014893   c0.733696,3.0995712,0.7994003,5.8265228,0.7988129,6.6665344c0,0.0882721-0.0007248,0.1570053-0.0014038,0.2025909   l-0.0012665,0.0643921c-0.0071869,0.2409286,0.1157188,0.4702835,0.320385,0.5983505   c0.0817146,0.0520935,3.9010506,2.4100494,11.9831085,2.9729538c3.9275017,0.2734909,10.8290443,1.3139114,16.7223129,2.2848816   c2.9484863,0.4854813,5.6491241,0.9543228,7.6122665,1.3008881c0.9815445,0.173645,1.7787323,0.3169098,2.3303757,0.4167557   c0.5516357,0.0991211,0.8562393,0.1555557,0.8571014,0.1555557l0.0406494,0.0065079   c0.0014038,0,0.5427322,0.0658417,1.3937302,0.1779861c1.2762909,0.1678619,3.2433701,0.4391785,5.0887527,0.7394409   c0.9224014,0.1504898,1.8146439,0.3082199,2.5707245,0.4637756c0.7537308,0.1541138,1.3807983,0.3103943,1.7275009,0.4355621   c1.5151443,0.5426407,4.0439453,1.6120071,7.0656433,2.928093c4.536026,1.9752197,10.1989899,4.510437,15.367157,6.7012634   c1.9312592,0.8190231,3.7928772,1.5895767,5.5035095,2.2653427c0.0624084,0.083931,0.1384201,0.1584549,0.2384491,0.2076569   c0.135704,0.0665588,0.280632,0.0723495,0.4189148,0.0477524c0.3440399,0.1338501,0.6942215,0.2720413,1.0236969,0.3972092   c2.1413498,0.8125153,3.9528275,1.4275131,5.2797241,1.737175c0.2062912,0.0477524,0.4252472-0.0036163,0.5886307-0.1381912   c0.696434-0.5744781,1.6447449-1.1996002,2.6639557-1.6706085c1.0190353-0.4724655,2.1093445-0.7850266,3.0755615-0.7828522   c0.1203766,0,0.2334671,0.0036163,0.3390579,0.0137482c0.2621384,0.0238724,0.5126114-0.1034622,0.6480026-0.3284836   l0.7698822-1.2827988c0.055481-0.0412445,0.1375122-0.0976791,0.2391205-0.1519394   c0.1735535-0.0947876,0.3873138-0.1664124,0.5528564-0.1635208c0.1190186,0.0014496,0.213623,0.0231552,0.3334961,0.0998459   c0.1183472,0.0781403,0.2723236,0.2286377,0.4341125,0.5368576c0.3352203,0.6417618,0.4276581,1.1815109,0.4286499,1.6112823   c0,0.3509064-0.0648041,0.630188-0.1261292,0.8154068c-0.0306091,0.0926132-0.0602722,0.1620712-0.0798035,0.2033081   l-0.0198517,0.0397949l-0.0028534,0.0050659l0.0014496,0.0007248c-0.1876221,0.3219681-0.0833893,0.7358246,0.2374878,0.9282761   c0.3234253,0.1939087,0.7427063,0.0882721,0.9365082-0.2344208c0.0396271-0.0687332,0.4160309-0.7170105,0.4178009-1.7581558   c0.0000458-0.0260468-0.0043488-0.0564346-0.004837-0.0832062c0.021286,0.0115738,0.0418701,0.0188141,0.0631714,0.0325546   c0.246994,0.1620712,0.5277557,0.4225388,0.6770782,1.1279755c0.0644836,0.3226929,0.0904388,0.6330795,0.0904388,0.9239349   c0.0002747,0.5817108-0.1048737,1.0889053-0.2093658,1.443428c-0.0520935,0.1772614-0.1037903,0.3169022-0.1407776,0.4080658   l-0.0425568,0.0998459l-0.0095825,0.020256h0.0000458c-0.1686249,0.336441-0.0320129,0.7466812,0.3050995,0.9152603   s0.7471313,0.0318298,0.9157562-0.3046036c0.0245514-0.054985,0.4808197-0.9839935,0.5354919-2.3398743   c0.1840973,0.058609,0.4325409,0.1497726,0.6628876,0.2756653c0.2098694,0.1128693,0.3973541,0.2525101,0.5070496,0.3827438   c0.1111603,0.1352997,0.1481476,0.2293549,0.150589,0.3574219c0.0007629,0.5853271-0.0873718,1.3537064-0.1778564,1.960022   c-0.0450439,0.3045959-0.0902557,0.5701294-0.1239929,0.7582474c-0.0169067,0.09478-0.0309296,0.1693039-0.0406036,0.2206726   l-0.01474,0.0759735c-0.0739441,0.3689957,0.1656799,0.7285843,0.5352173,0.8023834s0.7290039-0.1656876,0.8029327-0.5346832   c0.0014954-0.0079575,0.0959625-0.4804153,0.1911011-1.1221848c0.0346832-0.2358627,0.0680542-0.4963303,0.0984955-0.7625885   c0.0628967,0.0260468,0.1247101,0.0542603,0.1876068,0.0976715c0.234024,0.1599045,0.4541931,0.4652252,0.5936127,0.7358246   c0.0706329,0.1345749,0.1230927,0.257576,0.1563721,0.3436737l0.0357208,0.0983963l0.0005798,0.0021744   c0.0274963,0.1331253,0.1441193,0.7611465,0.1435394,1.4998627c0.0036163,0.710495-0.1168518,1.5114365-0.4418488,2.0540771   c-0.1266632,0.2308044-0.5505066,0.6345291-1.1046906,1.0143738c-0.831543,0.5824356-1.9433289,1.1692123-2.8367462,1.6011581   c-0.4471741,0.2163315-0.8408661,0.3950424-1.1216431,0.5194855c-0.1403961,0.0622253-0.2525482,0.1107025-0.3291016,0.1432571   c-0.0765533,0.0325623-0.1153564,0.0484772-0.1154938,0.049202c-0.0090485,0.0043411-0.0168304,0.0065155-0.0258636,0.0108566   c-0.3363953,0.1555557-0.4862976,0.5542145-0.3371582,0.8935471c0.1491699,0.3393326,0.5443115,0.4970627,0.8862152,0.3552475   c0.0014954-0.0007172,0.0259552-0.010849,0.0668335-0.0282135c1.1423035-0.526001,1.9919891-0.7076111,2.5875397-0.7061615   c0.4892426,0.0014496,0.8103943,0.1107025,1.0509186,0.2554016c0.2742157,0.1656876,0.4587097,0.4015579,0.5846558,0.643219   c-0.2022705,0.0332794-0.4147644,0.0788574-0.6429901,0.1316833c-0.6904602,0.1627808-1.4888306,0.4001007-2.2109833,0.6019592   c-0.3603668,0.1013031-0.7009583,0.1931915-0.9914093,0.2619171c-0.2887726,0.069458-0.5336914,0.1136017-0.6668243,0.1230011   h0.0042114c-0.0962372,0.0072327-0.2338409,0.0115814-0.397171,0.010849   c-0.7364044,0.0007324-1.9917603-0.091156-3.0942383-0.2720337c-0.551178-0.0904541-1.0678711-0.2033234-1.4522858-0.3277588   c-0.191597-0.0615082-0.349823-0.1266174-0.4541855-0.1823273l-0.111969-0.0687408l-0.0198517-0.0159149l-0.0005875-0.0007172   l-0.0005417,0.0007172c-0.1484604-0.1852264-0.3196182-0.3342743-0.5435486-0.5165939   c-0.7797241-0.6258469-2.1690674-1.5194016-3.5220566-2.2841644c-0.6755447-0.3812943-1.336937-0.7264099-1.9086533-0.9839859   c-0.2865143-0.1287842-0.5500565-0.2351456-0.7915726-0.3147354c-0.2452774-0.0781403-0.4546051-0.1360168-0.7124023-0.140358   c-0.1578598,0.0043411-0.6199646-0.0665665-1.1797943-0.1968002c-1.7059708-0.3878098-4.5027008-1.2545853-6.3062592-1.8102493   c-0.3304291-0.1012955-0.8786316-0.2445526-1.6187439-0.4276047c-2.5822067-0.6388702-7.4408875-1.7436905-12.0653687-2.7920685   c-4.6211319-1.046936-9.013588-2.038887-10.6150589-2.4389954   C86.2021484,116.1415176,82.9553452,115.0989227,79.6918488,114.0686264z M152.8436737,131.0735626   c-0.0115662,0.0419617-0.0366669,0.1005707-0.1683502,0.1989746c-0.191864,0.1446991-0.6027374,0.301712-1.1240387,0.3935852   c-0.5213318,0.0962372-1.1500854,0.141098-1.7963257,0.1403656c-0.8620758,0.0007324-1.7582397-0.0781403-2.4941101-0.1989594   c-0.3676453-0.0600586-0.6956177-0.1316833-0.9532471-0.2047577c-0.2558441-0.0701904-0.4474945-0.1533966-0.5014343-0.1895599   l0.0039673,0.0028839c-0.2517395-0.1519318-0.4904938-0.2033081-0.756485-0.2452698   c-0.2652588-0.0383453-0.5578308-0.0528107-0.8851318-0.0535431c-1.4549561,0.0021667-3.641449,0.2988129-5.9141235,0.6663666   c-2.2675171,0.368988-4.6026306,0.8117981-6.2638397,1.1142273l0.0020294-0.0007324   c-0.3998718,0.07164-0.8840942,0.1078033-1.4298553,0.1070862c-2.1490479,0.0028992-5.2206192-0.549881-8.286499-1.1142273   c-3.0746536-0.5614471-6.1423416-1.1330261-8.455574-1.1366577c-0.0862808,0-0.1674957,0.002182-0.2432861,0.0036316h0.0005875   c-1.2114868,0.0224152-3.5411835,0.1967926-6.4879074,0.4456787c-4.4147568,0.3740692-10.1863785,0.9159851-15.4269867,1.3638458   c-1.4081039,0.1208191-2.7766495,0.2336884-4.0724792,0.3357086c0.2580719-1.2133484,0.9205933-4.7137451,0.9216766-8.728569   c-0.0004044-1.9477158-0.1738663-4.0112-0.6168442-6.0037842c2.0425949,0.5014038,7.2954941,1.6814651,12.4163589,2.8441696   c2.6503525,0.6019669,5.2598267,1.1981506,7.3549652,1.6894226c1.0474777,0.2452698,1.9664383,0.4645004,2.6960678,0.6453781   c0.7278671,0.1801605,1.273674,0.3234177,1.5452194,0.407341c1.2033539,0.3704453,2.8513947,0.8812561,4.3454742,1.3008957   c0.7475739,0.2105484,1.4562683,0.397934,2.0590973,0.535408c0.6093826,0.1360168,1.0849609,0.2271805,1.4827652,0.2315216   h0.0016708c0.0335083-0.0007172,0.2131271,0.0397949,0.4359665,0.1244507   c0.8036575,0.2944717,2.2301254,1.061409,3.4769821,1.8283386c0.6258926,0.3834686,1.2139282,0.769104,1.6699753,1.0954132   c0.2277298,0.1635132,0.4226761,0.3118439,0.568512,0.4333954c0.1445618,0.1179352,0.2444534,0.2213898,0.2541351,0.2365875   c0.1693039,0.2127075,0.361763,0.3371582,0.5660629,0.4478607c0.3582382,0.1873932,0.7786484,0.3190765,1.2524185,0.4362793   c1.4147034,0.341507,3.2875519,0.5014038,4.3861694,0.504303c0.1864014-0.0007324,0.3507233-0.0050659,0.4953003-0.0151978   h0.0041962c0.3516388-0.0296631,0.7489014-0.1215515,1.2076111-0.2387695   c0.6822357-0.1758118,1.4763947-0.4152985,2.1910095-0.6077576c0.3565979-0.0969543,0.6928101-0.1808777,0.9764252-0.2394867   c0.2815552-0.0585938,0.5179596-0.0882721,0.6306458-0.0868225l0.0431366,0.0014496h0.000824   c0.1955719,0.0846558,0.4208527,0.0795898,0.6095123-0.0296631c0.2261505-0.1302338,0.3584137-0.3798523,0.3395691-0.6395874   c-0.00737-0.058609-0.0487061-0.7141266-0.4740448-1.4354706c-0.2134857-0.3581467-0.5338287-0.7336502-0.9960175-1.0136566   c-0.1781769-0.1085281-0.3819275-0.1946259-0.5984955-0.2677002c0.2910461-0.1750946,0.5800018-0.3538055,0.8468323-0.5397491   c0.4559631-0.3234177,0.8619995-0.6468277,1.1802063-1.012207c0.006012,0.001442,0.0101318,0.0028915,0.0162354,0.0043411   c1.0192108,0.2727661,3.6114197,0.9999084,6.1368713,1.9614639c1.2619476,0.480423,2.5075836,1.0201721,3.5196991,1.5809021   c0.6794434,0.37117,1.246582,0.7625885,1.640686,1.1207275c-0.1864014,0.1034698-0.3616791,0.2308044-0.5138397,0.3986664   c-0.2517853,0.2799988-0.228363,0.7119446,0.0522766,0.9637299s0.7121735,0.2279053,0.9639587-0.0520935   c0.0482025-0.0578766,0.1828613-0.1512146,0.3780823-0.2156067c0.1936798-0.0651245,0.4399872-0.1049194,0.6841278-0.104187   c0.3527222-0.0028992,0.6971283,0.0860901,0.8864594,0.2076416c0.0964508,0.0593414,0.1540222,0.1201172,0.1882935,0.175827   c0.0335083,0.0571594,0.0539551,0.1128693,0.0553436,0.2177734   C152.8721619,130.9201813,152.8648376,130.9889069,152.8436737,131.0735626z"/></g></svg>