<svg xmlns="http://www.w3.org/2000/svg" xmlns:xlink="http://www.w3.org/1999/xlink" version="1.1" x="0px" y="0px" viewBox="2.708 15.997 155.821 114.323" style="enable-background:new 0 0 161.5 162.6999969;" xml:space="preserve"><path d="M151.0704346,93.1026688c2.4830933-3.4445648,3.5000153-5.1616745,4.3317871-9.5714645  c0.3383484-1.7932434,0.0140991-3.3750153-0.9370422-4.576149c-1.1231232-1.417305-3.1353455-2.2913666-5.5197601-2.3975677  c-0.0676575-0.0028229-0.137207-0.0046997-0.2105255-0.0046997c-3.4127197,0-12.4776154,3.2401428-14.9291077,4.1402893  c0.1932678-2.431633-0.0680237-5.1804733-0.7260284-7.3846664l-0.125-0.4191742  c-1.2274475-4.1071625-1.9680634-6.5864944-1.9680634-9.4906425c0-3.6494522-0.9022522-6.7913818-2.7584686-9.6062431  c-1.6447372-2.4934349-5.4953232-3.184227-8.5893173-3.738739c-0.9257584-0.1663551-1.7998199-0.3233109-2.4614792-0.5075226  c-2.3035812-0.6428604-4.1081009-2.8533936-4.5150604-3.3853531v-5.6142159  c0.6168442-1.008934,1.0095215-1.9760437,1.2095947-2.5662689c0.0977478,0.015976,0.1860886,0.0093956,0.2490616-0.0018806  c0.6569595-0.1052628,1.1804581-0.8985023,1.9332809-2.925766c0.58741-1.5789528,0.2593994-2.4689941,0.0112762-2.8599739  c-0.0894623-0.1412125-0.2005997-0.2546997-0.3202591-0.3529148c0.1524963-0.826601,0.5990982-3.7864361-0.1534271-6.7965527  c-1.5141068-6.0535984-8.040451-6.0357399-8.1156387-6.0479584l-1.516922,0.0009384  c-0.0620346-0.0028191-6.6739044-0.2960529-8.1936417,5.7801018c-0.7578812,3.0289135-0.2618713,6.2025642-0.1007462,7.0644093  c-0.1194763,0.0982151-0.2306747,0.2119389-0.3203125,0.3529148c-0.2471848,0.3900414-0.5761337,1.2810211,0.0112762,2.8590355  c0.7528229,2.0272636,1.2763214,2.8205032,1.9332809,2.925766c0.0601501,0.0103378,0.1437988,0.0150375,0.2359009,0.0037575  c0.2018356,0.6414528,0.6041565,1.7131195,1.2804947,2.8031158c-0.0095749,0.0375938-0.0229645,0.0737762-0.0229645,0.114193  v5.1090431c-0.4069595,0.5319557-2.2114792,2.7424927-4.5131836,3.3853531  c-0.6625977,0.1842117-1.5366592,0.3411674-2.463356,0.5075226c-3.0939941,0.554512-6.9445801,1.2453041-8.5893173,3.7387352  c-1.855278,2.8129845-2.7575378,5.9549141-2.7575378,9.6062469c0,1.6691818-0.491539,2.7002029-1.1719971,4.1278381  c-0.5,1.0479355-1.1221848,2.3515167-1.6842117,4.2349777c-1.3139191,4.4013367-1.0469971,10.974678,1.2293243,12.8214874  c0.1071472,0.1071396,0.4389114,0.3703003,1.1146698,0.3703003c0.875,0,2.3251953-0.4407883,4.6071625-2.2283936  c1.6207733-1.2695084,3.6352386-2.8886414,5.8035965-4.7974777c-0.0587997,1.6203079-0.1654129,4.6891632-0.1654129,5.6048126  c0,0.2678604-0.5968094,1.1983185-1.1231308,2.0197449c-0.890976,1.3881683-2.1099701,3.2904282-2.9079056,5.4511566  c-0.6221848,2.134407-2.1062088,5.6541595-3.4389267,6.0131836c-2.0178604,0.5432358-16.2237549,5.2133636-17.8929291,6.0479584  c-1.5441818,0.7725601-10.8863297,3.3101654-10.938961,3.3261414c-1.7500076,0.3082733-3.0470047,1.0686111-4.1917458,1.7396698  c-0.720871,0.4229355-1.4022636,0.8223724-2.1419296,1.0883484c-1.818615,0.6541367-24.8915558,6.0676956-26.8868637,6.1485214  c-1.9064941,0.0657959-6.8863087-1.203949-7.6443014-1.7556458c-0.5333672-0.3881607-2.0742569-3.3834686-3.0220995-5.4342346  c-0.038064-0.5065765-0.2330837-3.1644821-0.2330837-4.3703156c0-1.2086563,1.0390081-2.8590393,1.0493469-2.8750153  c0.0747185-0.117485,0.0935154-0.2622223,0.0512218-0.3947372c-0.0418234-0.1325226-0.1405077-0.2406006-0.2687979-0.2932358  c-0.1597757-0.0648499-1.5822439-0.625-2.6198425-0.1541367c-0.9558315,0.4351501-1.6085596,2.6682434-1.8317747,3.5451279  c-2.6043348,2.4182434-2.2739763,4.9097977-0.9713392,7.8985291c1.0239706,2.3487015,0.5000024,3.9718246-0.3674827,6.6616898  c-0.218986,0.6776276-0.4572387,1.4163589-0.6954918,2.242485c-1.3134456,4.5526505,0.9290457,5.3571701,1.02914,5.3900604  c0.5408859,0.1748199,1.2250996,0.2471848,1.9877901,0.2471848c3.4534931,0,8.5193043-1.4830856,9.1992893-1.6870346  c1.0836506-0.3251953,5.6057568-0.3806458,9.9788971-0.4332733c5.2199478-0.062973,10.6194077-0.1287613,12.7641525-0.6005707  c2.2528305-0.4953003,6.9925117-1.970871,11.1748619-3.2725677c3.2753906-1.0187988,6.3693886-1.9821548,7.5958977-2.2622299  c2.7500114-0.6287613,11.2594452-1.5921097,14.9728088-1.5921097c3.6466293,0,17.3553391-2.8101654,22.0931396-5.0159988  c4.5225754-2.1052704,9.7434692-2.6804657,9.7838821-2.6851654c7.0987167-0.5639114,19.1993332-4.0103531,24.7679596-7.7782288  c0.769043-0.5202103,1.5919952-1.125473,2.4377441-1.7765579c-0.6832123,1.657196-1.7209778,4.2986526-2.5101166,6.8630447  c-1.2556305,4.0817871-5.0620422,11.4765549-5.0639267,11.490654c-0.1184158,0.1635361-2.8825302,4.0329132-1.6400452,6.4285965  c1.125946,2.1701279,4.7049026,1.9558411,6.0526657,1.8750076c0.1672821-0.0093918,0.2979279-0.0178528,0.3796997-0.0178528  c0.1353302,0,0.4445496-0.0140991,0.8703003-0.0328979c1.7603455-0.0780029,5.8863068-0.2603378,7.2472076,0.1710587  c1.8580933,0.5911636,5.897583,1.1456757,7.2810516,1.1456757c0.3176727,0,0.8233185,0.1156082,1.3580933,0.2377853  c0.6766968,0.1541367,1.5046997,0.3430481,2.2716217,0.3430481c0.9793243,0,1.859024-0.3092117,2.1936188-1.3947449  c0.0366516-0.1203003,0.0234985-0.2509384-0.0357208-0.3618393c-0.0601501-0.1109085-0.1625824-0.1926727-0.2828827-0.2283859  l-0.1927338-0.0559235c-0.0026398-0.070488-0.0106354-0.1360397-0.0243835-0.1912613  c-0.1278229-0.5122223-0.6437988-0.7932358-0.8054504-0.8693619l-4.7030334-1.5930557  c-0.8599548-0.3580856-5.8909912-3.1325302-7.7312317-4.7331009c-1.5498199-1.3468094-1.2396698-2.4182434-1.2133484-2.5065918  C138.1859741,111.7550049,148.2875214,96.9635925,151.0704346,93.1026688z M127.4425125,54.3111496  c1.7509537,2.6550865,2.6024551,5.6278419,2.6024551,9.0874443c0,3.0423088,0.7556458,5.5705147,2.0075226,9.7603798  l0.125,0.4182358c1.3186188,4.4163742,0.8355408,10.3994827-0.970871,11.8675308  c-0.0093994,0.008461-1.0808258,0.7622223-4.4971924-1.9135361c-0.429512-0.3364716-0.8778229-0.7171097-1.3092194-1.1109085  c-0.1231155-0.1287613-12.3910294-13.0019379-16.3111572-20.3290367c-0.0046997-0.0103416-0.4859085-1.0855331-0.5676727-2.7894859  c-0.0002365-0.004467-0.0027618-0.0079918-0.0031128-0.012455c0.0058746-0.2882996,0.006691-0.5845871-0.0194473-0.9170609  c-0.1456757-1.8552742-0.0432281-4.3637428,0.0385361-6.378788c0.0742493-1.8317757,0.1109009-2.8909912,0.0197372-3.3505783  c-0.1568375-0.7833672-0.4071884-3.9913254-0.4882507-5.0362053c0.0324249-0.0681419,0.05439-0.1416855,0.0502777-0.2222786  c-0.0140991-0.2791367-0.0065765-0.4943619,0.0093994-0.6588364l0.8731232,5.1870537  c0.0385361,0.2302628,0.2377853,0.3928566,0.4633484,0.3928566c0.0263138,0,0.0526352-0.0018768,0.078949-0.0065765  c0.0978622-0.016449,0.1772766-0.0681381,0.2434235-0.1320496l0.2377777,1.0155106  c0.0385361,0.3392868,0.9680557,8.3355637,1.4097824,9.8383904c0.508461,1.7302704,7.6306763,8.3195839,10.2246704,9.9408302  c2.7359161,1.7095947,7.8402557,5.6842346,7.8910065,5.7246475c0.0864716,0.0667343,0.187973,0.0996246,0.2894745,0.0996246  c0.1400452,0,0.2781982-0.062027,0.3712463-0.1813889c0.1597748-0.2048874,0.1231232-0.5009384-0.0817719-0.6607132  c-0.2105255-0.1644745-5.1936264-4.0441971-7.9718323-5.781044c-0.0970993-0.0606232-0.2086487-0.1390991-0.3142624-0.2100601  c0.0961533-0.0735397,0.1666489-0.1802139,0.1836243-0.3096771c0.1533127-1.166832-0.030838-2.1569672-0.2885361-2.926239  c0.0566254-0.0775375,0.0968018-0.1682281,0.0968018-0.2720871v-3.7255783c0-0.2603378-0.2105255-0.4708672-0.4708633-0.4708672  s-0.470871,0.2105293-0.470871,0.4708672v2.3277817c-0.0642624-0.0629692-1.3023987-1.2880669-2.025383-3.3954544  c-0.6786346-1.9802742,0.2322006-7.7681274,0.3872223-8.7115059c0.0732498,0.0131607,0.1441498,0.0263176,0.2180405,0.0394745  C122.3898544,51.5028648,126.0205154,52.1541824,127.4425125,54.3111496z M116.6125793,83.2389069  c-0.1776352-0.4078979-0.4219971-0.9671097-0.3900452-1.1090317c0.3938599-0.7868881,0.9413223-4.112793,1.0668564-4.8994522  c0.5666733-0.2617493,0.993309-0.5683746,1.3005829-0.915657c3.2164078,3.6983261,5.9073334,6.5221176,6.1523361,6.7775269  c0.4635849,0.4248123,0.9221191,0.8139114,1.362381,1.1600113c-0.8238983,0.3836975-1.6579056,0.906723-2.4704666,1.4217606  c-1.1738739,0.742485-2.3872299,1.5112839-3.2030182,1.5498199c-1.2763214,0.0610886-2.0056534,0.7810211-2.3674927,1.2979431  l-0.6127853-0.4595947C117.8484879,86.0706863,117.1097565,84.378006,116.6125793,83.2389069z M111.807106,46.5883713  c0.0608521,0.0864639,1.0952835,1.5274963,2.7091293,2.6722374c-0.0175095,0.0519257-0.0296097,0.1064377-0.0277252,0.1642418  c0.0672531,2.2290955-0.1872711,8.0620651-2.0431824,9.5597191c-0.0450592-0.0836449-0.0898743-0.1668243-0.1081467-0.2288513  c-0.4182358-1.4257584-1.367485-9.5996666-1.3862839-9.7350082l-1.2712097-5.4394035  c0.8047485-0.4710999,1.4858475-1.0679054,2.040947-1.7229843v4.4584312  C111.7206345,46.4144974,111.7507172,46.5084839,111.807106,46.5883713z M99.919838,36.8552437  c-0.1776352-0.0385323-0.3609085,0.054512-0.4727478,0.1964302c-0.0930481-0.0338326-0.4567719-0.3007545-1.2095947-2.3261375  c-0.4746246-1.2772598-0.1945496-1.8750076-0.0977402-2.0282059c0.0573273-0.0902252,0.1259384-0.1550751,0.1964264-0.1879692  c0.1296997,0.179512,0.2894745,0.6541367,0.421051,1.2227478c0.0751877,0.5413589,0.1691742,0.9163589,0.179512,0.954895  c0.062973,0.241539,0.3007584,0.399437,0.5479355,0.3449249c0.2443619-0.0488739,0.4088364-0.2800751,0.3740616-0.5281982  c-0.054512-0.3787613-0.116539-0.7218094-0.1860886-1.0281982c-0.0949249-0.7471848-0.1390991-1.7791443,0.1597748-2.5686226  c0.2734985-0.7218075,0.2518845-1.0986881,0.2283859-1.498127c-0.0300751-0.5112801-0.0667343-1.1485004,0.6268845-3.1400509  c1.0667343-3.0629826,5.3270874-2.082716,5.5084763-2.0376034c0.0357208,0.0084591,0.0733109,0.0131588,0.1099625,0.0131588  h0.7979431c0.03759,0,0.0742416-0.0046997,0.1109009-0.0131588c0.0441742-0.0112782,4.4370499-1.0366573,5.5075378,2.0376034  c0.6936188,1.9915504,0.6569595,2.6287708,0.6268845,3.1400509c-0.0234985,0.3994389-0.0451126,0.7763195,0.2283859,1.4990673  c0.2998123,0.7894764,0.2537613,1.8270741,0.1578979,2.5761395c-0.0686111,0.304512-0.1306458,0.6447411-0.1842117,1.0197411  c-0.0347748,0.2481232,0.1296997,0.4793243,0.3740616,0.5281982c0.2490616,0.0535698,0.4859009-0.1033859,0.5479355-0.3449249  c0.0103378-0.0385361,0.1043243-0.4135361,0.179512-0.954895c0.1315765-0.5686111,0.2922897-1.0432358,0.4219894-1.2227478  c0.070488,0.0328941,0.1390991,0.097744,0.196434,0.1879692c0.0968018,0.152256,0.3759384,0.7500038-0.0986862,2.0282059  c-0.7556458,2.0319633-1.1353455,2.2819633-1.21241,2.2631683c-0.1109085-0.1390991-0.2913589-0.203949-0.4661713-0.1654167  c-0.1748123,0.0375977-0.312973,0.1701164-0.3571396,0.3430481c-0.0104599,0.0401802-0.9826813,3.7103081-3.6783524,5.4692459  l-0.3818207-1.6337013c-0.0451126-0.1907921-0.2030106-0.3336487-0.3966141-0.359024  c-0.3516846-0.0451126-1.0112839,0.1214752-1.4080811,0.9581795c-0.0559769-0.2102928-0.1655273-0.4163551-0.3767014-0.5493431  c-0.3872223-0.2481232-0.8270721-0.5281982-1.1719971-0.2377853c-0.1506729,0.1247673-0.2168121,0.1797485-0.2834854,2.5404243  c-3.912262-1.0190353-5.1518707-6.1250267-5.1639099-6.1776581C100.2346878,37.0009232,100.0955887,36.8956604,99.919838,36.8552437  z M101.637886,46.4361153c0.0563889-0.0798874,0.0864639-0.1738739,0.0864639-0.2716179v-4.1278381  c0.8992691,1.0371284,2.1004028,1.9365692,3.6912231,2.2904243c-0.0226746,0.9826164-0.046463,2.2382584-0.0746613,3.8834724  l-1.2255707,8.5827446c-0.1887894,0.2638664-0.8466873,1.1402779-2.0455322,2.3895798  c-0.4413757,0.0305443-0.8275986-0.1033859-1.1753464-0.4290428c-1.7735062-1.6569633-2.0000076-7.4060478-1.9379807-9.4812469  c0.0018845-0.0578003-0.0101624-0.1123123-0.0276642-0.1640015C100.5424881,47.9638443,101.577034,46.5225792,101.637886,46.4361153  z M85.9733429,81.8319473c-3.4201279,2.6767044-4.4859161,1.9229355-4.5112991,1.900383  c-1.7922974-1.4558334-2.275383-7.438942-0.9567642-11.8543777c0.5413513-1.812973,1.1203003-3.0272675,1.6306458-4.0987015  c0.7067642-1.4812088,1.2650375-2.650383,1.2650375-4.5329132c0-3.461483,0.8505707-6.4342384,2.6015167-9.0874443  c1.4219971-2.1569672,5.0526581-2.8082848,7.9699631-3.3317833c0.0739517-0.0131569,0.1449738-0.0263176,0.2182236-0.0394745  c0.3301773,1.9624138,0.983902,6.9685478,0.3861008,8.7115059c-0.6626587,1.9344521-1.7716217,3.1358223-2.025383,3.3992157  V60.565876c0-0.2603416-0.2105331-0.4708672-0.470871-0.4708672s-0.4708633,0.2105255-0.4708633,0.4708672v3.7265205  c0,0.1024399,0.0395279,0.1921997,0.0950394,0.2695007c-0.2444229,0.7344971-0.4162979,1.682106-0.2938766,2.792778  c-2.6933289,1.5838852-4.0235138,2.0458221-5.0464859,2.4010925c-1.0733185,0.3731155-1.8486938,0.6428604-3.4107285,1.954895  c-0.1992493,0.1663513-0.2246246,0.4633484-0.0573349,0.6625977c0.0930481,0.1109009,0.225563,0.1682281,0.3599625,0.1682281  c0.1071472,0,0.2142868-0.0366516,0.3026352-0.1109009c1.4285812-1.1992493,2.0639191-1.4201202,3.1146774-1.7857208  c1.3054581-0.4530106,3.0930557-1.0742569,7.3609314-3.7988892c7.7716522-4.9643059,10.7979813-9.4267349,10.9229813-9.6137657  c0.0385361-0.0582695,0.0639114-0.125,0.0742493-0.1945496l1.2375488-8.6908264  c0.0647964,0.0634422,0.1421585,0.1148987,0.2380219,0.1325188c0.257515,0.0366554,0.5009384-0.1231194,0.5479355-0.3787613  c0.109024-0.6015053,0.0187912-3.7960663-0.0319595-5.307354c0.0695496,0.1635361,0.0817719,0.3693619,0.0798874,0.4849663  c0.0131607,0.1851501,0.3308334,4.551712,0.5310211,5.5488968c0.0742493,0.3712425,0.0197372,1.7105331-0.0375977,3.1287727  c-0.0827026,2.0394821-0.1860886,4.578968-0.0357132,6.4896889c0.2293243,2.9229469-1.0037613,3.6362953-1.0488739,3.6607323  c-0.0469971,0.0234947-0.0892868,0.0545082-0.125,0.0911636c-0.0460587,0.0469933-4.6287842,4.7190056-7.8562393,8.2481575  C94.0579681,75.3384933,89.2214813,79.2868195,85.9733429,81.8319473z M91.8615265,85.9080887  c0.8590317-1.3402328,1.2725677-2.0075226,1.2725677-2.5282059c0-0.9873123,0.1306381-4.6590881,0.1813278-6.0479584  c0.7921829,0.2469482,3.1928024,0.7972336,9.3948364,1.0479355c1.7020798,0.0686111,3.2603531,0.1033859,4.6795349,0.1033859  c4.0508881,0,6.9643173-0.2852478,8.8833237-0.8740616c-0.2600479,1.5554581-0.658783,3.6325302-0.8926849,4.0996399  c-0.2462463,0.4943619,0.0122147,1.0864716,0.3693619,1.9060211c0.4990616,1.1447449,1.1832733,2.7124176,0.7189865,4.5244598  c-0.0135117,0.0531006,0.0021744,0.1043243,0.0070496,0.1569519c-0.0095749,0.0122223-0.0229721,0.0197372-0.0314865,0.0328979  c-0.0169144,0.0263138-1.792305,2.6767044-10.519783,4.4370499c-8.8237,1.7798462-16.5322037-1.9617081-16.6905136-2.0399551  C89.9864655,88.8613434,91.0552521,87.1651459,91.8615265,85.9080887z M28.299221,122.8612595  c-4.8435364,0.0582733-9.026825,0.109024-10.2373562,0.4718094c-2.9088478,0.8721848-8.4220304,2.1560211-10.6118889,1.4520721  c-0.0150375-0.0056381-1.4718108-0.625-0.429513-4.238739c0.2354331-0.8157959,0.4708667-1.5460587,0.6870327-2.2142944  c0.9036698-2.8017044,1.5009465-4.6522751,0.3345885-7.3271027c-1.4238787-3.2669296-1.2025433-5.0780258,0.8458681-6.9210815  c0.0704889-0.062973,0.1198311-0.1466217,0.1423874-0.2387238c0.3223705-1.3251953,0.9384441-2.8674927,1.3421116-3.050766  c0.3726521-0.1691742,0.9248161-0.1015015,1.3515091,0.0037613c-0.3547945,0.6625977-0.8942699,1.838356-0.8942699,2.8562164  c0,1.3656082,0.2321434,4.3985138,0.242012,4.5263367c0.0042295,0.0563889,0.0183268,0.1099625,0.0413532,0.1607132  c0.3970881,0.8627853,2.4243526,5.1992722,3.3590374,5.8787842c0.9891958,0.7199249,6.1485224,2.0263214,8.2354689,1.9342194  c1.1590157-0.046524,8.9507561-1.7652817,15.9182434-3.3942795c-0.8299484,5.7378006,0.6251793,8.6964645,1.2757339,9.6790771  C37.3792648,122.7505951,32.5910034,122.8088608,28.299221,122.8612595z M140.713623,91.1237564  c1.8201141-1.6901016,3.6402283-3.1201935,4.7453003-3.7702332c-2.5574951,2.1103134-1.7362671,1.9230042-4.3443604,4.1983871  c-1.9206085,1.6750641-4.2995148,3.7506409-6.5907288,5.5829086C134.5238342,97.134819,138.8935089,92.813858,140.713623,91.1237564  z M137.9491425,118.6055984c1.8618469,1.6193695,6.9098053,4.4426956,8.0169525,4.9022827l1.4891968,0.5035248l-0.4036713-0.1172485  c-0.2528229-0.0695496-0.5112762,0.070488-0.5836487,0.3204956c-0.0723724,0.25,0.0714264,0.5112762,0.3204956,0.5836487  l4.2651672,1.2387238c0.0429993,0.0202103,0.0865173,0.0357132,0.1322327,0.0422974  c-0.5371857,0.5070496-1.6898651,0.3047409-3.099472-0.0178604c-0.6137238-0.1400375-1.1437988-0.2612762-1.5676727-0.2612762  c-1.2969971,0-5.2434387-0.5441818-6.9953308-1.1005707c-1.5216217-0.4830856-5.6099854-0.3007584-7.5752258-0.2142868  c-0.4050751,0.0178528-0.6992493,0.0310135-0.8280029,0.0310135c-0.0939941,0-0.2443695,0.008461-0.4360962,0.0206757  c-1.1813965,0.070488-4.3167496,0.258461-5.1616745-1.3703079c-0.8092194-1.5610962,0.8580856-4.4577255,1.6052704-5.5018997  c0.1578903-0.3063965,3.8834763-7.5442047,5.1644974-11.7068176c0.6064301-1.971817,1.3620758-3.9889755,1.9862671-5.5604095  c1.0492249,0.8296509,4.2140656,3.0801315,7.7055054,3.0801315c0.3203125,0,0.6434479-0.0239639,0.9676361-0.0648499  c-3.0925903,4.7876205-6.0456085,9.7211456-6.5005646,11.7134018  C136.4265747,115.19487,135.8871002,116.8123627,137.9491425,118.6055984z"/></svg>