<svg xmlns="http://www.w3.org/2000/svg" xmlns:xlink="http://www.w3.org/1999/xlink" version="1.1" x="0px" y="0px" viewBox="2.534 51.185 155.407 72.639" style="enable-background:new 0 0 161.5 162.6999969;" xml:space="preserve"><g><path d="M154.7711029,109.5431061c-0.0603027-0.1564331-0.1933594-0.2726669-0.3564911-0.3108292   c-0.6291199-0.1479874-1.6910706-0.4046326-2.8178253-0.8046036c-1.125885-0.3982239-2.3131256-0.9444351-3.1716919-1.6333847   c-0.5962067-0.4765854-1.2946625-0.7530441-1.9813232-0.9150085c-0.687561-0.1613922-1.368103-0.20858-1.9486084-0.2088699   c-0.6178741,0.0002899-1.1175842,0.0538864-1.3924103,0.0911789c-0.5738831-0.4585266-2.6506348-2.2253342-4.8694458-5.4233475   c-1.3086548-1.8891602-2.6640472-2.93293-3.7545776-3.6486816c-0.5444183-0.3577347-1.0208588-0.6365128-1.3828888-0.8919983   c-0.3649139-0.2554779-0.6010437-0.4812469-0.7274017-0.71138c-0.1643372-0.2942276-0.4307861-0.892868-0.7201691-1.5969696   c-0.3920288-0.9520111-0.8331451-2.1032715-1.2038727-3.0911102c0.0017853-0.0037842,0.0053558-0.0061188,0.0070648-0.0101929   c0.0119781-0.0349579,1.0307617-2.3669128,1.0345917-5.1279602c-0.0001526-0.7545013-0.0803375-1.543663-0.2818909-2.3249588   c0.0374756,0.0454407,0.0714569,0.0932159,0.1107788,0.137207c0.8080292,0.9094772,1.9565582,1.538414,3.3896332,2.0747223   c0.0004272,0.0002899,0.0008698,0,0.0013123,0.0002899c0.3241882,0.5325165,0.7599182,1.0096893,1.2835541,1.4041214   c1.1429138,0.8631592,2.6873779,1.379364,4.3834381,1.3802338c1.6960144-0.0008698,3.2404785-0.5170746,4.3833618-1.3802338   c1.1400452-0.8590775,1.890213-2.0959854,1.8899994-3.4884567c0.0005035-0.2514038-0.0324402-0.4905701-0.080658-0.7227478   c1.0431061-1.2002029,2.2209625-3.172966,2.220047-5.9442139c0-0.6021423-0.0555267-1.2401123-0.1788635-1.9121704   c-0.5679779-3.1001358-2.0828857-5.3152695-3.4504089-6.7464828c-1.3688354-1.4323807-2.5924225-2.0919113-2.624939-2.1096802   l-0.0130615-0.0069885c-0.0055389-0.0026245-1.0808411-0.54039-2.3523407-1.0819321   c-0.636261-0.2706299-1.3210297-0.5424271-1.9530029-0.7501297c-0.6366119-0.2059593-1.2015839-0.3551102-1.6882172-0.3591881   c-1.3275757,0-2.176239,0-2.3494263,0c-0.1907806-0.0273819-1.4726563-0.2065392-2.9407959-0.2068329   c-0.6090546,0-1.2480469,0.03088-1.8567047,0.1203117c-0.6088409,0.0905991-1.1878967,0.2362556-1.6855011,0.4905701   c-0.8981857,0.4602737-1.7148743,0.6120453-2.4077988,0.7562485c-0.3473129,0.0739899-0.664772,0.1412811-0.9647522,0.2732468   c-0.149437,0.0667114-0.2961502,0.152359-0.427681,0.2717972c-0.1313782,0.1185608-0.2433548,0.2732468-0.3144302,0.4477463   c-0.1322556,0.3320923-0.1641235,0.7032242-0.1672134,1.136116c0.0005417,0.6277695,0.0908508,1.3691635,0.2428818,2.0919037   c0.1091995,0.5141678,0.2491074,1.0123062,0.4174118,1.4545212c-0.1554871-0.0419464-0.3152008-0.0876846-0.4797211-0.1392441   c-1.2261276-0.3822021-2.6545029-1.0417328-3.7080307-2.1198807c-1.1481705-1.1640778-2.3586044-3.2259827-3.8485947-5.0819283   c-0.7481232-0.9287033-1.5727921-1.8107948-2.5243225-2.5070305c-0.9501495-0.6953621-2.0352097-1.2045746-3.2726288-1.3589668   c-0.4081268-0.0509796-0.7951736-0.0745773-1.1608429-0.0745773c-1.5021133-0.0005836-2.6319275,0.3909416-3.3838425,0.790329   c-0.4608917,0.2447014-0.7798004,0.4902763-0.9659119,0.6519547c-0.1928482-0.0198097-0.4980011-0.0512695-0.8924026-0.092926   c-2.0676193-0.2181931-6.4840164-0.7046852-8.5356827-1.0717392c-0.4762268-0.0850601-0.9466934-0.120018-1.4033203-0.120018   c-1.059761,0.0002899-2.0451202,0.1843987-2.8674927,0.3620987c-0.4107895,0.0891418-0.781044,0.1765366-1.0934753,0.2397499   c-0.311264,0.063797-0.5683136,0.100502-0.724968,0.0996284c-0.0865555,0.0005836-0.14048-0.0113602-0.1501312-0.0154381   c-0.4168701-0.1471138-1.8321686-0.6644821-3.3608246-1.3557663c-0.7665558-0.3463669-1.5617218-0.7364349-2.2704163-1.142231   c-0.7082825-0.4046326-1.3310699-0.8290749-1.7416382-1.2188492c-0.7440491-0.7049751-1.4876175-1.2010765-2.3119583-1.509285   c-0.8241959-0.3093719-1.7131348-0.4279366-2.7425537-0.4276466c-0.608078,0-1.2682266,0.0402031-2.0034256,0.1104088   c-1.6192551,0.1523552-4.7636719,0.5791245-7.9607849,1.9791718c-3.1933556,1.397419-6.4623489,3.7928772-8.2165184,7.8703651   l-0.0022926,0.0052414c-0.0151482,0.0390396-0.5755234,1.3857727-0.5769806,3.3034744   c-0.0000343,0.9962921,0.1535225,2.1490097,0.6229362,3.3410568l0.0349922,0.071373l-0.0002899,0.0002899   c0.0284004,0.0565109,0.2486687,0.5074615,0.2492142,1.3977127c-0.0000343,0.4302673-0.0520706,0.9645309-0.2058105,1.6086273   c-0.5473747,2.2894135-1.1625862,4.8316956-1.3470993,5.7889404c-0.1450348,0.7539139-0.1779175,1.3656693-0.1779518,1.7670975   c0,0.1418686,0.0043335,0.252861,0.0091019,0.3393784c-2.9509888,0.8471375-6.6740952,1.9724731-9.2828293,2.960022   c-2.2345047,0.8462601-5.0840797,1.7892303-7.6999855,2.5175095c-1.3078079,0.3641434-2.5577164,0.6746826-3.6398315,0.8925781   c-1.0803299,0.2187805-1.9997444,0.3425827-2.6100044,0.341713c-0.2255135,0.0002899-0.4076195-0.0177689-0.5273857-0.0439911   c-0.6613846-0.14711-1.0596466-0.4663849-1.6250458-0.8340225c-0.5556774-0.3658905-1.2890167-0.7311935-2.3862057-0.7236176   c-0.6360073,0.0002899-1.3942184,0.1098251-2.3470631,0.3705444c-2.0547295,0.5604858-3.8134155,0.8115997-5.2232552,0.8113022   c-1.3587494,0.0017548-2.3889732-0.237999-3.0431862-0.6137924c-1.0745754-0.6137924-2.3645039-1.072319-3.7710667-1.0728989   c-0.7552977-0.0002899-1.5424948,0.1334229-2.3328962,0.4451218c-0.4006996,0.1608047-1.0383806,0.2350922-1.7498007,0.2741241   c-1.0720263,0.0655441-2.3036556,0.0600128-3.3558011,0.4043427c-0.5247612,0.173912-1.019773,0.4494934-1.3818369,0.9007339   c-0.3635206,0.4500809-0.5606656,1.0554276-0.5581532,1.7781677c0,0.1159439,0.0047703,0.2359619,0.0146384,0.3603516   c0.0198455,0.2511139,0.2227445,0.4500809,0.4742918,0.4652252c0.0010195,0,0.247251,0.0148621,0.6263928,0.0390396   c-0.0022941,0.0305862-0.0080109,0.0515594-0.0080471,0.0865173c-0.0014205,0.2333374,0.0659819,0.5631027,0.2895274,0.9085999   c0.2228532,0.3469543,0.590889,0.7073059,1.1737309,1.0571747c0.692193,0.4142456,1.7795506,1.1905899,2.9758215,1.8643951   c1.2018795,0.6708908,2.5136919,1.2648697,3.785923,1.2718658c0.0833158,0,0.1627703-0.0029144,0.2381477-0.0069962   l0.0061903-0.0005798c1.2939692-0.0865173,2.451642-0.1712952,3.5402384-0.1712952   c0.7973194,0,1.557169,0.0448685,2.3117771,0.1660538l0.0456257,0.0052414   c0.0068455,0.0002899,2.1332397,0.1468201,4.5396919,0.1468201c1.8082809-0.0014572,3.7616348-0.0795288,5.1488972-0.3810349   c0.3315125-0.0737,1.0074291-0.1561432,1.8989506-0.2318878c1.3876648-0.1191406,3.317276-0.2313004,5.5078316-0.3379211   c-0.2662582,0.1042938-0.5122719,0.2187805-0.7439384,0.3277283c-0.6781731,0.3160706-1.2508545,0.5808792-2.1472931,0.583786   c-1.525383,0.0084534-3.0152206,0.7897491-4.1570911,1.5381317c-0.9156647,0.6056366-1.5923824,1.1984558-1.8327141,1.4166489   c-0.6940861,0.1453629-1.29743,0.4553146-1.8042393,0.8651886c-0.8225555,0.6656494-1.4212742,1.5620193-1.9344559,2.4446945   c-0.5106697,0.8829651-0.9384594,1.7621384-1.3570385,2.3878784c-0.1492615,0.225769-0.2535133,0.4593964-0.2560635,0.7311935   c-0.0007648,0.0372849,0.0065193,0.0745773,0.011179,0.1118622c-0.0068455,0.0046616-0.0151844,0.0058289-0.0218487,0.0110703   c-0.7385464,0.5878677-1.2524567,1.1014481-1.5965691,1.5684204c-0.3407249,0.4661026-0.5263634,0.8946228-0.5296402,1.3269272   c-0.0010204,0.2315903,0.0619392,0.4588165,0.1767159,0.645256c0.1730385,0.28228,0.4375134,0.4596863,0.7091618,0.5654373   c0.274271,0.1063232,0.5674763,0.149147,0.8631935,0.1497345c0.3438206-0.0005875,0.6919746-0.0591431,1.0161304-0.1779938   c0.0097237-0.0037842,0.0831699-0.027092,0.181633-0.054184c0.7640018-0.2138214,3.2531872-0.8147964,5.532629-1.3572235   c1.1412849-0.2717896,2.2335606-0.5296021,3.0404186-0.7195358c0.7029724-0.1657562,1.1875687-0.2793732,1.3017273-0.3061676   c0.2767448-0.0337982,3.059063-0.3807449,6.2236557-0.9228821c1.6665192-0.2854843,3.4371872-0.6248627,5.0063744-1.0029831   c1.5720253-0.3807449,2.9311752-0.7891617,3.8307114-1.2567215c1.5541458-0.8147964,3.7902184-1.3904266,6.1163063-1.7472839   c2.3270721-0.3588943,4.7489624-0.5068817,6.6999855-0.5068817c2.0000343-0.0002899,6.2334175-0.1683807,10.2579231-0.4958115   c2.0118713-0.1637192,3.9687576-0.3670578,5.570137-0.6111755c0.8011017-0.1220551,1.513031-0.2540207,2.1047592-0.3990936   c0.5937653-0.1476974,1.0597534-0.2974319,1.4145737-0.5022202c0.4691544-0.277916,1.4457474-0.6633224,2.6227875-1.0609589   c1.7713623-0.600975,4.0246201-1.2564316,5.9598389-1.8166199c0.9679947-0.2802429,1.8567123-0.5368881,2.5703125-0.7527466   c0.71772-0.2179031,1.2424469-0.3854065,1.5490875-0.5202866c0.5835342-0.2610168,1.6976547-0.8348999,2.6952515-1.801178   c0.9942474-0.9607468,1.8818741-2.3514709,1.8806381-4.1689606c0.0002136-0.8168411-0.1790085-1.7094193-0.5867004-2.6695862   c-0.1659012-0.3900604-0.4006271-0.8678131-0.6813431-1.4038315c0.8525238,0.1957626,2.1880417,0.5007706,3.6191101,0.8206253   c2.4147568,0.5392227,5.069809,1.1160202,6.1395721,1.281189c0.6853104,0.1066208,1.0952606,0.2540283,1.5272751,0.4372635   c0.6450424,0.2749939,1.3567505,0.6542816,2.7879257,0.9537506c1.4312897,0.3018036,3.5922775,0.5424271,7.2872009,0.6277771   c0.4446106,1.5229797,1.0980225,3.4269943,1.9762573,5.0324097c0.843605,1.5410385,1.2963028,2.6835632,1.597702,3.541481   c0.3060226,0.8602371,0.4395905,1.4320831,0.7240524,1.9200287c0.0619736,0.1007996,0.1265717,0.177124,0.2157516,0.2796631   c0.3269653,0.3702545,0.9727249,0.9954147,1.8731689,1.7997208c2.6971893,2.4047775,7.6071014,6.3328247,12.1368866,8.6269073   c0.0003662,0.0002899,0.0007629,0,0.0011292,0.0002899c0.0150299,0.3682175,0.0970459,0.770813,0.2918549,1.1815567   c0.1291199,0.2665558,0.2425537,0.741394,0.3310089,1.288475c0.1367645,0.8249969,0.2341003,1.8177872,0.4244385,2.6908493   c0.0964203,0.4381332,0.2146912,0.8480072,0.3920288,1.2083588c0.1768646,0.3559799,0.4229431,0.6860352,0.8097687,0.8707275   c0.2359314,0.1098251,0.4690857,0.1826553,0.7207489,0.1838226c0.1998749,0.0017471,0.4152679-0.0559311,0.5894012-0.1779938   c0.2649078-0.1849823,0.406189-0.4602737,0.4880524-0.7504196c0.082077-0.2945175,0.1131439-0.6289444,0.1137848-1.0251236   c-0.0003967-0.3985138-0.0341797-0.8619919-0.0987549-1.3948059c0.1159515,0.4631882,0.2554474,0.9852219,0.4158478,1.5191956   c0.2472992,0.8214951,0.5413361,1.6677551,0.8816986,2.375351c0.1708832,0.3539429,0.3527374,0.6740952,0.5577087,0.945015   c0.2063293,0.2691727,0.4332581,0.4996033,0.7393188,0.6403046c0.1802521,0.0804062,0.3643646,0.1322556,0.5616913,0.132843   c0.1814423,0.0017471,0.3764038-0.0524368,0.5317535-0.1602249c0.236496-0.1637192,0.3610077-0.4014282,0.4319305-0.6373901   c0.0710449-0.2397461,0.0963287-0.4990158,0.0969391-0.7891617c-0.0007629-0.3859863-0.0527954-0.836647-0.1413574-1.3359604   c0.2793274,0.5703888,0.5758514,1.1171875,0.8867188,1.5786209c0.2358551,0.3484116,0.4773865,0.6510849,0.7442627,0.8887939   c0.2656097,0.2327576,0.5703888,0.4235687,0.9562988,0.4413376l0.0431519,0.0005798   c0.1652832,0.0005875,0.3379211-0.0352478,0.4905701-0.1185608c0.2329712-0.1249771,0.3831482-0.3428726,0.4568939-0.5499954   c0.0763245-0.2103271,0.098526-0.4238586,0.0993347-0.6467133c-0.0009918-0.3583145-0.0700226-0.753624-0.1654663-1.1684494   l0.0559998,0.1133194l0.0417328,0.0696182c0.0133972,0.0180664,0.1536255,0.2158661,0.3888245,0.4299774   c0.1183472,0.1072006,0.26091,0.2193604,0.4348907,0.3119965c0.173233,0.0917664,0.3837738,0.1677933,0.6295624,0.1683807   c0.2034149,0.0014572,0.4216766-0.059433,0.6094208-0.1800308l0.0022583-0.0014572   c0.1546173-0.098465,0.3303223-0.2406235,0.4589691-0.4532852c0.1298523-0.2123642,0.1950989-0.4765854,0.1937561-0.7614899   c-0.0000305-0.0751572-0.0041199-0.1520615-0.0120544-0.2313004c-0.0641632-0.6219482-0.289566-1.3685837-0.5857849-2.176384   c-0.5908508-1.6013412-1.4756775-3.4135971-2.0060883-4.4564896c0.0025482,0.0008774,0.0044098,0.0008774,0.006958,0.0017471   c0.9011383,0.2592697,2.1862183,0.8608246,3.6270447,0.9231644l0.0119171,0.0002975l0.1110992,0.0011597   c0.2862854,0,0.5414734-0.0419464,0.7667236-0.129921c0.3391266-0.1293411,0.59552-0.380455,0.7294769-0.6513748   c0.1370392-0.2712097,0.1725311-0.5465012,0.173233-0.7885818   C154.9487,109.9923096,154.7804565,109.5745697,154.7711029,109.5431061z M34.8857498,94.5650253   c-1.049015,0.0640869-1.9706879,0.1305084-2.7187767,0.1995468c-0.7501984,0.0696259-1.3180389,0.1392441-1.6980553,0.2219772   c-1.2334137,0.2717972-3.1609497,0.3591919-4.9321976,0.3577347c-1.1829796,0-2.3026009-0.0361252-3.1251545-0.0722504   c-0.4112968-0.0183487-0.7484169-0.0364075-0.9822674-0.0498123c-0.2338505-0.0136871-0.3624649-0.0224304-0.3628292-0.0224304   c-0.8060951-0.1267166-1.6074581-0.1736221-2.4268436-0.1736221c-1.1392841,0-2.3145447,0.0873947-3.60145,0.1733322v-0.0002899   c-0.063798,0.0034943-0.1247549,0.0058212-0.1831264,0.0058212c-0.9383879,0.0069962-2.154541-0.4975586-3.2893095-1.1419373   c-1.1403761-0.6414719-2.1983471-1.3971329-2.9514608-1.8501205c-0.4824848-0.289566-0.7232537-0.5494156-0.8428369-0.7358551   c-0.1188917-0.1878967-0.1275582-0.3041306-0.1289783-0.3618088l0.00142-0.019516   c0.1139393,0.0078659,0.2297721,0.0157318,0.3479719,0.0241776c1.0455904,0.07341,2.2308283,0.1689606,2.6714735,0.237709   c0.2762365,0.042244,0.5346298-0.14711,0.5771618-0.4232788c0.0424948-0.2764511-0.1469669-0.5348434-0.4232035-0.5770874   c-0.5288763-0.0806885-1.6927757-0.1715775-2.7539511-0.2473221c-0.597517-0.0422363-1.1488972-0.0780716-1.5212665-0.1016693   c0.0155854-0.289856,0.0706067-0.5202789,0.1535215-0.7029343c0.171546-0.3705444,0.4529533-0.6035995,0.8914499-0.7874146   c0.6528659-0.2726669,1.6198382-0.346077,2.5939851-0.3909378c0.978734-0.0527267,1.9557934-0.0704956,2.7578478-0.3781204   c0.6703806-0.2636414,1.3254681-0.3746338,1.9623842-0.3749237c1.1819973-0.0005798,2.3073349,0.3897781,3.2691727,0.9397736   c0.883112,0.5007629,2.0723915,0.7451782,3.5450802,0.7469254c1.5285854-0.0002899,3.3674183-0.2688828,5.4900246-0.8471375   c0.8911953-0.2441177,1.5623779-0.3350067,2.0802937-0.3347168c0.8927231,0.007576,1.3297634,0.2415009,1.837265,0.5619431   c0.497633,0.3181076,1.0553493,0.7719727,1.9546642,0.971817l0.0016022,0.0002899   c0.2236557,0.048645,0.4691238,0.0672913,0.7451057,0.0675812c0.7354507-0.0008698,1.692337-0.1369171,2.8101006-0.3615189   c3.3445854-0.6752548,8.0957336-2.1679382,11.4983635-3.4561234c1.3536148-0.5127029,3.0325165-1.0679474,4.7477226-1.6030884   c-0.0889931,0.6088486-0.232502,1.8061371-0.23283,3.2131729c0.000473,1.1955414,0.1029778,2.5422745,0.4427567,3.8155975   c0.2531891,0.9453049,0.6397934,1.8571167,1.2289352,2.6223907c-3.2854843,0.1552658-7.7837753,0.3172379-12.0089226,0.493187   C39.5897064,94.3174057,36.9834137,94.4371414,34.8857498,94.5650253z M49.8957672,94.9140167   c-0.2784958,0.0856476-0.5611038,0.1704178-0.8496132,0.2511063c-1.4939194,0.4194946-3.0954399,0.7454681-4.487545,0.7443008   c-0.7556992,0.0002975-1.4467278-0.0955505-2.0244331-0.3073273c-0.4155922-0.152359-0.7905502-0.2598495-1.1466408-0.3454971   c1.854599-0.0795288,3.7856674-0.1558533,5.6647758-0.2298431C48.0206299,94.9885941,48.9734001,94.9510117,49.8957672,94.9140167z    M71.0934601,100.6377106c-3.5100098,0.249939-6.9643173,0.3778305-8.6721306,0.3778305   c-2.0015297,0-4.4643517,0.1503143-6.8541985,0.5185318c-2.390831,0.3702545-4.7038841,0.9505539-6.4310684,1.8509979   c-0.7411346,0.3900604-2.0667114,0.8019791-3.5989037,1.1693192c-2.3030701,0.5552444-5.0943108,1.0341568-7.3043098,1.3720779   c-1.1052742,0.1692581-2.065876,0.3035507-2.7496567,0.395607c-0.6837807,0.0917587-1.0879021,0.1409912-1.0889931,0.1412811   l-0.054184,0.009613c-0.0004005,0-2.3750668,0.5558243-4.8312969,1.141655   c-1.2281704,0.2930603-2.4765491,0.593399-3.4598713,0.8357697c-0.4917717,0.1211853-0.9170856,0.228096-1.2420807,0.3122864   c-0.1625881,0.0425339-0.299942,0.078949-0.4096947,0.1098251c-0.111536,0.0314636-0.1878586,0.0533142-0.2590122,0.0792389   c-0.1997662,0.0739899-0.4421005,0.1162338-0.6663017,0.1156464c-0.2571201,0.0020447-0.4867458-0.0588455-0.6016674-0.1325455   c-0.0588455-0.0361176-0.0891418-0.0693283-0.1063652-0.0975876c-0.0165329-0.0288391-0.0276031-0.0556412-0.0286217-0.117981   c-0.0032768-0.1112823,0.0635414-0.3638458,0.3327866-0.7271118c0.2658958-0.3623962,0.7195034-0.8267441,1.4111137-1.3758698   c0.0103416-0.0081558,0.014967-0.0203934,0.0244713-0.029129c0.1487503,0.0655441,0.3044205,0.1074905,0.4653339,0.1407013   c0.3001595,0.0573883,0.6278496,0.0766144,0.9696293,0.0769119c1.3438587-0.0017548,2.9285202-0.3096695,2.9444332-0.3114166   c0.2744522-0.0527267,0.4543381-0.3178177,0.4017563-0.5922394c-0.052618-0.274704-0.317749-0.4544449-0.5922012-0.4017181   l-0.0000362-0.0002899L28.6271,105.5110626c-0.3041649,0.056221-1.6420135,0.2828598-2.6886616,0.2814026   c-0.3995323,0.0017471-0.7582474-0.0372849-0.952589-0.1019592c-0.0429688-0.0133972-0.0720997-0.027092-0.0955505-0.039032   c0.0128918-0.0297165,0.0330276-0.0687485,0.06744-0.1197281c0.6328011-0.954628,1.1854191-2.2101822,1.8997517-3.2597809   c0.3550739-0.5243607,0.7458305-0.9927902,1.1852379-1.3467331c0.4407558-0.3542328,0.9230938-0.5971909,1.4993095-0.6941986   c0.0997009-0.0168915,0.1923389-0.0626297,0.2656403-0.1322556l0.0296764-0.0279617   c0.1583271-0.1465302,0.9379501-0.8485947,1.9673367-1.5020065c1.026947-0.6577835,2.3098831-1.2462311,3.3964767-1.2392349   c1.1159401,0.0029068,1.9056892-0.3638535,2.5765419-0.6793442c0.6809044-0.3178177,1.2409897-0.5811615,2.107132-0.583786   c0.5807991,0,1.3135948,0.1243896,2.3012886,0.4864883c0.7284241,0.2656784,1.5333557,0.3685074,2.3724785,0.3688049   c1.5454788-0.0011673,3.2171745-0.3501587,4.7606506-0.7815933c1.5418396-0.4320145,2.9554672-0.9505463,3.9483681-1.300415   c0.0464249-0.0163116,0.0834579-0.0454407,0.1215134-0.0725327c0.3777924-0.0168991,0.7478676-0.0337982,1.0992622-0.0506897   c2.1024323-0.1007919,3.6806145-0.1960526,4.4174156-0.299469c0.1128807-0.0119476,2.7519493-0.2991791,5.8872643-0.9126816   c1.5999527-0.3131561,3.3272476-0.7108002,4.9163895-1.2031174c1.1247177-0.3495712,2.1758804-0.7445908,3.0744324-1.1990356   c0.0710449,0.7198334,0.2230759,1.9780045,0.5210876,3.3955307c0.2311554,1.0979538,0.5491562,2.2897034,0.9904556,3.4019318   c0.3400345,0.8544235,0.7529678,1.6607742,1.2661514,2.3444824   C74.1518326,100.3979568,72.6152039,100.5299225,71.0934601,100.6377106z M83.3771286,86.6066818   c-2.3864288,0-6.0033493,0.8203354-9.3592606,3.5050583c1.0440598-1.3423615,1.1878204-1.592308,2.0508347-2.1254044   c0.8442917-0.5214539,1.4573212-0.8710251,2.1909561-1.1719513c0.7760544-0.3181152,1.1478348-1.197876,0.8519745-1.982666   c-0.8540878-2.2652435-3.5683517-6.3462219-12.1348038-7.6026535c-3.0087051-0.4413376-6.1458778-0.35569-8.0108566,1.7210693   c0,0,1.7898216-3.1321793,7.3581696-2.2372742c0,0-2.9830322-0.8450928-5.2203064-3.8779373   c0,0,3.5796356,2.9582672,6.4135208,3.9277496c0,0,11.3852234,1.5660934,12.5784378,9.4711304   c0,0,1.7898178-0.2983017,3.5796356-0.1491547c1.7898178,0.1491547,3.0576096-0.8949051,3.0576096-0.8949051   S85.7635498,86.6066818,83.3771286,86.6066818z M104.6470718,68.4786453   c-0.0331421,2.9262238-0.9931946,7.2985229-1.9500809,10.9043808c-0.4779663,1.8049622-0.9540482,3.4237823-1.3103561,4.5901947   c-0.1781769,0.5832062-0.3263779,1.0533829-0.4299393,1.377327c-0.0178452,0.0559311-0.0324783,0.1013718-0.0475922,0.1479797   c-0.9341278-0.2100296-1.7999039-0.4069595-2.4701767-0.5604782c-0.6675797-0.1526489-1.1377563-0.2613068-1.3042068-0.2997589   c-0.5623779-1.004158-1.2421875-2.1565857-2.0010529-3.4074783c-2.8727341-4.7314835-6.8378906-10.7837753-9.4483643-14.7182312   c0.1122589-0.9438477,0.1629868-1.8247757,0.1629868-2.6200562c-0.0001831-2.1155052-0.3171997-3.6690712-0.533287-4.4841614   c1.5610733,0.7038116,2.9815445,1.2223473,3.4122467,1.3749924l0.0047684,0.0017471   c0.1625137,0.0547676,0.3191299,0.0690422,0.4775314,0.0696259c0.287529-0.0008736,0.588089-0.0518532,0.9260101-0.1197319   c1.0047302-0.2056656,2.3445816-0.5829124,3.7599258-0.581749c0.4051056,0,0.8155594,0.03088,1.2251816,0.10429   c1.4191971,0.2531509,3.8423615,0.5508728,5.9233856,0.7877083c0.3152008,0.0358315,0.6207123,0.0699158,0.9150085,0.1025391   c0.032959,0.034668,0.0657272,0.0696259,0.109169,0.0943871l-0.0002518,0.0005836   c0.0268326,0.0163116,0.6652451,0.4031754,1.3016129,1.4609261c0.635498,1.0586281,1.2777328,2.7957153,1.2787857,5.5532761   C104.6483765,68.3300781,104.6479797,68.404068,104.6470718,68.4786453z M114.6759796,66.3812027   c0.0236359-0.0745773,0.0511627-0.1171112,0.0824051-0.1485672c0.0877991-0.090889,0.2656784-0.1829453,0.5052109-0.2385864   c0.2374573-0.0570984,0.5245819-0.0798187,0.7963715-0.0795288c0.2720108,0,0.5292053,0.021553,0.7152405,0.0434036   c0.0930405,0.0107803,0.1684189,0.0215607,0.2193985,0.0294266l0.043335,0.0069885   c0.7169495,1.0181351,1.4013519,1.9823761,2.1220169,2.7202682c1.3127594,1.3359528,3.0179901,2.0549164,4.3901062,2.4560471   c1.373642,0.3993912,2.4235687,0.4765854,2.4474564,0.4786301c0.2786407,0.0203857,0.52108-0.189064,0.5415115-0.4678497   c0.0203934-0.2784958-0.1889496-0.5208664-0.4675903-0.5412598l-0.0000381-0.0002899l-0.0371094-0.0032043   c-0.0977325-0.0090256-0.3849258-0.0396194-0.7885742-0.110405c-0.0028763-0.0690384-0.0181732-0.1383743-0.0510559-0.2042084   c-0.2108765-0.4197845-0.4120636-1.0592117-0.5507278-1.7207794c-0.1401138-0.6618576-0.2215729-1.3531418-0.2210312-1.8827438   c-0.0030899-0.3597717,0.0456619-0.6522522,0.0908585-0.7504196l0.0597153-0.0844803   c0.0494537-0.0477753,0.1724548-0.1150742,0.3790665-0.1747894c0.307663-0.0923462,0.7730713-0.1672134,1.3243408-0.2983017   c0.5522156-0.1319656,1.1947403-0.3259811,1.8777924-0.6764297c0.3457947-0.1791534,0.8306122-0.3111191,1.370697-0.3897705   c0.5402374-0.0795288,1.1351776-0.1095352,1.709198-0.1095352c0.7463379,0,1.4577637,0.0503998,1.9797516,0.1010818   c0.2610626,0.0253448,0.474884,0.0506897,0.6225433,0.0693359c0.0738373,0.009613,0.1311188,0.017189,0.1695404,0.0227203   l0.0561523,0.0081558l0.0758057,0.0055389c0.0006256,0,0.2236938,0,0.6338959,0c0.4101715,0,1.0067444,0,1.752533,0   c0.259079-0.0040817,0.7878876,0.1138992,1.3724823,0.3087845c0.6422729,0.2106247,1.3698883,0.5033875,2.0353241,0.790329   c-0.211319,0.2365494-0.3788605,0.569809-0.4729156,1.026001l-0.0474091,0.090889   c-0.0414429,0.0471954-0.1875305,0.1223526-0.4124298,0.1640091c-0.3357697,0.0684586-0.7928772,0.0716629-1.2006378,0.1086578   c-0.2071991,0.0218506-0.4026337,0.0445709-0.6150665,0.1340027c-0.1051941,0.0466156-0.2225952,0.1153641-0.3238983,0.2385864   c-0.1024017,0.1208954-0.1647339,0.3009262-0.1616058,0.4591064c0.0000305,0.0868149,0.0145264,0.1686707,0.0363007,0.243248   c0.3006287,1.0344467,1.2187347,1.9162445,2.5702362,2.1929932c0.3572693,0.0737,0.6449738,0.2298431,0.8273621,0.4060898   c0.1841583,0.1791534,0.2590485,0.3594818,0.2592773,0.5261078c-0.0010223,0.120018-0.0356598,0.2514038-0.1514435,0.4145355   c-0.0615845,0.0853577-0.1724548,0.169838-0.365387,0.2353821c-0.1905212,0.0652542-0.4524689,0.1031265-0.7538757,0.1025391   c-0.5434723,0.0008774-1.2100677-0.1197281-1.8423615-0.3221893c-0.6326599-0.201004-1.2349396-0.4850311-1.6570892-0.7812958   c-0.209671-0.1465302-0.3419952-0.2834473-0.4119873-0.3851166c-0.067337-0.0970078-0.0750122-0.1517715-0.0752716-0.1651764   l0.0576477-0.0332031c0.048645-0.0192261,0.1299286-0.0370026,0.2389832-0.036705   c0.2794342,0,0.506012-0.2266464,0.506012-0.506012c0-0.2796555-0.2265778-0.5060043-0.506012-0.5060043   c-0.3244171,0.0005798-0.6286163,0.07341-0.8820496,0.2534409c-0.2541046,0.1747818-0.4340973,0.4940643-0.4282684,0.8229523   c0.0006561,0.2685928,0.0999908,0.5214462,0.25737,0.748085c0.1587982,0.2278061,0.3787842,0.4375534,0.6631775,0.6371002   c0.5370331,0.3743362,1.214798,0.6877899,1.9298553,0.9164658c0.2050171,0.0652542,0.4127655,0.1208954,0.6209717,0.1707077   c-0.4252777,0.2767487-0.9945679,0.6033096-1.5809174,0.8040237c-0.6491394,0.226059-2.0493011,0.6965256-3.3311005,1.563179   c-0.6415863,0.434639-1.2586975,0.9715271-1.7338562,1.6435776c-0.4749451,0.6700211-0.802597,1.4827805-0.8434601,2.4196396   c-0.0058899,0.1313782-0.0089111,0.2604294-0.0089111,0.3877335c-0.001358,0.4122086,0.0341492,0.7996521,0.0986786,1.1672897   c-0.6759491-0.9878387-1.6635742-1.8687668-3.0490875-2.5131531c-0.2425156-0.1133194-0.482193-0.2176056-0.7201233-0.3163605   c-1.1226425-1.8358459-2.817276-2.8804932-4.2207794-3.4674835c-1.0317917-0.4305573-1.9078369-0.6187439-2.328125-0.6924515   c-0.2632751-0.4867783-0.6365509-1.0003586-1.0726471-1.5305481c-1.3680038-1.6552353-3.2924805-3.4048538-3.6891022-3.762001   c-0.0529099-0.1144867-0.1516266-0.3390808-0.245285-0.6105881c-0.1236954-0.3530655-0.2314072-0.7882919-0.2291489-1.109314   C114.63797,66.5574417,114.6527863,66.4546127,114.6759796,66.3812027z M144.8503418,119.8170853   c-0.024765-0.0049515-0.0595703-0.0142746-0.1141205-0.0387421c-0.0660553-0.0268021-0.2026825-0.1343002-0.3471069-0.3280182   c-0.2570801-0.3364639-0.5362701-0.9024811-0.7838745-1.5454102c-0.374588-0.9662781-0.6935883-2.1099701-0.9156036-3.0060425   c-0.1112061-0.4483337-0.1985931-0.8354874-0.2579803-1.1096115c-0.0079803-0.036705-0.0140991-0.065834-0.0210571-0.0984573   c0.3466644-0.0067062,0.711792-0.0218506,1.0812073-0.0431137c0.4555817,1.2083588,0.8161774,2.3255386,1.0609131,3.2792892   c0.2515259,0.9756088,0.3800659,1.7872009,0.3787079,2.3208847   C144.9339752,119.5441284,144.8862762,119.7495041,144.8503418,119.8170853z M148.4278564,119.8089294h-0.0036774   c-0.0239868,0.0034943-0.1481628-0.0329208-0.319046-0.1870193c-0.3004608-0.2618942-0.6840057-0.8115997-1.0427856-1.4708328   c-0.5438538-0.9904633-1.0614319-2.2299957-1.4379578-3.21492c-0.1885529-0.4926071-0.3424683-0.9225845-0.4490204-1.2284622   c-0.0296478-0.08535-0.054657-0.1581802-0.0767212-0.2228546c0.3785553-0.0579681,0.7440033-0.1267166,1.0699158-0.2231445   c0.0258179-0.0078659,0.0495148-0.0168915,0.0749359-0.0250473c0.3136749,0.628067,1.059021,2.1755142,1.6118317,3.7416077   c0.1694641,0.4792023,0.3251648,0.968605,0.4364929,1.4119873c0.1119385,0.4419174,0.1766052,0.8427582,0.1754761,1.1157227   C148.4695282,119.6626892,148.4437408,119.7678528,148.4278564,119.8089294z M153.8342438,110.9204254   c-0.0325928,0.0372925-0.0722809,0.0707932-0.154541,0.1037064c-0.0817413,0.032341-0.2090912,0.0603027-0.3969421,0.0603027   l-0.0840454-0.0011673c-0.7844391-0.0302963-1.5800476-0.2749939-2.3170624-0.5281448   c-0.3692322-0.1264267-0.723587-0.2540207-1.063324-0.3542328c-0.3404388-0.0990524-0.6653137-0.1747894-0.9974823-0.1759567   c-0.0713806,0-0.1477051,0.0072861-0.2251129,0.0174789c-0.0074005,0.0005875-0.0143433,0.0008774-0.0217438,0.0017471   c-0.0068359,0.0008774-0.0129242,0.0002899-0.0198364,0.0014572l-0.0000763-0.0005798   c-0.5809174,0.0894318-1.1884155,0.1500244-1.700531,0.1497345c-0.3156738,0.0002899-0.5957031-0.0238876-0.7983398-0.069046   c-0.2730408-0.0602951-0.5431976,0.1121597-0.6033478,0.3851166c-0.0601959,0.2732544,0.1123352,0.5432968,0.385376,0.6035995   c0.3098755,0.0675812,0.6514435,0.0923462,1.0163116,0.0926361c0.4753113-0.0002899,0.9872589-0.0501022,1.4924164-0.1165237   c0.2859344,0.5473709,0.9132996,1.7743759,1.5025482,3.1004333c0.3091278,0.6953583,0.6065979,1.4160614,0.8355255,2.0697632   c0.2294006,0.6522522,0.3877716,1.2447739,0.4262238,1.6432953l0.0069885,0.1305008   c-0.0013428,0.1471176-0.0268402,0.2010117-0.0473022,0.2368393c-0.0214386,0.0352478-0.0557861,0.0710831-0.1376343,0.1246796   l-0.0670471,0.0224304c-0.0259247,0.0005875-0.0813751-0.0107727-0.1543121-0.0498123   c-0.109024-0.0565109-0.2407379-0.1701279-0.3330841-0.2691727l-0.1094971-0.1252594l-0.011795-0.015152l-2.8870087-5.8480835   c-0.071228-0.1441956-0.2052307-0.2449875-0.3633728-0.2738342c-0.1581116-0.0288391-0.3191376,0.0183563-0.4364929,0.1284714   c-0.0930786,0.0926361-0.3437958,0.225769-0.6894684,0.3256836c-0.5187225,0.1549835-1.2376709,0.2581024-1.9803009,0.316658   c-0.7436829,0.0594254-1.5146332,0.0772018-2.1611633,0.0772018c-0.4599457,0-0.8572693-0.0087433-1.1387024-0.0177765   c-0.2814484-0.0087357-0.4435577-0.0174789-0.4440002-0.0174789c-0.2793274-0.0148544-0.5177307,0.1995544-0.532486,0.47892   c-0.0147705,0.2790756,0.1996307,0.517662,0.4789581,0.5325165l-0.0000305-0.0002899   c0.0026855,0,0.1372681,0.0069885,0.3588104,0.0145645c0.2345428,1.2841034,0.3527832,2.2722321,0.3519897,2.9410858   c0.0028381,0.4506607-0.0599823,0.7559509-0.1203918,0.8739319l-0.0342255,0.0579758l-0.0073242,0.0078583l-0.0168915,0.0014572   c-0.037796,0.0011673-0.141098-0.0168915-0.2899628-0.0876846c-0.0602264-0.0282516-0.1321869-0.08535-0.2128754-0.1983795   c-0.1417999-0.1948853-0.2811127-0.5517426-0.386322-0.9887161c-0.1616058-0.6569061-0.2618561-1.4868546-0.3742218-2.2754288   c-0.1168518-0.7929535-0.2312622-1.5349274-0.4996033-2.1128845c-0.1494751-0.3172379-0.2004242-0.6073914-0.2008972-0.8733521   c-0.0004272-0.3539505,0.0956573-0.6673965,0.1938019-0.8896713c0.0487976-0.1109848,0.0974731-0.1983795,0.1320343-0.255188   l0.0392609-0.0614624l0.0082245-0.0116577l0.0006561-0.0008698l-0.0005798-0.0005875   c0.16539-0.2234344,0.1200867-0.5386353-0.1026611-0.7055511c-0.2236176-0.1678009-0.5408173-0.1223526-0.7084351,0.1013718   l-0.0000305-0.0002899c-0.0193787,0.0300064-0.260498,0.3545303-0.4243011,0.8791809   c-3.0289001-1.5771637-6.2676392-3.9064941-8.8189087-5.9573288c-1.3197479-1.0603714-2.4569244-2.0447159-3.2878189-2.8064957   c-0.4152222-0.3807449-0.7542038-0.7061386-0.9983978-0.9543381c-0.1219101-0.1238022-0.2202682-0.2286758-0.2902527-0.3082047   l-0.0817108-0.0970078l-0.0211945-0.0282593l-0.0045929-0.0064087h0.0001526   c-0.1629944-0.2578049-0.3277283-0.8418884-0.6369553-1.7341766c-0.3138504-0.8946152-0.7933502-2.1012268-1.6649933-3.6923752   c-0.8280869-1.5104523-1.4746933-3.3862076-1.9061279-4.8759766c-0.2161865-0.7448807-0.3796463-1.3942184-0.4887466-1.8559418   c-0.0545502-0.2310104-0.0955124-0.4148331-0.1227112-0.5403824c-0.0272064-0.1258469-0.0400925-0.1905212-0.0401688-0.1905212   c-0.0548706-0.2744141-0.3215714-0.4521179-0.5956955-0.3970566c-0.2741241,0.0547638-0.4518204,0.321312-0.3970184,0.5957336   c0.0017471,0.0081558,0.1382599,0.6869125,0.4037552,1.6974716c-1.1048355-0.0285492-2.0684204-0.071373-2.9028473-0.1258469   c-0.0543671-0.0372849-0.1168518-0.0646744-0.1854935-0.0786514l0.000145-0.0005875   c-0.0104141-0.0002899-0.7538757-0.1628418-1.4483261-0.6446686c-0.3482971-0.2403336-0.6830139-0.5555344-0.9292145-0.9630814   c-0.2457199-0.4087067-0.4111481-0.9097672-0.4123154-1.5687103c0-0.4911499,0.0946426-1.0711517,0.3332291-1.7534027   c0.5691833-1.6310577,1.5556412-3.1423798,2.9087448-4.2377167c1.3549652-1.0950394,3.0695496-1.7848663,5.1598969-1.7866135   c1.5647049,0,3.3450165,0.390358,5.3341675,1.3193512c1.5150757,0.7096329,2.4315033,1.6730042,2.9958191,2.7467804   c0.5621948,1.0737762,0.7628632,2.2742691,0.7626495,3.4275742c0.000473,1.2543869-0.2380676,2.4458466-0.4782562,3.3171616   c-0.0334015,0.1214752-0.0666046,0.2348022-0.0993347,0.3431702c-0.0216064-0.0588455-0.0440369-0.1200256-0.0631866-0.1724625   c-0.1196136-0.3277206-0.1897583-0.522316-0.1899414-0.5229034c-0.0947723-0.2630539-0.3848114-0.3996811-0.6478271-0.3047104   c-0.2630615,0.0946732-0.3994751,0.3848267-0.3046875,0.6478806l-0.0000305-0.0002975   c0.0006561,0.0017471,0.5047302,1.4020844,1.103241,2.9731293c0.2993164,0.7856674,0.6221619,1.6138687,0.9185028,2.3337021   c0.2978973,0.7221603,0.5628052,1.3260498,0.771347,1.7030029c0.246521,0.4410477,0.6163177,0.7559586,1.0297852,1.0481415   c0.6242523,0.4372559,1.3803558,0.8430557,2.2168579,1.4772415c0.8354797,0.6333084,1.7520142,1.4883118,2.671463,2.8123245   c2.7099609,3.9050293,5.2285004,5.7624359,5.261673,5.7869034c0.1119385,0.0821533,0.2538147,0.1150665,0.3905792,0.0903091   l0.0217438-0.0037918c0.1168823-0.019516,0.6854095-0.1063232,1.4196014-0.1060333   c0.5242462-0.0002899,1.1326447,0.044281,1.7167664,0.1820679c0.5850983,0.137207,1.141098,0.3673477,1.580658,0.7198334   c1.0059357,0.8025589,2.2796936,1.3749924,3.4656677,1.7971039c1.0224609,0.3626785,1.980545,0.6094208,2.6348267,0.7670212   c0.025177,0.1130295,0.0480347,0.2484894,0.0466919,0.3781204   C153.940506,110.7130127,153.8963623,110.8516769,153.8342438,110.9204254z"/></g></svg>