<svg xmlns="http://www.w3.org/2000/svg" xmlns:xlink="http://www.w3.org/1999/xlink" version="1.1" x="0px" y="0px" viewBox="39.351 1.578 75.287 161.61" style="enable-background:new 0 0 161.5 162.6999969;" xml:space="preserve"><style type="text/css">
	.st0{fill:none;}
</style><g><path class="st0" d="M87.2852249,37.5830727c0.0001602-0.003334,0.0021362-0.0060425,0.0024033-0.0093765   c-0.0047989-0.2354698-0.0054245-0.4776077,0.0159378-0.7491302c0.1183624-1.5136795,0.0358429-3.5591469-0.030838-5.2028561   c-0.0608521-1.4970093-0.0916901-2.3622055-0.0166702-2.7372913c0.1265869-0.6334782,0.3282471-3.2115688,0.3963928-4.1151085   c-0.0252686-0.0545959-0.042099-0.1133595-0.0388107-0.1775417c0.0108337-0.2258835,0.0058289-0.4000912-0.0083389-0.5342884   l-0.7126617,4.2309685c-0.0316772,0.187542-0.1942139,0.3200722-0.3775864,0.3200722   c-0.0216751,0-0.0433426-0.001667-0.0650177-0.0058346c-0.0783997-0.0131283-0.1423187-0.0543861-0.1959305-0.1058578   l-0.2033234,0.8701992c-0.0250092,0.2342205-0.7826843,6.7607155-1.1436005,7.9868279   c-0.4150925,1.4119911-6.2272568,6.7898865-8.3444061,8.11269c-2.2338409,1.3961525-6.3989639,4.6385612-6.4406357,4.6710663   c-0.0700226,0.0550117-0.1533737,0.0816879-0.2358932,0.0816879c-0.1141891,0-0.2275467-0.0508461-0.3025665-0.1483688   c-0.130867-0.1667061-0.100853-0.4084282,0.0666809-0.538456c0.1717072-0.1341972,4.238472-3.3007545,6.5056534-4.7177467   c0.0793457-0.0495949,0.1705627-0.1137772,0.2568817-0.1717072c-0.0784531-0.0600128-0.1360703-0.1469078-0.1501846-0.2525558   c-0.1258163-0.9562607,0.0258865-1.766655,0.2341156-2.3913803c-0.0451736-0.0629311-0.0774155-0.1360741-0.0774155-0.2192154   v-3.040699c0-0.2117119,0.1725388-0.3842545,0.3842468-0.3842545c0.2117233,0,0.3842621,0.1725426,0.3842621,0.3842545v1.902729   c0.2072372-0.2152596,1.1121292-1.1950645,1.6528778-2.7737617c0.5541916-1.6164093-0.1892624-6.3391571-0.3158569-7.1091251   c-0.0601654,0.0108376-0.1184616,0.0216732-0.1792603,0.0325089c-2.3797073,0.4267635-5.3420486,0.9585514-6.5023193,2.7181225   c-1.4294891,2.1663284-2.1238174,4.5927162-2.1238174,7.4166946c0,2.4814034-0.6159744,4.543541-1.6370392,7.9601555   l-0.1033554,0.34758c-1.0760803,3.6033211-0.6818237,8.4861069,0.7810059,9.6738777   c0.0208435,0.0183372,0.8960419,0.6326447,3.6816788-1.5511894c0.3634186-0.2850647,0.7251663-0.5942993,1.0860825-0.9243774   c0.0825195-0.0875206,10.0939713-10.5932541,13.3038788-16.5937958   C86.8301239,39.8385887,87.218544,38.964222,87.2852249,37.5830727z"/><path class="st0" d="M79.150856,90.6693802c1.2586288,0,5.6821442-0.8393555,6.2214355-0.9427109   c0.1670685-0.0837708,0.377739-0.1637878,0.6073227-0.2290115c-1.5211792-1.3930283-2.9874496-2.4901505-3.3704529-2.4365997   c-0.8435287,0.0991898-4.0300903,0.3300781-4.5810471,0.3692551c-0.6221237,0.3111115-4.8594513,2.3980484-7.1200714,2.7710495   c1.0499268,0.0610504,2.1782074,0.1308594,3.2533493,0.1971283C76.4127426,90.5376892,78.5390625,90.6693802,79.150856,90.6693802z   "/><path class="st0" d="M92.8323288,26.861454v-3.3691025c-0.733757,0.8460255-1.7135696,1.5799446-3.011467,1.8685513   c0.0190659,0.8116436,0.0392227,1.8520908,0.0632935,3.2184448l0.9968948,6.9565907   c0.1538391,0.2152596,0.6906281,0.9304237,1.6687164,1.9498215c0.3609161,0.0339661,0.675209-0.0848122,0.9593887-0.3502884   c1.4486618-1.3536415,1.6328735-6.0447159,1.581192-7.7376022c-0.0013046-0.0470943,0.0087509-0.0914803,0.0231323-0.1337814   c-1.3170242-0.9343796-2.160965-2.1106911-2.2102966-2.1809158C92.857338,27.018158,92.8323288,26.9406395,92.8323288,26.861454z"/><path class="st0" d="M86.5207291,23.9812126l0.3110657-1.3332214c0.0366745-0.155035,0.1650314-0.272562,0.3234024-0.2933998   c0.2832413-0.0337582,0.821701,0.0979385,1.1457291,0.775177c0.041214-0.1644135,0.1207047-0.3211155,0.2679291-0.4142609   c0.3592453-0.2283859,0.7159958-0.4584389,1.0010605-0.2200508c0.1223221,0.1016903,0.1756668,0.1475334,0.2307281,2.0719318   c3.1920853-0.8318577,4.2037811-4.9990597,4.213623-5.0417786c0.0333405-0.1433659,0.1458664-0.2550583,0.2892303-0.2875652   c0.1433716-0.0350075,0.292572,0.0183372,0.3850937,0.1341972c0.0783463,0.0175037,0.3759155-0.197546,0.9885559-1.8462563   c0.3875885-1.044405,0.1600342-1.5311832,0.0808563-1.6562119c-0.0466843-0.0725164-0.1025238-0.1258621-0.1600418-0.1525345   c-0.1050262,0.1475334-0.2375565,0.543457-0.3459091,1.0093975c-0.0608521,0.4359322-0.1367035,0.7368355-0.1450348,0.7676754   c-0.0500107,0.1967125-0.2433929,0.3234081-0.4467697,0.2817307c-0.2000427-0.0400085-0.3342438-0.2292194-0.305069-0.4309311   c0.0433426-0.3059044,0.0933533-0.582634,0.1492004-0.8301907c0.0783539-0.6118059,0.116684-1.4595003-0.1283646-2.1054811   c-0.223381-0.5893011-0.2058792-0.8968716-0.1867065-1.2227802c0.0250015-0.4175949,0.0558472-0.9368801-0.5109482-2.562252   c-0.8735352-2.5072403-4.458519-1.671216-4.4952011-1.6628809c-0.0291672,0.0066681-0.0600128,0.0108356-0.0900192,0.0108356   h-0.6509781c-0.0300064,0-0.0608521-0.0041676-0.0900192-0.0108356c-0.145874-0.0350075-3.625-0.8351908-4.4960327,1.6628809   c-0.5667953,1.6253719-0.5359573,2.1446571-0.5109482,2.562252c0.0191727,0.3259087,0.0366745,0.6334791-0.1867142,1.2227802   c-0.2450562,0.6451473-0.208374,1.4886742-0.1300278,2.0979795c0.0566788,0.2500572,0.1066895,0.5292873,0.1508713,0.8376923   c0.0291748,0.2017117-0.1050262,0.3909225-0.305069,0.4309311c-0.2033844,0.0416775-0.3959274-0.0850182-0.4467697-0.2817307   c-0.0083389-0.0308399-0.085022-0.3359108-0.1467056-0.776844c-0.1066895-0.465107-0.2375488-0.8526955-0.3442383-1.0002289   c-0.0566864,0.0275059-0.1125259,0.080018-0.1592102,0.153368c-0.0791779,0.1241951-0.3075638,0.6118069,0.0800247,1.6553783   c0.613472,1.6520443,0.910202,1.8704281,0.9868927,1.897934c0.0916824-0.1150265,0.2450562-0.1900425,0.381752-0.1617031   c0.1425323,0.0308399,0.2567215,0.114193,0.2925644,0.2550583C83.5270233,19.5497818,84.3201218,22.5458851,86.5207291,23.9812126z   "/><path class="st0" d="M86.1157913,112.426857c0.1442032-0.0391693,0.3425827-0.150032,0.4692764-0.4509354   c0.4159317-0.9868927,0.6609879-2.3013611,0.1025238-3.0315247c-0.0791855-0.1033554-0.1000214-0.2400513-0.0566788-0.3625793   c0.0074997-0.0200043,0.7001572-1.9937897,0.2575607-3.6666718c-0.5209579-1.9679565-0.0491791-6.301445,0.5017776-7.512558   c0.5342865-1.1752701,1.2819595-5.685463,0.5159531-6.7673798c-0.7026596-0.99189-2.2130051-0.2108841-2.2271805-0.2025452   c-0.0341721,0.0183411-0.070015,0.030838-0.1066895,0.0375061c-0.2042084,0.0400085-5.0136414,0.96772-6.4214783,0.96772   c-0.6351318,0-2.6747665-0.1266937-5.036972-0.2725601c-2.7839737-0.1725388-5.938858-0.3675842-7.0724564-0.3675842   c-0.0447464,0-0.086319-0.0114594-0.1263275-0.0256271c-0.1845703,0.0360489-0.3726349,0.073143-0.5647125,0.1114807   c0.2953796,0.9091644,0.6930237,3.0765381-0.4195786,6.5154495c0.2024994-0.0160446,0.4064484-0.0322952,0.6055069-0.0481339   c3.613327-0.2883987,6.4656448-0.5226212,7.2900009-0.4934464c0.0008316,0,0.0016632,0,0.0025024,0   c0.1967087,0,4.2217941,0.0166702,6.1947479,1.0577393c1.9587784,1.0344009,2.2196732,1.3136368,2.7981415,2.9890213   c0.2567215,0.7460022,0.5776291,2.0838089,0.8877029,3.3766022c0.2842331,1.1844406,0.6376419,2.6581116,0.7768402,2.8848267   c0.219223,0.3300781,0.2725677,0.8526917,0.3284149,1.4069901c0.0325012,0.3242416,0.076683,0.7676773,0.1567001,0.8952026   c0.2192154,0.3517456,0.8860321,2.2230072,0.8660278,2.9673462C85.89991,112.4510345,85.9990997,112.4585342,86.1157913,112.426857   z"/><path class="st0" d="M84.0820465,37.3240547c0.0367813-0.0681381,0.0734024-0.1362801,0.0883026-0.1869164   c0.3425751-1.1636009,1.1169205-7.8342915,1.1244202-7.9018078l1.0457611-4.4818573   c-0.65728-0.3846722-1.2134018-0.8720741-1.6667328-1.4069881v3.639164c0,0.0791855-0.0250092,0.1567039-0.0708466,0.2217178   c-0.0493393,0.0702248-0.89328,1.2465363-2.2103043,2.1809158c0.0143814,0.0423012,0.024437,0.0866871,0.0231323,0.1337814   C82.3608704,31.3412304,82.5689392,36.1006508,84.0820465,37.3240547z"/><path class="st0" d="M98.9845734,57.0725327c0-0.9410477,0.5549164-4.4064255,0.6752014-5.1472206   c-1.026329-0.9268761-2.0791702-1.9239807-3.1323776-2.9921417c-0.0564728,0.0058365-0.1144562,0.0029182-0.1717606-0.0175056   c-3.3682709-1.2377815-7.5942383-1.0427361-7.6367493-1.0444031c-0.0550079,0.001667-4.2618027,0.0841866-7.370018,1.085247   c-0.0391769,0.0125046-0.0783539,0.0183372-0.1175232,0.0183372c-0.0125046,0-0.0221405-0.0100021-0.0344391-0.0110435   c-1.0877991,1.3088417-2.1708603,2.5607948-3.1540527,3.671257c0.0091171,0.3240318,0.071106,2.1867485,0.2603226,3.4189072   c0.2217102,1.4403305-0.5643005,3.0940399-1.0852509,4.1884575l-0.0675125,0.1417007   c-0.3875961,0.8185196-1.5678635,3.3099213-1.8904343,4.925293c-0.0014114,0.0052109-0.0105286,0.0370865-0.0228729,0.0802231   c1.1483383,0.6384811,12.1942978,6.4846115,25.1264267,3.0025635c-0.1027298-1.4347-0.4810486-4.2195053-0.8171692-6.6961136   C99.1979523,59.1355057,98.9845734,57.5418053,98.9845734,57.0725327z"/><path class="st0" d="M108.8184891,44.5021553c-0.5759659-1.2094421-1.0319061-2.163826-1.0319061-3.7000122   c0-2.8239784-0.6943207-5.2503662-2.1238174-7.4166946c-1.1602631-1.7595711-4.122612-2.2913589-6.5023193-2.7181225   c-0.0607986-0.0108356-0.1190948-0.0216713-0.1792603-0.0325089c-0.1265945,0.769968-0.8700409,5.4927158-0.3158569,7.1091251   c0.5887833,1.7174797,1.5964127,2.7158318,1.6528778,2.7706375V38.614975c0-0.2117119,0.1725388-0.3842545,0.3842468-0.3842545   c0.2117233,0,0.3842621,0.1725426,0.3842621,0.3842545v3.040699c0,0.0841827-0.032814,0.1579514-0.0789185,0.2212982   c0.2016602,0.6015968,0.3409576,1.3719826,0.2423935,2.2740631c2.1844101,1.2834167,3.2851257,1.6747589,4.1175079,1.9639893   c0.87603,0.3042374,1.5095139,0.5242882,2.7831345,1.594532c0.1625366,0.1366997,0.1833801,0.3792534,0.0475082,0.5409584   c-0.0758438,0.0908546-0.1850357,0.1375313-0.2942276,0.1375313c-0.0875244,0-0.1750412-0.0300064-0.246727-0.090023   c-1.1660995-0.9793892-1.6837158-1.1594315-2.5414124-1.4569969c-1.0652466-0.3700867-2.5247421-0.8768692-6.0072098-3.1015434   c-6.3431168-4.0509262-8.812851-7.6925926-8.9145355-7.8451271c-0.0325089-0.0483475-0.0525131-0.1025238-0.0608521-0.1592026   l-1.012886-7.0901661c-0.0526123,0.0504284-0.1150742,0.0914803-0.1923904,0.1052322   c-0.1958771,0.0341759-0.4084244-0.0991879-0.4459305-0.3092365c-0.0891876-0.4909458-0.015007-3.0998764,0.0258408-4.3326569   c-0.0566864,0.1308632-0.0675201,0.2908993-0.0650177,0.3525791c-0.011673,0.1967125-0.2708969,3.7591934-0.4334335,4.5735474   c-0.0608444,0.3034019-0.0166702,1.3978195,0.0300064,2.555584c0.0675201,1.6645489,0.1517029,3.7358532,0.0291748,5.2945461   c-0.1867065,2.3855438,0.8193512,2.9673424,0.8626938,2.9906807c0.0325089,0.0175056,0.0691833,0.044178,0.0958557,0.0708504   c0.0375137,0.0383415,3.7775345,3.8508835,6.4106369,6.7315407c3.6491699,3.991745,7.5967331,7.2149849,10.2490082,9.2921257   c2.7898102,2.1855011,3.6608429,1.5686913,3.6700058,1.5620232c1.4745026-1.1986084,1.8687592-6.0813904,0.7926865-9.6847153   C109.7078552,46.3667488,109.236084,45.3765221,108.8184891,44.5021553z"/><path class="st0" d="M85.245285,127.9179001c-0.1743622,1.6580887-0.2923584,3.2144852-0.2689209,3.9867477   c0.0475159,1.5778656-0.8318558,11.3776093-1.6462097,12.8896179c-0.6951599,1.2911224-1.2852936,4.6102142-1.342804,5.2411957   c-0.0125046,0.1358643-0.0358429,0.3492432-0.0650177,0.6059723c-0.0891876,0.8043518-0.2400513,2.1521606-0.2008743,2.6922913   c0.0475082,0.6734772-0.0925217,2.148819-0.4300995,4.5093536c-0.0583496,0.4109344-0.0533447,0.9610596,0.3059006,1.2494507   c0.3425827,0.2750702,0.9685593,0.292572,1.6328735,0.0441895c0.3075714-0.11586,0.3500824-0.2650604,0.3642502-0.3134155   c0.0925217-0.3192291-0.2083817-0.8135223-0.3209076-0.9610443c-0.1283646-0.1683807-0.0958557-0.4092712,0.0716858-0.5376282   c0.1700363-0.1283569,0.4109268-0.0966949,0.5376205,0.0700226c0.0591812,0.0770874,0.511261,0.6893158,0.4942322,1.3363342   c2.1433487,0.4467773,4.6173019-0.6699371,4.9436798-1.2829895c0.2575607-0.481781-0.1750412-1.2761383-0.3467484-1.5161896   c-0.1142044-0.20755-2.1871643-4.1026001-2.5672531-5.6246185c-0.396759-1.5861969,0.8627014-5.2887115,0.9160461-5.4454041   c0.0527725-0.1350403,4.4007416-11.1392212,5.7625122-16.2105865c-1.0632629,0.350708-2.0812531,0.497818-3.0102158,0.497818   C87.6962585,129.1490173,85.8967819,128.280899,85.245285,127.9179001z"/><g><path class="st0" d="M79.150856,90.6693802c1.2586288,0,5.6821442-0.8393555,6.2214355-0.9427109    c0.1670685-0.0837708,0.377739-0.1637878,0.6073227-0.2290115c-1.5211792-1.3930283-2.9874496-2.4901505-3.3704529-2.4365997    c-0.8435287,0.0991898-4.0300903,0.3300781-4.5810471,0.3692551c-0.6221237,0.3111115-4.8594513,2.3980484-7.1200714,2.7710495    c1.0499268,0.0610504,2.1782074,0.1308594,3.2533493,0.1971283C76.4127426,90.5376892,78.5390625,90.6693802,79.150856,90.6693802    z"/><path class="st0" d="M84.0820465,37.3240547c0.0367813-0.0681381,0.0734024-0.1362801,0.0883026-0.1869164    c0.3425751-1.1636009,1.1169205-7.8342915,1.1244202-7.9018078l1.0457611-4.4818573    c-0.65728-0.3846722-1.2134018-0.8720741-1.6667328-1.4069881v3.639164c0,0.0791855-0.0250092,0.1567039-0.0708466,0.2217178    c-0.0493393,0.0702248-0.89328,1.2465363-2.2103043,2.1809158c0.0143814,0.0423012,0.024437,0.0866871,0.0231323,0.1337814    C82.3608704,31.3412304,82.5689392,36.1006508,84.0820465,37.3240547z"/><path class="st0" d="M87.2852249,37.5830727c0.0001602-0.003334,0.0021362-0.0060425,0.0024033-0.0093765    c-0.0047989-0.2354698-0.0054245-0.4776077,0.0159378-0.7491302c0.1183624-1.5136795,0.0358429-3.5591469-0.030838-5.2028561    c-0.0608521-1.4970093-0.0916901-2.3622055-0.0166702-2.7372913c0.1265869-0.6334782,0.3282471-3.2115688,0.3963928-4.1151085    c-0.0252686-0.0545959-0.042099-0.1133595-0.0388107-0.1775417c0.0108337-0.2258835,0.0058289-0.4000912-0.0083389-0.5342884    l-0.7126617,4.2309685c-0.0316772,0.187542-0.1942139,0.3200722-0.3775864,0.3200722    c-0.0216751,0-0.0433426-0.001667-0.0650177-0.0058346c-0.0783997-0.0131283-0.1423187-0.0543861-0.1959305-0.1058578    l-0.2033234,0.8701992c-0.0250092,0.2342205-0.7826843,6.7607155-1.1436005,7.9868279    c-0.4150925,1.4119911-6.2272568,6.7898865-8.3444061,8.11269c-2.2338409,1.3961525-6.3989639,4.6385612-6.4406357,4.6710663    c-0.0700226,0.0550117-0.1533737,0.0816879-0.2358932,0.0816879c-0.1141891,0-0.2275467-0.0508461-0.3025665-0.1483688    c-0.130867-0.1667061-0.100853-0.4084282,0.0666809-0.538456c0.1717072-0.1341972,4.238472-3.3007545,6.5056534-4.7177467    c0.0793457-0.0495949,0.1705627-0.1137772,0.2568817-0.1717072c-0.0784531-0.0600128-0.1360703-0.1469078-0.1501846-0.2525558    c-0.1258163-0.9562607,0.0258865-1.766655,0.2341156-2.3913803c-0.0451736-0.0629311-0.0774155-0.1360741-0.0774155-0.2192154    v-3.040699c0-0.2117119,0.1725388-0.3842545,0.3842468-0.3842545c0.2117233,0,0.3842621,0.1725426,0.3842621,0.3842545v1.902729    c0.2072372-0.2152596,1.1121292-1.1950645,1.6528778-2.7737617c0.5541916-1.6164093-0.1892624-6.3391571-0.3158569-7.1091251    c-0.0601654,0.0108376-0.1184616,0.0216732-0.1792603,0.0325089c-2.3797073,0.4267635-5.3420486,0.9585514-6.5023193,2.7181225    c-1.4294891,2.1663284-2.1238174,4.5927162-2.1238174,7.4166946c0,2.4814034-0.6159744,4.543541-1.6370392,7.9601555    l-0.1033554,0.34758c-1.0760803,3.6033211-0.6818237,8.4861069,0.7810059,9.6738777    c0.0208435,0.0183372,0.8960419,0.6326447,3.6816788-1.5511894c0.3634186-0.2850647,0.7251663-0.5942993,1.0860825-0.9243774    c0.0825195-0.0875206,10.0939713-10.5932541,13.3038788-16.5937958    C86.8301239,39.8385887,87.218544,38.964222,87.2852249,37.5830727z"/><path class="st0" d="M86.5207291,23.9812126l0.3110657-1.3332214c0.0366745-0.155035,0.1650314-0.272562,0.3234024-0.2933998    c0.2832413-0.0337582,0.821701,0.0979385,1.1457291,0.775177c0.041214-0.1644135,0.1207047-0.3211155,0.2679291-0.4142609    c0.3592453-0.2283859,0.7159958-0.4584389,1.0010605-0.2200508c0.1223221,0.1016903,0.1756668,0.1475334,0.2307281,2.0719318    c3.1920853-0.8318577,4.2037811-4.9990597,4.213623-5.0417786c0.0333405-0.1433659,0.1458664-0.2550583,0.2892303-0.2875652    c0.1433716-0.0350075,0.292572,0.0183372,0.3850937,0.1341972c0.0783463,0.0175037,0.3759155-0.197546,0.9885559-1.8462563    c0.3875885-1.044405,0.1600342-1.5311832,0.0808563-1.6562119c-0.0466843-0.0725164-0.1025238-0.1258621-0.1600418-0.1525345    c-0.1050262,0.1475334-0.2375565,0.543457-0.3459091,1.0093975c-0.0608521,0.4359322-0.1367035,0.7368355-0.1450348,0.7676754    c-0.0500107,0.1967125-0.2433929,0.3234081-0.4467697,0.2817307c-0.2000427-0.0400085-0.3342438-0.2292194-0.305069-0.4309311    c0.0433426-0.3059044,0.0933533-0.582634,0.1492004-0.8301907c0.0783539-0.6118059,0.116684-1.4595003-0.1283646-2.1054811    c-0.223381-0.5893011-0.2058792-0.8968716-0.1867065-1.2227802c0.0250015-0.4175949,0.0558472-0.9368801-0.5109482-2.562252    c-0.8735352-2.5072403-4.458519-1.671216-4.4952011-1.6628809c-0.0291672,0.0066681-0.0600128,0.0108356-0.0900192,0.0108356    h-0.6509781c-0.0300064,0-0.0608521-0.0041676-0.0900192-0.0108356c-0.145874-0.0350075-3.625-0.8351908-4.4960327,1.6628809    c-0.5667953,1.6253719-0.5359573,2.1446571-0.5109482,2.562252c0.0191727,0.3259087,0.0366745,0.6334791-0.1867142,1.2227802    c-0.2450562,0.6451473-0.208374,1.4886742-0.1300278,2.0979795c0.0566788,0.2500572,0.1066895,0.5292873,0.1508713,0.8376923    c0.0291748,0.2017117-0.1050262,0.3909225-0.305069,0.4309311c-0.2033844,0.0416775-0.3959274-0.0850182-0.4467697-0.2817307    c-0.0083389-0.0308399-0.085022-0.3359108-0.1467056-0.776844c-0.1066895-0.465107-0.2375488-0.8526955-0.3442383-1.0002289    c-0.0566864,0.0275059-0.1125259,0.080018-0.1592102,0.153368c-0.0791779,0.1241951-0.3075638,0.6118069,0.0800247,1.6553783    c0.613472,1.6520443,0.910202,1.8704281,0.9868927,1.897934c0.0916824-0.1150265,0.2450562-0.1900425,0.381752-0.1617031    c0.1425323,0.0308399,0.2567215,0.114193,0.2925644,0.2550583C83.5270233,19.5497818,84.3201218,22.5458851,86.5207291,23.9812126    z"/><path class="st0" d="M92.8323288,26.861454v-3.3691025c-0.733757,0.8460255-1.7135696,1.5799446-3.011467,1.8685513    c0.0190659,0.8116436,0.0392227,1.8520908,0.0632935,3.2184448l0.9968948,6.9565907    c0.1538391,0.2152596,0.6906281,0.9304237,1.6687164,1.9498215c0.3609161,0.0339661,0.675209-0.0848122,0.9593887-0.3502884    c1.4486618-1.3536415,1.6328735-6.0447159,1.581192-7.7376022c-0.0013046-0.0470943,0.0087509-0.0914803,0.0231323-0.1337814    c-1.3170242-0.9343796-2.160965-2.1106911-2.2102966-2.1809158C92.857338,27.018158,92.8323288,26.9406395,92.8323288,26.861454z"/><path class="st0" d="M86.1157913,112.426857c0.1442032-0.0391693,0.3425827-0.150032,0.4692764-0.4509354    c0.4159317-0.9868927,0.6609879-2.3013611,0.1025238-3.0315247c-0.0791855-0.1033554-0.1000214-0.2400513-0.0566788-0.3625793    c0.0074997-0.0200043,0.7001572-1.9937897,0.2575607-3.6666718c-0.5209579-1.9679565-0.0491791-6.301445,0.5017776-7.512558    c0.5342865-1.1752701,1.2819595-5.685463,0.5159531-6.7673798c-0.7026596-0.99189-2.2130051-0.2108841-2.2271805-0.2025452    c-0.0341721,0.0183411-0.070015,0.030838-0.1066895,0.0375061c-0.2042084,0.0400085-5.0136414,0.96772-6.4214783,0.96772    c-0.6351318,0-2.6747665-0.1266937-5.036972-0.2725601c-2.7839737-0.1725388-5.938858-0.3675842-7.0724564-0.3675842    c-0.0447464,0-0.086319-0.0114594-0.1263275-0.0256271c-0.1845703,0.0360489-0.3726349,0.073143-0.5647125,0.1114807    c0.2953796,0.9091644,0.6930237,3.0765381-0.4195786,6.5154495c0.2024994-0.0160446,0.4064484-0.0322952,0.6055069-0.0481339    c3.613327-0.2883987,6.4656448-0.5226212,7.2900009-0.4934464c0.0008316,0,0.0016632,0,0.0025024,0    c0.1967087,0,4.2217941,0.0166702,6.1947479,1.0577393c1.9587784,1.0344009,2.2196732,1.3136368,2.7981415,2.9890213    c0.2567215,0.7460022,0.5776291,2.0838089,0.8877029,3.3766022c0.2842331,1.1844406,0.6376419,2.6581116,0.7768402,2.8848267    c0.219223,0.3300781,0.2725677,0.8526917,0.3284149,1.4069901c0.0325012,0.3242416,0.076683,0.7676773,0.1567001,0.8952026    c0.2192154,0.3517456,0.8860321,2.2230072,0.8660278,2.9673462    C85.89991,112.4510345,85.9990997,112.4585342,86.1157913,112.426857z"/><path class="st0" d="M108.8184891,44.5021553c-0.5759659-1.2094421-1.0319061-2.163826-1.0319061-3.7000122    c0-2.8239784-0.6943207-5.2503662-2.1238174-7.4166946c-1.1602631-1.7595711-4.122612-2.2913589-6.5023193-2.7181225    c-0.0607986-0.0108356-0.1190948-0.0216713-0.1792603-0.0325089c-0.1265945,0.769968-0.8700409,5.4927158-0.3158569,7.1091251    c0.5887833,1.7174797,1.5964127,2.7158318,1.6528778,2.7706375V38.614975c0-0.2117119,0.1725388-0.3842545,0.3842468-0.3842545    c0.2117233,0,0.3842621,0.1725426,0.3842621,0.3842545v3.040699c0,0.0841827-0.032814,0.1579514-0.0789185,0.2212982    c0.2016602,0.6015968,0.3409576,1.3719826,0.2423935,2.2740631c2.1844101,1.2834167,3.2851257,1.6747589,4.1175079,1.9639893    c0.87603,0.3042374,1.5095139,0.5242882,2.7831345,1.594532c0.1625366,0.1366997,0.1833801,0.3792534,0.0475082,0.5409584    c-0.0758438,0.0908546-0.1850357,0.1375313-0.2942276,0.1375313c-0.0875244,0-0.1750412-0.0300064-0.246727-0.090023    c-1.1660995-0.9793892-1.6837158-1.1594315-2.5414124-1.4569969c-1.0652466-0.3700867-2.5247421-0.8768692-6.0072098-3.1015434    c-6.3431168-4.0509262-8.812851-7.6925926-8.9145355-7.8451271c-0.0325089-0.0483475-0.0525131-0.1025238-0.0608521-0.1592026    l-1.012886-7.0901661c-0.0526123,0.0504284-0.1150742,0.0914803-0.1923904,0.1052322    c-0.1958771,0.0341759-0.4084244-0.0991879-0.4459305-0.3092365c-0.0891876-0.4909458-0.015007-3.0998764,0.0258408-4.3326569    c-0.0566864,0.1308632-0.0675201,0.2908993-0.0650177,0.3525791c-0.011673,0.1967125-0.2708969,3.7591934-0.4334335,4.5735474    c-0.0608444,0.3034019-0.0166702,1.3978195,0.0300064,2.555584c0.0675201,1.6645489,0.1517029,3.7358532,0.0291748,5.2945461    c-0.1867065,2.3855438,0.8193512,2.9673424,0.8626938,2.9906807c0.0325089,0.0175056,0.0691833,0.044178,0.0958557,0.0708504    c0.0375137,0.0383415,3.7775345,3.8508835,6.4106369,6.7315407c3.6491699,3.991745,7.5967331,7.2149849,10.2490082,9.2921257    c2.7898102,2.1855011,3.6608429,1.5686913,3.6700058,1.5620232c1.4745026-1.1986084,1.8687592-6.0813904,0.7926865-9.6847153    C109.7078552,46.3667488,109.236084,45.3765221,108.8184891,44.5021553z"/><path class="st0" d="M85.245285,127.9179001c-0.1743622,1.6580887-0.2923584,3.2144852-0.2689209,3.9867477    c0.0475159,1.5778656-0.8318558,11.3776093-1.6462097,12.8896179c-0.6951599,1.2911224-1.2852936,4.6102142-1.342804,5.2411957    c-0.0125046,0.1358643-0.0358429,0.3492432-0.0650177,0.6059723c-0.0891876,0.8043518-0.2400513,2.1521606-0.2008743,2.6922913    c0.0475082,0.6734772-0.0925217,2.148819-0.4300995,4.5093536c-0.0583496,0.4109344-0.0533447,0.9610596,0.3059006,1.2494507    c0.3425827,0.2750702,0.9685593,0.292572,1.6328735,0.0441895c0.3075714-0.11586,0.3500824-0.2650604,0.3642502-0.3134155    c0.0925217-0.3192291-0.2083817-0.8135223-0.3209076-0.9610443c-0.1283646-0.1683807-0.0958557-0.4092712,0.0716858-0.5376282    c0.1700363-0.1283569,0.4109268-0.0966949,0.5376205,0.0700226c0.0591812,0.0770874,0.511261,0.6893158,0.4942322,1.3363342    c2.1433487,0.4467773,4.6173019-0.6699371,4.9436798-1.2829895c0.2575607-0.481781-0.1750412-1.2761383-0.3467484-1.5161896    c-0.1142044-0.20755-2.1871643-4.1026001-2.5672531-5.6246185c-0.396759-1.5861969,0.8627014-5.2887115,0.9160461-5.4454041    c0.0527725-0.1350403,4.4007416-11.1392212,5.7625122-16.2105865c-1.0632629,0.350708-2.0812531,0.497818-3.0102158,0.497818    C87.6962585,129.1490173,85.8967819,128.280899,85.245285,127.9179001z"/><path class="st0" d="M98.9845734,57.0725327c0-0.9410477,0.5549164-4.4064255,0.6752014-5.1472206    c-1.026329-0.9268761-2.0791702-1.9239807-3.1323776-2.9921417c-0.0564728,0.0058365-0.1144562,0.0029182-0.1717606-0.0175056    c-3.3682709-1.2377815-7.5942383-1.0427361-7.6367493-1.0444031c-0.0550079,0.001667-4.2618027,0.0841866-7.370018,1.085247    c-0.0391769,0.0125046-0.0783539,0.0183372-0.1175232,0.0183372c-0.0125046,0-0.0221405-0.0100021-0.0344391-0.0110435    c-1.0877991,1.3088417-2.1708603,2.5607948-3.1540527,3.671257c0.0091171,0.3240318,0.071106,2.1867485,0.2603226,3.4189072    c0.2217102,1.4403305-0.5643005,3.0940399-1.0852509,4.1884575l-0.0675125,0.1417007    c-0.3875961,0.8185196-1.5678635,3.3099213-1.8904343,4.925293c-0.0014114,0.0052109-0.0105286,0.0370865-0.0228729,0.0802231    c1.1483383,0.6384811,12.1942978,6.4846115,25.1264267,3.0025635c-0.1027298-1.4347-0.4810486-4.2195053-0.8171692-6.6961136    C99.1979523,59.1355057,98.9845734,57.5418053,98.9845734,57.0725327z"/><path d="M110.8864594,47.627037c-0.4592743-1.5370178-0.9668884-2.6005936-1.3744812-3.4557877    c-0.5559616-1.1652679-0.9568863-2.0071259-0.9568863-3.3691063c0-2.9790154-0.7360001-5.543766-2.2505112-7.840126    c-1.3419724-2.0346317-4.4843597-2.5980949-7.0091019-3.0506973c-0.756012-0.1358643-1.4703369-0.2642269-2.0104599-0.4150963    c-1.8796005-0.5242863-3.3516006-2.3280315-3.6841812-2.7622986v-4.1701202c0-0.0329227-0.010994-0.0623055-0.0188065-0.0929375    c0.5518951-0.8895779,0.8802032-1.7641525,1.0448761-2.2876072c0.073349,0.0100021,0.1417007,0.0041676,0.1933746-0.0025005    c0.5351257-0.0866852,0.9627228-0.7334995,1.577034-2.3880463c0.4792709-1.2894611,0.2108765-2.0162935,0.0083313-2.3346996    c-0.0728836-0.1146097-0.1633148-0.2069225-0.2605286-0.2867327c0.1313858-0.7041197,0.5353851-3.2936697-0.0820465-5.7654858    c-1.2402878-4.9603009-6.6331863-4.7202458-6.6665268-4.7177453h-1.253624    c-0.0266724,0.0075016-5.3928986-0.0050011-6.6281815,4.9352956c-0.6142044,2.4580622-0.2492218,4.8752813-0.1251297,5.5479355    c-0.0973663,0.080018-0.187912,0.1725397-0.260788,0.2875662c-0.2025452,0.3184061-0.470108,1.0452385,0.0083313,2.3338661    c0.6143112,1.6545467,1.0419083,2.3013611,1.5778656,2.3880463c0.0550079,0.0083351,0.1258621,0.0133362,0.2042084,0.0008335    c0.1628494,0.4817772,0.4830322,1.2707081,0.9860611,2.0938129V26.85812    c-0.3325729,0.434267-1.8045807,2.2380123-3.6841736,2.7622986c-0.540123,0.1508694-1.2544556,0.279232-2.0104599,0.4150963    c-2.5247498,0.4526024-5.6671295,1.0160656-7.0091095,3.0506973c-1.5145111,2.29636-2.2505112,4.8611107-2.2505112,7.840126    c0,2.3688774-0.6034698,4.3910065-1.6045303,7.7409363l-0.1041946,0.3467484    c-1.0719147,3.5924873-0.8543625,8.9570465,1.0035629,10.4640579c0.0875168,0.0875206,0.3584137,0.3017387,0.9102097,0.3017387    c0.7134933,0,1.8971024-0.3592491,3.7591934-1.8179169c0.378418-0.2967339,0.7551727-0.6193085,1.1494293-0.98106    c0.1462326-0.1529503,1.4609604-1.5328484,3.2417297-3.5193443c0.0362625,0.7549629,0.1071091,1.8583412,0.2382355,2.7091599    c0.1850357,1.2069435-0.5692978,2.793972-1.0202332,3.7416916l-0.0675201,0.143364    c-0.3984222,0.8393593-1.6087036,3.3949432-1.9421082,5.0703239c-0.0391769,0.134201-0.9727249,3.3107605-1.2402878,5.5579376    c-0.1942062,1.6370468-2.1063156,2.6314392-2.9223328,3.0557022c-0.2325516,0.1208649-0.3734207,0.1942139-0.424263,0.2417221    c-0.0908585,0.0500107-0.6459808,0.2717285-1.2886276,0.5292892c-4.2092972,1.6837158-17.0172272,6.8065567-22.8368912,12.2277985    c-0.1233635,0.0866852-3.029026,2.163826-3.3090897,5.1870193c-0.2850647,3.0756989,1.2152786,5.6812973,3.7333527,6.4823151    c1.976284,0.628479,3.1723938,0.6218109,4.6744041,0.6068039c0.3284073-0.003334,0.6709862-0.0066681,1.039402-0.0016632    c2.9815178,0.0258331,9.4621658-0.4826126,14.6566849-0.8968735c3.448288-0.2733994,6.4089661-0.5109558,7.2191467-0.4901123    c0.0400162,0,4.033432,0.0108337,5.8488464,0.9693832c1.8479233,0.9752274,1.9296036,1.1077576,2.429718,2.5589218    c0.2458954,0.7109985,0.5617981,2.0304642,0.8676987,3.3057556c0.470108,1.9604492,0.6951599,2.8489838,0.8835373,3.1307144    c0.1141968,0.1717072,0.1658707,0.6843262,0.204216,1.0585785c0.0508423,0.5084457,0.0950165,0.9468842,0.2692261,1.2252808    c0.250061,0.4000931,0.7918472,2.224678,0.7568436,2.518074c-0.084343,0.2967377,0.0873566,0.5832596,0.412796,0.7259979    c-0.1257019,0.0631409-0.2144241,0.1900482-0.2144241,0.3400803c0,0.1083603,0.1467056,1.3036346,0.2700653,2.2880249    c0.262558,2.1004791,0.158371,4.7044067-0.2600632,6.478981c-0.4175949,1.7779083-1.1319199,7.8759613-1.0769119,9.7022247    c0.057518,1.8912659-0.8927002,11.273407-1.5545197,12.5028534c-0.8085175,1.5020142-1.3844833,5.0211487-1.43116,5.5346069    c-0.011673,0.1333618-0.0350113,0.3408966-0.0633469,0.5901337c-0.0983582,0.8851929-0.2475586,2.222168-0.204216,2.8331451    c0.0300064,0.4192657-0.0191727,1.5136719-0.4234314,4.345993c-0.1575317,1.1019135,0.2308884,1.6720428,0.5851364,1.9562836    c0.3209076,0.2575531,0.7485046,0.3884125,1.2294464,0.3884125c0.3617477,0,0.7543411-0.074173,1.1544342-0.2242126    c0.2812576-0.1054382,0.471199-0.2488098,0.6011734-0.3986359c0.4228058,0.0981445,0.8617096,0.1469116,1.3034286,0.1469116    c2.0554657,0,4.1426086-0.9477234,4.5943832-1.7937469c0.5326233-0.9993896-0.3617477-2.2705231-0.3734207-2.2821808    c-0.0216675-0.0391846-2.1163177-3.9759216-2.4738998-5.407074c-0.2833939-1.1335907,0.551796-4.0009155,0.891037-4.9928131    c0.20755-0.5242767,5.0911636-12.884613,6.0472183-17.3447952c0.6618195-3.0915451,0.8443604-7.8376312,0.964386-10.9775162    c0.0533447-1.3786469,0.0950241-2.4672318,0.1575394-2.7947998c0.1108551-0.5843048,0.2308807-1.666214,0.3567429-2.8123093    c0.11586-1.0427399,0.2342224-2.1213226,0.3367462-2.6856155c0.0675125-0.3709183,0.529274-2.1721649,1.1135864-4.4535217    c1.2127762-4.7310791,3.0440292-11.8802185,3.3699417-14.1240616c0.2617264-1.8012466,0.3500748-4.1901245,0.4434357-6.7190399    c0.0800171-2.1579895,0.1633682-4.3901672,0.3592453-6.4223022c0.4259338-4.4185104-0.0500107-8.3143997-0.0525131-8.3294067    c-0.0875168-1.3936462-0.4826126-4.3034821-0.8318558-6.8715706c-0.2850647-2.0979805-0.5542908-4.0784302-0.5542908-4.5201988    c0-0.7405853,0.3955078-3.3278465,0.5867996-4.5343704c1.8213043,1.6101608,3.5164261,2.9735947,4.8736115,4.0367546    c1.8754349,1.4686699,3.0615387,1.8229179,3.768364,1.8229179c0.5376205,0,0.7976837-0.2050476,0.8718643-0.2800636    C111.7408218,56.5840874,111.958374,51.2195282,110.8864594,47.627037z M95.1134796,29.2640877    c-0.0143814,0.0423012-0.024437,0.0866871-0.0231323,0.1337814c0.0516815,1.6928864-0.1325302,6.3839607-1.581192,7.7376022    c-0.2841797,0.2654762-0.5984726,0.3842545-0.9593887,0.3502884c-0.9780884-1.0193977-1.5148773-1.7345619-1.6687164-1.9498215    l-0.9968948-6.9565907c-0.0240707-1.366354-0.0442276-2.4068012-0.0632935-3.2184448    c1.2978973-0.2886066,2.27771-1.0225258,3.011467-1.8685513v3.3691025c0,0.0791855,0.0250092,0.1567039,0.0708542,0.2217178    C92.9525146,27.1533966,93.7964554,28.3297081,95.1134796,29.2640877z M83.5185318,19.5172749    c-0.0358429-0.1408653-0.150032-0.2242184-0.2925644-0.2550583c-0.1366959-0.0283394-0.2900696,0.0466766-0.381752,0.1617031    c-0.0766907-0.0275059-0.3734207-0.2458897-0.9868927-1.897934c-0.3875885-1.0435715-0.1592026-1.5311832-0.0800247-1.6553783    c0.0466843-0.07335,0.1025238-0.1258621,0.1592102-0.153368c0.1066895,0.1475334,0.2375488,0.5351219,0.3442383,1.0002289    c0.0616837,0.4409332,0.1383667,0.7460041,0.1467056,0.776844c0.0508423,0.1967125,0.2433853,0.3234081,0.4467697,0.2817307    c0.2000427-0.0400085,0.3342438-0.2292194,0.305069-0.4309311c-0.0441818-0.3084049-0.0941925-0.587635-0.1508713-0.8376923    c-0.0783463-0.6093054-0.1150284-1.4528322,0.1300278-2.0979795c0.2233887-0.5893011,0.2058868-0.8968716,0.1867142-1.2227802    c-0.0250092-0.4175949-0.0558472-0.9368801,0.5109482-2.562252c0.8710327-2.4980717,4.3501587-1.6978884,4.4960327-1.6628809    c0.0291672,0.0066681,0.0600128,0.0108356,0.0900192,0.0108356h0.6509781c0.0300064,0,0.0608521-0.0041676,0.0900192-0.0108356    c0.0366821-0.0083351,3.621666-0.8443594,4.4952011,1.6628809c0.5667953,1.6253719,0.5359497,2.1446571,0.5109482,2.562252    c-0.0191727,0.3259087-0.0366745,0.6334791,0.1867065,1.2227802c0.2450485,0.6459808,0.2067184,1.4936752,0.1283646,2.1054811    c-0.0558472,0.2475567-0.1058578,0.5242863-0.1492004,0.8301907c-0.0291748,0.2017117,0.1050262,0.3909225,0.305069,0.4309311    c0.2033768,0.0416775,0.396759-0.0850182,0.4467697-0.2817307c0.0083313-0.0308399,0.0841827-0.3317432,0.1450348-0.7676754    c0.1083527-0.4659405,0.2408829-0.8618641,0.3459091-1.0093975c0.057518,0.0266724,0.1133575,0.080018,0.1600418,0.1525345    c0.0791779,0.1250286,0.3067322,0.6118069-0.0808563,1.6562119c-0.6126404,1.6487103-0.9102097,1.86376-0.9885559,1.8462563    c-0.0925217-0.11586-0.2417221-0.1692047-0.3850937-0.1341972c-0.143364,0.0325069-0.2558899,0.1441994-0.2892303,0.2875652    c-0.0098419,0.0427189-1.0215378,4.2099209-4.213623,5.0417786c-0.0550613-1.9243984-0.1084061-1.9702415-0.2307281-2.0719318    c-0.2850647-0.2383881-0.6418152-0.0083351-1.0010605,0.2200508c-0.1472244,0.0931454-0.2267151,0.2498474-0.2679291,0.4142609    c-0.324028-0.6772385-0.8624878-0.8089352-1.1457291-0.775177c-0.158371,0.0208378-0.2867279,0.1383648-0.3234024,0.2933998    l-0.3110657,1.3332214C84.3201218,22.5458851,83.5270233,19.5497818,83.5185318,19.5172749z M84.602951,27.2073669    c0.0458374-0.0650139,0.0708466-0.1425323,0.0708466-0.2217178v-3.639164    c0.453331,0.534914,1.0094528,1.022316,1.6667328,1.4069881l-1.0457611,4.4818573    c-0.0074997,0.0675163-0.7818451,6.7382069-1.1244202,7.9018078c-0.0149002,0.0506363-0.0515213,0.1187782-0.0883026,0.1869164    c-1.5131073-1.2234039-1.7211761-5.9828243-1.6662674-7.8019905c0.0013046-0.0470943-0.0087509-0.0914803-0.0231323-0.1337814    C83.709671,28.4539032,84.5536118,27.2775917,84.602951,27.2073669z M73.527916,56.4323845    c-0.3609161,0.3300781-0.7226639,0.6393127-1.0860825,0.9243774c-2.7856369,2.1838341-3.6608353,1.5695267-3.6816788,1.5511894    c-1.4628296-1.1877708-1.8570862-6.0705566-0.7810059-9.6738777l0.1033554-0.34758    c1.0210648-3.4166145,1.6370392-5.4787521,1.6370392-7.9601555c0-2.8239784,0.6943283-5.2503662,2.1238174-7.4166946    c1.1602707-1.7595711,4.122612-2.2913589,6.5023193-2.7181225c0.0607986-0.0108356,0.1190948-0.0216713,0.1792603-0.0325089    c0.1265945,0.769968,0.8700485,5.4927158,0.3158569,7.1091251c-0.5407486,1.5786972-1.4456406,2.5585022-1.6528778,2.7737617    v-1.902729c0-0.2117119-0.1725388-0.3842545-0.3842621-0.3842545c-0.2117081,0-0.3842468,0.1725426-0.3842468,0.3842545v3.040699    c0,0.0831413,0.0322418,0.1562843,0.0774155,0.2192154c-0.2082291,0.6247253-0.3599319,1.4351196-0.2341156,2.3913803    c0.0141144,0.105648,0.0717316,0.192543,0.1501846,0.2525558c-0.086319,0.05793-0.177536,0.1221123-0.2568817,0.1717072    c-2.2671814,1.4169922-6.3339462,4.5835495-6.5056534,4.7177467c-0.1675339,0.1300278-0.1975479,0.3717499-0.0666809,0.538456    c0.0750198,0.0975227,0.1883774,0.1483688,0.3025665,0.1483688c0.0825195,0,0.1658707-0.0266762,0.2358932-0.0816879    c0.0416718-0.032505,4.2067947-3.2749138,6.4406357-4.6710663c2.1171494-1.3228035,7.9293137-6.7006989,8.3444061-8.11269    c0.3609161-1.2261124,1.1185913-7.7526073,1.1436005-7.9868279l0.2033234-0.8701992    c0.0536118,0.0514717,0.1175308,0.0927296,0.1959305,0.1058578c0.0216751,0.0041676,0.0433426,0.0058346,0.0650177,0.0058346    c0.1833725,0,0.3459091-0.1325302,0.3775864-0.3200722l0.7126617-4.2309685    c0.0141678,0.1341972,0.0191727,0.3084049,0.0083389,0.5342884c-0.0032883,0.0641823,0.0135422,0.1229458,0.0388107,0.1775417    c-0.0681458,0.9035397-0.2698059,3.4816303-0.3963928,4.1151085c-0.0750198,0.3750858-0.0441818,1.2402821,0.0166702,2.7372913    c0.0666809,1.6437092,0.1492004,3.6891766,0.030838,5.2028561c-0.0213623,0.2715225-0.0207367,0.5136604-0.0159378,0.7491302    c-0.000267,0.003334-0.002243,0.0060425-0.0024033,0.0093765c-0.0666809,1.3811493-0.455101,2.2555161-0.4534302,2.2555161    C83.6218872,45.8391304,73.6104355,56.3448639,73.527916,56.4323845z M78.0281143,87.4303131    c0.5509567-0.0391769,3.7375183-0.2700653,4.5810471-0.3692551c0.3830032-0.0535507,1.8492737,1.0435715,3.3704529,2.4365997    c-0.2295837,0.0652237-0.4402542,0.1452408-0.6073227,0.2290115c-0.5392914,0.1033554-4.9628067,0.9427109-6.2214355,0.9427109    c-0.6117935,0-2.7381134-0.131691-4.9894638-0.2708893c-1.0751419-0.0662689-2.2034225-0.1360779-3.2533493-0.1971283    C73.168663,89.8283615,77.4059906,87.7414246,78.0281143,87.4303131z M55.2617493,91.9838791    c-1.7987556,0.5995865-4.188118,1.6453018-4.188118,1.6453018c2.518261-1.5888977,3.5075607-1.8886261,4.2570572-2.0685654    c0.6610489-0.1587143,5.1864357-0.9893799,10.078804-1.2700653    C59.6166077,91.2345123,56.6662712,91.5157013,55.2617493,91.9838791z M84.9713669,109.4678497    c-0.0800171-0.1275253-0.1241989-0.570961-0.1567001-0.8952026c-0.0558472-0.5542984-0.1091919-1.0769119-0.3284149-1.4069901    c-0.1391983-0.2267151-0.4926071-1.700386-0.7768402-2.8848267c-0.3100739-1.2927933-0.6309814-2.6306-0.8877029-3.3766022    c-0.5784683-1.6753845-0.8393631-1.9546204-2.7981415-2.9890213c-1.9729538-1.041069-5.9980392-1.0577393-6.1947479-1.0577393    c-0.0008392,0-0.0016708,0-0.0025024,0c-0.8243561-0.0291748-3.6766739,0.2050476-7.2900009,0.4934464    c-0.1990585,0.0158386-0.4030075,0.0320892-0.6055069,0.0481339c1.1126022-3.4389114,0.7149582-5.6062851,0.4195786-6.5154495    c0.1920776-0.0383377,0.6462936-0.0858536,0.69104-0.0858536c1.1335983,0,4.2884827,0.1950455,7.0724564,0.3675842    c2.3622055,0.1458664,4.4018402,0.2725601,5.036972,0.2725601c1.4078369,0,6.2172699-0.9277115,6.4214783-0.96772    c0.0366745-0.0066681,0.0725174-0.019165,0.1066895-0.0375061c0.0141754-0.0083389,1.5245209-0.7893448,2.2271805,0.2025452    c0.7660065,1.0819168,0.0183334,5.5921097-0.5159531,6.7673798c-0.5509567,1.211113-1.0227356,5.5446014-0.5017776,7.512558    c0.4425964,1.6728821-0.250061,3.6466675-0.2575607,3.6666718c-0.0433426,0.1225281-0.0225067,0.2592239,0.0566788,0.3625793    c0.5584641,0.7301636,0.3134079,2.044632-0.1025238,3.0315247c-0.1266937,0.3009033-0.3250732,0.4117661-0.4692764,0.4509354    c-0.1166916,0.0316772-0.2158813,0.0241776-0.2783966,0.0083389    C85.857399,111.6908569,85.1905823,109.8195953,84.9713669,109.4678497z M87.3227386,144.8617859    c-0.0533447,0.1566925-1.3128052,3.8592072-0.9160461,5.4454041c0.3800888,1.5220184,2.4530487,5.4170685,2.5672531,5.6246185    c0.1717072,0.2400513,0.6043091,1.0344086,0.3467484,1.5161896c-0.3263779,0.6130524-2.8003311,1.7297668-4.9436798,1.2829895    c0.0170288-0.6470184-0.435051-1.2592468-0.4942322-1.3363342c-0.1266937-0.1667175-0.3675842-0.1983795-0.5376205-0.0700226    c-0.1675415,0.1283569-0.2000504,0.3692474-0.0716858,0.5376282c0.1125259,0.147522,0.4134293,0.6418152,0.3209076,0.9610443    c-0.0141678,0.0483551-0.0566788,0.1975555-0.3642502,0.3134155c-0.6643143,0.2483826-1.2902908,0.2308807-1.6328735-0.0441895    c-0.3592453-0.2883911-0.3642502-0.8385162-0.3059006-1.2494507c0.3375778-2.3605347,0.4776077-3.8358765,0.4300995-4.5093536    c-0.0391769-0.5401306,0.1116867-1.8879395,0.2008743-2.6922913c0.0291748-0.2567291,0.0525131-0.470108,0.0650177-0.6059723    c0.0575104-0.6309814,0.647644-3.9500732,1.342804-5.2411957c0.8143539-1.5120087,1.6937256-11.3117523,1.6462097-12.8896179    c-0.0234375-0.7722626,0.0945587-2.3286591,0.2689209-3.9867477c0.6514969,0.362999,2.4509735,1.2311172,4.8297501,1.2311172    c0.9289627,0,1.9469528-0.14711,3.0102158-0.497818C91.7234802,133.7225647,87.3755112,144.7267456,87.3227386,144.8617859z     M100.363533,68.3922043c-12.9321289,3.482048-23.9780884-2.3640823-25.1264267-3.0025635    c0.0123444-0.0431366,0.0214615-0.0750122,0.0228729-0.0802231c0.3225708-1.6153717,1.5028381-4.1067734,1.8904343-4.925293    l0.0675125-0.1417007c0.5209503-1.0944176,1.3069611-2.748127,1.0852509-4.1884575    c-0.1892166-1.2321587-0.2512054-3.0948753-0.2603226-3.4189072c0.9831924-1.1104622,2.0662537-2.3624153,3.1540527-3.671257    c0.0122986,0.0010414,0.0219345,0.0110435,0.0344391,0.0110435c0.0391693,0,0.0783463-0.0058327,0.1175232-0.0183372    c3.1082153-1.0010605,7.3150101-1.08358,7.370018-1.085247c0.042511,0.001667,4.2684784-0.1933784,7.6367493,1.0444031    c0.0573044,0.0204239,0.1152878,0.0233421,0.1717606,0.0175056c1.0532074,1.068161,2.1060486,2.0652657,3.1323776,2.9921417    c-0.120285,0.7407951-0.6752014,4.2061729-0.6752014,5.1472206c0,0.4692726,0.2133789,2.062973,0.5617905,4.623558    C99.8824844,64.172699,100.2608032,66.9575043,100.363533,68.3922043z M109.3569412,57.5318031    c-0.0091629,0.0066681-0.8801956,0.6234779-3.6700058-1.5620232c-2.6522751-2.0771408-6.5998383-5.3003807-10.2490082-9.2921257    c-2.6331024-2.8806572-6.3731232-6.6931992-6.4106369-6.7315407c-0.0266724-0.0266724-0.0633469-0.0533447-0.0958557-0.0708504    c-0.0433426-0.0233383-1.0494003-0.6051369-0.8626938-2.9906807c0.1225281-1.5586929,0.0383453-3.6299973-0.0291748-5.2945461    c-0.0466766-1.1577644-0.0908508-2.252182-0.0300064-2.555584c0.1625366-0.8143539,0.4217606-4.3768349,0.4334335-4.5735474    c-0.0025024-0.0616798,0.0083313-0.2217159,0.0650177-0.3525791c-0.0408478,1.2327805-0.1150284,3.841711-0.0258408,4.3326569    c0.0375061,0.2100487,0.2500534,0.3434124,0.4459305,0.3092365c0.0773163-0.013752,0.1397781-0.0548038,0.1923904-0.1052322    l1.012886,7.0901661c0.0083389,0.0566788,0.0283432,0.1108551,0.0608521,0.1592026    c0.1016846,0.1525345,2.5714188,3.7942009,8.9145355,7.8451271c3.4824677,2.2246742,4.9419632,2.7314568,6.0072098,3.1015434    c0.8576965,0.2975655,1.3753128,0.4776077,2.5414124,1.4569969c0.0716858,0.0600166,0.1592026,0.090023,0.246727,0.090023    c0.1091919,0,0.2183838-0.0466766,0.2942276-0.1375313c0.1358719-0.161705,0.1150284-0.4042587-0.0475082-0.5409584    c-1.2736206-1.0702438-1.9071045-1.2902946-2.7831345-1.594532c-0.8323822-0.2892303-1.9330978-0.6805725-4.1175079-1.9639893    c0.0985641-0.9020805-0.0407333-1.6724663-0.2423935-2.2740631c0.0461044-0.0633469,0.0789185-0.1371155,0.0789185-0.2212982    v-3.040699c0-0.2117119-0.1725388-0.3842545-0.3842621-0.3842545c-0.2117081,0-0.3842468,0.1725426-0.3842468,0.3842545v1.8996048    c-0.0564651-0.0548058-1.0640945-1.0531578-1.6528778-2.7706375c-0.554184-1.6164093,0.1892624-6.3391571,0.3158569-7.1091251    c0.0601654,0.0108376,0.1184616,0.0216732,0.1792603,0.0325089c2.3797073,0.4267635,5.3420563,0.9585514,6.5023193,2.7181225    c1.4294968,2.1663284,2.1238174,4.5927162,2.1238174,7.4166946c0,1.5361862,0.4559402,2.4905701,1.0319061,3.7000122    c0.4175949,0.8743668,0.8893661,1.8645935,1.3311386,3.3449326    C111.2257004,51.4504128,110.8314438,56.3331947,109.3569412,57.5318031z"/></g></g></svg>