<svg xmlns="http://www.w3.org/2000/svg" version="1.1" viewBox="-5.0 -10.0 110.0 135.0">
 <path d="m37.914 48.055c-0.10547-1.0195-0.55859-2.3828-0.89453-3.3789-0.15625-0.46875-0.29297-0.875-0.32812-1.0586l-0.054687-0.28125c-0.20312-1-0.82031-4.043-0.88672-7.4492-0.089844-4.6289-4.2578-5.3242-4.4336-5.3516-0.23828-0.035156-0.55859-0.13672-0.90234-0.26172 0.015626-0.0625 0.027344-0.10547 0.027344-0.10547l-1.4844-0.49609c-0.22266-0.10156-0.41797-0.19141-0.55078-0.25391v-3.543c0.55078-0.99609 0.95703-2.1758 0.95703-3.2148 0-3.0156-1.5625-5.2031-3.7188-5.2031-2.1523 0-3.7188 2.1875-3.7188 5.2031 0 1.0781 0.4375 2.3086 1.0195 3.3242v3.4688c-0.09375 0.042969-0.21094 0.097656-0.34375 0.16016 0-0.035156-0.003906-0.070312-0.003906-0.10547l-1.7461 0.68359s0.019532 0.042969 0.050782 0.12109c-0.30078 0.10547-0.57422 0.1875-0.78516 0.21875-0.17578 0.027344-4.3438 0.72266-4.4336 5.3516-0.066406 3.4062-0.68359 6.4492-0.88672 7.4492l-0.054687 0.28125c-0.035157 0.18359-0.16797 0.58594-0.32813 1.0586-0.33203 0.99609-0.78906 2.3594-0.89453 3.3789-0.14844 1.4453 0.6875 7.293 0.78906 8-0.09375 0.45312-0.53516 2.5938-0.53516 3.0469 0 0.12109 0 0.41016 0.83594 1.9492 0.30859 0.57031 0.90234 0.90625 1.5273 0.90625 0.17969 0 0.36328-0.027344 0.53906-0.085937 0.37891-0.12109 0.6875-0.30859 0.96875-0.52344 0.26172 4.1133 1.3438 10.016 1.4922 10.828-0.14844 0.51953-0.88672 3.2656-0.61328 5.2656 0.28516 2.0977 2.0273 13.777 2.0469 13.895l0.019532 0.13672 0.10938 0.085938c0.027343 0.019531 0.10547 0.078124 0.21094 0.15234-0.085937 0.57031-0.48438 3.1055-0.78516 4.207-0.13281 0.48828-0.078125 0.88672 0.16797 1.1836 0.33984 0.41016 0.96484 0.54688 1.8516 0.54688 0.34766 0 0.73828-0.019531 1.168-0.054687 0.63672-0.050782 1.1211-0.27344 1.4297-0.66016 0.51953-0.64453 0.39453-1.5547 0.33594-1.9922-0.007813-0.0625-0.015625-0.11719-0.019531-0.16016-0.035156-0.43359-0.33984-3.3867-0.38281-3.7852 0.050781-0.054688 0.09375-0.097657 0.11719-0.12891l0.089843-0.097656v-0.13281c0-0.089843-0.023437-9.1367 0.003907-11.598 0.03125-2.4844 0.09375-7.2461 0.09375-7.2461l0.6875-7.4492 0.53906 7.2734s-0.15234 4.7812-0.23438 7.2695c-0.082031 2.4609-0.51562 11.496-0.51953 11.586l-0.007813 0.13281 0.085938 0.10156c0.046875 0.058594 0.14453 0.17188 0.26953 0.3125-0.046875 0.46875-0.34375 3.3359-0.37891 3.7617-0.003906 0.042968-0.011719 0.09375-0.019531 0.16016-0.058594 0.4375-0.18359 1.3477 0.33594 1.9922 0.3125 0.38672 0.79297 0.60937 1.4297 0.66016 0.42969 0.035156 0.81641 0.054687 1.168 0.054687 0.88281 0 1.5117-0.13672 1.8516-0.54688 0.24609-0.29688 0.30078-0.69531 0.16797-1.1836-0.32812-1.2109-0.77344-4.1328-0.80078-4.3125 0.011718-0.007812 0.03125-0.019531 0.035156-0.023437l0.11328-0.082031 0.027344-0.13672c0.023437-0.11719 2.2891-11.707 2.668-13.789 0.36328-1.9922-0.25781-4.7891-0.37891-5.2969 0.14844-0.78125 1.2695-6.6914 1.6016-10.754 0.53906 0.29688 1.1758 0.41406 1.6797 0.44922l0.14453 0.003906c0.52344 0 1.0195-0.21484 1.375-0.60547 0.4375-0.47656 0.57813-1.332 0.57813-1.6719 0-0.44141-0.25-3.2383-0.28516-3.6289 0.09375-0.59375 0.94922-6.5508 0.80078-8.0117zm-14.258-22.211c-0.51953-0.84766-0.92188-1.8945-1.0039-2.8281l0.41797 0.050781 0.16797-1.4023c1.043-0.0625 2.6758-0.30859 3.8477-1.1719 0.17969 0.30078 0.49609 0.6875 0.99609 0.97266l0.24219 1.6719 0.30859-0.046875c-0.16406 1.5156-1.1562 3.3164-2.0586 4.0469-0.54688 0.44141-1.3125 0.44141-1.8594 0-0.33594-0.26953-0.68359-0.69531-0.99609-1.1953v-0.097656zm-0.12891 4.1133 0.19531-0.09375v-2.7578c0.1875 0.21875 0.375 0.41797 0.5625 0.57031 0.40234 0.32422 0.88281 0.48828 1.3672 0.48828 0.48047 0 0.96484-0.16016 1.3633-0.48828 0.23047-0.1875 0.46875-0.44531 0.69922-0.73438v2.9258l0.19531 0.09375c0.035156 0.015624 0.33984 0.16406 0.76172 0.35547-0.19531 0.70703-0.71875 1.3008-1.4922 1.6289-0.36719 0.15625-2.5742 0.29297-3.2539-0.12891-0.57422-0.35547-0.99219-0.89062-1.1914-1.4844 0.4375-0.20312 0.75781-0.35938 0.79297-0.375zm-7.0586 31.25c-0.48047 0.15625-1.0039-0.050781-1.2422-0.49219-0.71094-1.3086-0.75-1.5938-0.75391-1.6172 0-0.30469 0.32812-1.9805 0.53125-2.9648l0.011719-0.058593-0.007813-0.0625c-0.007812-0.0625-0.94141-6.4688-0.79687-7.8906 0.097656-0.94141 0.53906-2.2656 0.85937-3.2266 0.17188-0.51562 0.30859-0.92188 0.35156-1.1484l0.054687-0.26953c0.20703-1.0156 0.83203-4.1055 0.90234-7.5742 0.078125-4.0508 3.6914-4.6523 3.8438-4.6758 0.23047-0.035156 0.51562-0.11719 0.82422-0.21875 0.050781 0.59375-0.035156 1.4805-0.66406 2.5391-1.4883 2.4961-2.0312 5.4297-1.5273 8.2773-0.39453 1.1523-0.85547 2.3711-0.97266 2.5234-0.27734 0.19531-0.29297 0.6875-0.30859 2.0703-0.007813 0.70703-0.015625 1.5078-0.097657 2.0312-0.1875 1.1914-1.3516 6.6875-1.3633 6.7422l-0.027343 0.12891 0.066406 0.11328c0.003906 0.007812 0.44141 0.77344 0.61719 1.3047s0.32422 1.6719 0.33203 1.7109l0.34766 1.5703-0.039063 0.082031c-0.23047-0.46484-0.48828-1.168-0.58984-1.4609l-0.65625 0.22656c0.050782 0.15234 0.52734 1.5039 0.88281 1.9922 0.011719 0.019531 0.035156 0.027344 0.050781 0.042969-0.19141 0.125-0.39453 0.23047-0.62891 0.30469zm1.2422-3.3516c-0.0625-0.40625-0.16797-0.97266-0.28516-1.332-0.15625-0.46875-0.47266-1.0625-0.60938-1.3125 0.17969-0.85547 1.168-5.5312 1.3438-6.6523 0.089844-0.57031 0.097656-1.4023 0.10547-2.1328 0.007813-0.57812 0.015625-1.3594 0.078125-1.5664 0.097656-0.10938 0.30078-0.42969 0.72656-1.5664 0.027344 0.49219 0.035157 0.98828 0.035157 1.4805-0.003907 1.2539-0.019531 2.5078-0.027344 3.7617-0.007813 1.0508-0.16016 2.0234-0.22266 3.0664l-0.011719 0.15234s0.023438 0.015625 0.058594 0.039063c-0.41406 1.5859-0.95312 3.9102-1.1914 6.0625zm6.4922 38.645c-0.1875 0.23047-0.50391 0.36719-0.94531 0.40234-0.57031 0.046875-2.0859 0.16797-2.4258-0.24219-0.035156-0.042968-0.14062-0.16797-0.03125-0.55859 0.27734-1.0195 0.62109-3.1211 0.75781-4.0039 0.33203 0.17188 0.70703 0.31641 1.0352 0.31641l0.085938-0.003906c0.41016-0.035156 0.93359-0.41797 1.3672-0.79688 0.10156 0.98438 0.29688 2.8867 0.32422 3.2266 0.003906 0.050781 0.011718 0.11719 0.023437 0.19531 0.046875 0.36719 0.14062 1.0508-0.19141 1.4648zm1.1562-36.312-1.0664 11.566s-0.0625 4.7812-0.09375 7.2734c-0.027344 2.3008-0.007813 10.328-0.003907 11.473-0.54297 0.58203-1.2695 1.1914-1.5703 1.2188-0.31641 0.019531-0.96484-0.32812-1.3828-0.62891-0.19922-1.3438-1.7539-11.777-2.0234-13.746-0.27734-2.0195 0.60547-5.0273 0.61719-5.0547l0.023437-0.082031-0.015625-0.082031c-0.015625-0.09375-1.7383-9.2969-1.5352-13.055 0.12109-2.2852 0.75391-5.0898 1.2344-6.9531 0.93359 0.41406 2.832 1.0312 5.793 1.0117v6.5273h0.15234l-0.15625 0.011719 0.039063 0.51953zm4.3281 35.914c0.10547 0.39063 0.003906 0.51563-0.03125 0.55859-0.33984 0.41016-1.8555 0.28906-2.4258 0.24219-0.44141-0.035156-0.75781-0.17188-0.94531-0.40234-0.33203-0.41016-0.23828-1.0938-0.1875-1.4609 0.011719-0.078124 0.019532-0.14453 0.023438-0.19531 0.027344-0.33594 0.21875-2.1875 0.32031-3.1836 0.375 0.33594 0.79688 0.64453 1.1445 0.6875l0.14062 0.007813c0.38281 0 0.82813-0.17969 1.1914-0.36328 0.12109 0.80469 0.48047 3.0469 0.76953 4.1094zm1.6406-23.879-0.015625 0.074219 0.019531 0.074219c0.007813 0.03125 0.75391 3.0742 0.38672 5.0781-0.35547 1.9531-2.3789 12.309-2.6406 13.641-0.42969 0.28125-1.082 0.61328-1.4062 0.56641-0.30078-0.039062-0.99609-0.67969-1.5156-1.2852 0.054688-1.1445 0.4375-9.1602 0.51172-11.461 0.082031-2.4922 0.23438-7.2734 0.23438-7.3086l-0.87891-11.941h0.003906v-6.5273c3.1875 0.019532 5.1445-0.69531 5.9844-1.1055 0.40625 1.8555 0.99609 4.9648 1.0156 7.4453 0.03125 3.7695-1.6797 12.664-1.6992 12.75zm2.2031-15.48c-0.26562-2.2617-0.74609-4.4883-1.0195-5.6602-0.035157-0.36328-0.09375-0.75-0.089844-0.83203 0.03125-0.80078 0.003906-1.582-0.0625-2.3867-0.13281-1.5898-0.30859-3.2109-0.082031-4.7969 0.48047 1.3203 0.70312 1.6797 0.80859 1.7969 0.066406 0.20703 0.074218 0.98828 0.078124 1.5664 0.007813 0.73047 0.015626 1.5586 0.10547 2.1328 0.17188 1.1016 1.125 5.625 1.332 6.6016-0.27344 0.29688-0.88281 0.99219-1.0508 1.5-0.003906 0.023438-0.011719 0.050782-0.019531 0.078126zm2.8945-0.72656-0.007812 0.039063 0.003906 0.039062c0.078125 0.88281 0.28906 3.2461 0.28906 3.6094 0 0.22656-0.11328 0.89453-0.39453 1.2031-0.24609 0.26953-0.59375 0.40625-0.95703 0.37891-0.45312-0.035156-1.0312-0.14453-1.4688-0.41797 0.48828-0.46484 0.82812-1.7578 0.89453-2.0234l-0.67578-0.16406c-0.097656 0.39844-0.24219 0.84375-0.39062 1.1836 0.003906-0.13672 0.003906-0.27344 0.003906-0.39844-0.003906-0.30469-0.015625-0.62109-0.035156-0.94141 0.070312-0.22266 0.35938-1.1406 0.52734-1.6367 0.12109-0.35938 0.6875-1.0352 1.0195-1.375l0.12891-0.13281-0.039062-0.17969c-0.011719-0.054688-1.1797-5.5508-1.3633-6.7422-0.082032-0.52344-0.089844-1.3242-0.097657-2.0312-0.015625-1.3867-0.035156-1.875-0.27734-2.043-0.15625-0.1875-0.66016-1.5312-1.0664-2.7305 0.42188-2.7656-0.13672-5.582-1.5117-8.043-0.59766-1.0703-0.70312-1.9961-0.68359-2.6172 0.32812 0.11328 0.63672 0.20312 0.88281 0.23828 0.15234 0.023437 3.7656 0.625 3.8438 4.6758 0.070313 3.4688 0.69531 6.5586 0.90234 7.5742l0.054687 0.26953c0.042969 0.23047 0.17969 0.63672 0.35156 1.1484 0.32031 0.96484 0.76562 2.2852 0.85938 3.2266 0.14844 1.4219-0.78516 7.8242-0.79297 7.8906z"/>
 <path d="m85.68 89.754c-0.050782-0.16406-0.14063-0.36328-0.26172-0.5625-0.078125-0.74609-0.23047-1.2812-0.23438-1.3008l-0.011719 0.003906c0.14453-0.21875 0.24219-0.39844 0.26562-0.44531l0.070312-0.13281-0.046874-0.14062c-0.03125-0.097656-3.2461-9.6445-3.8438-11.664-0.57813-1.9492-2.4062-4.168-2.7344-4.5547-0.17969-0.58594-1.4922-4.793-3.168-9.5977-1.0625-3.0469-3.0078-6.125-4.4453-8.1758 0.039063-0.023438 0.0625-0.039063 0.0625-0.039063 0.12109-0.082031-0.085937-1.3477-0.082031-1.5039 0.03125-0.80078 0.003906-1.582-0.0625-2.3867-0.14844-1.7539-0.35156-3.5469 0-5.2891 0.015625-0.074219 0.03125-0.16016 0.050781-0.25 0.31641-1.4844 0.33594-2.9922 0.09375-4.4609 2.1445-3.0508 3.3516-5.3945 3.3516-5.3984 1.7266-2.8984 3.1094-9.9219 3.1719-10.246 0.019531-0.17188 0.48828-4.2773-0.44531-6.8984-0.84766-2.3789-2.1172-5.9609-2.3047-6.4883 0.023437-0.41797 0.10938-2.1719 0.023437-2.7578-0.10156-0.67188-0.96875-1.9844-1.0469-2.1055-0.16797-0.3125-1.6758-3.0352-3.4258-2.7773-0.43359 0.0625-1.0039 0.9375-1.6914 2.5898l-0.0625 0.14844 1.3789 2.7578c-0.089844-0.035156-0.1875-0.09375-0.32422-0.21094-0.6875-0.60547-1.7188-0.10156-1.7617-0.082032l-0.5 0.25 0.44531 0.33594s1.6172 1.2227 2.5352 1.957c0.70312 0.5625 1.3359 0.86719 1.6367 0.99609 0.37891 1.6055 1.207 5.418 1.1133 6.3906-0.11328 1.1953 0.22266 5.0781 0.29297 5.8711-1.5586 2.0664-2.5273 5.4453-2.75 6.2734-0.69922 0.28516-1.332 0.98828-1.8203 1.6758l-1.3633-0.45312c-0.22656-0.10156-0.42188-0.19141-0.55469-0.25391v-3.543c0.55078-0.99609 0.95703-2.1758 0.95703-3.2148 0-3.0156-1.5625-5.2031-3.7188-5.2031-2.1523 0-3.7188 2.1875-3.7188 5.2031 0 1.0781 0.4375 2.3086 1.0195 3.3242v3.4688c-0.09375 0.046875-0.21094 0.097657-0.34375 0.16016 0-0.035157-0.003906-0.070313-0.003906-0.10547l-1.3164 0.51562c-0.47656-0.65234-1.082-1.2969-1.7461-1.5703-0.22266-0.82812-1.1914-4.207-2.75-6.2734 0.070313-0.79297 0.40625-4.6797 0.29297-5.8711-0.09375-0.97266 0.73828-4.7852 1.1133-6.3906 0.30078-0.12891 0.93359-0.43359 1.6367-0.99609 0.91406-0.73438 2.5352-1.9531 2.5352-1.957l0.44531-0.33594-0.5-0.25c-0.042968-0.019531-1.0781-0.52344-1.7617 0.082032-0.13672 0.11719-0.23438 0.17578-0.32422 0.21094l1.3789-2.7578-0.0625-0.14844c-0.6875-1.6562-1.2578-2.5273-1.6914-2.5898-1.75-0.25391-3.2578 2.4648-3.4062 2.7461-0.097656 0.14844-0.96484 1.4609-1.0664 2.1328-0.085938 0.58594 0 2.3398 0.023437 2.7578-0.1875 0.52734-1.4531 4.1094-2.3047 6.4883-0.93359 2.6211-0.46875 6.7227-0.44141 6.9219 0.058594 0.29688 1.4414 7.3242 3.1562 10.203 0.011719 0.023437 1.1133 2.1641 3.0781 5.0117-0.30859 1.5742-0.3125 3.207 0.027343 4.8047 0.023438 0.11719 0.046875 0.22656 0.066407 0.31641 0.046874 0.23047 0.066406 0.46484 0.078124 0.69922 0.027344 0.5 0.039063 1.0039 0.035157 1.5039-0.003907 1.2539-0.019531 2.5078-0.027344 3.7617-0.007813 1.0508-0.16016 2.0234-0.22266 3.0664l-0.007813 0.14844s0.054688 0.035156 0.15234 0.09375c-1.4844 2.0117-3.4727 5.0469-4.7305 8.3438-1.9961 5.2344-2.6367 8.7656-2.7422 9.3945-0.37109 0.4375-2.1484 2.6172-2.7148 4.5352-0.59766 2.0195-3.8125 11.57-3.8438 11.664l-0.046875 0.14062 0.070313 0.13281c0.023437 0.046875 0.125 0.22656 0.26562 0.44531l-0.015624-0.003907c-0.007813 0.023438-0.16016 0.5625-0.23828 1.3203h0.003906c-0.12891 0.21094-0.22266 0.42578-0.27344 0.60938-0.003906 0.046875-0.46484 4.9023-0.80078 6.1328-0.13281 0.48828-0.078125 0.88672 0.16797 1.1836 0.33984 0.41016 0.96484 0.54688 1.8516 0.54688 0.34766 0 0.73828-0.019531 1.168-0.054688 0.63672-0.050781 1.1211-0.27344 1.4297-0.66016 0.51953-0.64453 0.39453-1.5547 0.33594-1.9922-0.007813-0.0625-0.015625-0.11719-0.019531-0.16016-0.007813-0.097656-0.03125-0.49609-0.0625-1.0312-0.066407-1.2148-0.16797-3.0117-0.24219-3.8008l0.45312-1.4844 0.09375-0.042968 0.058594-0.097657c0.15234-0.26562 3.7422-6.5273 4.7891-8.7773 1-2.1445 2.875-6.1562 3.0625-6.5586l8.7148-11.59 8.8555 11.59c0.19141 0.41016 2.0625 4.4141 3.0625 6.5586 1.0469 2.2461 4.6367 8.5117 4.7891 8.7773l0.058594 0.097657 0.09375 0.042968 0.45312 1.4844c-0.074219 0.78906-0.17578 2.582-0.24219 3.8008-0.03125 0.53516-0.050782 0.93359-0.0625 1.0312-0.003907 0.042969-0.011719 0.09375-0.019532 0.16016-0.058594 0.4375-0.18359 1.3477 0.33594 1.9922 0.3125 0.38672 0.79297 0.60938 1.4297 0.66016 0.42969 0.035157 0.81641 0.054688 1.168 0.054688 0.88281 0 1.5117-0.13672 1.8516-0.54688 0.24609-0.29688 0.30078-0.69531 0.16797-1.1836-0.33203-1.2344-0.78906-6.0859-0.80859-6.2031zm-3.3945-0.76172-0.054687-0.17578c0.058593 0.019532 0.12109 0.039063 0.18359 0.058594-0.042968 0.039062-0.085937 0.074219-0.12891 0.11719zm-10.93-58.543 0.19141-0.054688 0.046875-0.19141c0.011719-0.039063 1.043-4.1211 2.7539-6.3047l0.085938-0.10938-0.011719-0.13672c-0.003906-0.046875-0.42578-4.6406-0.30859-5.8789 0.125-1.3281-1.1172-6.5703-1.1719-6.793l-0.042968-0.18359-0.17969-0.0625c-0.007812-0.003906-0.75781-0.26953-1.6133-0.95312-0.57031-0.45703-1.4102-1.0977-1.9648-1.5234 0.12891 0.003907 0.25781 0.039063 0.35547 0.125 0.53516 0.47266 0.90625 0.45703 1.2383 0.40234l0.078125-0.011718c0.30859-0.039063 1.3242 0.078124 1.4766 0.24609l0.57813-0.38672c-0.3125-0.46875-1.3477-0.54687-1.8555-0.55469l0.039062-0.019531-1.3828-2.7734c0.42969-1.0078 0.93359-1.9219 1.0859-2.0234 1.082-0.15234 2.3203 1.6914 2.7266 2.4453 0.33984 0.50781 0.89844 1.4609 0.95703 1.8516 0.070312 0.47266 0 2.1016-0.035156 2.6875l-0.003906 0.070312 0.023437 0.066406s1.4102 3.9844 2.3281 6.5586c0.87891 2.4648 0.41406 6.543 0.41406 6.5586-0.015624 0.070312-1.418 7.2031-3.0938 10.02-0.011718 0.023438-1.0586 2.0586-2.9414 4.8008-0.28125-1.1484-0.71484-2.2656-1.3008-3.3203-0.47656-0.85156-0.63281-1.6094-0.67188-2.1992 0.51172-0.88672 1.3633-2.1055 2.1992-2.3516zm-8.8711-3.2188c-0.51953-0.84766-0.92188-1.8945-1.0039-2.8281l0.41797 0.050781 0.16797-1.4023c1.043-0.0625 2.6758-0.30859 3.8477-1.1719 0.17969 0.30078 0.49609 0.6875 0.99609 0.97266l0.24219 1.6719 0.30859-0.046876c-0.16406 1.5156-1.1562 3.3164-2.0586 4.0469-0.54688 0.44141-1.3125 0.44141-1.8594 0-0.33594-0.26953-0.68359-0.69531-0.99609-1.1953v-0.097656zm-0.13281 4.1172 0.19531-0.09375v-2.7578c0.1875 0.21875 0.375 0.41797 0.5625 0.57031 0.40234 0.32422 0.88281 0.48828 1.3633 0.48828 0.48047 0 0.96484-0.16016 1.3672-0.48828 0.23047-0.1875 0.46875-0.44531 0.69922-0.73438v2.9258l0.19531 0.09375c0.027344 0.011719 0.33594 0.16406 0.76172 0.35547-0.19531 0.70703-0.71875 1.3047-1.4922 1.6289-0.36719 0.15625-2.5742 0.29297-3.2539-0.12891-0.57422-0.35547-0.99219-0.89062-1.1914-1.4844 0.44531-0.20703 0.76953-0.36328 0.79297-0.375zm-7.1016 2.1445c-1.6641-2.793-3.0703-9.9258-3.0781-9.9727-0.003906-0.039062-0.46875-4.1172 0.41016-6.582 0.91797-2.5742 2.3281-6.5586 2.3281-6.5586l0.023438-0.066406-0.003906-0.070312c-0.035157-0.58594-0.10547-2.2109-0.035157-2.6875 0.058594-0.39063 0.61719-1.3438 0.97266-1.8789 0.38672-0.72656 1.6328-2.5781 2.6641-2.4297 0.19531 0.11719 0.70312 1.0312 1.1328 2.0391l-1.3828 2.7734 0.042969 0.019531c-0.50781 0.007813-1.543 0.082031-1.8555 0.55078l0.57422 0.39062c0.15625-0.17578 1.1719-0.28906 1.4805-0.25l0.078124 0.011719c0.33203 0.054688 0.70313 0.070312 1.2383-0.40234 0.097656-0.085937 0.22656-0.12109 0.35547-0.125-0.55859 0.42578-1.3984 1.0664-1.9648 1.5234-0.85547 0.68359-1.6055 0.95312-1.6133 0.95312l-0.17969 0.0625-0.042969 0.18359c-0.054687 0.22266-1.2969 5.4648-1.1719 6.793 0.11719 1.2383-0.30078 5.832-0.30859 5.8789l-0.011718 0.13672 0.085937 0.10938c1.7109 2.1836 2.7461 6.2617 2.7539 6.3047l0.046874 0.19141 0.19141 0.054687c0.67969 0.19922 1.375 1.0469 1.8828 1.832 0.074219 0.59375 0.015625 1.5273-0.65625 2.6523-0.5625 0.94141-0.98438 1.9453-1.2734 2.9844-1.7109-2.5352-2.6641-4.3828-2.6836-4.4219zm-8.2891 55.5c-0.039063-0.042969-0.085938-0.078126-0.12891-0.11719 0.0625-0.019531 0.125-0.039062 0.18359-0.058594zm-0.13281 7.543c-0.1875 0.23047-0.50391 0.36719-0.94531 0.40234-0.57031 0.046875-2.0859 0.16797-2.4258-0.24219-0.035156-0.042968-0.14062-0.16797-0.03125-0.55859 0.35156-1.2891 0.80469-6.0508 0.80859-6.1836 0.003906-0.011719 0.28125-0.91406 0.9375-0.91406l0.14062 0.011719c0.3125 0.058594 0.57812 0.125 0.78906 0.1875 0.31641 0.09375 0.54297 0.36328 0.57813 0.69141 0.070312 0.69531 0.18359 2.6992 0.25 3.8945 0.03125 0.54297 0.054687 0.94922 0.0625 1.0508 0.003906 0.050781 0.011718 0.11719 0.023437 0.19531 0.050781 0.36719 0.14453 1.0508-0.1875 1.4648zm8.4336-23.898-0.039063 0.0625s-2.0234 4.332-3.0781 6.5938c-0.96484 2.0664-4.2305 7.793-4.7031 8.625-0.70312 0.29688-1.5703 0.54297-1.8984 0.48047-0.019531-0.003907-0.039063-0.007813-0.0625-0.011719-0.30469-0.11719-0.73047-0.6875-0.98438-1.125 0.41016-1.2148 3.2422-9.6484 3.8008-11.543 0.57812-1.9531 2.6211-4.332 2.6406-4.3555l0.066406-0.078125 0.015625-0.10156c0.003907-0.035156 0.55078-3.6641 2.7188-9.3477 1.2539-3.2891 3.2539-6.3125 4.7188-8.2812 0.96094 0.41406 2.832 0.99219 5.6992 0.97266v6.2891zm21.84 6.6523c-1.0508-2.2617-3.0781-6.5938-3.0781-6.5938l-9.1719-12.016v-6.1602c2.9648 0.019531 4.8633-0.60156 5.793-1.0156 1.418 2.0078 3.3594 5.0703 4.4141 8.0859 1.793 5.1367 3.168 9.5938 3.1797 9.6406l0.070313 0.125c0.019531 0.023437 2.0625 2.3984 2.6406 4.3555 0.5625 1.8945 3.3945 10.328 3.8008 11.543-0.25391 0.4375-0.67969 1.0078-0.98438 1.125-0.023437 0.003906-0.046875 0.011719-0.070313 0.015625-0.33594 0.058594-1.1914-0.1875-1.8906-0.48047-0.47656-0.83203-3.7422-6.5547-4.7031-8.625zm8.6914 17.406c-0.33984 0.41016-1.8555 0.28906-2.4258 0.24219-0.44141-0.035156-0.75781-0.17188-0.94531-0.40234-0.33203-0.41016-0.23828-1.0938-0.1875-1.4609 0.011719-0.078125 0.019531-0.14453 0.023437-0.19531 0.007813-0.10156 0.03125-0.50781 0.0625-1.0508 0.066407-1.1953 0.17969-3.1992 0.25-3.8945 0.035157-0.32422 0.26172-0.59375 0.57813-0.69141 0.21484-0.0625 0.47656-0.12891 0.78906-0.1875 0.6875-0.12891 1.0117 0.69922 1.0703 0.87109 0.046876 0.49609 0.48047 4.9688 0.82031 6.2109 0.10156 0.39062-0.003906 0.51562-0.035156 0.55859z"/>
<text x="0.0" y="117.5" font-size="5.0" font-weight="bold" font-family="Arbeit Regular, Helvetica, Arial-Unicode, Arial, Sans-serif" fill="#000000">Created by ICONGALAXY</text><text x="0.0" y="122.5" font-size="5.0" font-weight="bold" font-family="Arbeit Regular, Helvetica, Arial-Unicode, Arial, Sans-serif" fill="#000000">from Noun Project</text></svg>