<svg xmlns="http://www.w3.org/2000/svg" version="1.1" viewBox="-5.0 -10.0 110.0 135.0">
 <path d="m85.148 35.91 0.33203 0.09375 0.12891-2.457-3.3633-2.9531-4.4727 1.0273 0.007812-0.011719c-4.2305-2.3398-8.9766-2.5391-9.5195-2.5547-0.57422-0.13672-7.1836-1.75-10.035-3.7344-2.4102-1.6797-5.207-1.5117-6.4922-1.3125l0.4375-1.332c1.0078 0.30859 1.7305 0.33984 1.9453 0.33984h0.0625l0.23047-0.007813 0.10938-0.20703c2.3633-4.5117 2.0508-10.664 1.8906-12.504 0.48438 0.070313 0.95703 0.1875 1.4062 0.375 0 0-4.8906-6.4375-9.2227-6.375s-6.9297 4.7031-6.5 7.6758c0.43359 2.9688 1.6094 6.8711 1.6094 6.8711s0.074219-0.0625 0.19531-0.16797c-0.19141 0.91797-0.51563 1.9141-1.0703 2.7422-1.2383 0.14062-7.8047 1.2422-12.645 8.8438-0.57031 0.89844-1.1719 1.7422-1.7891 2.543-3.543 3.6289-8.1875 7.9453-11.457 10.047 0 0 0.125 0.11719 0.38281 0.29297-0.64844 0.74609-1.1836 1.582-1.5508 2.5078-0.75 1.8828-1.4414 4.8008-0.48047 8.0234 1.6211 5.4492 16.09 7.7422 19.289 8.1875-0.91016 1.6016-3.4727 6.4609-3.1523 9.8711 0.36328 3.8633-1.2188 13.723-1.2344 13.824l-0.019531 0.125 0.054687 0.11328c0.019532 0.035156 0.15625 0.3125 0.50781 0.66797l-0.082031-0.023438c-0.039063 0.13672-0.94922 3.3906-0.75391 4.8945l0.027343 0.22266 0.20703 0.089844c0.10938 0.046874 2.707 1.1836 4.5859 1.5586 0.41797 0.082031 1.0547 0.32422 1.8633 0.63281 2.0117 0.76172 5.1055 1.9375 8.4766 1.9375 0.84766 0 1.7148-0.074219 2.582-0.25l0.14844-0.0625c0.035157-0.023438 0.83203-0.58984 0.83984-1.4727 0.003906-0.62109-0.37109-1.2031-1.1133-1.7344-0.80078-0.57031-2.1055-1.3008-3.4844-2.0742-1.8555-1.0391-3.9336-2.2031-4.6992-2.9648-0.019531-2.2734 0.0625-9.3008 1.7227-14.027 0.21875-0.62109 0.45703-1.2891 0.70703-1.9961 2.0586-5.7773 3.7969-10.902 4.0859-13.984 1.668 0.23437 3.8828-0.035157 5.1406-0.23438-2.4219 3.7188-2.7188 8.4297-2.6641 11.016 0.058593 3.0078-1.6406 9.9141-1.6602 9.9844l-0.074218 0.30078 0.12109 0.066406c-0.26953 0.6875-1.2891 3.4258-1.0312 5.1133l0.03125 0.19531 0.17578 0.09375c0.085937 0.046875 2.1094 1.1133 4.7227 1.207 0.87891 0.03125 2.0859 0.30859 3.4805 0.625 1.9102 0.4375 4.1836 0.95703 6.2812 0.95703 0.61719 0 1.2148-0.042968 1.7891-0.14844 1.5-0.27344 2.2812-0.84375 2.332-1.6914 0.066406-1.1523-1.4219-2.3242-2.5195-2.6562-1.3203-0.39844-5.2148-1.8516-6.3945-3.0273-1.2812-2.4844 2.1172-13.145 3.957-18.906 0.73438-2.2969 1.3125-4.1133 1.4609-4.9141 0.54297-2.8945-0.36328-3.9648-0.59375-4.1836-4.3438-5.5234-15.312-6.7812-18.996-7.0508 1.3711-1.2656 2.1953-1.7422 2.9062-2.1758 1.0781-0.66016 2.0898-1.4297 3.082-2.2109 0.92188-0.72656 1.8203-1.4766 2.707-2.2422 0.10156-0.089844 0.60547-0.64062 0.91406-0.87891 2.6094 0.49219 4.5938 0.90625 4.6289 0.91406 1.082 0.38672 4.8242 1.0117 8.0469 1.0117 0.875 0 1.7148-0.046875 2.4531-0.15625 3.9414-0.58594 8.7656-2.0195 9.6602-2.2891 0.80469 0.34766 1.6875 0.39453 2.5273 0.29687 0.19141 0.29688 0.80859 0.97656 2.4258 0.73047 1.1836-0.17969 2.1602-0.37891 2.668-0.49219l0.44531 1.5547 0.80859-1.2148zm-27.375-9.9414c3.0898 2.1523 10.055 3.7969 10.348 3.8672l0.082031 0.011718c0.046875 0 4.3672 0.10547 8.3867 2.043l-0.15234 0.035156c-0.57031-0.03125-5.3711-0.28516-8.8555-0.46094-3.6523-0.18359-11.582-1.2852-11.695-1.3008-0.011719 0-0.52734-0.035156-1.3906-0.24609 0.35156-2.2461-1.3164-4.5625-1.8281-5.2109 1.3281-0.085937 3.3516 0.042969 5.1055 1.2617zm-14.695-3.7812 0.1875-0.011719 0.10938-0.15234c0.92969-1.2891 1.3203-2.9453 1.4805-4.207 1.1914-1.082 3.0273-2.8555 4.168-4.4258 1.375-1.8945 4.0547-3.207 6.5703-3.1602 0.13672 1.5547 0.49219 7.6094-1.6758 11.973-0.80078-0.058594-3.5938-0.48438-6.3281-3.5703l-0.59766 0.53125c1.5703 1.7695 3.1484 2.7227 4.4258 3.2383l-1.5195 4.625 0.76172 0.25 0.59375-1.8047c1.6914 2.1641 1.9844 3.3984 1.9219 4.0586-1.3008-0.44141-2.9648-1.1914-4.7812-2.4531-0.14453-0.097656-0.28906-0.18359-0.43359-0.27734-1.2578-3.207-5.5859-3.9297-7.1797-4.0859 1.3672-0.44141 2.2734-0.52344 2.2969-0.52734zm3.9688 70.707c0.35547 0.25391 0.77734 0.64453 0.77734 1.0742 0 0.37109-0.30859 0.67188-0.4375 0.78125-4.0664 0.78125-8.1055-0.75391-10.527-1.6719-0.83984-0.32031-1.5039-0.57031-1.9883-0.66797-1.4883-0.29688-3.5391-1.1328-4.2031-1.4141-0.050781-1.1562 0.45703-3.2422 0.66406-4.0312 0.98047 0.71094 2.7383 1.4805 5.7891 1.4805 0.57031 0 1.1875-0.027343 1.8555-0.085937l0.375-0.035156v-0.054688c1.0234 0.76953 2.6719 1.6953 4.2852 2.5977 1.3594 0.76172 2.6445 1.4844 3.4102 2.0273zm-6.043-21.98c-0.25 0.70703-0.49219 1.375-0.70703 1.9961-1.832 5.2148-1.8008 12.867-1.7656 14.68-5.5195 0.40234-7.2148-1.6055-7.5273-2.0625 0.20312-1.2891 1.5703-10.129 1.2188-13.883-0.35547-3.7812 3.3086-9.8438 3.3477-9.9023l0.32422-0.53125-0.61719-0.074219c-0.17578-0.019531-17.582-2.1992-19.223-7.6992-0.89453-3.0039-0.24219-5.7344 0.45703-7.4961 0.35156-0.88672 0.875-1.6836 1.5156-2.3867 0.91406 0.47266 2.4531 1.0508 4.793 1.3047 2.5859 0.28125 5.1719 0.64062 7.6406 1.4414 1.3555 0.53516 2.7695 1.1875 4.1602 1.8984 0.11328 0.078125 0.22656 0.15234 0.33203 0.23828 0.31641 0.25391 0.63672 0.39062 0.99219 0.46484 4.293 2.332 8.1016 5.0391 8.9141 6.2383 0.21484 0.31641 0.28125 0.88281 0.23438 1.6211l-0.082031 0.26953c0.015625 0.003906 0.039062 0.007812 0.054687 0.011719-0.30859 3.3242-2.5781 9.7031-4.0625 13.871zm22.684 13.723c-0.023438 0.41406-0.63281 0.76172-1.6758 0.95312-2.3633 0.42969-5.3477-0.25-7.7461-0.80078-1.4375-0.32812-2.6758-0.61328-3.6289-0.64453-1.9922-0.070312-3.6523-0.77344-4.1914-1.0234-0.11719-1.4492 0.71484-3.7383 0.98047-4.4336 2.0117 0.92969 4.1875 1.1523 5.7461 1.1523 0.97656 0 1.707-0.082032 2.0117-0.125 1.793 1.5625 6.5 3.0586 6.5508 3.0742 0.88672 0.26563 1.9922 1.2109 1.9531 1.8477zm-3.8438-33.074c0.007812 0.007812 0.85938 0.82031 0.36328 3.4609-0.14062 0.75391-0.71484 2.5469-1.4375 4.8203-2.5742 8.0664-4.9805 16.129-4.0703 19.117-1.2344 0.11328-4.4609 0.24609-7.1914-1.1133 0.33594-1.4023 1.6641-7.1094 1.6094-9.8867-0.042969-2.1523 0.17187-7.5625 3.0742-11.32l0.66016-0.85156-1.0547 0.21484c-0.039063 0.007813-3.6641 0.73828-5.9062 0.39453 0.003906-0.74219-0.10547-1.3281-0.36328-1.7109-0.82031-1.2148-4.3359-3.7773-8.4414-6.082 1.457-1.7305 2.6055-2.9883 3.5391-3.9141 2.5039 0.15234 14.758 1.1719 19.219 6.8711zm16.152-16.441-0.14062-0.066406-0.14844 0.046874c-0.054687 0.015626-5.4062 1.668-9.6875 2.3086-3.3555 0.5-8.9297-0.39453-10.164-0.83203-0.57812-0.12109-14.223-2.9766-17.133-2.5117l0.12891 0.78906c0.66016-0.10547 1.9609-0.019531 3.5547 0.17188-0.62891 0.64062-4.2578 4.0352-7.8867 0.82812-2.6797-2.3672-1.4102-6.5586 1.2852-8.918 1.0625-0.92969 2.8906-1.4531 4.6172-1.5586 0.94531 0.046875 2.1875 0.18359 3.5234 0.54688l2.2188 0.80469c0.60156 0.27734 1.1992 0.60547 1.7734 1.0078 4.3125 3 7.7656 3.2188 7.8789 3.2227 0.078125 0.011718 8.043 1.1172 11.73 1.3047 3.7109 0.1875 8.9102 0.46484 8.9102 0.46484l0.054688 0.003906 5.5156-1.2656 2.7656 2.4297-0.054688 1.0703-2.9336-0.83984-0.14844 0.089844c-0.039062 0.011719-3.3789 2-5.6602 0.90234zm4.6328 1.0195c-0.6875 0.10156-1.0977 0.003906-1.3359-0.11719 1.2227-0.30469 2.2422-0.82813 2.6211-1.0391l1.9023 0.54297-0.21094 0.050781c-0.015625 0.003906-1.3047 0.3125-2.9766 0.5625zm3.3711-0.55859 0.35938 0.10156-0.21875 0.39453z"/>
<text x="0.0" y="117.5" font-size="5.0" font-weight="bold" font-family="Arbeit Regular, Helvetica, Arial-Unicode, Arial, Sans-serif" fill="#000000">Created by ICONGALAXY</text><text x="0.0" y="122.5" font-size="5.0" font-weight="bold" font-family="Arbeit Regular, Helvetica, Arial-Unicode, Arial, Sans-serif" fill="#000000">from Noun Project</text></svg>