<svg xmlns="http://www.w3.org/2000/svg" xmlns:xlink="http://www.w3.org/1999/xlink" version="1.1" x="0px" y="0px" viewBox="-8.075000000000001 -16.269999690000002 177.65 219.64499581500002" style="enable-background:new 0 0 161.5 162.6999969;" xml:space="preserve"><g><path d="M156.9559937,95.8805466c-0.0514374-0.4050674-0.1182251-0.7601852-0.2193756-1.0630875   c-0.0513763-0.1518631-0.1109467-0.2917862-0.1938629-0.4233398c-0.0831146-0.1297684-0.1925049-0.2592926-0.3616333-0.3517761   c-0.1418304-0.0774231-0.3042755-0.1141052-0.4540558-0.1132736c-0.0048981,0-0.008667,0.0023956-0.013504,0.0023956   c-0.0207214-0.272438-0.07724-0.5252686-0.1909943-0.7355728c-0.207489-0.38797-0.5517883-0.6197815-0.8716583-0.7359238   c-0.3230438-0.1186523-0.6347809-0.1440964-0.8835602-0.1448135c-0.2996063,0.0002365-0.5104523,0.0406265-0.5318909,0.0444489   c-0.1822205,0.0351257-0.3291321,0.1653671-0.3857727,0.3420944c-0.0002441,0.0007172-0.0845947,0.2638245-0.2308502,0.6862106   c-0.2192535,0.6332855-0.5756836,1.6178665-0.9794464,2.5636139c-0.3992615,0.9425125-0.8649597,1.859581-1.2271881,2.2930832   c-0.576355,0.6998444-1.9608002,2.4305038-3.2853088,4.060791c-0.66185,0.8145447-1.3082123,1.6032867-1.8275146,2.2213974   c-0.2595215,0.3089905-0.487442,0.5753326-0.6678162,0.7789383c-0.1774902,0.2014542-0.3197479,0.3492584-0.3613281,0.3842697   c-0.0114746,0.0181656-0.2272644,0.1425476-0.532135,0.2475815c-0.9314117,0.3373108-2.7645264,0.7107086-4.6752014,0.7084427   c-0.978302,0.0001144-1.9800262-0.0959473-2.8992462-0.3312225c-0.3505096-0.0865097-1.1286163-0.4226303-2.1382294-0.9377365   c-3.560257-1.8076096-10.2317886-5.8243103-16.2478104-9.8044434c-3.0089417-1.9904251-5.8574677-3.9735641-8.0742035-5.665863   c-1.1080704-0.8457336-2.0584106-1.6193008-2.787529-2.2794724c-0.728157-0.656105-1.2381897-1.2156601-1.4414368-1.5582352   c-1.0363159-1.7085571-2.3546219-3.0006943-3.5410767-3.932579c1.0367355-0.0789795,1.9707718-0.4008789,2.7704391-0.8683167   c2.1773682-1.2826996,3.4699249-3.4718323,3.9273224-4.346962l2.2755203,1.2118454   c-0.4617615,0.3042145-0.8909607,0.6225281-1.2774429,0.9462204c-0.7243347,0.6077194-1.3084488,1.2295303-1.7242661,1.8083267   c-0.41008,0.585968-0.6793442,1.1006012-0.6923141,1.6533508c0,0.1155472,0.0148773,0.2357483,0.0532913,0.3554764   c0.097084,0.2829514,0.2606049,0.4920502,0.4708481,0.7427368c0.7318573,0.8450165,2.1512527,1.9971161,3.4159088,2.9765549   c0.8647919,0.6679382,1.6394882,1.2357407,2.0477829,1.5318375l-0.2306137,0.8482437l-0.0028076,0.0108719   c-0.0307083,0.1228333-0.0458221,0.2471008-0.0457611,0.3694534c0.0016098,0.8229141,0.6650085,1.5070953,1.5109787,1.5103226   l0.1689529-0.0089569c1.0891953-0.1211624,2.578125-0.2661057,3.4285812-0.2762604l0.0430145-0.0005951   c0.6475677,0.0031052,0.9709015,0.1815033,1.1542511,0.3259583c0.0911713,0.0736084,0.146492,0.1432724,0.1770248,0.1885529   l0.0276566,0.0457687l0.0014954,0.0028687l0.0037613-0.0016785c0.0399704,0.0938034,0.1001968,0.1748123,0.1843109,0.2333603   c0.511528,0.35392,1.1634521,0.6208572,1.8689651,0.8484802c2.1086044,0.673912,4.7141495,0.9514847,4.732132,0.9548264   c0.0132675,0.0014343,0.0261688-0.0031052,0.0394897-0.0026245c0.0116501,0.0003586,0.0217514,0.0059738,0.033577,0.0057373   c0.0386581-0.0022736,1.9333115-0.0544891,4.21595-0.939537c2.2775421-0.88134,4.9683533-2.6263351,6.4507141-5.9958878   c0.9340363-2.122345,1.4501038-4.1421585,1.4504547-6.0723648c0.0021515-2.0165939-0.572876-3.9292297-1.7859192-5.6880875   c-0.8421478-1.2231979-1.9924469-2.3719559-3.4544983-3.4600067c0.0914612-0.0792236,0.1881256-0.1701508,0.2889099-0.2858124   c0.3364258-0.383316,0.6798859-1.0062103,0.6777344-1.8389206c-0.0001068-0.8110809-0.3156738-1.7783356-1.1310577-2.9115524   c-1.667038-2.3113708-4.4390869-3.4024124-7.0438614-3.4038467c-1.3802032,0.0005989-2.7248611,0.3057709-3.8570023,0.9280624   c-1.8998566,1.0476685-2.8086243,2.8832397-2.8093948,4.4953613c0.0001755,0.3386307,0.0517349,0.6644745,0.1339417,0.9782486   c-0.8661652-0.5577698-1.9817581-1.2904663-3.0844498-2.0586548c-1.3488388-0.9384537-2.6643982-1.9267349-3.3645401-2.6182098   c-0.032196-0.0316696-0.0715714-0.0491104-0.1087875-0.0710983c-0.1406403-1.1016769-0.6458969-1.993412-1.1395569-2.6244278   c-0.5822601-0.7430916-1.1539536-1.1481552-1.1798782-1.1672745c-0.0326233-0.0230598-0.069664-0.0321426-0.1051483-0.0464821   c-0.0171509-0.0289154-0.0270691-0.0580673-0.044754-0.0871048c-1.0193481-1.6718712-2.3879623-2.6525078-3.4949493-3.2105141   c-0.6919556-0.3489037-1.2840195-0.5360222-1.6399689-0.6291008c-0.3917999-0.3544006-1.3325882-1.1794662-2.5884018-2.1077652   c-1.66745-1.2306023-3.8794708-2.6439018-6.1313324-3.3683548c-2.1714478-0.6964951-5.0137024-1.5349388-7.700325-2.2014427   c-2.6922379-0.6655464-5.2036285-1.1636887-6.8104935-1.1670341c-1.5188141,0-4.1660614,0.0407448-7.0685349,0.3494987   c-2.9036713,0.31007-6.0608902,0.8824196-8.6280823,1.9748917c-2.4682007,1.0520897-4.7579994,1.8425026-6.4283791,2.3688431   c-0.7306061,0.2302551-1.3331833,0.4069786-1.7901039,0.5362625c-0.0836411,0.0027466-0.1603546,0.0253296-0.2297173,0.0647621   c-0.4465218,0.1240273-0.6929054,0.1856842-0.6929054,0.1856842l-0.0142212,0.0039444   c-0.0199547,0.0058517-1.9420319,0.54319-4.2892494,1.7060432c-2.3453636,1.1656036-5.127037,2.9475212-6.8441925,5.5154305   c-1.6052589,2.4112625-2.2840652,5.3206673-2.2853813,7.9624214c0.0003586,1.4824829,0.2143021,2.882637,0.6138687,4.0754852   c0.4014778,1.1912918,0.9838028,2.183876,1.773613,2.8285141c0.0878258,0.0710907,0.4667206,0.9643784,0.7334785,1.4156876   c0.4001007,0.6770172,1.0145683,1.7455978,1.5785484,2.8429718c0.5638618,1.0937881,1.0774803,2.2315521,1.2693787,2.9800186   c0.1666832,0.6316147,0.6368103,1.7361603,1.2826385,3.150177c1.932415,4.2179108,5.4037132,10.9608383,6.2624092,12.6171799   l0.0061531,0.011467c0.0016136,0.0028687,0.9821892,1.7802505,2.1191139,3.6854782   c0.5687637,0.9529114,1.1761169,1.9373703,1.7236099,2.7528763c0.1605339,0.2389755,0.3135948,0.4573975,0.461998,0.6630402   c-2.2150002-0.328949-5.4945183-0.6025772-9.2404556-0.6031799c-2.6793327,0-5.5831833,0.1404037-8.4702415,0.5050812   c-5.8995247,0.746315-10.4996834,1.5585938-12.9784527,1.5548935c-0.4689293,0.0002365-0.8582211-0.0292816-1.1503086-0.0856781   c-0.3556557-0.0683441-0.6762409-0.256897-1.0173779-0.5468903c-0.511467-0.4311142-1.0251446-1.0789795-1.6960087-1.646904   c-0.6669788-0.5669632-1.541748-1.0483856-2.6960583-1.0439606c-0.3618088-0.0001221-0.7488899,0.0450439-1.1636314,0.1423111   c-0.7126236,0.1664429-1.3222504,0.536377-1.876255,0.9911499c-0.8313942,0.6847839-1.5635567,1.5671997-2.3948917,2.407196   c-0.8303185,0.8413162-1.749239,1.6384125-2.9226675,2.1820831c-0.0016136,0.0007172-2.0832682,0.9615173-4.34266,2.0774155   c-1.1299953,0.5581284-2.3039618,1.1548462-3.2886591,1.6921844c-0.4925284,0.2687225-0.9375601,0.5226364-1.3091664,0.7516937   c-0.3728018,0.2307358-0.6676373,0.430275-0.8842092,0.6200256c-0.6138082,0.5409164-1.2402816,0.7593384-1.8284001,0.989357   c-0.2932229,0.1166153-0.5807099,0.2326431-0.8475261,0.4306335c-0.2666965,0.1934509-0.499279,0.5042343-0.5819049,0.8846817   c-0.0206115,0.0892639-0.03262,0.180069-0.0326798,0.2729111c-0.0015533,0.1797104,0.0509615,0.3699341,0.1543779,0.5196533   c0.157007,0.2282257,0.3803892,0.33815,0.5762293,0.3958664c0.2000225,0.0580673,0.3953848,0.0728836,0.585609,0.0734787   c0.378119-0.0016708,0.7302489-0.0636826,0.9610395-0.112793c0.3910232-0.0236588,0.936305-0.0567551,1.5975499-0.0966644   c4.1004586-0.2475815,12.5295963-0.7485886,14.1215305-0.7881393c3.2176228-0.0835266,9.0861397-1.2154312,9.556324-1.3054047   c0.2531357-0.0060959,0.527956-0.0093231,0.8284073-0.0093231c3.7180996-0.0003586,10.7357883,0.4427032,16.8063602,0.8863602   c3.036541,0.2217712,5.839241,0.4436569,7.8825417,0.6099854c1.9808655,0.1611862,3.2335739,0.2692032,3.3118973,0.2758942   c0.4179688,0.1111298,0.9504662,0.1858063,1.6097984,0.2370682c0.6961937,0.0532913,1.5159988,0.0789795,2.4106636,0.0789795   c2.1549606-0.0001221,4.7422256-0.1493607,7.0219955-0.4384003c1.1401443-0.1448212,2.2026901-0.3242874,3.1016541-0.5410385   c0.9009399-0.2198563,1.6311264-0.4637299,2.1534729-0.795311c0.6274872-0.4122314,1.0029755-1.1283188,1.2557526-2.0186234   c0.2496109-0.8954391,0.3670044-1.994606,0.3676071-3.242897c-0.0001831-1.4922791-0.1707535-3.1964111-0.511528-4.9943466   c-0.4684525-2.4695663-3.0936584-15.3773422-3.7614746-18.6579971c3.0750122,0.9562607,5.2940826,1.5724564,5.8932495,1.7362747   c-0.0393066,0.065361-0.0846558,0.1365738-0.1230087,0.2009811c-0.860611,1.4516525-1.4719086,2.6412735-1.7092133,3.5100708   L76.9589462,92.68927c0.0071716,0.0238953,0.4384613,1.8266068,1.3954391,3.5529633   c0.8998642,1.6184616,1.9339066,3.9602966,2.8024063,5.7281189c0.4716721,0.9564972,1.4792557,2.5253754,2.7737808,4.4246292   c3.8571854,5.6539154,10.217453,14.1099396,11.6872101,16.0543594c0.0949326,0.184967,0.444313,0.8083344,1.1757584,1.504715   c0.8457336,0.8065414,2.2102814,1.7030563,4.2381058,2.0881653c3.5254898,0.671402,5.9805374,0.7853928,6.4264679,0.8013992   c0.1957779,0.0658417,0.7920227,0.2614441,1.5569229,0.4601517c0.9336777,0.2412415,2.0972519,0.4879837,3.1018982,0.4898987   c0.4412689-0.0013199,0.8555908-0.0454102,1.230484-0.1908264c0.3695221-0.1388397,0.7273865-0.4290771,0.8628235-0.8624573   c0.0803528-0.249733-0.0458832-0.5123672-0.2835464-0.6148834c1.8369446,0.1785126,3.772049,0.3524857,4.5128632,0.3537979   c0.4906235,0.0014343,0.8905487-0.1216354,1.1641159-0.3871384c0.1099319-0.1069412,0.180191-0.2269058,0.2329407-0.3473511   c0.2095261,0.0219879,0.4082947,0.0354919,0.5897903,0.0354919c0.946701,0.0062103,1.5692978-0.3029022,1.9009933-0.7103577   c0.3306198-0.4039841,0.3487244-0.809288,0.3497391-0.923996l-0.0001831-0.0191193   c-0.0054321-0.2365875-0.173912-0.437561-0.405899-0.4841614l-1.649765-0.3315811   c0.08992-0.1997833,0.1014481-0.3811646,0.1029434-0.4976654l-0.0106964-0.1586761   c-0.0328598-0.2143631-0.1974564-0.3833237-0.4109192-0.4213181c-0.001915-0.0002365-0.7491302-0.1337051-1.9036789-0.3411331   c-3.4586868-0.6211014-10.585289-1.9090576-12.0256577-2.2245026c-0.915329-0.1988297-2.1737747-0.6803665-3.1831512-1.1107635   c-0.5059052-0.2151947-0.9523773-0.4176025-1.2715225-0.5658875c-0.1832352-0.0850754-0.3170624-0.1487656-0.4033966-0.1903458   c-0.0546646-0.0712128-0.137825-0.1799469-0.2514572-0.3301468c-0.4479599-0.5915833-1.3180695-1.7594528-2.3145981-3.1835098   c1.0557327,0.4117584,2.661171,0.8199234,5.027565,0.9348755c0.1205063,0.004303,0.3628235,0.0540085,0.6481628,0.1340637   c0.4318848,0.1190109,0.9748383,0.2985992,1.534874,0.4508286c0.5620728,0.1513901,1.1393204,0.2797165,1.687767,0.2812729   c0.2922668-0.0004807,0.5813675-0.0368042,0.8566055-0.1506729c0.2739868-0.1114807,0.531601-0.3177185,0.6918335-0.6024628   c0.1370544-0.2398071,0.0565796-0.5449829-0.1809616-0.6858521c-0.0017929-0.0010757-0.2908325-0.1721878-0.7236786-0.4200058   c1.3547516,0.1505585,2.9994965,0.2916718,4.430481,0.2922668c0.8329468-0.0007172,1.5919342-0.0459976,2.2090302-0.1776733   c0.3093567-0.067276,0.5849533-0.1541443,0.8287659-0.2904739c0.239151-0.1341858,0.4700623-0.3377914,0.5737228-0.644516   c0.0457001-0.1371765,0.0313034-0.2845001-0.0402069-0.410202c-0.0714569-0.1255798-0.1908875-0.2134094-0.3320618-0.2439957   l-0.491806-0.1069412c0.2647781,0.0087204,0.4951553-0.184845,0.520607-0.4521408   c0.0264664-0.2779312-0.1773834-0.5247879-0.455307-0.5512009c0,0-1.9275818-0.1837692-3.9012146-0.3673019   c-0.986908-0.0918884-1.9852295-0.1836548-2.7608261-0.252594c-0.3877945-0.0344162-0.7197876-0.0632095-0.9678497-0.0834045   c-0.2383728-0.0188828-0.3710632-0.0295105-0.4684525-0.0320206v-0.0002441   c-0.0042953,0.0011978-0.1702652-0.0284348-0.3803864-0.0764694c-0.759346-0.1696701-2.3538437-0.5756912-3.8796463-0.9830246   c-1.5226288-0.4060211-3.0023041-0.8217163-3.4899368-0.9931793l-0.0065689-0.0031128   c-0.0667953-0.027359-0.3127594-0.211731-0.5965424-0.4859543c-1.0222168-0.9697571-2.7735443-3.0543442-4.2460556-4.8762894   c-0.7379532-0.9124069-1.4100723-1.7624435-1.8974609-2.3838959c-0.4873886-0.621582-0.7884979-1.0129013-0.7892761-1.013855   c-0.0363846-0.0473175-0.0820313-0.0819702-0.1294632-0.1125565c-0.4287872-1.0825577-0.7870712-1.9775238-1.0317764-2.5352936   c-0.5284958-1.2022858-0.874649-2.5497437-1.0838165-3.590126c-0.1005478-0.4994583-0.1686554-0.92173-0.2136459-1.2315598   c5.4230728,2.6552582,10.0952148,7.1213455,15.3233414,11.3132172c0.8180084,0.6520386,2.1687012,1.3803177,3.9355621,2.2121887   c5.2885895,2.4834366,14.2656937,5.7962265,22.2937698,9.0370941c1.2326355,0.4974289,3.1211395,1.2491226,4.8761139,2.0651016   c0.8769226,0.407692,1.7200928,0.8315201,2.4246979,1.2427979c0.7038422,0.4090042,1.2713013,0.8146667,1.5756378,1.1388321   c0.838562,0.8819427,1.9799652,1.3370667,3.137146,1.5845261c1.1599274,0.2465057,2.3542023,0.2859344,3.3477478,0.286293   c0.5845795,0.0015564,1.1103363-0.1700287,1.5431824-0.4542923c0.6517944-0.427887,1.100296-1.0768204,1.4424438-1.7725983   c0.3413239-0.6979294,0.5772552-1.455719,0.7649689-2.1425323c0.2105865-0.7845612,0.7678223-1.6897964,1.4941254-2.7047272   c0.7243958-1.016716,1.60849-2.1469498,2.4398804-3.4351501c0.8488464-1.3166351,1.4539948-2.7815475,1.8527832-4.0708237   c0.3974152-1.2948837,0.5904388-2.3891525,0.5934906-3.0551758c-0.000412-0.2641907,0.0377655-1.0111084,0.0762939-1.9463348   c0.0384674-0.9390564,0.0771332-2.0821991,0.0771332-3.1946259   C157.0897064,97.6931763,157.0573273,96.6885223,156.9559937,95.8805466z M102.3909378,77.6798248l0.0896759-0.0660782   c1.3468094-0.5351868,2.4709473-1.3150787,3.4153214-2.1968994c0.0439682,0.053772,0.098877,0.1001282,0.1641159,0.134903   l0.6938019,0.3695755c-0.3339691,0.3135376-0.9329605,0.8219528-1.7714005,1.3126907   c-0.932785,0.5460587-2.1519775,1.0600967-3.6120529,1.2627487c0.2530746-0.2129288,0.486908-0.4044724,0.6686478-0.54702   C102.188652,77.8324127,102.3087921,77.7412415,102.3909378,77.6798248z M117.0919266,68.763298   c1.3802643,0.924118,2.5968246,1.6914673,3.0776443,1.9920959c-0.7350845,0.9953308-1.1632156,2.1036987-1.4060745,3.0783615   c-0.3094101,1.2480469-0.3346252,2.2822113-0.3349838,2.6103287l0.0012589,0.1086121   c0.0017929,0.05616,0.0194168,0.1068268,0.0369797,0.1572495c-0.137352,0.1358566-0.2614975,0.2812729-0.3660507,0.4385147   c-0.2153168,0.3236923-0.3545151,0.7010345-0.3545151,1.1039505l0.0052567,0.1340637   c0.0232391,0.2969284,0.2829437,0.5189362,0.5799942,0.495636c0.2970428-0.0233002,0.5189285-0.2830658,0.4956894-0.5799942   l-0.0019684-0.0497055c0-0.1513901,0.0516739-0.3215408,0.1745071-0.5073471   c0.1819229-0.2774506,0.526825-0.5684052,0.9671326-0.7769089c0.439476-0.2100601,0.96875-0.3401794,1.5047684-0.3396988   c0.3901291,0.0001144,0.7834244,0.067749,1.15802,0.2174606c0.7142334,0.2836685,1.2383118,0.5825043,1.548439,0.8701096   c0.311142,0.2950211,0.4128876,0.5255127,0.4182663,0.8217163c0.0011368,0.2492523-0.0942764,0.5853729-0.3525467,1.0150528   c-0.1945877,0.3204651-0.4340439,0.5013657-0.7169266,0.6233673c-0.2816925,0.1199646-0.6098099,0.1663284-0.9214325,0.1658478   c-0.2933426,0.0001221-0.5689392-0.0399094-0.7662735-0.0802994c-0.0986938-0.0200729-0.1779175-0.0401459-0.2304306-0.0544815   l-0.0578918-0.0164948l-0.0126648-0.0039368c-0.2613831-0.0860367-0.5440292,0.0370407-0.6589127,0.2871246   c-0.0056229,0.0125504-0.1361618,0.2968063-0.2691498,0.7003174c-0.1316757,0.4056625-0.2715912,0.9230423-0.2739258,1.4506989   c0.0009537,0.2701645,0.0367432,0.5509567,0.1679993,0.8237534c0.1271973,0.2720718,0.3809891,0.5241928,0.705101,0.6389008   c0.4962921,0.1807785,1.1378174,0.5698318,1.6231766,0.9591217c0.2433395,0.1936951,0.4503479,0.3890533,0.5814896,0.5434341   l0.1327515,0.1816177l0.0148697,0.0303497l0.0001831-0.0001144c0.0200119,0.2236786,0.0804749,0.4680328,0.1850891,0.8139496   c0.3420868,1.079689,1.088829,2.8622055,2.2857971,4.0156174c0.3771591,0.3661118,0.4369659,0.6092682,0.4404907,0.7864685   c0.0026321,0.1930923-0.1015625,0.3939514-0.2391586,0.5562134l-0.124382,0.1245117   c-0.1242065-0.0155334-0.2910767-0.0373993-0.5005951-0.0673904c-0.6777954-0.0969086-1.7383041-0.2712402-2.7760544-0.5295715   c-0.9867935-0.2419662-1.9495621-0.5789185-2.5043411-0.9396515c-0.0799408-0.1295242-0.2083282-0.3006287-0.4234695-0.4748459   c-0.3684998-0.3013458-0.973526-0.5686417-1.832283-0.5655365l-0.0575943,0.0006027   c-0.9386292,0.0127792-2.4259567,0.1605911-3.5316315,0.2825851l-0.0513229,0.0026321   c-0.2371216-0.0004807-0.4315872-0.202774-0.4320679-0.4314728l0.013504-0.1070633l0.3259583-1.1989365   c0.0593262-0.218544-0.0231171-0.4495163-0.20755-0.5808334c-0.0008926-0.0007172-0.3500366-0.2494888-0.8840256-0.6439133   c-0.3404236-0.2514038-0.7622147-0.5684052-1.2061081-0.9083481l0.7476349-1.1731262   c0.1601105-0.2512894,0.0862656-0.5847778-0.1650162-0.7448883c-0.2512207-0.1601181-0.5847092-0.0862732-0.7448807,0.1650085   l-0.6927948,1.0869827c-0.3345642-0.2649078-0.6685944-0.5333939-0.98703-0.7999725   c-0.5174942-0.4330215-0.9915085-0.8549347-1.3414841-1.2092133c-0.1747513-0.1766052-0.3183746-0.3368378-0.4173126-0.4648056   c-0.0997086-0.1252213-0.1501312-0.2282257-0.1478653-0.2303696l-0.0002975-0.0023956l-0.0013123-0.0233002   c-0.01297-0.1173325,0.1353149-0.5446243,0.4898987-1.0242462c1.0494003-1.4766312,3.6928864-3.5846329,6.8516617-4.2457581   c0.2913666-0.0620117,0.4774094-0.3484268,0.4155197-0.6398544c-0.0619583-0.2914276-0.3484268-0.4774704-0.639801-0.4154587   l-0.000061-0.0001221c-1.2425461,0.2650299-2.3915405,0.7223053-3.4171066,1.273262l-5.3360214-2.8421326   c0.7852173-0.8680801,1.4245377-1.7892075,1.9229202-2.6577606c0.2490082-0.4345779,0.4586487-0.8499146,0.6457672-1.2451859   c2.327858-1.8214645,3.3563461-3.5573807,3.6150436-5.0904083   C113.9646988,66.6152649,115.6072311,67.7674866,117.0919266,68.763298z M66.7387466,50.9049072   c2.408577-1.0284271,5.491478-1.5981445,8.3385696-1.8997307c2.8482285-0.3031425,5.4622574-0.3438873,6.9615326-0.3438873   c1.4112625-0.0033455,3.9163818,0.4773521,6.5669785,1.1374016c0.2979431,0.0738449,0.5985184,0.1506767,0.8995667,0.2284622   c-0.6783371,0.5360222-1.7077789,1.5413895-2.8291702,3.3585587c-1.8551636,3.0037994-3.9409409,8.1913567-5.0669327,16.9975967   c-2.5125885-1.356781-5.1510544-2.6785507-7.5900955-3.8508453c-0.7809753-0.3751907-1.5366745-0.73246-2.2641144-1.072998   c-1.1793442-5.7134247-4.5811005-8.8982506-7.6611938-10.5984383c-1.4296074-0.7916069-2.786808-1.2725449-3.841465-1.5640945   C61.9438286,52.7629433,64.2477264,51.9664383,66.7387466,50.9049072z M30.3600731,114.5912399l-0.0839405,0.009201   c-0.0010757,0.0002365-0.3871403,0.0757523-1.0218582,0.1911774c-1.8990784,0.346756-6.0347843,1.0469513-8.411932,1.1045456   c-1.8423805,0.0464783-12.2043514,0.6707993-15.4454536,0.8675995c-0.0819087-0.0212708-0.1675816-0.0296326-0.2551661-0.0060959   l-0.0809526,0.0198364c-0.0108733,0.0026245-0.0300512,0.0063324-0.0428963,0.0093231   c-0.3758483,0.0228195-0.5908666,0.035965-0.5916433,0.035965c-0.0803552,0.0048981-0.1521077,0.0321426-0.2175269,0.0696564   c-0.0068111,0.0001221-0.0143986,0.0010757-0.0211496,0.0010757c-0.1356182,0.0020294-0.2362866-0.0173264-0.2932823-0.0347672   c0.0386541-0.1388474,0.0816698-0.197876,0.1984093-0.2915497c0.1792312-0.1423111,0.5719872-0.281517,1.0679808-0.4778366   c0.4947982-0.2002563,1.0909224-0.4809341,1.6703181-0.9928207c0.1301217-0.1161423,0.3984313-0.3040924,0.7459016-0.5176163   c1.2243304-0.7556458,3.4456658-1.8802643,5.345161-2.8050995c0.9508238-0.4632492,1.8236208-0.8782272,2.4583988-1.1773071   c0.6348391-0.2990799,1.0296259-0.4813004,1.0306406-0.4817734c1.7811432-0.8267365,2.991972-2.1347656,4.0419693-3.2540131   c0.5246105-0.5608749,1.0102081-1.0762253,1.4925804-1.471489c0.4835072-0.3965759,0.9546471-0.6691284,1.4650383-0.7880173   c0.3472309-0.0813751,0.6555099-0.1157837,0.9333191-0.1159058c0.5867443,0.0015564,1.038826,0.1494827,1.4532681,0.3859482   c0.6200809,0.3534393,1.1402702,0.9357071,1.6983986,1.5091248c0.5566921,0.5641022,1.1736069,1.1479187,2.0670757,1.324646   c0.3865433,0.0737228,0.8307972,0.1034698,1.341011,0.103714c2.6387653-0.0035858,7.139925-0.8066635,12.9487591-1.5423508   c-0.5800552,1.0897293-0.935051,2.3551025-1.1447525,3.6062622c-0.2437553,1.4670639-0.3012886,2.9006805-0.3014679,3.9473877   c0.000061,0.5414047,0.0155334,0.973114,0.0295143,1.2571335c-4.3580742-0.2803192-8.5557938-0.495636-11.1833897-0.4959946   C30.9319401,114.5811996,30.6338787,114.5841904,30.3600731,114.5912399z M48.0294304,76.5842438   c7.6279411,4.222435,11.6399498,5.9004211,17.8335304,8.0821457c2.1214447,0.745842,6.0769043,2.0619965,5.9924469,2.0421677   C54.8759537,82.7211304,48.0294304,76.5842438,48.0294304,76.5842438z M89.7880173,74.8903885   c-2.6714325-1.5906219-3.7318344-2.0800476-6.0158005-3.3443832c-0.6774521-0.3750153-1.9175034-0.985199-1.8894882-0.9743958   C87.1573792,72.6064148,89.7880173,74.8903885,89.7880173,74.8903885z M97.6162109,108.0987549   c0.3987961,0.4350586,0.761734,0.8100052,1.0747375,1.0992889c0.1568832,0.1448212,0.3009872,0.2682495,0.4372025,0.3699341   c0.1386032,0.1012039,0.2606049,0.1831741,0.4240036,0.2426758c0.6547928,0.2282257,2.5217896,0.7428589,4.3056183,1.212326   c0.8893433,0.2338333,1.7515717,0.4542923,2.4174728,0.6169128c0.3331299,0.0812531,0.6167984,0.1481628,0.8332443,0.1956024   c0.1084976,0.0237732,0.1997833,0.0426559,0.2758408,0.056633c0.0531693,0.008606,0.0943375,0.0152969,0.1413574,0.0203171   l6.9628448,1.5135498c-0.022049,0.0027466-0.0415268,0.0065689-0.0639877,0.009201   c-0.4300385,0.0519791-0.9454498,0.0750351-1.502739,0.0750351c-1.469635,0.0002441-3.2287979-0.1589203-4.6128235-0.3190308   c-0.6923676-0.0800552-1.2919006-0.1601105-1.7176285-0.2200928c-0.290123-0.0408707-0.4897842-0.0709763-0.5931396-0.0867538   c-0.1110611-0.0551987-0.2266083-0.1156616-0.3336716-0.1666794c-0.5109863-0.2414856-0.9472961-0.4300385-1.3085098-0.5131989   c-0.2726669-0.060585-0.5428314,0.1112366-0.6034088,0.3840332c-0.060585,0.2726669,0.1113586,0.5428314,0.3840332,0.6034088   c0.1893845,0.0390701,0.6172104,0.209938,1.0927124,0.4387589c0.1077194,0.0513763,0.2236252,0.1101685,0.3368988,0.1665649   c0.0051346,0.0033493,0.0109329,0.0048981,0.0162506,0.0080032c0.6409302,0.3196335,1.3472214,0.7034302,1.9266129,1.0292664   c0.1507339,0.0847168,0.2877274,0.1626282,0.4172516,0.2367096c-0.0277176,0.0010757-0.0492859,0.0057373-0.0788574,0.0057373   c-0.5125427,0.0033417-1.2533646-0.1867599-1.9491425-0.3970566c-0.3496246-0.1044388-0.6909409-0.2120972-1.0042343-0.2987213   c-0.3154526-0.0859146-0.595108-0.1541443-0.8675385-0.1691971c-2.4286499-0.1200867-3.9749374-0.5531082-4.8998337-0.9402466   c-0.4625397-0.1936874-0.7701569-0.3759079-0.9563217-0.5034027c-0.0931396-0.0636902-0.1558685-0.1137543-0.1924362-0.1448212   l-0.0357208-0.031662l-0.0003052,0.0002365c-0.0663681-0.0688248-0.1491776-0.1063385-0.2353287-0.1292801   c-0.4526749-0.6941071-1.0182114-1.8013992-1.6171417-3.109787c-0.8505173-1.8555222-1.7690811-4.0979538-2.5988007-6.1732101   c0.4618835,0.5787964,0.9680328,1.2070618,1.494072,1.8478775   C95.8829269,106.1214752,96.8195877,107.2293625,97.6162109,108.0987549z M90.2630615,97.8517303   c0.5390091,1.2266617,1.7062836,4.2966614,2.9772186,7.4131393c0.6362686,1.559906,1.2999039,3.1348724,1.9299011,4.5095825   c0.6314316,1.3761368,1.2231979,2.5461578,1.7423706,3.3265381c1.9690933,2.9534912,3.8708649,5.4071732,3.8752213,5.4129105   l0.1771393,0.1442184c0.0053177,0.0026321,0.7918472,0.3882141,1.829361,0.8296051   c1.0400772,0.4413834,2.3204498,0.9386902,3.3628616,1.1681137c0.520668,0.1137466,1.7121964,0.3417282,3.1897202,0.6166687   c-0.0718079,0.0689468-0.1303635,0.1529465-0.1514511,0.2579803c-0.0550232,0.2737427,0.1223602,0.5403214,0.3961639,0.5954056   l-0.000061-0.0001221l11.8641129,2.3844986c-0.1445847,0.1174545-0.4213181,0.2563019-1.029213,0.258812   c-0.1624374,0-0.3556519-0.015892-0.5636215-0.04039c-0.0186996-0.0573578-0.0353699-0.1015625-0.0394897-0.1135101   c-0.0732422-0.1739807-0.2390976-0.2935867-0.4272842-0.3080444c-0.039856-0.0015488-0.3066711-0.0443268-0.6617279-0.1126785   c-1.2672882-0.2406464-3.9346695-0.807373-6.2781219-1.3126907c-2.3445282-0.5054321-4.3651199-0.9493256-4.3694839-0.9502792   c-0.27285-0.0599899-0.5425339,0.1126709-0.6024551,0.3854599c-0.0599213,0.2727966,0.1126785,0.5424805,0.3855286,0.6024628   l-0.000061-0.0001221c0.0004807,0.0001221,2.6468887,0.5814285,5.3937302,1.1705017   c1.3735123,0.2946548,2.7719345,0.5911026,3.8786926,0.8182526c0.5534668,0.1136322,1.0338058,0.2097015,1.4035034,0.2799606   c0.1523438,0.0285568,0.2681274,0.049469,0.3790741,0.0688248c0.0006561,0.0040588-0.0003586,0.0085983,0.0003586,0.0126648   l-0.0273056,0.0983353c-0.0189972,0.0195999-0.119072,0.0988159-0.4581833,0.1002502   c-0.6443863,0.0014343-2.7142105-0.1813812-4.5772629-0.3646774c-1.8705826-0.1832886-3.562645-0.3662262-3.5661697-0.3665848   c-0.0589676-0.0064545-0.1152496,0.0026245-0.1698532,0.0155334l-3.2005386-1.1510239   c-0.2628708-0.0945129-0.5525055,0.0419388-0.6470261,0.3048096c-0.0945129,0.2627563,0.0419388,0.5525131,0.3048172,0.6470261   l6.0780945,2.1859055c-0.1584396,0.026413-0.338089,0.0440979-0.5446854,0.0433807   c-0.838623,0.0019073-1.95858-0.2249985-2.8475647-0.4574051c-0.4456329-0.1158981-0.836235-0.2320404-1.1142273-0.3189087   c-0.2779236-0.0868683-0.4386368-0.1430283-0.4391174-0.1430283l-0.1540756-0.0278397   c-0.0004196,0-0.1497192-0.0034637-0.4448547-0.0204315c-0.8854065-0.0505447-3.0321808-0.2205734-5.8961792-0.7661591   c-1.8263702-0.3490219-3.0006943-1.1348877-3.7302856-1.8272018c-0.3639603-0.3462753-0.6147003-0.6697311-0.7721252-0.9020157   c-0.0786819-0.1160202-0.1340103-0.209343-0.1684189-0.270874l-0.0362625-0.0676346l-0.0069351-0.0139771l-0.0001144,0.0001221   l-0.0549088-0.0914078c-0.9468765-1.2522354-4.1115723-5.4566498-7.258873-9.7956009   c-1.5735321-2.1694183-3.1428833-4.3726501-4.4269638-6.2549438c-1.2825775-1.8784637-2.2862167-3.4525909-2.7016144-4.3008347   c-0.8561249-1.7408142-1.8904724-4.08815-2.825943-5.7732849c-0.4381027-0.7880249-0.7656784-1.6196594-0.9805756-2.2500763   c-0.1075363-0.3153229-0.187233-0.5803528-0.2396317-0.7651978c-0.0186386-0.0657196-0.0296936-0.1076584-0.0414581-0.1517487   c0.2792969-0.9280624,1.2087326-2.6341095,2.485878-4.6311035c1.9953232-3.1321335,4.8271255-7.0424805,7.3787842-10.3683014   c1.2758865-1.6630325,2.4822311-3.1808853,3.4784622-4.3826904c0.9930038-1.199295,1.789566-2.0934219,2.1962433-2.4671783   c2.445137-2.2585602,3.7507172-4.5602493,3.7674484-4.5879669c0.137764-0.2429199,0.0525742-0.5515594-0.1902847-0.6893311   c-0.2428589-0.137764-0.5514374-0.0525742-0.689209,0.1903458l-0.000061-0.0001144l-0.0534668,0.0905685   c-0.1784515,0.29776-0.8131714,1.2977524-1.8371811,2.4957352c-0.3178406-1.1869888-0.9904327-4.0597076-0.988945-6.9981499   c-0.0031052-2.2495956,0.4002304-4.5167542,1.5651093-6.0917206c1.3665237-1.8420219,2.6514969-2.034874,3.2660828-2.0451508   c0.126236,0,0.2234955,0.0101547,0.2849731,0.0191193l0.0644684,0.0112305l0.0103912,0.0022697l0.0002365-0.0009537   c0.0534744,0.0137405,0.1065292,0.0136185,0.1588593,0.0101547c1.1668625,0.6325684,2.2758255,1.3712387,3.2052612,2.0593681   c0.808754,0.5977974,1.485527,1.1537743,1.95858,1.5590782c0.1120224,0.0959473,0.2106552,0.1819801,0.2988968,0.2596436   c0.0422974,0.1969185,0.1985321,0.3579865,0.4093094,0.3932343v-0.0001183l0.0228195,0.004303   c0.0031662,0.0005951,0.0104523,0.0021477,0.0141602,0.0028648c0.12397,0.1129189,0.2870102,0.145298,0.4403152,0.1137543   c0.9232178,0.2778091,2.9770889,1.1191216,4.3169632,3.3279686c0.6424866,1.0554352,0.8596573,2.0998764,0.860733,3.0598412   c0.0005341,1.0575867-0.2714157,2.0093079-0.5461197,2.6924133c-0.1369934,0.3414993-0.2740479,0.6153641-0.3752518,0.8011703   c-0.0505981,0.0928421-0.092186,0.1636963-0.1202621,0.2100601l-0.0314255,0.0507813l-0.0077667,0.0120621l-0.0687027,0.1554565   l-0.0182877,0.067749c-0.0988159,0.3584671-0.6136246,2.0807571-1.7517471,3.9461975   c-1.1390152,1.8690262-2.8902893,3.8636398-5.4445114,4.849411l-0.1125565,0.060936   c-0.0211563,0.0206757-3.0386963,2.1687012-4.7333908,4.738884c-0.779953,1.1899796-2.625618,3.5548782-4.3768311,5.7142563   c-0.876503,1.0812454-1.7317963,2.1150513-2.4239883,2.9341431c-0.6890259,0.8162155-1.228569,1.4309845-1.4293671,1.6306458   c-0.1073608,0.1072998-0.1608887,0.2578506-0.1454773,0.4088898   C88.8211441,92.2198029,89.1216583,95.2430801,90.2630615,97.8517303z M156.0023651,101.8805008   c-0.0381775,0.9365387-0.0767059,1.6592026-0.0771332,1.9876785c0.0030518,0.475914-0.1709747,1.5432968-0.5485077,2.7566986   c-0.3761444,1.2190094-0.9537506,2.6090088-1.7363281,3.8209763c-0.7999725,1.2405167-1.6696014,2.3534241-2.4135284,3.3964386   c-0.7418976,1.0446777-1.3674774,2.0156326-1.6463013,3.0256653c-0.2379608,0.8784714-0.5584259,1.8356857-1.0154114,2.5264435   c-0.2275085,0.3461609-0.4845123,0.6226501-0.7689667,0.8078537c-0.2860413,0.1847305-0.5963593,0.2884445-0.9905396,0.2900009   c-0.9642181,0.0003586-2.0946808-0.0417023-3.1371613-0.2641907c-1.0452118-0.2216492-1.9838409-0.6230087-2.6136017-1.2909393   c-0.4297485-0.4507065-1.0532837-0.8791962-1.8000336-1.3167572c-2.2323151-1.3009796-5.5837097-2.625145-7.4320679-3.3722992   c-5.3635025-2.1648788-11.1413879-4.3595047-15.9456863-6.309906c-0.7626953-0.3095932-1.4895325-0.6102219-2.1974411-0.9064331   c2.2208023-1.7702103,3.3947678-4.1878052,4.0080948-6.2194519c0.4882889-1.620491,0.6314316-2.9931641,0.6745682-3.646286   c1.3626938,0.8905411,2.7444534,1.7758255,4.1071472,2.6313553c3.0526123,1.9159851,5.9993591,3.679985,8.3808746,5.0174103   c1.19104,0.6687698,2.240387,1.2308426,3.0952606,1.6535873c0.8594818,0.4231033,1.5048218,0.7054596,1.9674225,0.8261414   c1.0253296,0.2620316,2.1060333,0.3626404,3.1498718,0.3627625c1.361145-0.0002365,2.6591492-0.171463,3.6903229-0.3975372   c0.5160065-0.1133957,0.9646149-0.2401657,1.3272095-0.3704071c0.3662262-0.1363373,0.6313782-0.2502136,0.8555908-0.4380417   c0.1217041-0.108017,0.2598877-0.2584534,0.4526215-0.474968c1.3165131-1.4871445,4.8091431-5.8809433,5.8042297-7.0887222   c0.3324738-0.4061432,0.6405792-0.9590073,0.9416809-1.5783157c0.7022858-1.4526138,1.3315125-3.2614136,1.5725708-3.9797745   c0.0219879-0.0007172,0.0367432-0.0031052,0.0602264-0.0031052c0.2293549-0.0026321,0.5109863,0.0444489,0.6737366,0.1500778   c0.0835266,0.0525742,0.1425476,0.1106415,0.1912994,0.1995392c0.0476685,0.0892563,0.0882416,0.2192612,0.0887756,0.4301605   c0,0.0704956-0.004776,0.1493607-0.0157166,0.2380142c-0.0024414,0.0195999,0.0045471,0.0372849,0.004364,0.0566406   c-0.2513428,0.2086258-0.4933014,0.4479599-0.7273712,0.7291107c-0.9587708,1.1626205-1.8215332,2.7747421-1.8306122,2.7886047   c-0.1324615,0.245903-0.0405121,0.5526276,0.2054596,0.6850204c0.2458954,0.1323929,0.5526276,0.0405121,0.6850739-0.2053986   l-0.000061-0.0001144c0,0,0.0287933-0.0536499,0.0843048-0.15271c0.193573-0.3461533,0.7019806-1.2252274,1.2680664-1.9972382   c0.2817993-0.3854599,0.5801086-0.7440491,0.8418427-0.9861298c0.1300049-0.1210403,0.2508698-0.211853,0.342453-0.2632294   c0.0522766-0.0301132,0.0883636-0.0434952,0.1136932-0.0506668l0.0308228,0.0526962   c0.107666,0.2175903,0.2180023,0.7592239,0.2733917,1.4231033c0.0595093,0.6678162,0.0818481,1.473877,0.0817871,2.30336   C156.0786591,99.8165894,156.0406036,100.9476547,156.0023651,101.8805008z"/><polygon points="46.4520149,75.9109268 46.4520149,75.9108124 46.4519539,75.9108124  "/></g><text x="0.0" y="191.1724963575" font-size="8.134999845000001" font-weight="bold" font-family="Arbeit Regular, Helvetica, Arial-Unicode, Arial, Sans-serif" fill="#000000">Created by ICONGALAXY</text><text x="0.0" y="199.3074962025" font-size="8.134999845000001" font-weight="bold" font-family="Arbeit Regular, Helvetica, Arial-Unicode, Arial, Sans-serif" fill="#000000">from Noun Project</text></svg>