<svg xmlns="http://www.w3.org/2000/svg" xmlns:xlink="http://www.w3.org/1999/xlink" version="1.1" x="0px" y="0px" viewBox="-8.075000000000001 -16.269999690000002 177.65 219.64499581500002" style="enable-background:new 0 0 161.5 162.6999969;" xml:space="preserve"><g><path d="M143.048996,62.9833984c-0.298584-0.2023926-0.5831299-0.3093262-0.8130493-0.3723145   c1.1236572-2.1356201,1.6748657-4.123291,1.675415-5.9985352c0.0027466-3.3116455-1.7258301-6.1685791-4.7020264-8.7156982   c-2.3084106-1.9835205-4.9011841-2.5496826-7.0620117-2.5473633c-2.8460693,0.0024414-4.979866,0.9558105-5.0189285,0.9713135   c-0.0128174,0.0057373-0.0220337,0.0158691-0.0341797,0.022583c-0.0089111,0.0047607-0.0189209,0.0047607-0.0276489,0.0102539   v-0.0001221c-0.0082397,0.005249-0.9626465,0.5964355-2.0523682,1.4171143   c-1.0914917,0.8300781-2.3120117,1.8496094-2.9022217,2.8712158c-0.0471191,0.0830078-0.0664063,0.1813965-0.0625,0.2772217   h-0.0041504c-0.0001831,0.0081787-0.0013428,0.1571045-0.1138306,0.3557129   c-0.1141357,0.1981201-0.3378906,0.4648438-0.8652954,0.7114258c-0.7387085,0.3430176-2.0844727,0.8338623-3.0741577,1.1795654   c-0.6135864,0.2147217-0.9742432,0.7878418-0.9717407,1.3701172c-0.0007935,0.319458,0.1086426,0.6507568,0.3330688,0.9215088   l0.0072632,0.008667l0.5500488,0.637207c-0.2689819,0.4963379-0.8180542,1.5234375-1.3739624,2.6503906   c-0.387207,0.7851563-0.7752075,1.6134033-1.0710449,2.3419189c-0.1479492,0.364624-0.2729492,0.7039795-0.3640747,1.0075684   c-0.0899048,0.3061523-0.1513062,0.5665283-0.1536865,0.8292236l0.010376,0.1607666   c0.0825806,0.479248,0.3931274,0.7841797,0.7789307,1.0858154c0.3303833,0.2470703,0.7542114,0.4780273,1.2420654,0.6889648   c0.012146,0.0076904,0.0197144,0.0196533,0.0326538,0.0263672V64.894165c0,0,0.0639038,0.0332031,0.1809692,0.0959473   c0.4092407,0.2192383,1.4490967,0.7912598,2.4163818,1.4333496c0.4831543,0.3203125,0.9483643,0.6594238,1.2994995,0.9697266   c0.3535156,0.3027344,0.5795898,0.6077881,0.6011353,0.7059326c0.0255127,0.0712891,0.0522461,0.2443848,0.0509644,0.4691162   c0.00354,0.7868652-0.2782593,2.1657715-0.7129517,3.4111328c-0.2163696,0.6246338-0.4702759,1.2216797-0.7355957,1.704834   c-0.262146,0.4833984-0.5477905,0.8504639-0.7595825,1.0078125c-0.2661743,0.2091064-1.0238037,0.5955811-1.9730835,1.0280762   c-1.4330444,0.6574707-3.3467407,1.4708252-5.0826416,2.3117676c-0.8685303,0.4208984-1.6931152,0.8487549-2.3980103,1.2731934   c-0.6591797,0.3985596-1.2064209,0.7873535-1.6079102,1.1959229c-5.4302979,0.0568848-14.0875244,0.4528809-15.0539551,0.4975586   c-0.7844849-0.2788086-1.970459-0.5778809-3.4326172-0.8909912c-4.5663452-0.9746094-11.6409302-2.0369873-15.4282837-2.3533936   c-2.4348145-0.201416-5.9474487-1.0085449-8.8283691-1.7661133c-1.4419556-0.37854-2.7292442-0.7445068-3.6553917-1.015625   c-0.6414795-0.1877441-1.0915527-0.324707-1.3181152-0.394043c-0.3131714-0.4586182-1.3453979-2.0791016-1.6565552-3.3513184   c-0.2460938-0.9769287-0.8640747-3.1992188-0.8626099-5.2893066c-0.0025635-1.5117188,0.3284912-2.8919678,1.2138672-3.7076416   c0.1373901-0.1281738,0.1943359-0.3208008,0.1487427-0.5030518c-0.0127563-0.0447998-0.0779419-0.3059082-0.3139038-0.5924072   c-0.229126-0.2872314-0.6798096-0.5800781-1.2837524-0.572998c-0.3751221,0.0002441-0.7978516,0.0994873-1.2839966,0.3204346   c-0.6358643,0.2958984-1.0331421,0.8710938-1.3397217,1.5070801c-0.4558716,0.9613037-0.7191772,2.1428223-0.9653931,3.1320801   c-0.12146,0.4927979-0.237915,0.9368896-0.3551636,1.2583008c-0.0579224,0.1602783-0.1166382,0.2893066-0.1657104,0.37146   l-0.0596924,0.0860596l-0.0140381,0.0146484l0,0c-0.6375732,0.4143066-2.085022,1.3233643-3.4655151,1.3137207   c-0.5839844-0.0020752-1.1481934-0.1466064-1.699707-0.5469971l0.0002441,0.0002441   c-0.8829956-0.6418457-2.3981323-2.1342773-4.055481-3.4591064c-0.8323364-0.6640625-1.7061768-1.2910156-2.5856323-1.7609863   c-0.1994019-0.1060791-0.399353-0.2017822-0.5994873-0.2907715c-0.3347168-0.6491699-0.9005127-1.3355713-1.6171265-2.1206055   c-2.2850342-2.4814453-6.0543823-5.8742676-7.7304096-9.4229736c-1.2093506-2.5428467-3.3568115-5.2264404-5.2637939-7.4294434   c-0.953186-1.0998535-1.8467407-2.0769043-2.5281982-2.8413086c-0.3404541-0.3818359-0.6281128-0.7109375-0.8400879-0.9703369   c-0.2106323-0.2539063-0.3503418-0.4620361-0.3655396-0.5039063c-0.1729736-0.3690186-0.446167-0.6817627-0.7658081-0.9984131   c-0.9572754-0.9311523-2.411377-1.9217529-3.2039795-3.0083008c-0.4298706-0.5844727-1.0062256-0.932373-1.5663452-1.1248779   c-0.5620728-0.1936035-1.1144409-0.243042-1.5592031-0.2435303c-0.5618286,0.0002441-0.9546509,0.0810547-0.9785767,0.0858154   c-0.0986328,0.0203857-0.1889648,0.0690918-0.2602539,0.1403809c-0.0404663,0.0458984-0.2374268,0.2338867-0.2462769,0.6118164   c-0.0012207,0.0919189,0.0169067,0.184082,0.0466309,0.2751465c-0.100647,0.046875-0.2010498,0.1030273-0.2987671,0.1751709   c-0.4178467,0.3041992-0.6918335,0.8671875-0.6827393,1.5820313c0.000061,0.2987061,0.0407715,0.6295166,0.1259766,1.0029297   c0.1265259,0.5279541,0.4953613,0.8372803,0.7811279,1.0222168c0.072998,0.0463867,0.1431885,0.0859375,0.2078857,0.1195068   c0.0341187,0.3127441,0.1692505,0.588623,0.3284912,0.7739258c0.2822876,0.3325195,0.5531616,0.5140381,0.7862549,0.8498535   c0.2318726,0.331665,0.4598379,0.8192139,0.5523672,1.7525635c0.2572021,2.604248,1.5118408,5.4776611,1.6152344,5.7191162   c0.2230225,0.5908203,0.3008423,1.1009521,0.3015747,1.6081543c0.0010986,0.690918-0.1539917,1.3876953-0.3240356,2.210083   c-0.1686401,0.8208008-0.345459,1.7624512-0.3452148,2.9129639c-0.0012207,0.8614502,0.2801514,1.6333008,0.7238159,2.2757568   c0.6675415,0.9660645,1.6789551,1.6621094,2.729187,2.1392822c1.0534668,0.4752197,2.1480713,0.7316895,3.0437622,0.7677002   c0.9308472,0.0345459,1.7061768,0.4697266,2.2570801,0.9165039c0.274231,0.2220459,0.4889526,0.4439697,0.6323242,0.6072998   l0.1604004,0.1937256l0.0377197,0.0499268l0.0046387,0.0063477l7.1589375,11.1538086   c-0.1297607,0.0594482-0.2492676,0.1226807-0.3526001,0.1920166c-0.5288696,0.34729-0.6592407,0.8536377-0.6473389,1.076416   l0.0080566,0.116333c0.031311,0.2032471,0.1803589,0.3687744,0.3793335,0.4211426c0,0,0.7922974,0.2080078,1.9633179,0.5152588   c0.0050049,0.0090332,0.005127,0.019165,0.0106812,0.0280762v-0.0001221l1.3037109,2.0661621l0.0206299,0.0301514   c0.3440552,0.4683838,0.6779785,0.9005127,1.0125732,1.335083c-0.1968384,0.2126465-0.3518066,0.4863281-0.3527222,0.8204346   c-0.0004272,0.1806641,0.0474243,0.3598633,0.1275024,0.519165c0.0924683,0.1854248,0.2879639,0.2980957,0.494812,0.2850342   c0.0013428-0.0001221,0.371582-0.0233154,0.9679565-0.0537109c4.937561,6.0396729,8.8427124,8.4779053,11.9973145,10.2390137   c2.4152832,1.3509521,4.0866699,2.7386475,5.1508179,3.7824707c0.5320435,0.5218506,0.9121704,0.9577637,1.1571045,1.2598877   c0.1224365,0.151123,0.2111206,0.2686768,0.2680664,0.3469238l0.0582275,0.0817871   c0.9663696,2.1391602,2.5426636,5.3728027,4.2583618,8.5131836c1.7297974,3.1625977,3.5837975,6.21521,5.1380577,7.9890137   c0.7227783,0.8221436,1.8566284,2.3431396,3.1729736,4.2099609c3.9545288,5.6055908,9.6078491,14.3771973,11.5996094,17.6140137   c1.064209,1.7358398,2.6999512,2.6866455,4.5443115,3.1759033c1.8487549,0.4934082,3.9295654,0.5609131,6.0394287,0.5620117   c0.9257202,0,1.8566895-0.0140381,2.774231-0.0140381c0.5563965,0,1.107666,0.005127,1.6494751,0.0217285l0.0007324,0.0001221   c0.1467896,0.0042725,0.2914429,0.0062256,0.434021,0.0062256c2.7449341,0.0031738,4.8031006-0.809082,6.3429565-1.9904785   c1.5418091-1.1799316,2.5680542-2.7052002,3.3557129-4.1134033c1.5361938-2.7525635,4.3361206-5.9759521,8.4821777-9.7885742   c2.1761475-2.0093994,4.2178955-5.4737549,5.7554932-8.4564209c1.5321045-2.9805908,2.5366211-5.4711914,2.5404663-5.4804688   l0.0153198-0.043457c0.7998047-2.6616211,3.0534058-7.1551514,5.2229691-9.5541992   c2.3511353-2.6235352,3.7629395-6.5861816,5.2675781-10.6674805c0.5612183-1.5266113,0.770813-2.7041016,0.7704468-3.7208252   c0.0003662-0.887207-0.159729-1.6394043-0.3504639-2.364624c-0.1914063-0.7269287-0.4111328-1.4301758-0.5632935-2.2684326   c-0.3569336-1.9517822-0.4125977-5.0031738-0.413208-6.463501c0.5723267,0.3580322,1.2463989,0.6080322,2.0330811,0.6505127   h0.0007324c0.1183472,0.0064697,0.2375488,0.0097656,0.3573608,0.0097656   c1.7382202-0.0023193,3.5510864-0.6851807,5.0352783-1.848877c1.4817505-1.1639404,2.6416626-2.8260498,2.9960327-4.80896   c0.0824585-0.4627686,0.1203003-0.8804932,0.1203003-1.2591553   C144.3075409,64.3105469,143.6955414,63.4127197,143.048996,62.9833984z M122.13871,71.3070068   c0.2793579-1.0135498,0.4535522-1.9901123,0.4553833-2.7387695c-0.0012817-0.2919922-0.0239868-0.5505371-0.1040039-0.7958984   c-0.0892334-0.260498-0.2414551-0.4735107-0.4248657-0.6859131c-0.4038696-0.456543-1.0021362-0.9160156-1.6331177-1.3476563   c0.4716797,0.0515137,0.954895,0.0876465,1.4550171,0.0877686c0.930481,0,1.8998413-0.0986328,2.8673706-0.3325195   c0.2772827-0.0671387,0.4476929-0.3461914,0.3806763-0.6235352c-0.0670166-0.2772217-0.3461914-0.4477539-0.6234741-0.3806152   c-0.87854,0.2122803-1.7671509,0.3035889-2.6245728,0.3035889c-1.6294556,0.0008545-3.1482544-0.3321533-4.2471313-0.7648926   c-0.5487061-0.21521-0.9926147-0.4570313-1.2816772-0.675293c-0.1444702-0.1082764-0.2492676-0.2106934-0.3088379-0.2874756   l-0.0581665-0.0895996l-0.008606-0.0209961l-0.0007324-0.0020752l-0.0008545-0.020752   c-0.0023804-0.0722656,0.0321655-0.2784424,0.1101685-0.5324707c0.2175903-0.7316895,0.734375-1.8826904,1.2698364-2.9798584   l1.0488892,0.6525879c0.2422485,0.1506348,0.5608521,0.0765381,0.7115479-0.1657715   c0.1507568-0.2421875,0.0765381-0.560791-0.1657104-0.7115479l-1.1316528-0.7041016   c0.2993164-0.5888672,0.5802612-1.1228027,0.7903442-1.5158691c0.2282104-0.4267578,0.3728027-0.6883545,0.3731079-0.6889648   c0.1049194-0.1898193,0.0806274-0.4234619-0.0610962-0.5875244l-0.7769775-0.9000244   c-0.0681152-0.0837402-0.0952148-0.1706543-0.0960693-0.2629395c0.0025024-0.1722412,0.0993042-0.3320313,0.2796021-0.3948975   c1.0053101-0.3520508,2.3509521-0.8397217,3.1674805-1.2174072c0.6953125-0.3200684,1.1108398-0.7485352,1.3302612-1.1402588   c0.1654663-0.2927246,0.2219849-0.5541992,0.2399292-0.7249756c0.4503174-0.7338867,1.5598145-1.7126465,2.5650635-2.4624023   c0.524353-0.3950195,1.0203247-0.7376709,1.3839111-0.9804688c0.1652832-0.1103516,0.2984009-0.1968994,0.399292-0.2617188   c0.1974487,0.074707,0.5569458,0.260498,0.9171219,0.7947998c0.4092407,0.6107178,0.8116455,1.7003174,0.8120117,3.6260986   c0,0.3731689-0.0175781,0.7821045-0.0507813,1.2197266c-0.2158203,0.3234863-0.7201538,1.1962891-0.7255859,2.4135742   c0,0.2415771,0.0209961,0.4956055,0.0695801,0.7585449c0.0317993,0.1717529,0.0458374,0.3399658,0.0458374,0.5037842   c0.0009155,0.5848389-0.1828613,1.1199951-0.3725586,1.5063477c-0.0943604,0.1928711-0.1890945,0.3476563-0.2581863,0.4512939   l-0.0811157,0.1157227l-0.0198975,0.0262451l-0.0036621,0.0046387l0.0002441,0.0001221   c-0.0925293,0.114502-0.1321411,0.2629395-0.1083984,0.4082031c0.0238037,0.1456299,0.1090088,0.274292,0.2338257,0.3532715   l1.6541824,1.0455322c0.1832886,0.1158447,0.4178467,0.1052246,0.5900269-0.0264893l0.0799561-0.0588379   c0.1931152-0.1396484,0.7192993-0.5019531,1.3671265-0.8215332c0.6461792-0.3220215,1.4179077-0.59021,2.0528564-0.5865479   c0.4470215,0.0031738,0.8050537,0.1135254,1.1109619,0.3934326c0.3718262,0.3510742,0.4909668,0.6723633,0.4962158,1.0357666   c0.0063477,0.5102539-0.3088379,1.1591797-0.8640747,1.7641602c-0.5493164,0.6047363-1.31427,1.1568604-2.0854492,1.5202637   c-0.5116577,0.2414551-0.9862671,0.3323975-1.404541,0.3327637c-0.5224609,0.0007324-0.9605103-0.1466064-1.2444458-0.3240967   c-0.1417236-0.0876465-0.2431641-0.1829834-0.2962646-0.2536621l-0.0429688-0.0708008   c0.1052856-0.2235107,0.0475464-0.4941406-0.1616821-0.6403809c-0.2337646-0.1634521-0.5558472-0.1065674-0.7192993,0.1273193   v-0.0001221c-0.1061401,0.149292-0.1605835,0.3358154-0.1591187,0.5078125   c0.0025024,0.2783203,0.1148071,0.5079346,0.2608643,0.7019043c0.1691284,0.2150879,0.4108887,0.3955078,0.6848145,0.5517578   c0.085083,0.2348633,0.7514038,1.7220459,2.9879761,2.7860107c-0.3293457,0.5172119-0.4876099,1.1335449-0.4882202,1.7709961   c0.00177,0.9787598,0.3448486,2.0167236,1.0291748,2.8536377c0,0,0.0005493,0.0004883,0.0007935,0.0007324   c-0.0001221,0.0029297-0.00177,0.0053711-0.0018311,0.0083008c-0.000061,0.0024414-0.0053101,0.296875-0.0053101,0.78125   c0.0004272,0.4572754,0.0064697,1.0905762,0.024353,1.7971191c-1.5986938-1.0463867-3.6288452-1.3677979-5.6026077-1.3707275   c-2.3678589,0.0019531-4.678894,0.4654541-6.1279297,0.8275146c0.0016479-0.0029297,0.00354-0.005127,0.005188-0.0080566   C121.4715958,73.3531494,121.8578262,72.3184814,122.13871,71.3070068z M27.8514194,61.0733643l-0.0106812-0.0159912   c-0.0187988-0.026001-0.3769531-0.539917-1.0363159-1.0750732c-0.6574097-0.5324707-1.6320801-1.09729-2.8678589-1.1461182   c-0.9746704-0.0336914-2.4195557-0.4327393-3.5552979-1.1594238c-0.5699463-0.3618164-1.0635986-0.8018799-1.406189-1.3007813   c-0.3427124-0.5007324-0.5405884-1.0517578-0.5418091-1.6901855c0.0002441-1.0450439,0.1580811-1.8970947,0.3240356-2.7050781   c0.1646118-0.8063965,0.3441162-1.5733643,0.3452148-2.4179688c0.0007324-0.6181641-0.1013184-1.2722168-0.3695068-1.9769287   l-0.0109253-0.0266113l-0.0543213-0.1259766c-0.2510376-0.5845947-1.28302-3.1489258-1.4868774-5.2972412   c-0.1272583-1.4188232-0.6266479-2.1981201-1.0754395-2.6593018c-0.2194815-0.229126-0.4035025-0.3859863-0.4919424-0.4979248   c-0.0878906-0.118042-0.102417-0.1429443-0.109314-0.2825928l0.0078735-0.1088867   c0.0330811-0.2486572-0.1178589-0.4857178-0.3568726-0.5609131l0.000061-0.0001221   c-0.0194702-0.0058594-0.1956177-0.0700684-0.3529663-0.1779785c-0.1635132-0.1094971-0.2766724-0.2460938-0.298645-0.3609619   c-0.0716553-0.3131104-0.1001587-0.5692139-0.1000977-0.7728271c0.0090942-0.4978027,0.1392822-0.6486816,0.2693481-0.7553711   c0.135498-0.1063232,0.3706665-0.157959,0.59729-0.1560059c0.1228638,0,0.2376099,0.0131836,0.3175659,0.0262451   l0.0911255,0.0172119l0.0203857,0.0047607l0.0006104,0.0001221c0.2756348,0.0736084,0.5587759-0.0899658,0.6325064-0.3656006   c0.0653687-0.2445068-0.0619507-0.4865723-0.2826538-0.5913086c0.3084106,0.0169678,0.6407471,0.0578613,0.9622803,0.1695557   c0.4134521,0.144165,0.7869263,0.3753662,1.0721436,0.7613525c0.6395874,0.864624,1.5229492,1.588501,2.2924194,2.2353516   c0.3845825,0.3220215,0.7408447,0.623291,1.019165,0.8969727c0.2793579,0.2720947,0.4749146,0.5218506,0.5518799,0.694458   c0.1098633,0.2288818,0.2722168,0.4373779,0.5036011,0.7246094c0.800354,0.9781494,2.4194336,2.6724854,4.1022339,4.6705322   c1.6803589,1.9929199,3.4130859,4.2835693,4.3965454,6.3598633c1.2163105,2.5565186,3.3348408,4.9152832,5.2708149,6.9379883   c0.9681396,1.0098877,1.8919067,1.93396,2.6315918,2.7404785c0.3191528,0.3461914,0.5946655,0.6679688,0.8326416,0.967041   c-0.1688232-0.0224609-0.3376465-0.0444336-0.5061646-0.0449219c-0.5249634-0.0009766-1.0491943,0.1208496-1.5227661,0.3984375   c-0.1401367,0.0817871-0.232666,0.2226563-0.2522583,0.383667c-0.0195923,0.1611328,0.036499,0.3198242,0.1528931,0.4329834   c0.0009155,0.0008545,0.3624268,0.3520508,0.9338379,0.918335c0.8569946,0.8491211,2.182251,2.1783447,3.4458618,3.5100098   c0.7373657,0.7764893,1.4523926,1.5551758,2.0403442,2.2362061c-2.1170044-0.9049072-5.6182861-2.3925781-7.2045898-3.0158691   h0.000061c-0.5964966-0.2346191-1.1258545-0.3328857-1.5892334-0.3327637   c-0.7593994-0.0021973-1.326355,0.2702637-1.6801147,0.5495605c-0.3565063,0.2792969-0.5144653,0.555542-0.5378418,0.5965576   c-0.0670166,0.1206055-0.0830078,0.2615967-0.0446777,0.394165c0.038269,0.1325684,0.1270142,0.2432861,0.2480469,0.3096924   c0.0015259,0.0008545,0.6012573,0.3294678,1.5258789,0.8395996c1.3868408,0.7651367,3.5006714,1.9365234,5.3986816,3.0093994   c0.4387817,0.2480469,0.8635864,0.489502,1.2675781,0.7207031c-2.0839844-0.401123-3.6279297-0.5576172-4.7680054-0.5581055   c-0.5544434,0.0009766-1.0168457,0.0366211-1.4073486,0.0993652L27.8514194,61.0733643z M38.9226494,77.8796387   c-0.0797119,0.0349121-0.1483765,0.0751953-0.2236938,0.1119385c-0.3377075-0.4379883-0.675354-0.8762207-1.0234375-1.3496094   l-0.7213135-1.1429443c1.7607422,0.4614258,3.8779297,1.0153809,5.5386963,1.4473877   c-0.3291626,0.0563965-0.666687,0.1175537-1.0092773,0.1884766C40.5696831,77.3250732,39.6524467,77.5638428,38.9226494,77.8796387   z M94.6918106,104.8041992c-0.109375,0.1557617-0.1980591,0.27771-0.2589722,0.3601074l-0.0755615,0.1008301   c-0.170166,0.1766357-0.8040161,0.927124-1.46698,2.7869873c-1.8393555-3.3922119-5.5671997-7.0637207-9.0552979-10.2088623   c-1.9188843-1.7254639-3.7637939-3.2806396-5.1691284-4.5030518c-0.7023315-0.6108398-1.295166-1.1390381-1.7265015-1.5571289   c-0.2154541-0.2086182-0.3905029-0.3900146-0.5150757-0.5343018c-0.1245728-0.1414795-0.1976318-0.2568359-0.203186-0.2750244   c-0.4314575-0.946167-1.3069458-1.9727783-2.0834961-2.8077393c-0.019104-0.0205078-0.0372314-0.0390625-0.0562134-0.059082   c2.5356445,0.8745117,5.5719604,1.6866455,8.4888306,2.347168c2.1099854,0.4770508,4.1469116,0.8729248,5.8620605,1.1502686   c1.7184448,0.2770996,3.1008301,0.4373779,3.9591064,0.4385986c0.1099854,0,0.211792-0.0026855,0.3059692-0.0083008   l0.00177-0.0001221c0.1396484-0.0087891,0.3366089-0.0136719,0.5775146-0.0136719   c1.3348999-0.0003662,3.9827881,0.1387939,7.0177002,0.3182373c-0.3812256,0.6833496-1.8654785,3.4672852-2.9577637,7.2879639   c-0.3945923,1.385376-1.1455688,2.8139648-1.7985229,3.8835449   C95.2117691,104.0458984,94.9104996,104.4926758,94.6918106,104.8041992z M119.755043,114.2333984   c-1.4219971,2.6419678-3.2072144,5.4542236-4.9471436,7.0495605c-1.4477539,1.3325195-2.7268066,2.5917969-3.8623657,3.795166   c-1.5169678-5.6945801-5.6630859-10.2103271-9.4555054-13.3372803c-3.1047363-2.5562744-5.9762573-4.1842041-7.0335693-4.7498779   c0.0043945-0.008667,0.0092773-0.0194092,0.0136719-0.0279541c0.201416-0.3929443,0.3713989-0.6496582,0.4849854-0.8026123   l0.125061-0.1557617l0.0251465-0.0272217l0.0021973-0.0021973l-0.0003662-0.0003662l0.0518799-0.0570068   c0.0152588-0.0272217,2.2915039-2.953125,3.1710205-6.006958c0.6102905-2.1363525,1.350647-3.946167,1.9370728-5.2185059   c0.2931519-0.6361084,0.5478516-1.1379395,0.7283325-1.479126c0.0289307-0.0546875,0.0525513-0.0982666,0.0775146-0.1445313   c2.1627808,2.4250488,10.5142822,11.1451416,21.7047729,14.28125c0.0632935,0.0177002,0.126709,0.0197754,0.1884155,0.0137939   c-0.0394287,0.1191406-0.0887451,0.2493896-0.1239014,0.3635254c-0.0040894,0.0100098-0.0615234,0.1520996-0.1739502,0.4187012   C122.2612686,109.1114502,121.1811295,111.5898438,119.755043,114.2333984z M133.3394012,87.4849854   c-1.4953613,4.0854492-2.9168701,7.9560547-5.0657349,10.3325195c-0.8525467,0.9515381-1.6921463,2.1602783-2.4587479,3.4467773   c-3.0287476-1.4532471-5.1577148-3.618042-6.527771-5.4317627c-0.6904297-0.9136963-1.1879272-1.7363281-1.5110474-2.3270264   c-0.0831299-0.1519775-0.1538086-0.2872314-0.2142334-0.4061279c0.1293335-0.0004883,0.2635498-0.0040283,0.3914795-0.0040283   c1.4871826,0,2.8696899,0.0267334,3.8796997,0.0533447s1.6437378,0.0532227,1.6453857,0.0532227   c0.2850342,0.0118408,0.5257568-0.2095947,0.5376587-0.4946289s-0.2094727-0.5257568-0.4945068-0.5375977   c-0.0043945-0.0002441-2.5695801-0.1074219-5.5682373-0.1074219c-0.7498169,0-1.5267944,0.0068359-2.2979736,0.0236816   l0.0020752-0.0001221c-0.1136475,0.0020752-0.2386475,0.003418-0.3744507,0.003418   c-2.0490723,0.0004883-6.6011353-0.2744141-11.0992432-0.5498047c-4.5054932-0.2752686-8.954895-0.5511475-10.9071045-0.5516357   c-0.2546387,0-0.4678955,0.0046387-0.6424561,0.015625l0.00177-0.0001221   c-0.0699463,0.0041504-0.1520386,0.0065918-0.2445679,0.0065918c-0.7366333,0.0012207-2.1077881-0.1517334-3.7941895-0.425415   c-5.0653687-0.8156738-13.1102295-2.720459-17.1272583-4.6162109c-5.7371826-2.6975098-14.2398643-4.9433594-14.2544518-4.9487305   l-0.1321411-0.0170898c-0.0494995,0.0009766-0.2233276-0.0142822-0.4482422-0.0463867   c-1.6121826-0.2236328-6.1612549-1.1835938-8.1764526-1.6882324h0.000061   c-0.9672852-0.2374268-2.581604-0.2954102-4.3023071-0.2982178c-1.953125,0.0001221-4.0007935,0.0883789-5.1588135,0.1478271   c0.0522461-0.0534668,0.0897827-0.1138916,0.1141968-0.1811523c0.2713013-0.1367188,0.6141357-0.2747803,1.007019-0.394043   c1.0136108-0.3151855,2.2974854-0.5505371,3.3181763-0.7022705c0.5108032-0.0761719,0.9569702-0.1322021,1.2745361-0.1690674   s0.5028687-0.0540771,0.5028687-0.0540771c0.2504272-0.0235596,0.4483643-0.2250977,0.4674072-0.4753418   c0.0189819-0.2503662-0.1463013-0.4794922-0.3898315-0.5402832c-0.8261719-0.206543-3.7041626-0.9572754-6.3695068-1.6547852   c-1.3331909-0.348999-2.6143799-0.6849365-3.5621948-0.9335938c-0.3424072-0.0898438-0.6392212-0.1676025-0.8811646-0.2312012   c0.0040894-0.0023193,0.0054932-0.0040283,0.0097046-0.0063477c0.3026123-0.1628418,0.9376831-0.3432617,2.1037598-0.3417969   c1.4906616-0.0007324,3.8378906,0.2873535,7.4514771,1.1707764c0.0274048,0.0067139,0.053833,0.0009766,0.0810547,0.0031738   c0.0120239,0.0083008,0.0320435,0.0209961,0.0427246,0.0285645c0.2330322,0.1644287,0.5553589,0.1088867,0.7199097-0.1241455   c0.1644897-0.2330322,0.1089478-0.5554199-0.1240845-0.7198486c-0.394043-0.2770996-1.2545776-0.788208-2.3640137-1.4284668   c-2.6480713-1.5266113-6.6293335-3.7232666-8.1289063-4.5480957c0.2064209-0.128418,0.4890137-0.2419434,0.9122925-0.2435303   c0.3171997,0.0001221,0.7156982,0.0666504,1.2113647,0.2612305h0.000061c1.15448,0.4534912,3.3850098,1.3914795,5.3202515,2.213501   c1.9362793,0.8223877,3.5775146,1.5286865,3.5810547,1.5302734c0.262085,0.1126709,0.565918-0.0083008,0.6787109-0.2702637   c0.0713501-0.1657715,0.0409546-0.3435059-0.0513306-0.4837646c-0.0053101-0.0942383-0.0271606-0.1881104-0.0861206-0.2706299   c-0.8772583-1.2248535-2.7504883-3.2167969-4.4255981-4.9356689c-1.0159302-1.0413818-1.9485474-1.9685059-2.5286865-2.5404053   c0.0978394-0.0131836,0.1914063-0.0349121,0.2961426-0.0352783c0.6206665-0.0024414,1.3719482,0.2437744,2.164856,0.6690674   c1.1908569,0.6345215,2.4628906,1.6507568,3.6056519,2.6405029c1.147644,0.9916992,2.1567993,1.9481201,2.9124756,2.5023193   l0.0002441,0.0002441c0.7357788,0.5393066,1.5469971,0.7475586,2.3088379,0.7454834   c1.8022461-0.0096436,3.3707275-1.0708008,4.0230103-1.4769287c0.2504272-0.1658936,0.3796997-0.3829346,0.4967651-0.6148682   c0.1972046-0.4088135,0.3357544-0.9185791,0.4816284-1.4902344c0.2150269-0.8533936,0.4326172-1.8361816,0.7315063-2.6431885   c0.1484375-0.402832,0.3173218-0.7596436,0.5003662-1.0269775c0.1835938-0.2694092,0.3743286-0.4404297,0.5595703-0.5236816   l0.0002441-0.0001221c0.3868408-0.1762695,0.6669312-0.2280273,0.8561401-0.2277832   c0.277771,0.0065918,0.3807373,0.0888672,0.4689331,0.1804199c-0.9782104,1.1240234-1.2647705,2.6612549-1.2670898,4.1625977   c0.0014038,2.2772217,0.6553345,4.5800781,0.8934937,5.539917c0.4641113,1.8188477,1.9005127,3.8121338,1.9129639,3.8399658   c0.0651245,0.0919189,0.1601563,0.1608887,0.2677002,0.194458c0.0048218,0.0015869,2.2816162,0.711792,5.1892662,1.4753418   c2.9107666,0.7633057,6.4397583,1.5811768,9.0050049,1.7963867c2.473938,0.2059326,6.4487915,0.746582,10.1552124,1.3696289   c1.8535767,0.3115234,3.6417847,0.6437988,5.1430664,0.9644775c1.4988403,0.319458,2.7205811,0.6326904,3.3980713,0.885376   l0.2041016,0.0317383c0.00177-0.0001221,0.6749878-0.0317383,1.7744141-0.0793457   c3.2967529-0.1429443,10.4157104-0.4287109,14.5259399-0.4285889c0.390564,0,0.7537842,0.0028076,1.083374,0.0084229h0.0022583   l0.2119751,0.0015869c2.5664063-0.0014648,5.0519409-0.7536621,7.1260986-1.4888916   c1.036377-0.368042,1.97052-0.7333984,2.7487793-1.0014648c0.7740479-0.2703857,1.4082642-0.4328613,1.7529297-0.4278564   c0.2852173,0,0.5164795-0.2313232,0.5164795-0.5164795c0-0.2595215-0.1945801-0.46521-0.4438477-0.5018311   c1.3956909-0.3481445,2.867981-0.5788574,4.3270874-0.5756836c2.104805,0.0008545,4.162178,0.4681396,5.9524612,1.7088623   c0.0767822,0.0532227,0.1628418,0.074585,0.2496948,0.0819092c0.0385742,0.2979736,0.0818481,0.5856934,0.1308594,0.8566895   c0.1657715,0.9101563,0.3987427,1.6522217,0.5805664,2.3459473c0.1825562,0.6955566,0.3162231,1.3393555,0.3165894,2.1021729   C134.0461884,84.993042,133.8705292,86.0379639,133.3394012,87.4849854z"/><polygon points="56.5359306,60.8822021 56.5361748,60.8820801 56.5362358,60.8820801  "/></g><text x="0.0" y="191.1724963575" font-size="8.134999845000001" font-weight="bold" font-family="Arbeit Regular, Helvetica, Arial-Unicode, Arial, Sans-serif" fill="#000000">Created by ICONGALAXY</text><text x="0.0" y="199.3074962025" font-size="8.134999845000001" font-weight="bold" font-family="Arbeit Regular, Helvetica, Arial-Unicode, Arial, Sans-serif" fill="#000000">from Noun Project</text></svg>