<svg xmlns="http://www.w3.org/2000/svg" xmlns:xlink="http://www.w3.org/1999/xlink" version="1.1" x="0px" y="0px" viewBox="-8.075000000000001 -16.269999690000002 177.65 219.64499581500002" style="enable-background:new 0 0 161.5 162.6999969;" xml:space="preserve"><g><path d="M159.711792,98.5676575c-0.0005493-1.1674576-0.179718-2.9337234-1.0465393-4.7705917   c-0.8643341-1.836235-2.4325562-3.7324371-5.131073-5.1012344c-0.0169373-0.0086212-0.035553-0.0108719-0.0530396-0.0176468   c-0.0033722-0.0023727-0.0049744-0.0061798-0.0084991-0.0085068h-0.0000763   c-0.0175781-0.0113907-0.8437195-0.5579758-2.0708771-1.1088867c-1.2285156-0.5488281-2.8550568-1.1110535-4.5147247-1.1140213   c-0.4635925,0.0000381-0.93013,0.0449677-1.3891449,0.1505585l-0.1598206,0.0635376l-0.0500641,0.0286026   c-0.1209869,0.0684052-0.4485779,0.2470398-0.8105011,0.4021683c-0.1804504,0.0775833-0.3696289,0.1490707-0.5392456,0.1982117   c-0.1687317,0.0499039-0.320282,0.0742569-0.4022827,0.0731277l-0.047821-0.0027237l-0.0098572-0.0016479   c-0.0834503-0.0249863-0.3787079-0.1690903-0.7047577-0.3535767c-0.4985657-0.2788467-1.1229401-0.6596298-1.6187592-0.9687271   c-0.4962463-0.309288-0.8632202-0.5461731-0.8641052-0.5466995c-0.1446533-0.0933456-0.3237305-0.1158905-0.4870148-0.0613785   c-0.163269,0.0545578-0.292923,0.1802063-0.3523712,0.3417511l-0.6915283,1.8770676   c-0.5439606,0.0783463-1.677002,0.251564-2.8796844,0.4984436c-0.8331299,0.1712952-1.6940155,0.3760452-2.4198761,0.6143341   c-0.3635254,0.1197433-0.6932068,0.2470322-0.9781036,0.3917313c-0.284256,0.1485901-0.5296936,0.2995834-0.7273865,0.5543213   c-0.2359619,0.3237762-0.3371277,0.6959763-0.4144745,1.1227722c-0.0726929,0.4260254-0.1026917,0.9068604-0.1029358,1.4134064   c0.000473,0.9260712,0.1018982,1.9338303,0.2697296,2.7843246c0.0844879,0.4258347,0.1847076,0.8110657,0.3060913,1.1377335   c0.0165253,0.0443268,0.0385895,0.0797882,0.056076,0.1220703l-0.6761017,0.2868271   c-0.1404114-1.6241302-0.249527-3.0221329-0.280899-4.136879c-0.0444489-1.4745026-0.2457428-4.0243149-1.3265533-6.3445435   c-0.5414886-1.1590347-1.3104248-2.2646713-2.4028702-3.1203384c-1.0514374-0.8255081-2.4047089-1.4019394-4.0783539-1.5776825   c-0.0051346-0.0042953-0.006897-0.0057373-0.0122757-0.0103149c-0.3146667-0.2662506-1.1248474-0.9655533-1.9642334-1.795105   c-0.8384247-0.8251495-1.7091064-1.7988052-2.1195679-2.5317612c-0.293335-0.5177765-0.8052139-1.2528229-1.5331573-2.1327286   c-2.1813431-2.6312103-6.2876205-6.5240631-11.8930283-8.7943497c-1.8105927-0.7324753-3.0460052-1.3381882-3.9779816-1.8505936   c-1.3957977-0.7658501-2.124382-1.3380241-3.1359482-1.8471756c-1.0040207-0.5032959-2.2204971-0.8871269-4.4625015-1.2574768   c-0.0836029-0.0274811-0.3448334-0.1135674-0.7540207-0.2506447c-1.488945-0.498764-4.7823105-1.622654-7.2250519-2.5999184   c-3.2691269-1.3093452-5.5547791-1.9888306-8.7505798-2.4046745c-0.7888412-0.3847923-7.111763-3.4456024-12.4145355-5.0069962   c-1.4437752-0.4240265-3.4851151-0.8149567-5.8336678-1.1769218c-7.0393143-1.0831337-16.8062744-1.8834877-20.5795822-2.1312027   c-0.6763573-0.0443687-1.3381119-0.0682373-1.9807701-0.0682373c-2.0983849,0.0014839-3.993866,0.2498817-5.5349617,0.8991203   c-1.5374069,0.6422958-2.7342262,1.7397079-3.2481117,3.3388939c-1.0204716,3.1431274-1.676609,6.3623161-1.6779728,9.1464844   c0,0.16576,0.0022469,0.3305969,0.0073814,0.4944725l-0.0000801-0.0010834   c0.0024872,0.0844841,0.0038509,0.1986923,0.0037708,0.337574c0.0004807,2.0280266-0.2865086,9.0941772-0.8507805,16.504158   c-0.282095,3.7068024-0.6335907,7.5045395-1.0522423,10.8089752c-0.4171257,3.30159-0.9078236,6.1217041-1.4432926,7.8189697   c-0.0220642,0.0700836-0.0505466,0.1375198-0.0743752,0.2068405c-0.0080223,0.0046921-0.01717,0.0048904-0.0249519,0.010025   c-0.0011234,0.0006409-0.389286,0.2559814-0.9986477,0.6534119c-0.9140034,0.5961227-2.3226357,1.5097656-3.649271,2.3499146   c-1.3225441,0.8381805-2.5809031,1.6113815-3.1333809,1.8961639c-0.7013874,0.3662567-1.9165812,0.7118149-2.9279451,0.9440079   c-0.5073471,0.1176224-0.9676781,0.2103653-1.2999592,0.2734299c-0.1661606,0.0315704-0.3003082,0.0557175-0.3924551,0.0718842   c-0.0921459,0.0161667-0.1402054,0.0240326-0.1403656,0.0240707c-0.273591,0.0448532-0.475214,0.2822189-0.475214,0.5594635   c-0.0006018,0.4539108,0.0945129,0.8605652,0.279809,1.2000656c0.2778034,0.5137253,0.7424269,0.8341751,1.2176008,1.006073   c0.088335,0.0322495,0.1782751,0.0561981,0.268055,0.0804672c-0.4081402,0.1501541-0.7777691,0.2780075-1.0850573,0.3787003   c-0.3320799,0.1088333-0.5973272,0.1892242-0.7783308,0.2420959c-0.0905018,0.0264359-0.1599827,0.0459747-0.2062359,0.0587692   l-0.0546379,0.0148849c-0.0416403,0.0085831-0.2908812,0.0597305-0.6871471,0.1372757   c-0.649117,0.1270447-1.6594782,0.3177567-2.6430421,0.4757767c-0.9787903,0.1585388-1.9511616,0.282135-2.4441872,0.2803268   l-0.1385605-0.0037689c-0.2512465-0.0156021-0.4818733,0.135437-0.5679221,0.371994   c-0.0112727,0.0361099-0.1272881,0.344841-0.1296148,0.7763672c-0.0006819,0.3322449,0.0773838,0.77845,0.4196935,1.1476364   c0.1686075,0.1816483,0.3951426,0.329071,0.6610315,0.4233093c0.021462,0.0076599,0.0472164,0.0101089,0.0692,0.017128   c-0.1343887,0.1501923-0.2475157,0.2936096-0.3347681,0.4442062c-0.0942726,0.1662369-0.1705329,0.3491287-0.1726992,0.5777054   c-0.0056164,0.2144623,0.0964789,0.454834,0.2457504,0.5978088c0.2254519,0.2178345,0.4649444,0.2825394,0.7091703,0.3334045   c0.2470345,0.0462112,0.5174165,0.0612183,0.8250256,0.0616608c0.4505029-0.0001602,0.9789104-0.035347,1.5760775-0.0878983   c0.4631791-0.0413132,1.6170754-0.0848389,3.0521045-0.1234741c2.1575985-0.0584488,4.9793177-0.1092377,7.2604742-0.1453781   c1.1406574-0.0180511,2.1462841-0.0324554,2.8667679-0.042366c0.7204037-0.0098648,1.1542168-0.0152435,1.1554203-0.0152435   l0.0157261-0.0003967c0.5120411-0.020546,1.0084362-0.0294876,1.4884644-0.0294876   c1.6649742,0,3.1323357,0.1077881,4.3884487,0.2167435c1.257555,0.1085129,2.298727,0.2201614,3.1426868,0.2209625   c0.4760971-0.0011215,0.8918591-0.0333405,1.2707939-0.1487122c0.3736401-0.1110001,0.7378941-0.3411865,0.9436092-0.7123413   c0.7649307-1.3574829,0.9969635-2.7475433,0.9954376-4.1127319c-0.0012054-0.4528656-0.028965-0.9042892-0.0669937-1.355278   c0.3177185,0.0259171,0.6223602,0.0428467,0.9026909,0.0428467c0.8348122-0.0002823,1.5142174-0.1112061,2.0739975-0.3295135   c0.8423538-0.3209686,1.3894539-0.925354,1.6559868-1.5915222c0.2722282-0.6657257,0.3145905-1.3712845,0.3163528-2.0368118   c-0.0002403-0.492981-0.0265541-0.9677963-0.0262337-1.3837204c-0.0002403-0.554924-0.0327339-1.3845215-0.0326538-2.4994659   c0.0004807-3.449852,0.30793-9.5976334,2.8553734-17.8173141c1.4581375-4.7041245,1.8823242-8.4859009,1.8822441-11.2876358   c0.0000801-2.2765045-0.2793694-3.9000015-0.5084305-4.8517532c0.0990067,0.0651093,0.196888,0.1297379,0.2977409,0.1957245   c2.7656784,1.8077927,6.2053032,3.9123154,8.9804459,5.1221695c2.6219826,1.1395798,6.77808,2.2250366,10.3068428,3.0415955   c2.8881111,0.6671295,5.3414421,1.1462784,6.1375847,1.298439c0.2739944,0.515686,0.976265,1.7338486,2.1401901,3.0533066   c1.5185471,1.7198944,3.8348465,3.6183395,7.0038528,4.2278671c0.444725,0.0847244,0.9649506,0.1155319,1.5540924,0.1160126   c1.6447525-0.000885,3.8311539-0.2514496,5.9533691-0.498642c2.1167603-0.2479553,4.174469-0.4922638,5.4593048-0.4909363   c0.353508-0.0004044,0.6469116,0.0190887,0.8461304,0.0538712c0.4488144,0.073616,1.0658798,0.3822632,1.7341309,0.9083862   c1.0062714,0.7857971,2.1320877,2.0356903,3.1833649,3.5395584c1.052803,1.5039444,2.0361328,3.2627487,2.7891083,5.0703354   c1.5000992,3.5984039,3.2899933,6.3597107,4.1863403,7.6404572c-2.0395737-0.3811874-3.9722061-0.8423157-5.6138306-1.410881   c-4.1591415-1.4391632-6.825737-1.9272537-9.306427-1.9264145c-2.8015442,0.0030899-5.2791824,0.6039505-9.4288635,1.0773621   c-3.926796,0.4500198-8.0053864,0.7370911-11.0996933,0.911232c-1.5471954,0.0870895-2.8485565,0.146019-3.7626419,0.1831284   c-0.796463,0.0323715-1.2956657,0.0480194-1.4120827,0.05159c-0.0243073-0.001564-0.0707626-0.0046921-0.1602211-0.0116348   c-0.4232254-0.0326157-1.5174294-0.1309357-2.6544762-0.3362122c-0.5681229-0.1023331-1.1469955-0.2317886-1.6512527-0.3886414   c-0.5036163-0.1549683-0.9335823-0.3445969-1.1850281-0.5266037c-0.5497475-0.3911285-1.2240982-0.6906738-1.9063911-0.9038162   c-0.6834183-0.2112885-1.3681183-0.3345261-1.9594269-0.3357697c-0.3481255,0.0025253-0.6650429,0.0370712-0.9678383,0.1736221   c-0.150032,0.0696793-0.3021545,0.1723785-0.4219398,0.3308792c-0.1208305,0.1565323-0.1902313,0.3694305-0.1878242,0.5681229   l0.0017662,0.0529099h-0.0001602l0.0008812,0.0352631c0.0031319,0.1463852-0.0599327,0.4692001-0.1716156,0.8216171   c-0.1653557,0.5344238-0.4249077,1.1619568-0.6415329,1.6477203c-0.0377121,0.0845261-0.0715675,0.1582642-0.1059875,0.2333145   c-0.0529518,0.0500259-0.0974007,0.1107254-0.1288528,0.1814499h-0.0000801   c-0.006176,0.014122-0.1587791,0.3577118-0.3132248,0.855835c-0.0417213,0.1357498-0.0831223,0.2840958-0.1225166,0.4391861   c-0.0411568,0.0146408-0.0836792,0.0234299-0.1219521,0.0483017c-0.0426025,0.0281601-0.3726768,0.248436-0.7029114,0.7179184   c-0.3301544,0.4671478-0.6522064,1.1947327-0.6506004,2.1673813c-0.0020065,0.4979248,0.1388817,0.9311371,0.3715553,1.2569199   c0.0973206,0.1364288,0.2069969,0.2485962,0.3214874,0.3474426c-0.1074295,0.2935257-0.2421379,0.7621231-0.2463112,1.2986298   c0.0002403,0.3100204,0.0484581,0.6489563,0.1985741,0.9799576c0.1484299,0.3304749,0.4074974,0.6446228,0.771431,0.8699951   c0.2964554,0.1841736,0.627655,0.2453079,0.9509888,0.2455902c0.1148911-0.0005188,0.2307472-0.0105896,0.3468437-0.0246353   c0.0318527,0.1875458,0.099247,0.4268417,0.2638016,0.6841431c0.141449,0.2187881,0.3604012,0.4372253,0.6582222,0.5883408   c0.2975006,0.1523972,0.6636009,0.2362823,1.0930824,0.235878c0.4323692-0.0010834,0.8581619-0.1085129,1.2717552-0.2696152   c0.0264778,0.0106735,0.0481415,0.0285645,0.0767021,0.0353012h-0.0000801   c0.0243912,0.0047302,0.8667488,0.2064362,1.8501511,0.2077179c0.4549942-0.0007172,0.9420853-0.0423203,1.4084702-0.1865005   c0.4621391-0.1432114,0.925396-0.4023209,1.2322044-0.8608475c0.1927185-0.2891159,0.3072891-0.5882568,0.3267059-0.8936615   c1.0727806-0.5676422,1.8326569-1.3493805,2.3373985-2.0157852c0.3218079-0.4253922,0.5390778-0.8012772,0.6733055-1.0596695   c0.3328819-0.0036087,0.88937-0.0091858,1.6301537-0.014801c1.2411118-0.0093842,2.9820633-0.0187759,4.9808807-0.0187759   c3.2309418,0,7.135994,0.0245895,10.6893082,0.1132889c3.5501862,0.0880127,6.7621155,0.2431412,8.5532913,0.493988   c2.04142,0.2848663,3.6905136,0.3877182,5.0087204,0.3877182c0.4748917,0.0000458,0.9022903-0.0144806,1.2943878-0.0375061   c3.3546524,1.9160995,8.1267776,4.3923035,13.0710678,6.3976593c4.9552078,2.0058823,10.066391,3.5495453,14.1680908,3.5543976   c1.6933746-0.0008011,3.2252426-0.2649689,4.5023727-0.9097519c1.2046051-0.6088791,2.1367416-1.2931747,2.8490372-2.0129776   c0.038681,0.0070572,0.0749359,0.0210571,0.11586,0.0198593c0.0831146-0.0014496,0.8642578-0.0462189,1.624939-0.7868347   c0.2130127-0.2074432,0.417923-0.4744186,0.6045532-0.795105c0.094986,0.0082626,0.1918335,0.0014038,0.2845764-0.0413971   l6.5750885-3.0352173c1.2304382,1.2939453,2.6673889,2.1848755,4.172226,2.7497482   c0.161026,0.0605011,0.3254242,0.1014557,0.4878082,0.154808c0.0133209,0.0684814,0.0372314,0.1360397,0.077179,0.1982956   h-0.0000763c0.230423,0.3590775,0.5284119,0.7391815,0.9078217,1.1437073   c0.6809387,0.7266617,1.48349,1.2216949,2.3208771,1.5292206c0.8381042,0.308136,1.7103882,0.4323349,2.5527344,0.4324493   c1.0179138-0.0003967,1.9933624-0.1807175,2.8306732-0.453186c0.8384247-0.2753601,1.5349884-0.6329117,2.0206451-1.0453415   c0.5150909-0.4417572,1.0045013-0.9640274,1.3779755-1.5474396c0.3710785-0.5824051,0.6343231-1.234726,0.6361694-1.9341507   c0-0.0011597-0.0001678-0.002327-0.0001678-0.0034866c1.8868103-1.410759,2.9508514-3.2847366,3.5291595-4.8914261   c0.6494904-1.8027725,0.7245789-3.2666473,0.7333221-3.4899292   C159.6413574,99.7944031,159.7116394,99.2982483,159.711792,98.5676575z M132.9105377,97.0760269   c0.1847076-0.078392,0.3138733-0.2476807,0.3405151-0.4466171c0.0260773-0.1949997-0.0513458-0.3875961-0.2027435-0.5121994   l0.0006409-0.000679c-0.0085907,0.0006409-0.1165771-0.1686096-0.1987457-0.4187317   c-0.1323853-0.3780518-0.256897-0.9419632-0.3424988-1.5568619c-0.0864105-0.6157837-0.1367188-1.2872391-0.1365662-1.8988876   c-0.0002289-0.4596558,0.0288849-0.8866882,0.0865784-1.2219391c0.0531921-0.3344879,0.1538086-0.5770264,0.2033081-0.6330643   c0.0042419-0.0140457,0.1279602-0.1234818,0.3352051-0.2249374c0.3627319-0.186058,0.9562073-0.3855133,1.6192474-0.560173   c0.2844238-0.0754242,0.5828857-0.1461487,0.8847198-0.2139816l0.1200256,0.9944763   c0.0375366,0.3108597,0.3199615,0.5324173,0.6307831,0.494873c0.3108978-0.0375137,0.5324097-0.319931,0.4949493-0.6307907   l-0.1315002-1.0890274c0.3758087-0.0720825,0.74263-0.1391983,1.0716553-0.1946793   c0.4549103-0.0767822,0.8467712-0.136795,1.1242065-0.1775131c0.277359-0.0407181,0.4376678-0.0617371,0.4380646-0.0618591   c0.207962-0.0273209,0.3855286-0.1692505,0.4580536-0.3660965l0.5657959-1.5359268   c0.2358856,0.1484299,0.5201416,0.3256607,0.8210907,0.5093155c0.3761292,0.2295456,0.7740784,0.4665909,1.1265411,0.6638412   c0.3584747,0.198494,0.6455383,0.3518524,0.8985138,0.43927c0.1457825,0.048378,0.2848206,0.0626602,0.4175262,0.0630188   c0.2857056-0.0016861,0.5532837-0.0660324,0.8176422-0.1482697c0.6334381-0.2022629,1.2431946-0.5326157,1.4651184-0.6572952   c0.3437195-0.0735321,0.7012329-0.1106796,1.0682983-0.1106796c1.3971558-0.0029755,2.9069519,0.4991989,4.0505829,1.0146866   c0.5722961,0.2567444,1.054245,0.514534,1.3905792,0.7067261c0.0040894,0.002327,0.0068207,0.0040131,0.01091,0.00634   c-1.3352966,1.3681183-2.1630554,3.0404739-2.9206848,4.3797455c-0.42659,0.7609177-0.8320007,1.4131622-1.2427826,1.8369904   c-0.204834,0.2128525-0.4071808,0.3680649-0.6100922,0.4688721c-0.203949,0.1004944-0.4083862,0.1523209-0.6536407,0.1531677   c-0.0981293,0-0.2030792-0.0088654-0.3161163-0.0285645c-0.1031036-0.0178909-0.2056427-0.0271988-0.3068848-0.0271988   c-0.2374115-0.000679-0.4682465,0.0532761-0.6677856,0.1519623c-0.3526154,0.174057-0.5918579,0.4616928-0.7579498,0.7605591   c-0.2486267,0.4526291-0.3632813,0.9603348-0.4324493,1.4337845c-0.0669861,0.4728012-0.080307,0.9109497-0.0804749,1.2028351   c0.0000916,0.2143402,0.0077057,0.3493271,0.008194,0.3581543c0.0156403,0.2699814,0.2197571,0.4912643,0.4876404,0.5286942   l0.0430908,0.0064926c0.230423,0.0349045,1.3533478,0.2314301,2.3650818,0.6688156   c0.5056152,0.216507,0.9787445,0.4947891,1.2950134,0.8063736c0.3185272,0.3176804,0.4762573,0.625885,0.4789886,1.0080338   c0,0.067276-0.0053711,0.1386414-0.0170898,0.2146606c-0.0402679,0.2549362-0.1264343,0.4488144-0.2483063,0.6150589   c-0.1822205,0.2471542-0.4623108,0.4401093-0.8264771,0.5730972c-0.3619995,0.1326218-0.7996674,0.1982117-1.2415161,0.197731   c-0.7375641,0.0041733-1.4919128-0.190712-1.8937073-0.4339752c-0.7285156-0.4318085-1.147644-0.9139252-1.3985291-1.3797913   c-0.2496033-0.4659042-0.3300781-0.9263535-0.3302307-1.3111115c-0.0002441-0.2305069,0.0297699-0.4326477,0.0663452-0.5788727   c0.0181427-0.0728531,0.0380402-0.1317825,0.0534363-0.1692886l0.0170135-0.0374298l0.0009613-0.0018463l-0.0023193-0.0014038   c0.1764221-0.2491608,0.1267548-0.5941162-0.1187439-0.7790527c-0.2500916-0.188385-0.6054382-0.1383972-0.7938232,0.1116486   c-0.071167,0.0962372-0.1117554,0.1814041-0.1527557,0.2794037c-0.1157837,0.2877121-0.2023468,0.6848984-0.2040405,1.1768417   c-0.0001526,0.5419693,0.1148224,1.1934509,0.4647064,1.8465805c0.0671539,0.1256866,0.1510773,0.250206,0.2361298,0.3744431   c-0.5195923-0.0765381-1.1036682-0.1349869-1.6892853-0.1360321c-0.7849884,0.0031662-1.5796051,0.0965958-2.2545166,0.4577637   c-0.3353729,0.1813202-0.6406555,0.4411926-0.8538361,0.78936c-0.2131805,0.3453217-0.3246918,0.7665405-0.3248596,1.2290344   l-5.8464966,2.6988831c0.1596527-0.6454239,0.2546539-1.4195404,0.2548065-2.3563309   c0-0.2892761-0.00914-0.5935593-0.0277557-0.9140015c-0.1690521-2.8694611-0.4021149-5.4778442-0.600296-7.7218094   L132.9105377,97.0760269z M10.8303595,104.5303345c-0.0295658-0.054718-0.0511084-0.1260452-0.0730515-0.1964035   c0.3451576-0.0653076,0.8254671-0.1617889,1.3613358-0.2859879c1.0562544-0.2470322,2.3057871-0.5861359,3.192832-1.0414505   c0.4290009-0.2224045,1.1167488-0.6341171,1.9318256-1.1383362c1.3911419-0.86129,3.1302509-1.9823303,4.3691139-2.7874985   c-0.5337849,0.8172073-1.1881561,1.5717468-1.9268513,2.2599335c-1.653101,1.542099-3.6965294,2.7436523-5.5432281,3.6266861   c-0.319725,0.0751038-0.9747391,0.2052383-1.6289902,0.2039566c-0.522912,0.0030823-1.0286951-0.0901413-1.3341379-0.2827835   C11.0241995,104.7923737,10.9137602,104.6818542,10.8303595,104.5303345z M32.0298157,107.5138016   c-0.0015259,1.2446442-0.2019444,2.4017029-0.8498173,3.5569305c-0.0380306,0.0621338-0.0872917,0.1180191-0.2896366,0.1846924   c-0.19697,0.0623398-0.5194225,0.0994492-0.9364681,0.09832c-0.7431889,0.0008011-1.778101-0.1063843-3.0447235-0.2167435   c-1.2679863-0.1099167-2.7727375-0.2210007-4.486412-0.2210007c-0.4890137,0-0.99576,0.009346-1.5182304,0.0300903v-0.0000839   c-0.0005608,0-3.0978374,0.0382309-6.4452763,0.0984421c-1.6737194,0.0301285-3.4098988,0.0657501-4.8540745,0.104866   c-1.4474258,0.0394745-2.5885248,0.0809174-3.1210246,0.127449c-0.581481,0.0514297-1.0854983,0.0836792-1.476429,0.083519   c-0.2077608,0.0012894-0.3796577-0.0107498-0.5110774-0.0275192c0.0537553-0.0677948,0.1187429-0.1441345,0.2082419-0.2324295   c0.2414179-0.2449112,0.6090007-0.5619049,1.1073217-0.9460144c0.2479167-0.1912308,0.2938495-0.547226,0.1026568-0.7951431   c-0.1912332-0.2479172-0.5472221-0.2938843-0.7951393-0.1026535c-0.1041808,0.0804749-0.1972904,0.1553726-0.2918839,0.2309875   c-0.0407577-0.0076218-0.0794697-0.0216217-0.1226745-0.0199814L4.58811,109.4698181   c-0.2502031,0.0001221-0.4253898-0.0340195-0.5406833-0.0754166c-0.1728196-0.0659485-0.2187524-0.125885-0.2630806-0.1972122   c-0.0413997-0.0718842-0.0656698-0.1822433-0.0651484-0.3059235c0-0.0068588,0.0012436-0.0134354,0.001364-0.02034   c0.3827465-0.019371,0.838063-0.0697174,1.339112-0.1375961c1.9045067-0.2599945,4.3760934-0.7720337,4.3825517-0.7731552   l0.0290041-0.0068207c0.0223045-0.0064545,2.30338-0.6051865,5.0680132-1.9162979   c0.0670738-0.0172501,0.1154537-0.0304108,0.1206694-0.0315704c0.0902605-0.0259552,0.1638336-0.0766678,0.2276983-0.1370773   c0.2585077-0.1264877,0.5191011-0.2567444,0.7832241-0.395546c1.6230135-0.8538284,3.3268995-1.9423752,4.7876043-3.3026657   c1.4590988-1.3596115,2.6805496-2.9978714,3.2943249-4.946907c0.5762253-1.836792,1.062912-4.6808929,1.4865379-8.0167389   c0.454113-3.5847244,0.8263893-7.723053,1.1195564-11.7050018c1.1969013,0.3836288,5.1420689,1.5405731,9.3864193,1.543457   c0.7903671-0.0000381,1.591404-0.0408325,2.3874626-0.1355515c-0.7532959,3.0840836-2.1411476,7.151123-3.4514961,10.925354   c-0.7888412,2.2744522-1.5488815,4.446373-2.1263885,6.2536392c-0.2888374,0.9039307-0.5320206,1.7165222-0.7111778,2.4102478   c-0.1785965,0.6957703-0.2952538,1.26474-0.3245392,1.7239456c-0.0173302,0.2822189-0.0251122,0.5616684-0.0251122,0.8383026   C31.4986801,103.41539,32.0352707,105.5571442,32.0298157,107.5138016z M36.8529625,98.3603363   c0.0000801,1.1341171,0.0328941,1.9856186,0.0326538,2.4994659c0.0003204,0.4603729,0.0264778,0.9319763,0.0262337,1.3837204   c0.0003242,0.4062958-0.0214195,0.7950592-0.0909004,1.1343231c-0.1086349,0.5139618-0.2975807,0.8893738-0.679966,1.1774445   c-0.3843918,0.287674-1.0365181,0.5122375-2.141552,0.5122375c-0.3050423,0-0.646431-0.0188522-1.0195885-0.0556412   c-0.1562119-1.3098679-0.3547058-2.620575-0.3518982-3.950943c0-0.2554169,0.0071411-0.5116806,0.0228653-0.7689819   c0.0183754-0.3198853,0.1198692-0.8512573,0.29076-1.5099258c0.5977287-2.3197479,2.01511-6.2530365,3.4064903-10.299057   c1.1943359-3.4773788,2.3674049-7.0317307,3.0046883-9.8118896c0.1221123,0.038353,0.2570648,0.0633011,0.4033279,0.0618591   c0.1406441-0.0003662,0.2906799-0.0225449,0.4488182-0.0608597c-0.1371193,0.5006866-0.2829819,1.0101242-0.4456902,1.5352402   C37.1713219,88.5531006,36.8524818,94.8373489,36.8529625,98.3603363z M95.6197586,82.8390961   c-0.5572891-0.6769943-1.1221237-1.2774506-1.6824646-1.7845154c0.7442322-1.2865601,3.8143921-6.9646988,3.8223343-13.6504288   c0-1.3852844-0.1451416-2.8143768-0.4624557-4.2531395c0.4084625,0.1613884,0.7541809,0.3322792,1.0981369,0.5268021   c0.6439362,0.3637352,1.2997513,0.8216133,2.3117981,1.398243c1.0120468,0.5762711,2.373909,1.2648163,4.4498291,2.1043625   c3.5752945,1.4456253,6.5427551,3.6034241,8.7424011,5.6320114c1.0996552,1.0138855,2.0074005,1.9950485,2.7024536,2.8343887   c0.6944046,0.8377075,1.178688,1.5404587,1.4193802,1.9674911c0.3150711,0.5525589,0.7725525,1.1337204,1.2759323,1.6971512   c-0.0097885,0.0323334-0.0260773,0.0615311-0.0299301,0.0963135l-0.0012817-0.0001602   c-0.003212,0.0312119-0.4215393,3.1253204-6.4948578,9.2779465c-1.9287796,1.9529648-3.9796677,3.0557175-5.8188248,3.6765518   c-1.8384399,0.6201935-3.4650574,0.754097-4.5189056,0.7539825c-0.4006042,0-0.7181625-0.0192566-0.9325409-0.0380707   c-0.0896988-0.0079041-0.1566925-0.0152893-0.2087631-0.0215836c-0.5495911-1.0269699-1.1157074-2.1848755-1.6431503-3.4512177   C98.5983734,87.0858994,97.1379089,84.6851959,95.6197586,82.8390961z M51.5140724,100.8171616   c0.0986061,0.1311417,0.2465515,0.2121353,0.4102249,0.2245255c1.2072525,0.0891418,1.9028625,0.2950974,2.2310104,0.4758606   c0.1653595,0.0892181,0.2354813,0.1652374,0.2610779,0.202507l0.0206985,0.0468903l-0.0056953,0.021225   c-0.1153755,0.038269-0.3636131,0.0978012-0.6631165,0.1392822c-0.3493309,0.0504227-0.7731972,0.0857697-1.1945763,0.0856476   c-0.4404716,0.0006027-0.8803062-0.039917-1.22089-0.1283722c-0.3453979-0.0855255-0.56427-0.2264938-0.6301422-0.3244171   c-0.1173782-0.1505585-0.1939201-0.4275131-0.1921539-0.7838669c-0.001606-0.4172058,0.1010895-0.9061432,0.2190323-1.3160858   c0.2316284,0.0461731,0.5165329,0.0856857,0.8318443,0.0877762l-0.1692886,0.8126297   C51.3785591,100.5213852,51.4153862,100.6860657,51.5140724,100.8171616z M49.4426422,101.299675   c0.0522308,0.3263016,0.1576576,0.6501999,0.3730812,0.9410858c0.3210869,0.4179688,0.7809753,0.6167831,1.2543449,0.7420197   c0.1039009,0.0265961,0.2148628,0.0361862,0.322052,0.0555191c-0.2792091,0.1077118-0.5804787,0.2325974-0.9036522,0.3735657   c-0.1484299-0.0092697-0.4472122-0.0460968-0.6944885-0.1662445c-0.1596603-0.0754929-0.2906799-0.174263-0.3827858-0.3046417   c-0.0909042-0.1318207-0.1614265-0.3027954-0.1634331-0.6023407   C49.2487221,101.9078369,49.3322449,101.5731049,49.4426422,101.299675z M50.1315155,106.1300812   c-0.1802826-0.1146469-0.2729492-0.2342758-0.3402634-0.3779678c-0.0655518-0.143219-0.0970001-0.3188477-0.0967598-0.5104828   c-0.000885-0.2704163,0.0645065-0.5635834,0.133667-0.780571c0.0011215-0.0036926,0.0022469-0.0063782,0.0033684-0.0100327   c0.3562317,0.0874557,0.644825,0.0971985,0.7459183,0.097847l0.0356216-0.0003662   c0.0753365-0.0020447,0.1460228-0.0180511,0.215023-0.0486984c1.5219994-0.6811295,2.4828568-0.9178162,2.9657745-0.9118347   c0.1457825-0.0001221,0.2440643,0.0190125,0.3040771,0.0395889c0.0897026,0.0343018,0.1006927,0.0517502,0.1315002,0.0933533   c0.0252762,0.0379105,0.0534363,0.1207886,0.0706863,0.2381287c-0.0113945,0.0314102-0.0501442,0.1066666-0.1236382,0.2013855   c-0.105423,0.1408844-0.2707825,0.3095322-0.4748917,0.4871674c-0.010994,0.0075836-0.0219841,0.0122757-0.0330582,0.0199738   c-0.0150032,0.0105133-0.022625,0.0264816-0.0362625,0.0381088c-0.3178787,0.2684631-0.7167931,0.5524445-1.1370506,0.7911301   c-0.3661766,0.2103271-0.748642,0.3917313-1.1023865,0.5165329c-0.3530197,0.1257629-0.6789207,0.1912308-0.911274,0.1899872   C50.3011246,106.2036591,50.1881599,106.166626,50.1315155,106.1300812z M52.266407,107.5753784   c-0.1668816-0.0878906-0.2327538-0.1927109-0.2836189-0.3138275c-0.0431633-0.1075058-0.0507851-0.2156219-0.0511093-0.2417755   c0.0410004-0.0157242,0.0819168-0.0288467,0.1229973-0.0454102c0.7932549-0.3238144,1.5849037-0.8100204,2.2070999-1.3152466   c0.0359459-0.0293655,0.0651512-0.0592117,0.0999718-0.0886536c0.5523148-0.3764114,1.0758286-0.5186996,1.4437752-0.5174942   c0.2382088-0.0013275,0.4049301,0.0594482,0.4725647,0.1077499l0.0501442,0.0471725l0.0042534,0.0199814l-0.0192566,0.0823975   c-0.033535,0.0909042-0.1189842,0.2334747-0.2378883,0.3935776c-0.0021667,0.0026093-0.003849,0.0053329-0.0059357,0.0079803   c-0.0643463,0.0860138-0.1353531,0.1753922-0.2195969,0.2678604c-0.365696,0.4070129-0.8999596,0.8523026-1.4563713,1.1793671   c-0.5549622,0.3309555-1.1369667,0.5326614-1.5499191,0.5279694   C52.5570869,107.6866226,52.3804169,107.6333466,52.266407,107.5753784z M57.1136246,107.5251999   c-0.304081,0.0955505-0.6911201,0.1359863-1.071579,0.1352692c-0.1201096,0.0000381-0.2385292-0.0044937-0.3547859-0.0109558   c0.1760292-0.1336212,0.3463593-0.271019,0.5044975-0.4129486c0.2552986-0.2331161,0.4812317-0.4669952,0.6741905-0.7032394   c0.0924263-0.0332489,0.2103691-0.0605316,0.3458786-0.0594482c0.211895-0.0021667,0.4331741,0.0587692,0.5485458,0.1333466   l0.0036926,0.0032883c0.0055351,0.0572052,0.0120354,0.114769,0.0360222,0.1703339   c0.0153275,0.0354233,0.0421219,0.0606155,0.0633049,0.0911407c-0.0187759,0.0604172-0.0539169,0.1406479-0.1240387,0.2459946   C57.6254234,107.2902374,57.421875,107.4286346,57.1136246,107.5251999z M125.4064484,112.7323303   c-1.0556946,0.5355911-2.4142609,0.7883987-3.9904175,0.7876434c-3.8212891,0.0048141-8.8597794-1.487587-13.7419739-3.471283   c-4.2512512-1.7238235-8.3940353-3.8110962-11.5850983-5.5737534c0.9462509-0.1847763,1.3651428-0.4039307,1.4222717-0.4357376   c0.273674-0.1520386,0.3722763-0.4971619,0.2202377-0.770874c-0.1508408-0.2716217-0.4915009-0.3694687-0.7642136-0.2223969   l-0.0006409-0.0012054l-0.0076981,0.0038071c-0.1035843,0.0503082-1.2166443,0.5567322-4.0764313,0.5568924   c-1.2592392,0-2.8563385-0.0983658-4.8520279-0.3768463c-1.8954773-0.2636032-5.110054-0.4148026-8.6816635-0.5045395   c-3.5685577-0.0890579-7.4806671-0.1136093-10.7176285-0.1136093c-4.0046158,0-6.9750481,0.0376282-6.9766502,0.0376663   c-0.2275391,0.0028915-0.4330139,0.1432571-0.5182991,0.354187l-0.0002403,0.0003967   c-0.0144424,0.0354614-0.2459106,0.575264-0.7399826,1.211586c-0.4172058,0.5381165-1.0301781,1.1309891-1.840519,1.5793686   c-0.1447411-0.1247253-0.3056831-0.2206039-0.4713631-0.2886734c-0.203228-0.0824051-0.4164848-0.1219559-0.6311874-0.1430206   c0.0048943-0.0446854,0.0134811-0.0890121,0.0134811-0.1340637c0.000721-0.2056732-0.0545578-0.4113464-0.1550102-0.5847321   c-0.1511574-0.2623978-0.3880005-0.444809-0.6467476-0.5580521c-0.2606735-0.1138077-0.5503922-0.1655579-0.8591232-0.1659622   c-0.1185036,0.0002441-0.2431831,0.0170135-0.3673019,0.0327759l-0.0044136-0.0837631l-0.0008049-0.0074234   c-0.0376282-0.3198776-0.1397629-0.6878281-0.4346962-0.981514c-0.0239868-0.0238266-0.0550385-0.0410767-0.081192-0.0631027   c0.0105896-0.0043716,0.0219803-0.007019,0.0325737-0.0116348c0.077343-0.0373077,0.1527596-0.0666351,0.2662086-0.1743011   c0.0941925-0.095314,0.1730614-0.2061996,0.2398148-0.3484116c0.0652275-0.1412048,0.1150513-0.3149872,0.1152916-0.5148087   c0.0017662-0.2244492-0.0708466-0.4778214-0.2240868-0.6948471c-0.2318726-0.3287125-0.601181-0.5714493-1.1281433-0.760437   c-0.4054909-0.1440582-0.9164085-0.2580261-1.5680542-0.3371735l0.142334-0.683342   c0.1154518-0.0566406,0.2299423-0.1204681,0.339859-0.2027817c0.2445488-0.1838913,0.4592514-0.4385071,0.6101646-0.7528992   c0.1518021-0.3145905,0.2421417-0.6844559,0.2686996-1.1100082c0.0194969-0.3124619-0.2179909-0.5816422-0.5304146-0.601181   c-0.3125038-0.0195313-0.5816841,0.2179108-0.6011772,0.5304184h-0.0000801   c-0.0193367,0.3081284-0.0815163,0.5290451-0.1582184,0.6879501c-0.1174622,0.2363205-0.2574654,0.3535385-0.4461708,0.4444427   c-0.1877441,0.0878906-0.4325294,0.1282883-0.6834946,0.1276093c-0.1367989,0.0001984-0.2727089-0.0117188-0.3999596-0.029007   c0.1026993-0.2246857,0.221283-0.4923782,0.3407478-0.7799301c0.1619873-0.3904495,0.3251801-0.8155975,0.4514656-1.2224197   c0.1221123-0.4011154,0.2126122-0.7716293,0.2196732-1.132431c0.0816765-0.02668,0.2400551-0.0534363,0.4440842-0.0519485   c0.4286804-0.0012894,1.0328255,0.1001663,1.6228523,0.2846985c0.5911484,0.1826935,1.1749191,0.4501419,1.5839386,0.7437134   c0.479229,0.3387756,1.0889893,0.5685196,1.7541122,0.7599945c1.9855042,0.5621872,4.4905052,0.7106934,4.5105629,0.7137833   l0.0514297,0.0008469c0.0085831-0.0004425,8.4781952-0.2465134,16.3974075-1.153656   c4.2130661-0.4848022,6.680603-1.0731049,9.2997742-1.070015c2.3231964,0.0008392,4.8339767,0.4466934,8.9358368,1.864151   c4.4911423,1.5500793,10.7770004,2.3259659,15.9670486,2.7303696c5.1867523,0.4020844,9.2645493,0.4226227,9.2734528,0.4227448   c0.3130646,0.001564,0.5681229-0.2509232,0.569725-0.5640335c0.0016022-0.3131027-0.250885-0.5681992-0.5639496-0.5698013   c-0.0008011,0-0.2496796-0.0012436-0.7090073-0.0093918c-1.3957977-0.0247116-4.7103424-0.1134491-8.6346512-0.4220963   c0.6047897-0.3211288,1.3933105-0.7088928,2.3349915-1.0944443c2.0747223-0.8507004,4.8421631-1.668869,7.7453537-1.6676254   c0.4195328,0,0.8419571,0.0169296,1.2661438,0.053154c1.1726685,0.1010132,2.0512924,0.433815,2.73246,0.8963547   c1.0181427,0.6929245,1.6185226,1.7047272,1.9708939,2.7800369c0.3510284,1.0718613,0.439682,2.1912155,0.4389496,3.0074158   c0.0000916,0.3716354-0.0177307,0.6804047-0.0352173,0.8936996c-0.0088196,0.1066742-0.0174866,0.1894302-0.0237427,0.2443085   l-0.0074615,0.0608978l-0.0020905,0.0159683c-0.0165253,0.1143265,0.0020905,0.22966,0.0535889,0.3330841l-0.0001526,0.0000763   c0.0123596,0.0211792,0.5096283,1.0629959,0.5070648,2.4412994c-0.0009613,0.870079-0.1898346,1.8684387-0.8072205,2.8790436   C128.2615814,110.7833405,127.2054062,111.8207779,125.4064484,112.7323303z"/><polygon points="128.8833008,111.7509384 128.8833008,111.7509384 128.8832245,111.7509384  "/></g><text x="0.0" y="191.1724963575" font-size="8.134999845000001" font-weight="bold" font-family="Arbeit Regular, Helvetica, Arial-Unicode, Arial, Sans-serif" fill="#000000">Created by ICONGALAXY</text><text x="0.0" y="199.3074962025" font-size="8.134999845000001" font-weight="bold" font-family="Arbeit Regular, Helvetica, Arial-Unicode, Arial, Sans-serif" fill="#000000">from Noun Project</text></svg>