<svg xmlns="http://www.w3.org/2000/svg" xmlns:xlink="http://www.w3.org/1999/xlink" version="1.1" x="0px" y="0px" viewBox="-8.075000000000001 -16.269999690000002 177.65 219.64499581500002" style="enable-background:new 0 0 161.5 162.6999969;" xml:space="preserve"><g><polygon points="28.736084,7.8377934 28.7361927,7.8377934 28.7371807,7.8383784  "/><polygon points="28.6965408,11.8662739 28.6966133,11.8662739 28.6977482,11.8665667  "/><path d="M68.5513535,46.2892151c0.0515442-0.2425995,0.1026077-0.4702721,0.1496506-0.6751213   c0.2495804,0.6751213,0.4552383,1.4093552,0.55159,2.1684608c0.0264816,0.2057266,0.2149811,0.3514633,0.4209595,0.3248329   c0.205986-0.0266304,0.3515015-0.2150917,0.3250122-0.4208183c-0.4212875-3.2117233-2.4949036-5.8688927-2.5101166-5.8961067   c-0.1271896-0.1644669-0.3634949-0.1946068-0.5277786-0.0673103c-0.1642761,0.1273003-0.1943512,0.3634605-0.0671234,0.5279236   l-0.0000381-0.0002937l0.0195007,0.025753c0.1183014,0.1542206,0.7347412,1.0055122,1.3131485,2.2135277   c-0.0252075,0.0362892-0.0466385,0.0757942-0.0581284,0.1211548l-0.0000381-0.0002937   c-0.0007248,0.0029259-0.1761322,0.6929741-0.3523331,1.5220222c-0.1756592,0.8340225-0.3547211,1.7853966-0.3572083,2.393795   l0.0028534,0.1208572c0.0103531,0.2071915,0.1868896,0.3669701,0.3943329,0.3567276s0.3672256-0.1869965,0.3568726-0.3941841   l-0.0019379-0.0834007C68.2080841,48.0573463,68.3779984,47.0971947,68.5513535,46.2892151z"/><polygon points="132.4570313,7.8383784 132.4579163,7.8377934 132.4581604,7.8377934  "/><path d="M138.6404724,7.6747928l0.0007782-0.0008779c-0.0009918-0.0008779-0.0018005-0.0011706-0.0027771-0.0023413   l-0.0010986-0.0014629l-0.000412,0.0002923c-0.1213379-0.1120811-0.2121277-0.121738-0.2872925-0.1395893   c-0.0774841-0.0134611-0.1494751-0.0166802-0.2285919-0.016973c-0.3244934,0.0014634-0.789505,0.0664291-1.3402557,0.1603665   c-1.4665985,0.2525487-3.4682922,0.7234063-3.8810272,0.8214402c-0.0187225-0.0064383-0.0274658-0.0125837-0.030426-0.0140467   l-0.0024261-0.0079012c0.2754517-0.1404667,1.2643585-0.6511235,2.2459106-1.2331843   c0.547348-0.3248305,1.0891724-0.6689749,1.5087433-0.9908791c0.2102203-0.1618295,0.3898621-0.3163438,0.5312805-0.4734912   c0.0706787-0.0793056,0.1325378-0.1591959,0.1832733-0.2507925c0.0494537-0.0913033,0.092865-0.1978245,0.0940704-0.3347802   c0.0009155-0.0904255-0.025238-0.1934347-0.0776825-0.2788854l0.0006104-0.0002928   c-0.0003967-0.0005856-0.0011292-0.0008779-0.0015259-0.0017557c-0.0006256-0.0008783-0.0007782-0.0023413-0.0014343-0.0032191   l-0.0009918,0.0005851c-0.0640106-0.1047649-0.1656952-0.1670971-0.2418671-0.191679   c-0.0799561-0.0269232-0.1437531-0.0307274-0.2020264-0.0313125c-0.1609802,0.0020485-0.3062897,0.0386286-0.4832153,0.0901332   c-0.6038361,0.1820216-1.5257874,0.6034231-2.4087524,1.0186791c-0.875473,0.413208-1.714325,0.8237815-2.0378723,0.9487391   l0.0006104-0.0002928c-0.0292969,0.0114131-0.0453491,0.0137539-0.0708923,0.0225329   c0.1595001-0.2648387,0.4102478-0.6894593,0.663681-1.1538792c0.2088623-0.3827729,0.4185028-0.7901278,0.5800018-1.1591463   c0.08078-0.1846561,0.1496582-0.3599472,0.2007141-0.522655c0.0503082-0.1644638,0.086441-0.3116615,0.0878754-0.4723208   c-0.0009613-0.0898404-0.0105438-0.1908014-0.0694275-0.3040528c-0.0529785-0.1091547-0.1788483-0.2095304-0.3052979-0.2428913   l0.0008698-0.0029263c-0.0039825-0.0011706-0.0058899-0.0002925-0.0097656-0.0014632   c-0.0023346-0.0005853-0.0043945-0.0026338-0.0067291-0.0032191l-0.0005798,0.0023413   c-0.053772-0.0134616-0.1027985-0.0190217-0.1369171-0.0193143c-0.2176208,0.0061455-0.3619995,0.0915964-0.5123444,0.1875823   c-0.257309,0.1741207-0.524231,0.4369113-0.8179321,0.760571c-0.8724976,0.9674675-1.9334717,2.4804161-2.5131836,3.3492639   c-0.2927246,0.4372039-0.5955963,0.664-0.8600006,0.7915907c-0.2643661,0.1264205-0.4965363,0.151588-0.6412125,0.151588   l-0.1202774-0.0061455l-0.0254211-0.0035114l-0.0028534-0.0005856l0,0l-0.007164-0.0014629   c-0.1963272-0.0362883-0.3535156-0.1240797-0.4945679-0.2499151c-0.2104797-0.1869969-0.3687973-0.4652972-0.4648209-0.6982388   c-0.0483932-0.1158853-0.0821228-0.2194796-0.1031189-0.2917619l-0.0223465-0.0831099l-0.0002975-0.0011702   c-0.0088501-0.1340294-0.0490112-0.62186-0.2119064-1.165585c-0.0952148-0.3142953-0.2308578-0.649075-0.4416656-0.9469829   c-0.2091293-0.2958589-0.5069275-0.5618687-0.9061966-0.6780465c-0.3129807-0.0915964-0.567688-0.13081-0.7844238-0.1311028   c-0.337265-0.0035117-0.6029816,0.1094475-0.7559204,0.2759595c-0.1531296,0.1644635-0.1769028,0.3312683-0.1816254,0.3807244   c-0.0119247,0.1299324,0.0456924,0.2584014,0.1506424,0.3362432c0.2518158,0.1858268,0.4412613,0.4860749,0.5770493,0.8893328   c0.2044067,0.6016679,0.2698135,1.4064274,0.2966995,2.1988964c0.0292282,0.7956877,0.0212479,1.5732327,0.1219177,2.1866055   c0.0337677,0.2022142,0.0484695,0.406477,0.0484695,0.6072283c0.0003662,0.5609903-0.1161804,1.0935946-0.2341461,1.4813433   c-0.0588608,0.1937275-0.1176758,0.3514605-0.1610641,0.4591513l-0.0450287,0.1065216   c-0.0880127,0.0889626-0.243187,0.233819-0.4508514,0.4190598c-1.6992493,1.5173378-6.7164459,5.6315632-9.053688,7.4488564   c-1.0382919,0.8100281-2.5738068,2.4502735-3.8743362,3.9046955c-1.1948853,1.337656-2.166008,2.4962177-2.3144531,2.6738491   c-0.3976593,0.2873726-4.4754868,3.240696-7.0649109,5.8762093c-1.326973,1.3514137-2.3509979,2.1541252-3.3745804,2.7019463   c-1.023468,0.5472374-2.0645752,0.8489456-3.447731,1.1702652c-1.4773636,0.3485336-2.8531342,1.4313011-4.0510178,2.4002342   c-0.5966187,0.4851952-1.1462708,0.9455185-1.6155548,1.2732773c-0.465332,0.3333168-0.8644257,0.5074348-1.047287,0.4969025   l-0.0531158-0.0032196c-0.2226257-0.0304375-0.5075455-0.1878777-0.7902374-0.4392548   c-0.4262238-0.3736992-0.8383026-0.9323502-1.1327667-1.3929634c-0.1478195-0.2303085-0.2676239-0.4363289-0.3498535-0.5838165   c-0.0370178-0.0664291-0.0637207-0.1158867-0.0846481-0.1553917v-4.0352135c0-0.0084877-0.0042419-0.0155106-0.0047913-0.0237045   c0.4491272-0.4161339,0.7401581-0.810318,0.91465-1.0883255c0.059845,0.0172653,0.1223602,0.0269203,0.184906,0.0266304   c0.2490768-0.002636,0.4370956-0.1293488,0.5803452-0.2683525c0.2169952-0.214798,0.3876038-0.5039253,0.562706-0.8574333   c0.1729202-0.3529263,0.3414764-0.7690601,0.5091934-1.2203102c0.1821365-0.4916344,0.2625351-0.9226933,0.2627182-1.2975655   c-0.0000687-0.4219856-0.1028976-0.7754955-0.2894897-1.0409203c-0.0567017-0.0810604-0.1242676-0.1501236-0.1962891-0.2124557   c0.0904999-0.2932262,0.2203598-0.8550949,0.2202454-1.6870689c0.0000381-0.6552219-0.0810928-1.4737358-0.3248672-2.4488106   c-0.5395126-2.178997-1.9350433-3.3688717-3.2740173-3.9655647c-1.3408051-0.6025448-2.630249-0.656683-3.0937119-0.6578541   c-0.0946732,0-0.1465454,0.0023403-0.1661148,0.0032196h-1.2262344v0.0002918l-0.01017-0.0008774   c-0.1542206,0.0011711-1.4436646,0.014925-2.8744888,0.6209812c-1.4278259,0.5996189-3.0118179,1.8389492-3.6003494,4.2122593   c-0.254158,1.0157528-0.3372345,1.8342667-0.3371964,2.4690037c-0.0002899,0.713747,0.1050568,1.1913357,0.1872177,1.4561749   c-0.0709991,0.0617485-0.1375427,0.1299324-0.1934738,0.2101154c-0.1866684,0.2657185-0.2894211,0.6189346-0.2894897,1.041214   c0.0001831,0.375164,0.0805817,0.8068085,0.2627182,1.2978573c0.2241592,0.6016674,0.4476624,1.1395416,0.6846619,1.5515785   c0.1197281,0.2063103,0.2412872,0.3827705,0.3871689,0.5258713c0.1431732,0.1390038,0.331192,0.2660103,0.5804138,0.2686462   c0.0679626,0.0002899,0.1352005-0.0128784,0.1997986-0.0330696c0.1860809,0.2736168,0.4954376,0.6672173,0.9725113,1.0862808   c0.1218491,0.1071053,0.2578201,0.2153816,0.4016495,0.3230743c-0.008667,0.0316048-0.0196075,0.0626221-0.0196075,0.0971565   H76.102417v3.6474609c-0.1065216,0.2007523-0.4286118,0.7822266-0.8562317,1.3452682   c-0.2335281,0.3081474-0.4983978,0.6086884-0.7640839,0.8325577c-0.2650909,0.2253342-0.5284348,0.3643379-0.7371979,0.3933105   l-0.0531082,0.0032196c-0.1828995,0.0105324-0.5819931-0.1635857-1.047287-0.4969025   c-0.7054443-0.4922218-1.5850143-1.2800102-2.5458984-2.0083885c-0.9636612-0.7275047-2.0111618-1.4055519-3.1208191-1.665123   c-1.3830185-0.3213196-2.424118-0.6230278-3.4475899-1.1702652c-1.0235825-0.547821-2.0475998-1.3505325-3.3745766-2.7019463   c-2.5891304-2.6349297-6.6663017-5.5882511-7.0648041-5.8759155c-0.1482201-0.1773396-1.1194954-1.3364868-2.3145638-2.6741428   c-1.3005257-1.454422-2.8360443-3.0946674-3.8743324-3.9046955c-1.335865-1.0388718-3.5463181-2.8269005-5.5125656-4.451931   c-0.9831963-0.8126612-1.9058533-1.5849371-2.6276512-2.2024078c-0.3608627-0.3087349-0.6715355-0.5785494-0.913475-0.7945175   c-0.2079582-0.1855335-0.3632393-0.3306828-0.4512138-0.4196453c-0.0901337-0.2022142-0.4424362-1.0751591-0.4399109-2.0464306   c0-0.2007513,0.0146675-0.405014,0.0484695-0.6072283c0.1327095-0.8147097,0.0789375-1.9349346,0.1653748-2.9752698   c0.0417404-0.5173874,0.1177521-1.009315,0.2532806-1.4102321c0.1357841-0.4032578,0.3252335-0.703506,0.5770493-0.8893328   c0.10495-0.0778418,0.1625633-0.2063107,0.1506386-0.3362432c-0.0047188-0.0494561-0.0285339-0.2162609-0.1816559-0.3807244   c-0.1529045-0.166512-0.4186249-0.2794712-0.7558899-0.2759595c-0.2167358,0.0002928-0.4714813,0.0395064-0.7847862,0.1311028   h0.0003624c-0.3992691,0.1161778-0.6970673,0.3821876-0.9061928,0.6780465   c-0.314846,0.447154-0.4667244,0.9756618-0.5544434,1.3976483c-0.0727959,0.3576059-0.093647,0.6271272-0.0990219,0.7131634   c-0.0167198,0.0722823-0.1000481,0.3839436-0.2775345,0.6827292c-0.0911942,0.1548061-0.2058716,0.3034673-0.3396454,0.4164267   c-0.1346855,0.113544-0.2838211,0.1928492-0.4680748,0.2267962l-0.0071716,0.0014629l0,0   c0,0-0.054615,0.0105352-0.1485863,0.0102425c-0.1446762,0-0.3768501-0.0251675-0.6412125-0.151588   c-0.2644005-0.1275907-0.5672455-0.3543868-0.8600311-0.7918835c-0.4407902-0.6610737-1.1636829-1.698482-1.8667507-2.5810838   c-0.3521919-0.4418864-0.6978722-0.8442664-1.0108147-1.1483192c-0.1571846-0.1524653-0.3052959-0.2806416-0.4535179-0.3801391   c-0.1503448-0.0959859-0.2947617-0.1814368-0.5123405-0.1875823c-0.0340195,0.0002925-0.0830002,0.0055602-0.1368809,0.0193143   l-0.0005493-0.0023413c-0.0022678,0.0005853-0.0042439,0.0026338-0.0065117,0.0032191   c-0.0042057,0.0011706-0.006218,0.0002925-0.0105343,0.0014632l0.0009499,0.0032191   c-0.1263466,0.033361-0.2518883,0.1334438-0.304821,0.2425985c-0.0589294,0.1132514-0.0685501,0.2142124-0.0695019,0.3040528   c0.0014267,0.1606593,0.037569,0.3081498,0.0878658,0.4723208c0.1782532,0.5627465,0.5769024,1.3198061,0.9363384,1.9627357   c0.1981525,0.3532166,0.3814182,0.6625371,0.5080948,0.8729448c-0.0255318-0.008779-0.0415916-0.0111198-0.0708542-0.0225329   l0.0005836,0.0002928c-0.1812897-0.0702338-0.5409069-0.2370386-0.9705753-0.4413013   c-0.647356-0.307272-1.4666023-0.703506-2.1963367-1.0254102c-0.365324-0.1609521-0.7078953-0.3034678-1.0016327-0.4085255   c-0.1471615-0.0526748-0.2819214-0.0959859-0.4054527-0.1278834c-0.1246643-0.0310197-0.2340393-0.0532603-0.3558865-0.054431   c-0.0583096,0.0005851-0.1220684,0.0043893-0.2020683,0.0313125c-0.0760498,0.0245819-0.1775951,0.0869141-0.241684,0.191679   l-0.0010605-0.0005851c-0.0006943,0.0011706-0.0008774,0.0023408-0.0015373,0.0035114   c-0.0005112,0.0008779-0.0013523,0.0011706-0.0018654,0.0020485l0.0007687,0.0005856   c-0.0521259,0.0851579-0.0783539,0.187582-0.0774765,0.2780075c0.0012074,0.1369557,0.0446281,0.2434769,0.0940838,0.3347802   c0.0956211,0.1697311,0.2278576,0.307857,0.3901615,0.4562259c0.5639915,0.5068521,1.5406761,1.0991554,2.4184875,1.5981064   c0.7600956,0.4304738,1.4350319,0.7790074,1.6605854,0.8940148l-0.0024147,0.0079012   c-0.002964,0.0014629-0.0116692,0.0076084-0.0303249,0.0140467c-0.2552547-0.0608692-1.1366863-0.2683506-2.1256638-0.4781733   c-0.5863762-0.124372-1.2076149-0.2490368-1.7554741-0.343267c-0.5507851-0.0939374-1.015789-0.1589031-1.3402538-0.1603665   c-0.0791588,0.0002928-0.1511478,0.0035119-0.2286606,0.016973C22.7694473,7.548665,22.6786575,7.558322,22.5573578,7.670403   l-0.0004387-0.0002923c-0.0004768,0.0002923-0.0006962,0.0011702-0.0011711,0.0017557   c-0.0010605,0.0008779-0.0019398,0.0014629-0.0030003,0.0023408l0.0008411,0.0008783   c-0.1000824,0.0980344-0.1734982,0.2545967-0.171011,0.4132075c0.0000744,0.1302242,0.0413723,0.2510853,0.1025715,0.356143   c0.1091537,0.1843624,0.2758121,0.3374138,0.5139847,0.4957314c0.6830215,0.4453983,2.0199833,0.9408379,4.5803623,1.4353991   c-0.0030346,0.0023413-0.0031815,0.0032187-0.0063267,0.0055599c-0.3154297,0.2411356-1.2959938,0.6446857-3.5620136,1.0180941   c-0.0775871,0.0128765-0.1481857,0.0491638-0.2038975,0.1047659c-0.0099487,0.0105343-0.0745869,0.0746231-0.1468678,0.1785097   c-0.0683689,0.1062288-0.1635494,0.2455254-0.1702442,0.4790516c-0.0006943,0.0927668,0.0231915,0.2033854,0.0823784,0.3005419   c0.0894756,0.1489534,0.2363434,0.2402573,0.3851147,0.2888355c0.1516609,0.0497484,0.3195992,0.0690622,0.5274467,0.0696478   c0.4666138-0.0008774,1.0571976-0.0831099,1.6656704-0.1621227c0.6056538-0.0793047,1.2257938-0.1559763,1.6947861-0.1553917   c0.2669621-0.0014629,0.4843197,0.0278006,0.5927429,0.0696487L28.4394932,12.573   c0.1561966,0.0556011,0.4505196,0.2115784,0.8083076,0.4193525c1.0631981,0.6127882,2.7320137,1.6692181,4.4218273,2.2094316   c0.6642532,0.7579374,6.3108864,7.1948452,8.760685,9.6454105c2.4496918,2.4479332,6.2597504,5.255228,6.748497,5.6134205   c1.5884514,2.430666,4.0445747,5.3406773,6.3383598,7.8456745c2.3149643,2.5260696,4.4471054,4.623127,5.3715172,5.3945236   c0.8952942,0.7456474,1.9379692,1.6060104,2.8277054,2.5687943c0.890976,0.9622002,1.6209717,2.0236053,1.9186554,3.1511459   c0.3395767,1.2744484,1.0766983,2.7964668,1.7300873,4.0176544c0.6533966,1.2188454,1.2234955,2.1277847,1.2264557,2.1324654   c0.0103912,0.0166817,0.0262985,0.0263405,0.0387039,0.0406799c0.033905,0.4629555,0.1010666,0.9355698,0.2132263,1.4178391   c0.3697815,1.589035,0.876236,4.5306511,1.2873917,7.0640373c0.2058029,1.2677155,0.3882599,2.435051,0.5192566,3.2851715   c0.1309891,0.8504105,0.2102203,1.3815536,0.2102203,1.3815536l0.0029984,0.0178528l0.0053787,0.0292664   c0.0265198,0.1492462,0.1399231,0.8468933,0.1397705,1.7651978c0.0006256,0.8992844-0.1101761,2.0089722-0.5012894,3.0174103   c-0.9124908,2.3627777-2.1104431,6.6985321-2.4197311,9.1537781c-0.2979431,2.3736038-0.8073578,4.6339569-2.2838669,7.5164566   c-0.7724991,1.5094376-1.687912,4.1721649-2.5632362,7.0772018c-0.8735657,2.9026947-1.6989555,6.035408-2.2628746,8.4412003   c-1.0384674,4.4305725-1.250267,6.7629089-1.2785797,7.1240234c-0.0801086,0.2247543-0.4648972,1.3122025-0.8677139,2.5878143   c-0.2260284,0.7155075-0.4570656,1.4886627-0.6421623,2.2003632c-0.1849098,0.7134552-0.3248291,1.359314-0.366642,1.8521194   c-0.0513954,0.6584396-0.3935623,1.4810486-0.8783951,2.5117264c-0.482563,1.0315552-1.0964127,2.2732239-1.6510353,3.810173   c-0.5198021,1.442421-2.5676231,7.5240707-3.4571381,11.7617874c-0.4783592,2.2840424-1.4276466,4.9502869-2.2569885,7.0365295   c-0.4146309,1.0435486-0.7992363,1.9434204-1.0798759,2.5813751c-0.1403198,0.3189697-0.2546349,0.5726929-0.3337555,0.746521   c-0.0402756,0.0883789-0.0709648,0.1550903-0.0917053,0.1998749c-0.0755386,0.0696411-0.2300529,0.2115784-0.4510345,0.4120331   c-0.9421539,0.8556824-3.0098,2.6958008-4.3261681,3.6272736c-0.8481789,0.6025391-2.1465492,1.1822662-3.2683105,1.6765289   c-0.562088,0.2484589-1.080574,0.4764252-1.4904518,0.6874084c-0.2053604,0.1059418-0.3834686,0.2069092-0.5328598,0.3110809   c-0.1481857,0.1082764-0.2751198,0.2051392-0.3711433,0.3854065c-0.1906166,0.3906708-0.4271431,0.9150848-0.4336548,1.446228   c0.0001831,0.1700287,0.0272903,0.3479462,0.1113853,0.5179749c0.0825272,0.1697235,0.2299805,0.3218994,0.4147453,0.4129181   c0.0685501,0.0345306,0.1414909,0.0389099,0.2123451,0.030426c0.1946449,0.302597,0.5304832,0.5533905,0.9834175,0.6710205   l0.0014992,0.0005951c0.2118721,0.0552979,0.4317169,0.0772552,0.6529541,0.0775452   c0.6059113-0.0014648,1.223526-0.1597748,1.701519-0.3131256c0.4079018-0.1319733,0.6970291-0.2566376,0.7818222-0.2943878   c0.1618652-0.0371704,0.842659-0.1987152,1.6578064-0.4483337c0.9343987-0.2879486,2.0349426-0.6792145,2.7767868-1.1702576   c0.6220055-0.4158478,1.4341927-0.7263336,2.1573029-0.9241638c0.7184677-0.199585,1.3697739-0.2882538,1.6046181-0.2862091   c0.3377457-0.0008698,1.0536156-0.0585175,1.8213196-0.2033844c0.3826981-0.0728607,0.7750206-0.1670837,1.1352577-0.2914581   c0.3603516-0.1252594,0.6891327-0.2756653,0.9524345-0.4893036c0.2674713-0.2229919,0.3786392-0.5346527,0.4388504-0.8562622   c0.0594063-0.326004,0.0689888-0.6891632,0.0694656-1.087738c-0.0000381-0.3063965-0.0066948-0.6326904-0.0066566-0.9715729   c-0.0010986-1.0134125,0.0628433-2.1386108,0.5037422-3.1429443c0.5127792-1.1734924,2.015667-4.1057434,3.673912-7.5155792   c1.6597061-3.4133453,3.4798164-7.3148346,4.6500092-10.4850006c1.1643448-3.154068,1.5462723-4.6207809,1.8328018-5.5540085   c0.1432495-0.4664688,0.2584076-0.7877884,0.4358139-1.1377869c0.1775284-0.3497009,0.4239273-0.7371597,0.8317261-1.3116074   c0.8584213-1.2126999,1.9777298-3.4985123,3.0420227-5.8498764c1.061409-2.3484344,2.055397-4.7489548,2.6185074-6.1381226   c0.544899-1.3458481,1.454422-2.8906937,2.3710785-4.4141769c0.9168015-1.5258255,1.8401566-3.0297012,2.419075-4.3404388   c0.4501877-1.0207214,1.0924911-1.8679199,1.7609177-2.4962158c0.6296158-0.5940552,1.2831192-0.9821014,1.7909241-1.148613   c0.5086441,0.1668091,1.1635361,0.556015,1.7939911,1.1518326c0.6671829,0.628006,1.3080292,1.473732,1.7574463,2.4929962   c0.5789566,1.3107376,1.5022659,2.8146133,2.419075,4.3404388c0.9166565,1.5234833,1.8261795,3.0683289,2.3710785,4.4141769   c0.5631485,1.3891678,1.5570984,3.7896881,2.6185379,6.1381226c1.0643005,2.3513641,2.183609,4.636879,3.0419922,5.8498764   c0.4077988,0.5744476,0.6542358,0.9619064,0.8317184,1.3116074c0.2649155,0.520607,0.3952866,0.9958572,0.6792908,1.9554214   c0.2833862,0.9560547,0.7157288,2.3695068,1.5893326,4.7363739c1.1701889,3.170166,2.990303,7.0716553,4.6500092,10.4850006   c1.6582413,3.4098358,3.1611328,6.3420868,3.673912,7.5155792c0.4408646,1.0034637,0.5048065,2.1292419,0.5037384,3.1426544   c0,0.3394623-0.0066528,0.6660461-0.006691,0.9724426c0.000473,0.3982849,0.0100632,0.7614594,0.0694656,1.0874481   c0.0602493,0.3216095,0.1713791,0.6332855,0.4387741,0.8559723c0.2634125,0.2136383,0.5921936,0.3640442,0.9525833,0.4893036   c1.0813065,0.3690186,2.4541855,0.4916382,2.956543,0.4948425c0.2348404-0.0020447,0.8861465,0.0866241,1.6046143,0.2862091   c0.723114,0.1978302,1.5353012,0.508316,2.1573029,0.9241638c0.7418442,0.4910431,1.842392,0.882309,2.7767868,1.1702576   c0.8152237,0.2496185,1.4960175,0.4111633,1.6578445,0.4483337c0.0847931,0.0377502,0.3739243,0.1624146,0.7817841,0.2943878   c0.4779968,0.1533508,1.0956116,0.3116608,1.7015228,0.3131256c0.2204666-0.0002899,0.440712-0.0213623,0.6540833-0.0781403   h0.0006943c0.4524994-0.1182251,0.7881165-0.3684235,0.9827957-0.6707306   c0.0709686,0.0084991,0.1440201,0.0041046,0.212677-0.030426c0.1847687-0.0915985,0.3321457-0.2434845,0.414711-0.413208   c0.0840607-0.1700287,0.1111679-0.3479462,0.1113815-0.5179749c-0.0065079-0.5311432-0.2430344-1.0555573-0.4336929-1.446228   c-0.0959854-0.1802673-0.2229156-0.2771301-0.3711014-0.3854065c-0.2604523-0.1811371-0.6135559-0.35849-1.0363083-0.5557251   c-0.6321793-0.293808-1.4136734-0.6224365-2.1809006-0.9800415c-0.7664642-0.3570251-1.5186157-0.7450714-2.0744171-1.1392517   c-0.8757935-0.6201019-2.0908737-1.6469727-3.0783539-2.5137787c-0.4942627-0.4333954-0.93293-0.8278809-1.2477798-1.1134949   c-0.2210464-0.2004547-0.3755646-0.342392-0.4511032-0.4120331c-0.0207367-0.0450745-0.0514297-0.111496-0.0916672-0.1998749   c-0.5537491-1.2121124-2.8335953-6.3631592-3.6706161-10.3644257c-0.8895187-4.2377167-2.9373398-10.3193665-3.4571762-11.7617874   c-0.5545883-1.5369492-1.1684418-2.7786179-1.651001-3.810173c-0.4848328-1.0306778-0.8270035-1.8532867-0.8783951-2.5117264   c-0.0417786-0.4928055-0.1817322-1.1386642-0.3666458-1.8521194c-0.5138397-1.975029-1.3825378-4.4305649-1.5098724-4.7881775   c-0.028244-0.360527-0.2399673-2.6928711-1.2785416-7.1240234c-0.5639191-2.4057922-1.3893509-5.5385056-2.2628784-8.4412003   c-0.8753586-2.9050369-1.7907715-5.5677643-2.5632706-7.0772018c-1.4765167-2.8824997-1.9859238-5.1428528-2.2838669-7.5164566   c-0.309288-2.455246-1.5072479-6.7910004-2.4197311-9.1537781c-0.3911514-1.0084381-0.501915-2.1181259-0.501297-3.0174103   c-0.0000305-0.524704,0.0368729-0.977417,0.0735626-1.2969742c0.018364-0.1597824,0.0366211-0.2862015,0.0501175-0.3716583   l0.016098-0.0965652l0.0053711-0.0292664l0.0027847-0.0163879c0,0,0.0794525-0.532608,0.2104416-1.3830185   c0.3922119-2.5477219,1.2510757-7.9621468,1.8066483-10.3489151c0.1120834-0.482563,0.179245-0.9548836,0.2131882-1.4178429   c0.0124054-0.0143394,0.0283508-0.0239944,0.0387421-0.0406761c0.0029602-0.0049744,0.5730972-0.9139137,1.2264862-2.1327591   c0.6533585-1.2211876,1.39048-2.743206,1.7300568-4.0176544c0.2976837-1.1275406,1.02771-2.1889458,1.9186935-3.1511459   c0.8896942-0.9627838,1.932373-1.8231468,2.8277359-2.5687943c0.9243469-0.7713966,3.0564804-2.868454,5.3714447-5.3945236   c2.2937851-2.5049973,4.7498779-5.4150085,6.3383636-7.8456745c0.4887466-0.3581924,4.2988052-3.1654873,6.748497-5.6134205   c2.4522476-2.4529076,8.1073303-8.8997641,8.762291-9.6471663c1.1156921-0.3564358,2.2169647-0.9341068,3.1468353-1.4646635   c0.479599-0.2739105,0.913147-0.5349455,1.2733917-0.7430124c0.3577881-0.2077742,0.6520996-0.3637514,0.8083038-0.4193525   l0.0012817-0.0002928c0.1082306-0.0418482,0.3256683-0.0711117,0.5926208-0.0696487   c0.4689941-0.0005846,1.0891418,0.076087,1.6947937,0.1553917c0.6084747,0.0790129,1.1990967,0.1612453,1.6657104,0.1621227   c0.2765808-0.0023413,0.4844971-0.0318975,0.6734314-0.1328583c0.0930939-0.0512123,0.1807098-0.1275911,0.23909-0.225625   c0.0591888-0.0971565,0.0830688-0.2077751,0.0823822-0.3005419c-0.0066681-0.2335262-0.1018372-0.3728228-0.1701813-0.4790516   c-0.0723114-0.1038866-0.1369476-0.1679754-0.1468964-0.1785097c-0.0557098-0.0556021-0.1263123-0.0918894-0.2039032-0.1047659   c-1.727478-0.2873716-2.7055969-0.5829382-3.2154541-0.821147c-0.165451-0.0766716-0.2758789-0.1457348-0.3506927-0.2016287   c1.9240417-0.3701897,3.1609192-0.746232,3.9398193-1.0947666c0.4131622-0.1858263,0.7012329-0.3622875,0.9061127-0.545188   c0.1022186-0.0918884,0.1844025-0.1861191,0.2461853-0.2920542c0.061203-0.1050577,0.1025085-0.2259188,0.1025696-0.356143   C138.8141174,7.9296823,138.7407379,7.7728271,138.6404724,7.6747928z M75.42276,33.0809135   c-0.0811005-0.1129608-0.1383514-0.2045555-0.1742706-0.2660103l-0.0382996-0.0681877l-0.0077896-0.0149231l-0.0005493-0.0008774   c-0.0565186-0.1167641-0.1676788-0.1951904-0.2963333-0.2098236c-0.1286545-0.0143394-0.2544479,0.0374565-0.3354416,0.13871   l-0.0308685,0.0307274c-0.0242157-0.0169716-0.0597-0.0462341-0.1083145-0.1062279   c-0.1122284-0.1334419-0.252327-0.3713608-0.3933487-0.6713142c-0.1420746-0.3005409-0.2889404-0.6642933-0.4366531-1.0616989   c-0.1572571-0.4231567-0.2157822-0.7693501-0.2155991-1.035944c-0.0000763-0.3011265,0.0738144-0.497488,0.1521683-0.6081066   c0.0720291-0.1000824,0.1382751-0.1293468,0.1895981-0.1387119c0.0214005,0.0155106,0.0719833,0.0661373,0.122612,0.1524658   c0.0705261,0.1150074,0.1333389,0.2695217,0.1849136,0.4137936c0.0641251,0.277422,0.1381226,0.4494953,0.1453705,0.4670525   c0.0789719,0.1770477,0.2783356,0.2648392,0.4624023,0.2036781c0.1841125-0.0614548,0.2909241-0.2513771,0.2477264-0.440424   c-0.0024567-0.0093632-0.0476685-0.2068958-0.1356812-0.4576874c-0.0342026-0.1632938-0.0630264-0.3672638-0.0626984-0.6010838   c0.0000763-0.2999554,0.0458755-0.6438065,0.1833038-1.0055103c0.1497574-0.390089,0.1944275-0.6827278,0.1928482-0.9329357   c-0.0008774-0.2048473-0.0213623-0.3593616-0.0207748-0.5507488c0.0004044-0.3649216,0.063797-0.9382038,0.5114975-2.2237701   c0.2627182-0.7435989,0.7235184-1.1597328,1.2816162-1.424572c0.5571136-0.2613258,1.2150421-0.3441429,1.7844467-0.3432655   c0.3792267-0.0002937,0.7179565,0.0354099,0.959198,0.0708179c0.1206436,0.0178509,0.2169571,0.0354099,0.2819595,0.0485783   l0.0731583,0.0152187l0.0209961,0.0046806l0.0886383,0.010828h0.6375504l0.0884857-0.0105343l0.0209961-0.0049744   c0.1116486-0.0248756,0.6505051-0.1349087,1.3144684-0.1343231c0.5694427-0.0008774,1.2274017,0.0819397,1.7844849,0.3432674   c0.5580597,0.2645454,1.0188217,0.6806793,1.2815399,1.4239864c0.4476624,1.2864437,0.5110931,1.8594322,0.5114975,2.2243557   c0.0005875,0.1907997-0.0199356,0.345314-0.0207748,0.5498695c-0.0015717,0.2502079,0.043129,0.5425549,0.1927032,0.9329357   c0.1376114,0.3631668,0.1833725,0.7064323,0.1834488,1.0060959c0.0000687,0.2493305-0.0337677,0.4562263-0.0709305,0.6242008   c-0.082489,0.2393799-0.1235657,0.4243279-0.1274414,0.4345703c-0.0432053,0.1890469,0.0637589,0.3789692,0.2478638,0.440424   c0.1841049,0.061161,0.3835373-0.0269222,0.4623718-0.20397c0.0073166-0.0175591,0.0834732-0.1948986,0.1482162-0.479929   c0.0313187-0.0869141,0.0658493-0.1758766,0.1062317-0.259573c0.0546875-0.1152992,0.1188889-0.2156754,0.1664429-0.2657166   l0.031601-0.0275078c0.0517273,0.0096569,0.118042,0.0392132,0.189888,0.1390038   c0.078392,0.1106186,0.1522446,0.3066864,0.1521683,0.6078129c0.0001831,0.2657166-0.058342,0.6119099-0.2157059,1.0359459   c-0.2161865,0.583231-0.433075,1.095644-0.6310425,1.4377403c-0.0977783,0.1706085-0.1924133,0.2973213-0.2606354,0.3628731   l-0.0485764,0.0383339l-0.029007-0.0310173c-0.082634-0.1030121-0.21315-0.1551018-0.3438873-0.137249   c-0.1306992,0.0178528-0.2426376,0.1027184-0.2947998,0.2241631l-0.000473,0.0011711   c-0.019722,0.0441856-0.310936,0.6663399-1.0504379,1.3148308c-0.7391663,0.6467323-1.9192352,1.3277054-3.7690506,1.5088501   H80.035675c-1.8683929-0.248745-3.0724945-0.9703941-3.8191299-1.6241531   C75.842514,33.6190758,75.5849533,33.3071213,75.42276,33.0809135z M76.3009338,39.7252998   c0.3160858-0.4925117,0.5093002-0.875576,0.5133286-0.8834801c0.026741-0.053257,0.0403061-0.1097374,0.0403061-0.1691437   v-3.3568726c0.7899475,0.4500809,1.809761,0.8366585,3.1028976,1.004631l0.0486526,0.0032196h0.722496l0.0358429-0.0017548   c1.5710754-0.1492462,2.7373199-0.6458549,3.5752182-1.2094803v3.560257c0,0.0594063,0.0135727,0.1158867,0.0403137,0.1691437   c0.0057449,0.0108299,0.3463058,0.6874123,0.8686295,1.4035034c0.2008209,0.2747879,0.4353714,0.5472374,0.6857986,0.8000755   c0.0035477,0.0172653,0.0068436,0.0330696,0.012146,0.0594063c0.1067429,0.5244102,0.5365524,2.7911987,0.5355682,4.8071976   c0.0004044,0.7187233-0.0552368,1.4046707-0.1901093,1.9539566c-0.1330414,0.5527954-0.3496246,0.9496155-0.6034164,1.1377831   c-0.404068,0.3066864-0.8144226,0.6192245-1.4448395,0.8679695c-0.6300201,0.2475739-1.4881516,0.4325218-2.7738266,0.4328156   c-0.2331238,0-0.4806595-0.0061455-0.7435608-0.0184364h0.0010223c-1.5955811-0.0790138-2.6817856-0.2297211-3.4721298-0.444519   c-0.791481-0.2162628-1.2852402-0.48666-1.7496643-0.8381233c-0.2537537-0.1878738-0.4703445-0.5844002-0.6034164-1.1371956   c-0.1348343-0.5495796-0.1905136-1.2358208-0.1901093-1.9545441c-0.0002213-1.1512451,0.1392975-2.3867722,0.2796555-3.3299484   c0.0700836-0.4717369,0.140213-0.8708992,0.1927032-1.1512451c0.0262299-0.1401749,0.0480652-0.2504997,0.0632477-0.3257103   c0.0044937-0.0222397,0.0070953-0.0345306,0.0103531-0.0503349C75.6740646,40.6351204,76.0318146,40.1434822,76.3009338,39.7252998   z M67.7850037,52.6219406c-0.5711975-1.1014938-1.1549072-2.3794518-1.422966-3.3940353   c-0.3482361-1.3069305-1.1584473-2.4564209-2.093399-3.468956c-0.9361877-1.0122414-2.0051308-1.891037-2.8984489-2.636097   c-0.8643112-0.719017-3.005085-2.8201714-5.2984276-5.3248787c-2.2959061-2.5055809-4.7598991-5.4302254-6.3029518-7.8070469   l-0.0944138-0.0994968c-0.0006943-0.0005856-0.2578163-0.1872902-0.6874847-0.5103645   c-1.2879829-0.9677601-4.1146622-3.1546574-6.0247612-5.0655975c-1.2788734-1.2788353-3.4820862-3.7048206-5.359005-5.8048038   c-0.9389-1.0502853-1.7973213-2.0203857-2.4209366-2.7276974c-0.6235771-0.7070179-1.0110703-1.1503677-1.0120964-1.1515379   c-0.0459061-0.0526752-0.1067009-0.0918894-0.1733513-0.1120815c-1.0568695-0.3216105-2.161768-0.8986969-3.1023846-1.436861   c-0.4708958-0.2692289-0.9012222-0.5279226-1.2702408-0.7412577c-0.371397-0.2136269-0.6717186-0.380724-0.9275227-0.4749546   c-0.257597-0.092474-0.5392628-0.1141291-0.8510704-0.115592c-0.5445652,0.0005846-1.1821918,0.0828171-1.7921619,0.1621218   c-0.5688572,0.0749159-1.1098385,0.1442719-1.4877453,0.152173c1.4995594-0.2703991,2.4116459-0.5428467,2.9781227-0.8050528   c0.3097954-0.1448565,0.5217781-0.2864943,0.6734009-0.4459829c0.1507473-0.15627,0.2389412-0.3532162,0.2370396-0.5384569   c-0.0000381-0.1530514-0.0538826-0.2742043-0.1035595-0.3514614c-0.0505886-0.0784273-0.0982533-0.1205673-0.1179333-0.1378326   C28.182518,9.7434645,28.1220512,9.7150784,28.057415,9.703373c-2.0921192-0.3842363-3.3776493-0.7778368-4.1123219-1.107935   c-0.2547798-0.1138372-0.4387417-0.2194805-0.5687828-0.3096132c0.241684,0.0239964,0.5566368,0.0684776,0.9096718,0.1296396   c0.7989788,0.137248,1.7800179,0.345315,2.5585861,0.5188503c0.778862,0.1735353,1.3537159,0.3116617,1.3550701,0.3119545   l0.1255054,0.0084867c0.2311115-0.0210705,0.4407158-0.1278839,0.5720387-0.2850313   c0.1325283-0.15627,0.1882401-0.3426819,0.1883488-0.5162172C29.0852032,8.3385,29.0621567,8.2255411,29.009079,8.1175566   c-0.0527115-0.1068134-0.1405392-0.2133341-0.2728863-0.2797632c-0.1053143-0.052968-1.2063351-0.6124954-2.2711773-1.2440124   c-0.5203876-0.3084426-1.0311165-0.6350288-1.4059887-0.9200602c0.5093403,0.2004585,1.1698284,0.5012922,1.8011246,0.7994924   c0.8766403,0.4129148,1.6917877,0.815002,2.0860844,0.9692235l0.0005856,0.0002928   c0.2291374,0.0877919,0.4129143,0.1322732,0.5892296,0.1334438c0.1780357,0.0040965,0.379921-0.0646734,0.4999027-0.2115788   c0.1190681-0.1448569,0.1364059-0.2964444,0.1370277-0.3968196c-0.0013161-0.136663-0.0317879-0.2212358-0.0382614-0.2434764   l-0.0374222-0.0795984c0,0-0.1005211-0.1612444-0.2530594-0.4175968c-0.2287712-0.3845291-0.5726242-0.980051-0.8550205-1.5404568   c-0.1411266-0.2797637-0.2668152-0.5510406-0.3537655-0.7763736c-0.000658-0.0017557-0.0010605-0.0029263-0.0017204-0.0046823   c0.1476002,0.1354923,0.3184299,0.3110762,0.5002327,0.5173874c0.8084164,0.9136219,1.8205853,2.3531175,2.3682976,3.1757283   c0.359911,0.5407982,0.7757874,0.8694334,1.1611214,1.0529184c0.3854065,0.1843634,0.7339783,0.225625,0.9658966,0.225625   c0.161171-0.0002918,0.2605209-0.0187283,0.2901497-0.024581l0.0001106,0.0005846   c0.0018654-0.0002928,0.0035133-0.0011702,0.0053787-0.0014629c0.0008392,0,0.0053406-0.0008783,0.0059967-0.0008783   l-0.000145-0.0005846c0.3449478-0.0646734,0.631443-0.2291374,0.8512154-0.4272547   c0.3345261-0.3020039,0.5325317-0.6733642,0.6566124-0.9683452c0.1230545-0.2955666,0.1696205-0.5188508,0.1731339-0.534946   l0.0073891-0.0588207l0.0010605-0.0172658c0.0057411-0.0992045,0.0487251-0.6092763,0.2132988-1.101789   c0.0813522-0.2464027,0.1932487-0.4863677,0.3305702-0.6669264c0.1388245-0.1820221,0.2915459-0.3002486,0.4765663-0.3546796   h0.0003662c0.2460709-0.0722823,0.4211807-0.0954008,0.544384-0.0980344   c-0.2094574,0.2604494-0.3647423,0.5630393-0.4739304,0.8872843c-0.2473907,0.739501-0.3054428,1.5981064-0.3355865,2.4122305   c-0.0278358,0.811491-0.0265198,1.5852308-0.1121559,2.0894489c-0.041481,0.2484512-0.0587082,0.4936838-0.0587463,0.7310152   c0.0033302,1.3262434,0.5274849,2.3981838,0.5382004,2.4256916l0.0642738,0.0936451   c0.111496,0.1185188,0.2908096,0.2850313,0.5399208,0.5077305c1.7311478,1.5451384,6.7348137,5.6476574,9.0928345,7.4816322   c0.9463959,0.7336483,2.4913864,2.3727245,3.7751274,3.8119278c0.6436615,0.7204781,1.2260857,1.3938427,1.6473045,1.8863564   c0.4211845,0.4928055,0.6796951,0.803297,0.6803894,0.8041744l0.0700874,0.0649662c0,0,0.0666847,0.0479927,0.1905823,0.1381264   c0.8656273,0.6297607,4.5020828,3.3249741,6.8152542,5.6824818c1.3560181,1.3812599,2.4436531,2.2427902,3.5565262,2.8380203   c1.1129799,0.5952301,2.2331352,0.9147949,3.6323586,1.239624c1.2328186,0.2794724,2.5671768,1.2867355,3.7465897,2.2512779   c0.5920105,0.481102,1.1477737,0.9481544,1.6590881,1.3060532c0.0718079,0.0491638,0.1404648,0.0918884,0.2102966,0.137249   c-0.0034714,0.0380402-0.0077515,0.0842781-0.0141907,0.1498299c-0.0514297,0.5229492-0.1996536,1.8687973-0.4795609,3.3021507   c-0.2759247,1.4304237-0.7010574,2.9597588-1.2385635,3.7870522c-0.9677963,1.5059242-1.8708878,3.3779411-2.0505676,5.534111   C68.3924103,53.7529945,68.0915451,53.2139511,67.7850037,52.6219406z M58.1680489,140.1239166   c-1.6568146,3.407486-3.1505585,6.3186798-3.6866035,7.5424957c-0.5102921,1.1693878-0.5657463,2.4028625-0.5668068,3.4446564   c0,0.3485413,0.0066948,0.6760101,0.0066566,0.9715729c0.0004768,0.3833618-0.0125084,0.7134552-0.0570259,0.9516602   c-0.0436401,0.2428894-0.1176796,0.366684-0.1756935,0.4105835c-0.1484413,0.1231995-0.4095879,0.2537079-0.721138,0.3602295   c-0.9343643,0.3262939-2.3146744,0.4565277-2.7113113,0.4533081c-0.3644447,0.0020447-1.0241661,0.1006622-1.8040504,0.3131256   c-0.7751656,0.2142029-1.6486244,0.5404968-2.375103,1.0236511c-0.6066437,0.4079437-1.6786194,0.803299-2.5796928,1.0772095   c-0.4516182,0.1381226-0.8630676,0.2490387-1.1607208,0.325119c-0.1488075,0.0383301-0.2691917,0.0675964-0.3520088,0.0874939   c-0.0828171,0.0196075-0.1264915,0.0295563-0.1264915,0.0295563l-0.0741844,0.0248871l-0.0500412,0.0219421   c-0.2375908,0.1068115-1.3280373,0.5393372-2.1575623,0.5334778c-0.1703529,0.0002899-0.3281975-0.0175629-0.4620781-0.0529633   l0.0014992,0.0005798c-0.494194-0.1369476-0.6171417-0.4178925-0.6175804-0.5688934   c0.0004768-0.0640869,0.0191307-0.1050568,0.0422516-0.1316833c0.0243988-0.0257568,0.0549774-0.0503387,0.1399155-0.0599976   l0.0013199-0.0002899c0.4240685-0.0433044,0.9376183-0.1793823,1.3614311-0.3037567   c0.4217339-0.1246643,0.7450256-0.2388,0.7490501-0.2402496c0.1957016-0.0693665,0.2983475-0.2838745,0.2292099-0.4796448   s-0.2838249-0.2984924-0.4795265-0.2291412c0,0-0.0753555,0.0263367-0.2035332,0.0684814   c-0.3799553,0.1273041-1.2389641,0.3892059-1.7314758,0.4360352l0.0013161-0.0002899   c-0.2390137,0.0216522-0.4565887,0.1281738-0.608654,0.2900085c0.0637245-0.2569427,0.1838875-0.556015,0.3040886-0.7904205   l0.0064774-0.0076141c0.0257874-0.0301361,0.1141281-0.1018372,0.2424507-0.1793823   c0.455349-0.2812347,1.3738365-0.668396,2.3520927-1.105011c0.982029-0.4404297,2.0334091-0.9361572,2.8265724-1.4968567   c0.9221458-0.6534576,2.1418304-1.6867828,3.1396255-2.5617676c0.9966583-0.8746948,1.7665215-1.5881653,1.7681656-1.5896149   l0.0848312-0.1161804c0.0044975-0.0134583,2.8571129-6.0807648,3.8482857-10.7954865   c0.4024887-1.9217682,1.0559196-4.2526398,1.6930313-6.3467712c0.8030396,0.7040863,3.1496124,2.493576,6.6040802,2.9199524   C60.0084991,136.2876892,59.0665627,138.2761841,58.1680489,140.1239166z M112.4705658,148.5762329l0.0847931,0.1161804   c0.0016479,0.0014496,0.7715073,0.71492,1.7681656,1.5896149c0.9977951,0.8749847,2.2174835,1.9083099,3.1396637,2.5617676   c0.9497604,0.6710205,2.2734833,1.2525024,3.3991623,1.7508698c0.5616455,0.2478638,1.0732498,0.4740753,1.4500275,0.6680908   c0.1879501,0.0965729,0.3422775,0.1858215,0.4457245,0.2586975l0.1123428,0.0895386l0.0203323,0.0216675   c0.1203156,0.2349854,0.2407761,0.5343628,0.3043518,0.7915802c-0.151886-0.1621094-0.368988-0.268631-0.6076736-0.2908783   c-0.3250809-0.031601-0.8228607-0.1577301-1.2231216-0.2768402c-0.2011185-0.0594025-0.3801727-0.1167603-0.508316-0.1591949   c-0.1281738-0.0421448-0.2032776-0.0687714-0.2034912-0.0687714c-0.1958847-0.0693512-0.4107208,0.033371-0.4798584,0.2294312   c-0.0691376,0.1957703,0.0336533,0.4105682,0.229538,0.4799347l-0.0000381-0.0002899   c0.0040283,0.0014496,0.3273544,0.1155853,0.749054,0.2402496c0.4238129,0.1243744,0.9373627,0.2604523,1.3614273,0.3037567   c0.0853806,0.0102539,0.1166611,0.0351257,0.1412354,0.0611725c0.0232697,0.0269165,0.0417404,0.0675964,0.0422134,0.1311035   c-0.0002899,0.149826-0.1233063,0.4313507-0.6178665,0.5685883h0.0006943   c-0.1323853,0.0351257-0.2898254,0.0526733-0.4609451,0.0523834c-0.4710083,0.0014648-1.0354691-0.134903-1.4703674-0.276535   c-0.2179489-0.0702362-0.4046478-0.1410522-0.5356064-0.1937408c-0.0654449-0.0263367-0.1169815-0.0479889-0.1515884-0.0632019   l-0.0500412-0.0219421l-0.0740356-0.0248871c0,0-0.0438232-0.0099487-0.1266403-0.0295563   c-0.2897186-0.0693512-1.0403748-0.2563477-1.8577499-0.5214844c-0.8156967-0.2627869-1.7045593-0.6124878-2.2346725-0.968338   c-0.7264786-0.4831543-1.5998993-0.8094482-2.3751068-1.0236511c-0.7798462-0.2124634-1.4395676-0.3110809-1.8040466-0.3131256   c-0.2616196,0.0008698-0.9691162-0.0538483-1.6809998-0.1899261c-0.3570938-0.0675964-0.7186127-0.1559753-1.0303116-0.263382   c-0.3115158-0.1065216-0.5726929-0.23703-0.7214279-0.3605347c-0.057724-0.0435944-0.1317978-0.1673889-0.1754379-0.4099884   c-0.0445175-0.238205-0.0575027-0.5682983-0.0570297-0.9513702c-0.0000381-0.2955627,0.0066528-0.6233215,0.0066528-0.9724426   c-0.0010605-1.0417938-0.0564728-2.2752686-0.566803-3.4443665c-0.5360031-1.2238159-2.029747-4.1350098-3.6865311-7.5424957   c-0.8984756-1.8477325-1.8403397-3.8362274-2.7009583-5.7696991c3.4543991-0.4266663,5.8008575-2.216156,6.6039352-2.9202423   c0.6371078,2.0941315,1.2905426,4.4250031,1.6930313,6.3467712   C109.6134186,142.4954681,112.4660339,148.5627747,112.4705658,148.5762329z M90.3209076,63.9731522   c-0.4057465,2.4991455-0.7199326,4.6023483-0.7302094,4.6711197c-0.0114136,0.0602798-0.156929,0.8419266-0.1571426,1.9281998   c0.000618,0.9592743,0.1132507,2.1526642,0.5519867,3.2886887c0.5827942,1.5018311,1.3000946,3.9000168,1.8060989,6.0318985   c-0.4761963,0.3022919-4.5608597,2.7584229-11.18927,2.833046c-3.5008087-0.0386276-6.2986298-0.7377472-8.2268372-1.4406662   c-0.9913559-0.361412-1.7541199-0.7219467-2.266571-0.9905853c-0.2562027-0.1343231-0.4498215-0.2458191-0.5781097-0.3227844   c-0.0575027-0.0342407-0.0971909-0.0594025-0.1282501-0.07901c0.5059738-2.1318817,1.2233124-4.5300674,1.8061066-6.0318985   c0.4386978-1.1360245,0.5513687-2.3294144,0.5519867-3.2886887c-0.0002518-1.0824738-0.1447067-1.8620682-0.1569595-1.9270325   c-0.0085983-0.0576477-0.3235168-2.1664124-0.7303925-4.672287c-0.0979614-0.6031303-0.2013397-1.2290878-0.3067627-1.8541679   c0.2858353-0.2267952,2.1581802-1.4652481,8.4748154-1.5960579h0.0008011   c0.4653702-0.0105324,1.0089188-0.0149231,1.5487289-0.0149231c0.5225067,0,1.0416489,0.0049744,1.4832458,0.0134621   c3.6288452,0.0699387,5.8074341,0.5030479,7.0608826,0.9065971c0.6268387,0.2016296,1.0224533,0.395649,1.2544403,0.5323105   c0.1159973,0.0681877,0.1911316,0.1223259,0.2341156,0.1556854l0.0039825,0.0032196   C90.5222092,62.7443581,90.418869,63.3700218,90.3209076,63.9731522z M133.1368408,9.703373   c-0.064682,0.0117054-0.1250763,0.0400915-0.1752167,0.0828171c-0.0196838,0.0172653-0.0673828,0.0594053-0.117981,0.1378326   c-0.0497131,0.0772572-0.1035919,0.19841-0.1035919,0.3514614c-0.0019379,0.1852407,0.0862579,0.3821869,0.2370453,0.5384569   c0.2284393,0.2376232,0.5880585,0.4424715,1.2192841,0.6631222c0.559082,0.1931419,1.3357849,0.3912592,2.4238281,0.5876207   c-0.3776245-0.0087795-0.9144745-0.077549-1.4793396-0.1518803c-0.6099701-0.0793047-1.2476349-0.1615372-1.7922058-0.1621218   c-0.3117981,0.0014629-0.5933533,0.023118-0.8509216,0.115592c-0.2558746,0.0942307-0.5561981,0.2613277-0.9276276,0.4749546   c-1.1019287,0.6385403-2.7840271,1.6952629-4.3726273,2.1781187c-0.0666428,0.0201921-0.1274796,0.0594063-0.1733475,0.1120815   c-0.0009918,0.0011702-0.3885193,0.44452-1.0121002,1.1515379c-1.8690186,2.1201763-5.8594894,6.6124916-7.7799377,8.5325012   c-1.2727661,1.2729855-2.9548264,2.6715107-4.3148346,3.7469616c-0.6801682,0.5378723-1.2802582,0.9955616-1.7099304,1.3186359   c-0.4296646,0.3230743-0.686821,0.509779-0.6874847,0.5103645l-0.0944138,0.0994968   c-1.5430527,2.3768215-4.0070419,5.301466-6.302948,7.8070469c-2.2933426,2.5047073-4.4341202,4.6058617-5.2983932,5.3248787   c-0.8933182,0.74506-1.9622574,1.6238556-2.8984909,2.636097c-0.9349442,1.0125351-1.7451553,2.1620255-2.093399,3.468956   c-0.3063202,1.1603165-1.0250397,2.6615601-1.6659927,3.8552361c-0.220871,0.4120369-0.4304733,0.7845688-0.6128616,1.100914   c-0.179718-2.15588-1.0828094-4.0278969-2.0505676-5.5338211c-0.3042755-0.4711494-0.5797958-1.175827-0.8049393-1.9568825   c-0.3396835-1.1726112-0.5752563-2.5187531-0.7237015-3.5669899c-0.0743332-0.5244102-0.1271896-0.9744911-0.1613922-1.292881   c-0.0215836-0.201046-0.0348587-0.3409271-0.0422821-0.4222794c0.0698318-0.0453606,0.1384506-0.0880852,0.2102966-0.137249   c0.7654343-0.5361176,1.6376114-1.3206863,2.5689011-2.0250702c0.9285126-0.705555,1.9136429-1.3209763,2.8365936-1.5322609   c1.3994064-0.3248291,2.5195618-0.6443939,3.6325378-1.239624c1.112915-0.5952301,2.2005081-1.4567604,3.5565262-2.8380203   c1.3208008-1.3458519,3.0765305-2.8058319,4.4979858-3.9240093c0.7109375-0.5595284,1.3387222-1.0341892,1.7883224-1.3686771   c0.224823-0.1673889,0.4050903-0.2996635,0.5289841-0.3897953c0.1238632-0.0901337,0.190361-0.1378345,0.1905441-0.1381264   l0.0700912-0.0649662c0.0006561-0.0008774,0.259201-0.3113689,0.6804199-0.8041744   c0.6317368-0.7389164,1.6264954-1.8843079,2.646019-2.9860973c1.0173569-1.1006203,2.0688171-2.1631947,2.7764206-2.7121868   c1.3471298-1.0476513,3.5586472-2.8368511,5.5299454-4.4659786c0.9855347-0.8147087,1.9105682-1.5887413,2.6373749-2.2106018   c0.3634949-0.3107834,0.6773529-0.5835238,0.9254761-0.8050518c0.2491074-0.2226992,0.428421-0.3892117,0.539917-0.5077305   l0.0643082-0.0936451c0.0107193-0.0275078,0.5348358-1.0994482,0.5381317-2.4256916   c0-0.2373314-0.0173035-0.482564-0.0587082-0.7310152c-0.1157455-0.675705-0.0701599-1.816123-0.1575928-2.9123521   c-0.0452118-0.5507483-0.1244812-1.0959363-0.2901459-1.5893273c-0.1091919-0.324245-0.2644806-0.6268349-0.4739304-0.8872843   c0.1231995,0.0026336,0.2982712,0.0257521,0.5443802,0.0980344c0.1973114,0.0579429,0.3591385,0.1893382,0.5039978,0.3918447   c0.2161484,0.3005414,0.3577499,0.7468171,0.4307327,1.1123242c0.0372696,0.1829,0.0594025,0.3453155,0.0719147,0.4603229   c0.0062561,0.0576501,0.0101318,0.1033015,0.0123978,0.1337361l0.0028152,0.0424328l0.0073929,0.0588207   c0.0052643,0.0216556,0.0846481,0.4108667,0.3242111,0.8498263c0.120491,0.2191873,0.2822113,0.4527144,0.5055313,0.6534648   c0.2197723,0.1981173,0.5062714,0.3625813,0.8512192,0.4272547l-0.000145,0.0005846   c0.0006561,0,0.0051575,0.0008783,0.0059967,0.0008783c0.0018616,0.0002928,0.0035095,0.0011702,0.0053787,0.0014629   l0.0001068-0.0005846c0.0296326,0.0058527,0.1289444,0.0242891,0.2901154,0.024581   c0.2319565,0,0.5804825-0.0412617,0.965889-0.225625c0.3853455-0.183485,0.8012543-0.5121202,1.1610565-1.0526257   c0.4315338-0.6476121,1.1481323-1.6750708,1.829361-2.5301647c0.3400116-0.4269614,0.6726685-0.8117833,0.9465179-1.0772076   c0.0298767-0.029264,0.0557709-0.0506268,0.0841217-0.0769644c-0.1729431,0.4494948-0.493454,1.0739884-0.7945099,1.6080565   c-0.1748199,0.3116612-0.3404541,0.5928884-0.4620819,0.7959805c-0.1216278,0.2027993-0.1981506,0.3257084-0.1981506,0.3257084   l-0.0375366,0.0795979c-0.0064697,0.0225334-0.0370178,0.1071062-0.0383759,0.2437692   c0.0006256,0.1003752,0.0179749,0.2516704,0.1370392,0.3965268c0.1199493,0.1471982,0.3218231,0.2159681,0.4998932,0.2118716   c0.1763153-0.0011706,0.3600922-0.0456519,0.5892334-0.1334438l0.0006256-0.0002928   c0.2288818-0.0892553,0.5851746-0.2560601,1.0206604-0.4626637c0.6504517-0.3090277,1.4649811-0.7026286,2.177124-1.0166311   c0.2472382-0.1091547,0.4725342-0.2019215,0.6819916-0.2844462c-0.1802979,0.136663-0.3893127,0.2829828-0.6183014,0.4319367   c-1.2249146,0.7989068-2.9187164,1.6607313-3.0513611,1.7271609c-0.1322784,0.0664291-0.2202148,0.1729498-0.2729645,0.2797632   c-0.0530701,0.1079845-0.0761566,0.2209435-0.0764771,0.3359509c0.0001373,0.1735353,0.0558167,0.3599472,0.188385,0.5162172   c0.1312866,0.1571474,0.3409271,0.2639608,0.5720367,0.2850313l0.1255035-0.0084867   c0.0006561-0.0002928,0.2554321-0.0614548,0.6572723-0.1539288c0.6026459-0.138711,1.5329895-0.3470707,2.4109497-0.5200214   c0.4387665-0.0863285,0.8646393-0.1638784,1.2272949-0.2191868c0.2003479-0.0307274,0.379837-0.0535536,0.53125-0.0681849   C137.3145294,8.6425533,135.9553223,9.1892042,133.1368408,9.703373z"/><polygon points="132.49646,11.8665667 132.497345,11.8662739 132.4977417,11.8662739  "/><path d="M93.7058029,41.7907524v-0.0002899c-0.0152206,0.0272141-2.0887909,2.6843834-2.5100861,5.8958168   c-0.0266647,0.2057228,0.1187057,0.3944778,0.3246841,0.4211082c0.2060242,0.0266304,0.3946304-0.1188126,0.4212952-0.3245392   c0.0974121-0.7588158,0.3019333-1.4948044,0.5511856-2.1705093c0.0864792,0.3763351,0.1881714,0.8398743,0.2766571,1.3019562   c0.1214066,0.6285896,0.2155304,1.2633247,0.2141037,1.6124458l-0.0019073,0.0836945   c-0.0102005,0.2071877,0.1497269,0.3836479,0.3572083,0.3938904c0.2074432,0.0102425,0.3838654-0.1498299,0.3940353-0.3570175   l0.0028152-0.1205673c-0.0024872-0.6083984-0.1815414-1.5597725-0.3572006-2.393795   c-0.1762085-0.8290482-0.3516083-1.5190964-0.3523407-1.5220222c-0.0113754-0.0447731-0.0326996-0.0836945-0.0574265-0.1193962   c0.0990906-0.2071877,0.1988831-0.4073563,0.2977219-0.5914268c0.2725601-0.5088997,0.5333405-0.9244461,0.7248688-1.2109413   c0.0957718-0.1431007,0.1742325-0.2543068,0.2281876-0.3289299l0.0616379-0.0836945l0.0194931-0.025753   c0.1270065-0.164463,0.0968323-0.4006233-0.0674515-0.5276299C94.0690079,41.5961494,93.8328476,41.6262894,93.7058029,41.7907524z   "/></g><text x="0.0" y="191.1724963575" font-size="8.134999845000001" font-weight="bold" font-family="Arbeit Regular, Helvetica, Arial-Unicode, Arial, Sans-serif" fill="#000000">Created by ICONGALAXY</text><text x="0.0" y="199.3074962025" font-size="8.134999845000001" font-weight="bold" font-family="Arbeit Regular, Helvetica, Arial-Unicode, Arial, Sans-serif" fill="#000000">from Noun Project</text></svg>