<svg xmlns="http://www.w3.org/2000/svg" version="1.1" viewBox="7.925 1.705 84.133 96.59">
 <path d="m89.969 21.992-4.4336 0.90234-0.12109-0.31641c-0.054687 0.019531-1.3945 0.53125-2.1172 1.1602-0.48438 0.41797-0.90234 0.24609-0.94531 0.22656l-0.12109-0.035156c-0.027344-0.003907-1.3594-0.14063-2.8672-0.32813-0.054687-6.4453-2.4961-11.465-5.6094-11.465-2.25 0-4.2383 2.6992-5.1289 6.9102l-2.2188-0.375 2.1016 2.9609 2.9609-2.1016-2.1602-0.36719c0.8125-3.8047 2.5703-6.332 4.4453-6.332 2.6211 0 4.8359 4.8633 4.9102 10.684-1.1836-0.15625-2.3672-0.33203-3.0273-0.49219-1.6328-0.39844-5.4648-0.38281-5.9844-0.375-3.2656-0.97266-7.0625-2.4531-8.6641-3.3867-2.3242-1.3516-4.2734-1.0703-4.7383-0.97266-0.80469-0.22656-2.2227-0.19141-2.8945-0.15625v-3.1523c0.84375-1.375 1.4922-3.125 1.4922-4.6367 0-3.9297-2.0234-6.7812-4.8125-6.7812-2.7891 0-4.8125 2.8516-4.8125 6.7812 0 1.4648 0.60938 3.1484 1.4141 4.5039v3.2852c-0.67578-0.035156-2.0938-0.070312-2.8945 0.15625-0.46484-0.097656-2.4141-0.37891-4.7383 0.97266-1.6016 0.92969-5.3984 2.4141-8.6641 3.3867-0.51562-0.003907-4.3516-0.019532-5.9844 0.375-0.57422 0.14062-1.543 0.29297-2.5625 0.42969 0.089843-5.793 2.2969-10.621 4.9102-10.621 1.875 0 3.6328 2.5273 4.4453 6.332l-2.1602 0.36719 2.9609 2.1016 2.1016-2.9609-2.2188 0.375c-0.89062-4.2109-2.8789-6.9102-5.1289-6.9102-3.1016 0-5.5391 4.9922-5.6055 11.406-1.6875 0.21484-3.3047 0.38281-3.332 0.38672l-0.11719 0.03125c-0.046876 0.023437-0.46484 0.19531-0.94922-0.22266-0.72656-0.62891-2.0625-1.1406-2.1172-1.1602l-0.12109 0.31641-4.4336-0.90234-0.19141 0.86328c-0.21484 0.94531 0.23437 1.9219 1.0938 2.3711 1.0898 0.57422 1.8398 0.83203 2.3125 0.81641 0.71094-0.042969 3.125 0.37891 4.0234 0.54688 0.14844 0.015625 2.0039 0.19531 4.0312 0.36719 0.64453 4.9727 2.7891 8.5391 5.4102 8.5391 1.9922 0 3.7656-2.0625 4.7812-5.5312l2.125 0.46484-1.957-3.0586-3.0586 1.957 2.2109 0.48438c-0.91797 3.0859-2.4688 4.9844-4.1016 4.9844-2.1719 0-4.0664-3.332-4.6953-7.7852 1.7109 0.14062 3.4141 0.26172 4.2148 0.26172 1.7656 0 4.0742-0.46484 4.4609-0.54688 3.4688 0.31641 7.5469-0.078124 10.031-0.40234 0.058594 0.45703 1.0859 8 1.1094 8.1133 0.054687 0.28125 0.11719 5.8125 0.10938 7.3594-0.007812 1.2969-0.67188 2.543-0.75 3.8281l0.25 0.074219c-0.65234 4.0391-2.2148 14.496-2.2148 21.828l-0.85547 6.1328c-0.31641 2.2539-0.28906 12.617-0.14063 13.914 0.09375 0.81641 0.12891 1.9219 0.14453 2.5117-0.15234 0.29297-0.44141 0.77734-0.97266 1.4414-0.5 0.625-1.1211 1.1758-1.668 1.6562-0.53906 0.47656-1 0.88672-1.2891 1.3008-0.19531 0.27734-0.24219 0.62109-0.13672 0.94141 0.10937 0.32422 0.35547 0.57031 0.68359 0.67578 0.34766 0.11328 0.79688 0.21094 1.3359 0.28906 0.22266 0.03125 0.44141 0.046875 0.65234 0.046875 1.9844 0 3.457-1.3359 4.0039-2.3281 0.39844-0.72266 1.3086-1.207 1.7969-1.4648l0.17188-0.09375c0.19531-0.10938 0.65234-0.36328-0.28906-3.7812l-0.046875 0.011719c0.21875-0.16016 0.35938-0.26953 0.38281-0.28906l0.11719-0.09375 0.015625-0.14844c0.015625-0.16016 1.5195-16.105 2.5469-19.051 0.94141-2.7031 3.7227-13.172 4.3633-15.602 0.64063 2.4297 3.4219 12.898 4.3633 15.602 1.0273 2.9492 2.5312 18.891 2.5469 19.051l0.011719 0.14453 0.11328 0.09375c0.023437 0.019531 0.15625 0.12891 0.36719 0.28516l-0.023437-0.007813c-0.94141 3.4219-0.48438 3.6758-0.29297 3.7812l0.17188 0.09375c0.48828 0.25781 1.4023 0.74219 1.7969 1.4648 0.54688 0.99609 2.0195 2.332 4.0039 2.3281 0.21094 0 0.42969-0.015625 0.65234-0.046875 0.53906-0.078125 0.98828-0.17578 1.3359-0.28906 0.32812-0.10547 0.57422-0.35156 0.68359-0.67578 0.10547-0.32031 0.058594-0.66406-0.13672-0.94141-0.28906-0.41406-0.75391-0.82422-1.2891-1.3008-0.54688-0.48438-1.1641-1.0312-1.668-1.6562-0.52344-0.65234-0.86719-1.2031-1.0703-1.5625 0.089843-0.5625 0.21484-1.4922 0.24219-2.418 0.023438-0.82422 0.19141-11.508-0.14062-13.883l-0.85156-6.0859c0-7.2188-1.5-17.41-2.1758-21.621 0.035156-0.019531 0.058593-0.03125 0.058593-0.03125 0.14844-0.10156-0.33984-3.9648-0.42578-4.9609-0.18359-2.1641 0.089844-12.137 0.11719-12.25 0.30078-1.4141 0.375-2.043 0.25-2.4688 2.3789 0.33203 6.8672 0.82422 10.629 0.48437 0.38672 0.082032 2.6953 0.54688 4.4609 0.54688 0.875 0 2.8242-0.14453 4.6836-0.30078-0.625 4.4688-2.5234 7.8242-4.6992 7.8242-1.6367 0-3.1875-1.8984-4.1055-4.9844l2.2109-0.48438-3.0586-1.957-1.957 3.0586 2.125-0.46484c1.0195 3.4688 2.7891 5.5312 4.7812 5.5312 2.6289 0 4.7773-3.5859 5.4141-8.5781 1.8398-0.16016 3.4414-0.31641 3.5898-0.33203 0.86719-0.16406 3.2812-0.58594 3.9922-0.54297 0.45312 0.015625 1.2227-0.24219 2.3086-0.81641 0.85547-0.44922 1.3086-1.4258 1.0938-2.3711zm-43.938-12.961-0.09375 0.78906c0.011719-0.26953 0.035156-0.53516 0.070312-0.78906h0.023438zm0.48438 1.8164 0.21875-1.8398c1.3711-0.070312 3.6133-0.37891 5.2148-1.5586 0.25391 0.42578 0.70312 0.98828 1.4453 1.375l0.30859 2.1133 0.42578-0.0625c-0.21484 2.0469-1.5625 4.4805-2.7852 5.4688-0.76562 0.62109-1.8359 0.62109-2.6055 0-1.2422-1-2.6172-3.5-2.7969-5.5625zm0.44531 7.9961 0.375 0.027344v-3.0078c0.31641 0.41016 0.64453 0.75781 0.96875 1.0195 0.51172 0.41406 1.125 0.62109 1.7383 0.62109s1.2266-0.20703 1.7383-0.62109c0.29297-0.23828 0.59375-0.55078 0.88672-0.91406v2.9023l0.375-0.027344c0.18359-0.015625 0.48047-0.027344 0.8125-0.039062-0.097657 1.0898-0.79297 2.043-1.9336 2.5234-0.45312 0.19141-3.1758 0.35938-4.0117-0.16016-0.875-0.54297-1.4648-1.4258-1.5977-2.3594 0.26562 0.011718 0.49219 0.023437 0.64844 0.035156zm-29.598 7.0586c-0.12891-0.023438-3.2031-0.59766-4.1562-0.55469-0.15234 0.007813-0.64453-0.050781-1.9531-0.73828-0.57812-0.30469-0.88281-0.96484-0.73828-1.6055l0.042969-0.19922 4.8398 0.98437 0.015624-0.070312c0.30078 0.16016 0.60938 0.34766 0.83594 0.54297 0.40625 0.35156 0.80469 0.44531 1.1133 0.44531 0.24219 0 0.42969-0.054687 0.52344-0.09375 0.29688-0.03125 1.7148-0.17969 3.2148-0.37109 0.011719 0.6875 0.042969 1.3594 0.10938 2.0078-2.0156-0.17188-3.8242-0.34375-3.8477-0.34766zm13.336 0.13281-0.054688-0.003906-0.050781 0.011719c-0.027344 0.003906-2.5508 0.54297-4.3672 0.54297-0.79687 0-2.5547-0.12891-4.2969-0.26953-0.074219-0.69922-0.12109-1.418-0.13281-2.1562 1.0703-0.14453 2.1055-0.30469 2.7266-0.45703 1.6328-0.39844 5.8203-0.35547 5.8672-0.35547h0.050781l0.050782-0.015625c3.3242-0.98438 7.2188-2.5078 8.8672-3.4648 2.3477-1.3672 4.293-0.88672 4.3164-0.87891l0.10156 0.027344 0.097656-0.03125c0.09375-0.03125 0.21094-0.058594 0.33594-0.078125 0.17187 0.61719 0.51172 2.4453-0.66016 4.4141-0.37891 0.63672-0.72266 1.082-1.0312 1.4102-0.74609-0.88281-1.8398-1.6523-1.8984-1.6914l-0.39453 0.57031c0.011719 0.007813 1.0977 0.77344 1.7812 1.5859-0.23828 0.17969-0.44531 0.28125-0.62109 0.35156-2.3242 0.32422-6.8945 0.84375-10.688 0.48828zm11.844 65.953-0.085938 0.046875c-0.51562 0.27344-1.582 0.83984-2.082 1.7422-0.49219 0.89844-2.0039 2.2109-3.9492 1.9297-0.5-0.074219-0.91016-0.16016-1.2188-0.26172-0.11719-0.039062-0.20312-0.125-0.24219-0.23828-0.035156-0.10938-0.019532-0.23047 0.046875-0.32422 0.24219-0.34766 0.67578-0.73047 1.1797-1.1758 0.56641-0.50391 1.2109-1.0703 1.75-1.7422 0.35547-0.44531 0.61328-0.82031 0.79688-1.1211l0.050781-0.007812c0.99219-0.17969 2.3594-1.0273 3.2656-1.6484 0.30078 1.1484 0.55078 2.4492 0.48828 2.8008zm2.4766-23.012c-1.0117 2.9023-2.4023 17.32-2.5664 19.066-0.44531 0.33594-2.0547 1.5156-3.2812 1.9609 0-0.003906 0.003906-0.015625 0.007813-0.019531l-0.11719-0.039063c-0.015625-0.62109-0.050781-1.6523-0.14453-2.4492-0.14844-1.2773-0.17578-11.512 0.13672-13.734l0.85937-6.1836c0-7.1992 1.5078-17.398 2.1758-21.562 0.93359 0.48047 3.3945 1.4766 7.5664 1.4453l-0.16797 5.5117c-0.20703 0.78516-3.4609 13.109-4.4688 16.004zm18.867 24.73c0.50391 0.44531 0.9375 0.83203 1.1797 1.1758 0.066406 0.097657 0.085938 0.21484 0.046875 0.32422-0.039062 0.11328-0.125 0.19922-0.24219 0.23828-0.30859 0.10156-0.71875 0.1875-1.2188 0.26172-1.9453 0.28516-3.457-1.0312-3.9492-1.9297-0.49609-0.90234-1.5664-1.4688-2.082-1.7422l-0.085938-0.046875c-0.0625-0.35156 0.18359-1.6367 0.48438-2.7852 0.85547 0.60156 2.1211 1.3945 3.0938 1.5703l0.19531 0.035156c0.21094 0.32812 0.48438 0.71875 0.83203 1.1562 0.53516 0.67188 1.1797 1.2422 1.7461 1.7422zm-3.7148-26.078 0.85547 6.1328c0.3125 2.2266 0.17578 12.316 0.13281 13.766-0.023437 0.80078-0.12891 1.6211-0.21094 2.1719l-0.21094 0.09375c0.003907 0.007812 0.03125 0.074219 0.085938 0.18359-1.2031-0.41016-2.7695-1.5938-3.1953-1.9297-0.16406-1.7266-1.5547-16.164-2.5664-19.07-1.0078-2.8945-4.2617-15.219-4.4688-16.004l-0.16797-5.5117c3.9219 0.042968 6.4609-0.74219 7.6055-1.207 0.68359 4.3008 2.1367 14.266 2.1406 21.375zm13.602-41.047c-1.8164 0-4.3398-0.53516-4.3672-0.54297l-0.050781-0.011718-0.054688 0.003906c-4.0625 0.37891-9.0273-0.24609-11.141-0.5625-0.0625-0.070312-0.13281-0.14844-0.20703-0.23047 0.67969-0.83594 1.8164-1.6328 1.8281-1.6445l-0.39453-0.57031c-0.054688 0.039062-1.1328 0.79687-1.8789 1.6719-0.25-0.32812-0.53516-0.74609-0.85547-1.3203-1.1758-2.1094-0.80859-4.0352-0.70703-4.4531 0.0625 0.015625 0.13281 0.027344 0.1875 0.046875l0.097657 0.03125 0.097656-0.027344c0.019531-0.003906 1.9648-0.48828 4.3164 0.87891 1.6484 0.96094 5.543 2.4805 8.8633 3.4648l0.050782 0.015625h0.050781c0.042969 0 4.2344-0.039062 5.8672 0.35547 0.71094 0.17188 1.9609 0.35938 3.1914 0.51953-0.011719 0.70312-0.054688 1.3906-0.125 2.0547-1.8906 0.17188-3.9023 0.32031-4.7695 0.32031zm14.973-1.9727c-1.3086 0.6875-1.8164 0.74609-1.9531 0.73828-0.94922-0.042968-4.0273 0.53125-4.125 0.55078-0.03125 0.003906-1.582 0.15234-3.4062 0.3125 0.058593-0.61719 0.089843-1.2578 0.10156-1.9062 1.3203 0.16406 2.4844 0.28516 2.75 0.3125 0.097657 0.035156 0.28516 0.09375 0.52344 0.09375 0.3125 0 0.71094-0.09375 1.1133-0.44531 0.22656-0.19531 0.53125-0.38281 0.83594-0.54297l0.015624 0.070313 4.8398-0.98438 0.042969 0.19922c0.14453 0.63672-0.16016 1.2969-0.73828 1.6016z"/></svg>