<svg xmlns="http://www.w3.org/2000/svg" version="1.1" viewBox="0.188 14.11 100.307 72.105">
 <path d="m46.352 71.762c-1.0859 0.19141-2.4727 0.40625-3.0195 0.49219 0 0 0-0.003906-0.003906-0.003906l-0.070313-0.085938-0.10937-0.027343c-2.1172-0.55469-6.1484-0.03125-8.5547 0.28125-0.51172 0.066406-0.95703 0.125-1.293 0.16016-0.96875 0.10156-2.7461 0.89062-3.6484 1.3164 0.039062-0.69141 0.019531-1.4961-0.003906-2.332-0.046876-1.957-0.10156-4.1758 0.50391-6.0508 0.96875-2.9883 0.5-6.1016 0.45703-6.3906-0.015625-0.42188-0.32031-9.5703-1.1875-14.906-0.88672-5.4648-4.1211-8.0625-5.1836-8.918l-0.074219-0.058594c-0.39453-0.31641-0.875-1.1133-1.2734-1.8594 0.11328-5.2539-0.25-7.9453-4.2539-8.0391-5.7852-0.13672-6.7109 5.6133-6.7109 5.6133 0.29297-0.18359 0.62109-0.40625 0.96094-0.61328 0.35156 1.6367 1.3867 5.6953 3.2617 7.3438l0.125 0.11328 0.16406-0.03125c0.054688-0.011719 1.207-0.23438 2.0977-1.0742l0.60547 1.7188c-0.47656 0.78516-2.582 4.5039-2.1562 8.1328 0.32812 2.7891 1.1836 5.5469 1.7539 7.3711 0.23438 0.75391 0.41797 1.3477 0.48828 1.6953 0.17969 0.90234-1.3086 1.3711-1.3242 1.3789l-0.44922 0.14062c-2.7656 0.28516-12.348 1.4336-14.676 3.875-0.0625 0.089844-1.5039 2.2227 0.078125 4.6367 1.4922 2.2773 6.0469 10.59 6.7188 11.973 0.53125 1.0898 0.28906 2.0156 0.17188 2.3398-0.56641 0.30859-1.9727 1.0391-2.918 1.2539-2.332 0.52734-2.7891 1.6602-2.7617 2.5156l0.011719 0.3125 0.31641 0.015625c0.15234 0.011719 3.2344 0.23438 5.5 0.23438 0.44141 0 0.85156-0.007812 1.2031-0.027344 2.1523-0.12109 5.2227-0.53125 5.2539-0.53516l0.18359-0.023437 0.082032-0.16406c0.035156-0.066406 0.80469-1.6406 0.16406-2.9258-0.48047-0.95703-1.1016-2.0898-1.293-2.4336l0.082031-0.10547-0.09375-0.19531c-0.023437-0.050781-2.4805-5.0938-2.918-6.7188-0.41406-1.5469-1.4531-4.2852-2.6875-5.9844 1.6055 0.26562 4.9258 0.76562 7.2969 0.79688l-1.3828 1.082-0.43359 2.3867 0.92578-0.10547-0.72266 1.6328 3.3984 0.39453 1.6523-0.9375c0.76172 2.6211 2.9922 9.9258 4.4961 10.656 0.21094 0.10156 0.51563 0.15625 0.91406 0.15625 1.6797 0 5.0547-0.92969 10.398-2.8594l0.39453-0.14062c1.6289-0.58203 6.0625-0.26953 6.1094-0.26562l0.32031 0.023438 0.042969-0.28516c0.23047 0.23047 0.37109 0.58594 0.35156 0.93359-0.011718 0.22266-0.10937 0.61719-0.59375 0.77734-0.42578 0.14062-0.73047 0.39453-0.90625 0.75781-0.32812 0.66797-0.058593 1.4531-0.046874 1.4844l0.070312 0.19531 0.20312 0.035156c0.070313 0.011719 1.2344 0.19922 2.4375 0.19922 0.57031 0 1.1484-0.042969 1.625-0.16406 0.64062-0.16406 1.1211-0.55469 1.3867-1.1328 0.31641-0.68359 0.29688-1.6016-0.058594-2.3359-0.39844-0.82812-0.17188-1.5898 0.28125-3.1055l0.10938-0.36328c0.35938-1.2148 0.27344-2.1992-0.23828-2.7734-0.26172-0.29297-0.73047-0.59766-1.5508-0.45312zm-20.793-12.945c0.003906 0.007813 0.007812 0.015625 0.011718 0.023438-0.007812 0-0.015624 0-0.023437-0.003906 0.003906-0.003907 0.007813-0.011719 0.011719-0.019532zm-4.2578-20.59v-0.007812c0.050781-0.058594 0.097657-0.12891 0.15234-0.18359-0.054687 0.0625-0.10156 0.125-0.15234 0.19141zm-2.5156-2.9453-0.39062 0.53516c-0.57422 0.79297-1.5312 1.1211-1.9141 1.2266-1.7031-1.6523-2.6641-5.6875-2.9492-7.0508 0.75391-0.35547 1.5234-0.48047 2.1328 0.17578 1.2656 1.3711 2.7383 1.5078 3.9375 1.6094 0.66406 0.058594 1.6016 0.66016 2.3047 1.1875 0.40625 0.84375 1.1602 2.2773 1.8242 2.8125l0.074219 0.0625c0.12891 0.10156 0.29297 0.23438 0.47656 0.39453-0.30859-0.050781-0.63672-0.0625-0.97656-0.003906-1.5352 0.25781-3.375 1.7031-3.7695 4.2227l-0.35156 1.2734c-0.089844 0.33203-0.38281 0.56641-0.70703 0.57031-0.10547 0.003906-0.19922-0.011719-0.29297-0.023437 0.64453-2.0547 1.6211-3.5977 1.6367-3.625l0.09375-0.14453zm-2.7188 47.777c-0.70703 0.089844-3.1914 0.40234-5.0078 0.50391-1.7695 0.097656-5.168-0.10547-6.2656-0.17969 0.18359-0.86719 1.2656-1.293 2.1953-1.5039 1.0195-0.23047 2.4453-0.96484 3.0625-1.3008l0.015625-0.003906c0.14844-0.023438 3.3242-0.50781 4.918-1.875 0.25781 0.46875 0.76953 1.4062 1.1758 2.2188 0.38281 0.76953 0.058594 1.7539-0.09375 2.1406zm-7.3203-18.145c1.332 1.332 2.6367 4.5586 3.1367 6.4219 0.40625 1.5156 2.3906 5.6562 2.8672 6.6367-0.98047 1.0469-3.1953 1.6016-4.2344 1.8125 0.12109-0.56641 0.17578-1.4766-0.3125-2.4844-0.73438-1.5039-5.2461-9.7305-6.7617-12.047-1.3203-2.0156-0.13672-3.7852-0.12109-3.8203 2.3555-2.4688 13.824-3.5898 14.855-3.6875 0.42188 0.16016 1.2773 0.46484 2.3359 0.76953-0.058594 0.21875-0.11328 0.43359-0.16797 0.61719-0.36719 1.2734-2 4.9648-2.5156 6.1289-3.0156 0.10156-8.7109-0.92969-8.7695-0.94141l-1.0938-0.19922zm10.059 5.7266-2.2383-0.25781 0.83203-1.8828-1.1992 0.14062 0.21875-1.207 1.8438-1.4414 0.035156-0.078126c0.09375-0.20312 2.2617-5.0234 2.7148-6.582 0.14062-0.48828 0.29297-1.1094 0.45703-1.7617 0.34375-1.3945 0.73438-2.9766 1.1055-3.6406l0.058593-0.10156-0.015624-0.11719c-0.007813-0.046876-0.17578-1.1562-0.59375-2.2031-0.37109-0.92969-0.86719-6.4805-0.71875-7.2383l-0.67969-0.13672c-0.050781 0.24609-0.046875 0.83984-0.011719 1.5898-0.8125-1.1133 0-3.6953 0.61328-5.6406l0.19531-0.62891c0.30859-1 1.4219-1.9883 2.4297-2.1562 0.82031-0.13672 1.9375 0.61328 2.2969 0.91016l0.007812-0.007812c0.12891 0.16406 0.25391 0.33984 0.37891 0.52344 0.14062 0.33594 0.91016 2.332 0.42188 4.332l-0.011719 0.082031c0 0.0625-0.050781 6.4766-1.043 9.4492l-0.019532 0.058593v0.058594c0 0.039063 0.066407 3.8555-0.85937 5.6328-0.96484 1.8438-4.4844 7.4766-4.5195 7.5352l-0.050781 0.078125-0.12109 3.8203zm23.84 6.6094c-1.082-0.0625-4.5586-0.21484-6.0703 0.32812l-0.39844 0.14453c-7.7773 2.8047-10.152 3.0352-10.773 2.7305-1.0586-0.51562-3.207-6.9297-4.3125-10.852l-0.058594 0.015626 0.10938-3.4531c0.39453-0.62891 2.8125-4.5117 4.043-6.6719 0.98438 0.13281 1.918 0.21094 2.7695 0.21094 0.72656 0 1.3906-0.058594 2.0117-0.15625 0.10156 0.88672 0.29297 3.4023-0.47266 5.75-0.64453 1.9844-0.58594 4.2695-0.53906 6.2812 0.027344 1.0742 0.050781 2.0938-0.046875 2.8477l-0.085938 0.64844 0.58594-0.29297c0.027344-0.015625 2.7812-1.3906 3.9648-1.5156 0.33984-0.035156 0.78906-0.09375 1.3086-0.16016 2.3047-0.29688 6.1289-0.79297 8.1523-0.32812 0.21484 0.51562 0.085938 2.5938-0.1875 4.4727zm4.8242-2.4688-0.10547 0.35938c-0.46875 1.582-0.75391 2.5352-0.24219 3.6055 0.26562 0.55859 0.28906 1.2422 0.054687 1.7422-0.17969 0.38672-0.49219 0.64062-0.93359 0.75-1.1016 0.28516-2.9258 0.070313-3.5547-0.015625-0.035156-0.19531-0.0625-0.50391 0.0625-0.75781 0.09375-0.1875 0.25781-0.32031 0.5-0.40234 0.62891-0.21094 1.0273-0.73047 1.0664-1.3945 0.046875-0.72656-0.33594-1.4336-0.92969-1.75 0.15625-1.1484 0.34375-2.9648 0.17578-4.0078 0.61719-0.097656 1.8906-0.29688 2.9023-0.47656 0.40234-0.070313 0.70703 0.003906 0.90625 0.22266 0.34375 0.39062 0.375 1.1797 0.097656 2.125z"/>
 <path d="m95.59 73c0.015625-0.074219 0.023437-0.125 0.023437-0.14062l0.007813-0.15234-0.10547-0.10938c-0.039063-0.042968-3.957-4.125-5.1133-5.7969-1.293-1.875-3.7578-3.2266-4.5195-3.5547-0.71094-0.30469-2.1953-1.4258-2.5469-1.6953-0.34766-0.86719-0.95703-1.9922-1.6016-3.1797-1.0859-2-2.3164-4.2695-2.3438-5.4727-0.027344-1.4609-0.47656-3.2539-0.74609-4.2227l0.23438-0.074219-0.042968-0.29297c-0.011719-0.09375-1.3711-9.3984-2.8633-14.699-1.5-5.3281-5.0039-7.5469-6.1562-8.2773l-0.082031-0.050781c-0.42578-0.27344-0.99609-1.0078-1.4727-1.7031-0.48047-5.2344-1.1445-7.8633-5.1328-7.5078-5.7617 0.51563-6.0312 6.3359-6.0312 6.3359 0.26953-0.21484 0.57031-0.47266 0.88672-0.71875 0.53516 1.5859 2.0195 5.5039 4.0664 6.9297l0.14062 0.097656 0.16016-0.050782c0.054688-0.015624 1.1758-0.36719 1.9648-1.3047l0.79297 1.6367c-0.38672 0.83594-2.0586 4.7656-1.2266 8.3242 0.64063 2.7344 1.8008 5.375 2.5742 7.125 0.31641 0.72266 0.57031 1.293 0.67578 1.6289 0.28125 0.875-1.1445 1.5117-1.1602 1.5156l-0.90234 0.39453 0.94922 0.25781c0.003907 0 0.027344 0.007812 0.054688 0.015624-3.0234 2.9102-9.0742 11.047-9.4531 12.121-0.24609 0.70312-0.20312 2.9844-0.10547 6.6484 0.042969 1.6484 0.085937 3.3516 0.085937 4.8672 0 4.2266-1.3711 7.7422-1.3867 7.7773l-0.070313 0.17188c-0.81641 0.46484-2.1328 1.1406-2.7734 1.1406-1.2852 0-2.6758 1.0859-2.6758 2.8398v0.33984l0.33984 0.007813c0.49219 0.011719 2.8047 0.0625 5.2617 0.0625 2.7539 0 5.6953-0.066406 6.4609-0.32812l0.21484-0.074219 0.019532-0.22266c0.007812-0.10156 0.19531-2.2305-0.097657-3.5234 0.011719 0 0.027344 0 0.039063-0.003907l0.30078-0.019531 0.023437-0.30078c0.011719-0.13281 0.24609-3.207 0.24609-3.9492 0-0.66406 0.5625-4.3477 1.0781-7.043 0.42578-2.2266-0.058593-4.875-0.23438-5.6953l0.33594-0.19922c0.45312-0.26562 1.1172-0.66016 1.9023-1.1289l3.043 0.007812 1.918-1.3984-0.12891-1.582c0.64844-0.41406 1.2539-0.80859 1.8125-1.1797 0.92578 1.9688 3.0547 4.7109 4.5039 6.5781 0.625 0.80469 1.168 1.5 1.3164 1.7617 0.48828 0.86719 1.7969 1.6016 3.7734 2.7109 0.38281 0.21484 0.78906 0.44141 1.2148 0.6875 2.332 1.332 7.9609 7.0586 8.7695 7.8828 0.015625 0.58203-0.22266 1.207-0.67578 1.7305-0.39062 0.45313-0.76953 0.63672-0.91406 0.64453-0.75781 0.046875-1.4883 0.64844-1.7031 1.3945-0.0625 0.22266-0.023437 0.44922 0.11719 0.65625 0.39453 0.57812 1.5312 0.88672 2.3906 0.97266 0.085937 0.007813 0.16797 0.011719 0.25391 0.011719 1.2773 0 2.5078-0.91406 2.832-1.3281 0.050781-0.0625 0.10938-0.14844 0.18359-0.25 0.33984-0.48438 0.97266-1.3828 1.9727-1.9922 1.2578-0.76953 2.4531-1.9766 2.2852-2.9297-0.12109-0.68359-1.9609-2.293-2.9609-3.125zm-21.809-24.441c0.003906 0.007812 0.011719 0.015625 0.015625 0.019531h-0.023437c0-0.007813 0.003906-0.011719 0.007812-0.019531zm-6.5547-19.98v-0.007813c0.042969-0.066406 0.082032-0.13672 0.12891-0.19922-0.042969 0.066406-0.085938 0.13672-0.12891 0.20703zm-2.832-2.6445-0.32812 0.57422c-0.48438 0.85156-1.3984 1.2891-1.7617 1.4336-1.8789-1.4492-3.2891-5.3516-3.7266-6.6719 0.70703-0.4375 1.4609-0.65234 2.1406-0.066406 1.4141 1.2188 2.8906 1.1875 4.0938 1.1562 0.66797-0.019531 1.6641 0.47656 2.4219 0.91797 0.49609 0.78906 1.4102 2.1328 2.1328 2.5898l0.082031 0.050781c0.14062 0.089843 0.31641 0.19922 0.51953 0.33594-0.3125-0.015625-0.64062 0.011719-0.96875 0.10547-1.4961 0.42969-3.1602 2.0703-3.2695 4.6211l-0.20703 1.3047c-0.054688 0.33984-0.31641 0.60547-0.64063 0.64453-0.10937 0.011718-0.19922 0.007812-0.29297 0.007812 0.41016-2.1172 1.2031-3.7578 1.2148-3.7852l0.074218-0.15234zm-3.0742 57.375c-1.5781 0.30859-8.0156 0.24219-10.906 0.17969 0.16406-1.2305 1.2227-1.8047 1.957-1.8047 1.0547 0 3.0703-1.1914 3.5391-1.4766 0.35547 0.03125 0.82812 0.046875 1.3711 0.046875 1.3086 0 2.9453-0.074218 3.9023-0.125 0.23828 0.83984 0.19531 2.3828 0.13672 3.1797zm2.0156-21.023-0.77734 0.46094 0.058594 0.24609c0.007812 0.03125 0.75391 3.1875 0.28125 5.6562-0.48828 2.5742-1.0898 6.3906-1.0898 7.1719 0 0.58203-0.16016 2.7812-0.22266 3.5938-1.8789 0.10547-4.5117 0.20313-5.5781 0.11328 0.36719-1.0625 1.2852-4.0625 1.2852-7.625 0-1.5234-0.042969-3.2305-0.085938-4.8828-0.074219-2.8438-0.14844-5.7812 0.066407-6.3984 0.30078-0.85547 6.7578-9.6445 9.6055-12.156 0.47656 0.10938 1.1172 0.24219 1.8516 0.36719-0.03125 0.22656-0.0625 0.44141-0.097657 0.63281-0.24609 1.4414-1.6914 6.0039-1.9023 6.668l-1.7344 1.707-0.16016 2.4219 0.90625-0.21094-0.30859 0.98828c-0.87109 0.52344-1.6094 0.95703-2.0977 1.2461zm5.0703-1.2188-2.2539-0.003906 0.61328-1.9609-1.1758 0.27344 0.082031-1.2227 1.668-1.6406 0.027344-0.082031c0.070312-0.21484 1.6797-5.2461 1.9531-6.8477 0.085938-0.5 0.16797-1.1367 0.25391-1.8047 0.18359-1.4258 0.39453-3.0391 0.6875-3.7383l0.046875-0.10937-0.03125-0.11328c-0.011719-0.046875-0.30469-1.1289-0.83594-2.1211-0.47266-0.87891-1.5938-6.3398-1.5312-7.1094l-0.69141-0.058594c-0.019531 0.25 0.046875 0.83984 0.16797 1.582-0.92969-1.0117-0.41797-3.668-0.027344-5.6719l0.125-0.64844c0.19531-1.0312 1.1875-2.1367 2.1719-2.4141 0.80078-0.23047 1.9961 0.39062 2.3867 0.64453l0.003906-0.007812c0.14453 0.14844 0.28906 0.30859 0.4375 0.47656 0.17578 0.31641 1.168 2.207 0.90625 4.2578l-0.003906 0.039062 0.003906 0.039063c0.007813 0.0625 0.67969 6.4414 0.027344 9.5078l-0.011719 0.058594 0.007812 0.058594c0.003907 0.039062 0.50391 3.8242-0.21875 5.6953-0.75 1.9414-3.6133 7.9336-3.6406 7.9961l-0.039063 0.085937 0.3125 3.8086zm1.8164-4.7148c0.32031-0.66797 2.2852-4.793 3.2617-7.0781 0.1875 0.003906 0.375 0.011718 0.55469 0.011718 1.4141 0 2.6641-0.13281 3.75-0.38281-0.066406 1.1367-0.32422 3.0156-1.2734 4.418-0.39453 0.58594-1.8008 1.875-6.1562 4.6758zm13.168 12.387c-0.42969-0.24609-0.83594-0.47656-1.2188-0.69141-1.8086-1.0156-3.1172-1.75-3.5117-2.4492-0.17188-0.30859-0.67578-0.95312-1.3711-1.8477-1.4609-1.875-3.6133-4.6484-4.4688-6.543 2.3672-1.6094 3.7734-2.7617 4.2734-3.5 0.71484-1.0586 1.0703-2.3281 1.2461-3.418 0.18359 0.83594 0.34766 1.793 0.36328 2.6172 0.027344 1.3711 1.2461 3.6211 2.4258 5.793 0.65625 1.2109 1.2773 2.3516 1.6016 3.1914l0.035156 0.089844 0.074219 0.058593c0.078125 0.058594 1.8828 1.4609 2.7734 1.8438 0.89844 0.38672 3.1094 1.6992 4.2227 3.3086 1.082 1.5664 4.3516 5.0156 5.0547 5.75-0.070313 0.23828-0.29297 0.78906-0.95703 1.6406-0.69922 0.89453-1.4062 1.6406-1.7656 2.0078-1.2148-1.2344-6.4492-6.5195-8.7773-7.8516zm12.512 9.7266c-1.1211 0.6875-1.8086 1.6641-2.1758 2.1875-0.066406 0.09375-0.11719 0.16797-0.16406 0.22656-0.25781 0.33203-1.4141 1.1641-2.4688 1.0508-0.99609-0.097657-1.7148-0.41797-1.8828-0.67188l-0.023438-0.074218c0.11719-0.41406 0.55469-0.85938 1.0781-0.89062 0.41016-0.027344 0.94922-0.36328 1.3984-0.88281 0.55859-0.64453 0.85156-1.4258 0.83984-2.1719 0.27734-0.27344 1.1172-1.125 1.9766-2.2266 0.42578-0.54297 0.6875-0.98047 0.85156-1.3203 1.2305 1.0391 2.4609 2.2266 2.5352 2.5547 0.078124 0.44531-0.69141 1.4414-1.9648 2.2188z"/></svg>