<svg xmlns="http://www.w3.org/2000/svg" version="1.1" viewBox="14.205 0.398 70.648 99.209">
 <path d="m39.211 95.297c0.14844 0.55859 1.7773 2.3281 3.2109 2.3945 0.097656 0.003906 0.1875 0.007813 0.27734 0.007813 1.6953 0 1.9297-0.8125 1.9531-1.1719 0.019531-0.37109-0.44531-1.1133-1.5898-2.8477-0.57031-0.85938-1.207-1.8242-1.3633-2.2148 0.25391-0.51562 0.44922-1.0352 0.45312-1.0469 0.023437-0.066407 0.058594-0.17188 0.30078-16.41-0.14453-5.8203-2.8086-14.57-3.7812-17.574 0.039063-0.48438-0.29688-3.1484-0.35547-3.8789-0.14453-1.7266-0.34375-3.4922 0-5.2109 0.007813-0.035156 0.082032-1.0469 0.09375-2.3164 1.0703 1.3125 3.3359 3.6875 6.2852 4.4727 0.10156 0.019531 0.41797 0.078125 0.76172 0.078125 0.33203 0 0.69141-0.054687 0.91797-0.24219 0.29297-0.24609 0.46875-1.0703 0.80859-3.8438 0.054687-0.42969 0.09375-0.77734 0.125-0.94531 0.125-0.71484-0.75781-6.1758-0.93359-7.2656l-0.023438-0.078125c-0.125-0.30078-0.78906-1.8086-1.5781-2.1172-0.70703-0.27734-2.4141-0.69141-2.4883-0.70703l-0.14844-0.035156-0.125 0.085938c-0.14844 0.10156-1.4492 0.98828-1.7891 1.2969-0.37891 0.34375-0.64062 0.89844-0.65234 0.92188l-0.054687 0.11328c-0.91797-0.85547-2.1211-1.2383-2.2305-1.2695-0.23438-0.035157-0.55078-0.13281-0.88672-0.25781 0.015624-0.0625 0.027343-0.10156 0.027343-0.10156l-1.4609-0.48828c-0.22266-0.10156-0.41406-0.1875-0.54297-0.25l-0.003906-2.5781c0.67578-1.1055 1.1914-2.5039 1.1914-3.7188 0-3.1758-1.6445-5.4805-3.9062-5.4805-2.2656 0-3.9102 2.3047-3.9102 5.4805 0 1.2266 0.53125 2.6406 1.2148 3.7539v2.5c-0.082031 0.039063-0.1875 0.089844-0.30859 0.14453v-0.007813l-1.7188 0.67188s0.007812 0.015625 0.019531 0.042969c-0.33984 0.12109-0.66016 0.21875-0.90234 0.25781-0.074218 0.023437-1.2656 0.40234-2.1797 1.2578l-0.054688-0.11328c-0.011719-0.023438-0.27344-0.57812-0.65234-0.92188-0.33984-0.30859-1.6406-1.1953-1.7891-1.2969l-0.125-0.085938-0.14844 0.035157c-0.074219 0.015624-1.7812 0.42969-2.4883 0.70703-0.78906 0.30859-1.4531 1.8164-1.5781 2.1172l-0.023437 0.078125c-0.17969 1.0859-1.0586 6.5508-0.93359 7.2656 0.03125 0.17188 0.070312 0.51562 0.125 0.94531 0.33984 2.7734 0.51172 3.5977 0.80859 3.8438 0.22656 0.1875 0.58203 0.24219 0.91406 0.24219 0.35156 0 0.67188-0.058594 0.78516-0.082031 2.9219-0.77734 5.2305-3.1562 6.3359-4.4844 0.011719 1.5938 0.12109 2.9531 0.12891 3.0664 0.027344 0.49219 0.035156 0.98828 0.035156 1.4844-0.003906 1.2344-0.019531 2.4727-0.027343 3.707-0.003907 0.75781-0.085938 1.4766-0.15625 2.2109-0.37891 1.125-3.9258 11.793-4.0938 18.547 0.24219 16.227 0.27734 16.328 0.30078 16.398 0.003906 0.007813 0.19922 0.52734 0.45312 1.043-0.15625 0.39062-0.79688 1.3555-1.3633 2.2148-1.1445 1.7305-1.6094 2.4727-1.5898 2.8438 0.019531 0.36328 0.25391 1.1719 1.9492 1.1719 0.089843 0 0.17969-0.003906 0.27734-0.007812 1.4336-0.066407 3.0625-1.8398 3.2109-2.3945 0.039062-0.14844 0.29297-0.36719 0.51562-0.55859 0.24219-0.21094 0.51953-0.44531 0.70703-0.72656 0.41016-0.61328 0.027344-2.6875-0.10156-3.3047l-0.085938 0.015626c0.20703-0.19141 0.38281-0.375 0.49609-0.53906 0.32812-0.48047 0.42578-2.6289 0.51953-7.2578 0.03125-1.5664 0.066407-3.1836 0.13281-3.4805 0.19141-0.84375 0.34375-3.9297 0.36719-4.457 1.0352-2.1289 4.1016-9.2539 5.0898-11.562 0.90625 2.2891 3.7461 9.4414 4.7969 11.609 0.023438 0.52344 0.17578 3.6094 0.36719 4.4531 0.066406 0.29688 0.10156 1.918 0.13281 3.4805 0.09375 4.6289 0.19141 6.7773 0.51953 7.2578 0.11328 0.16406 0.28906 0.35156 0.49609 0.53906l-0.085937-0.019531c-0.125 0.62109-0.50781 2.6914-0.10156 3.3047 0.1875 0.28125 0.46484 0.51953 0.70703 0.73047 0.22656 0.19141 0.48047 0.41016 0.51953 0.55859zm2.4102-58.32c0.09375 0.003907 0.41797 0.15234 0.65234 0.25781 0.48437 0.22266 1.082 0.49219 1.6758 0.57812 0.046875 1.4688 0.050781 3.5547-0.11328 3.9883-0.039063 0.10156-0.085938 0.21484-0.13672 0.34375-0.11328 0.27734-0.25391 0.62109-0.38281 1.0156-0.75391-1.0234-2.4961-3.4922-2.8359-4.8438-0.11328-0.45703-0.33984-0.84766-0.62109-1.1875h0.019531c0.14062 0.003906 1.3594-0.027344 1.7422-0.15234zm-4.4922-0.82031c0.023438 0.007812 2.2891 0.73047 2.6914 2.332 0.44141 1.7695 2.9297 5.0703 3.2695 5.5117-0.13672 0.60547-0.22266 1.293-0.17578 2.0508l0.68359-0.042969c-0.097656-1.5508 0.42578-2.832 0.73828-3.5977 0.054687-0.13672 0.10547-0.25781 0.14453-0.36328 0.23828-0.63672 0.19141-3.1055 0.15625-4.2305 0.089843-0.015625 0.17969-0.03125 0.26562-0.0625l-0.22266-0.64844c-0.60156 0.20312-1.4766-0.19531-2.1211-0.48828-0.51953-0.23828-0.82812-0.37891-1.0977-0.29688-0.16016 0.050782-0.5625 0.085938-0.96094 0.10938 0.054688-0.070313 0.11328-0.13672 0.17578-0.19141 0.23438-0.21094 1.1328-0.83984 1.5859-1.1523 0.43359 0.10547 1.7031 0.42969 2.2539 0.64453 0.37891 0.14844 0.91016 1.0742 1.1836 1.707 0.50391 3.0938 1 6.5859 0.92969 6.9961-0.03125 0.17578-0.074218 0.53516-0.12891 0.98047-0.11328 0.93359-0.38281 3.1211-0.56641 3.4023-0.13672 0.11328-0.69531 0.10156-1.0859 0.023438-3.4141-0.91016-5.9648-4.2656-6.4531-4.9492-0.035156-1.1016-0.13672-2.2383-0.38672-3.0312l0.52344-0.76172-0.5625-0.38672-0.25391 0.36719c-0.21094-0.53125-0.44531-1.0586-0.73047-1.5664-0.58594-1.0547-0.69141-1.9648-0.67188-2.5781 0.30469 0.10547 0.59375 0.1875 0.81641 0.22266zm-7.4648-4.5508c-0.59375-0.92578-1.0664-2.1016-1.1602-3.1484l0.44531 0.054688 0.17578-1.4805c1.1016-0.0625 2.8477-0.32031 4.1016-1.2422 0.19141 0.32422 0.53906 0.73828 1.082 1.043l0.25781 1.75 0.32812-0.046875c-0.17188 1.6133-1.2266 3.5273-2.1914 4.3047-0.58594 0.47266-1.4102 0.47656-1.9961 0-0.33984-0.27344-0.6875-0.69922-1.0117-1.1914v-0.042969zm-0.16406 3.2656 0.19141-0.09375v-1.9883c0.19141 0.22656 0.38672 0.42969 0.57812 0.58594 0.42188 0.33984 0.92578 0.50781 1.4297 0.50781 0.50391 0 1.0078-0.17187 1.4297-0.50781 0.19922-0.16016 0.40234-0.375 0.60156-0.61328v2.0625l0.19531 0.09375c0.03125 0.015625 0.33594 0.16406 0.75 0.35156-0.19141 0.69531-0.70703 1.2812-1.4727 1.6055-0.36328 0.15234-2.5352 0.28516-3.2031-0.12891-0.58984-0.36719-1.0195-0.92969-1.1992-1.5469 0.39062-0.17578 0.66797-0.3125 0.69922-0.32812zm-5.9531 2.2188h0.019531c-0.27734 0.33594-0.50391 0.73047-0.62109 1.1875-0.33594 1.3477-2.082 3.8164-2.8359 4.8398-0.12891-0.39453-0.26953-0.73828-0.38281-1.0117-0.054687-0.12891-0.10156-0.24609-0.14062-0.34766-0.16406-0.43359-0.16016-2.5195-0.11328-3.9883 0.59375-0.085937 1.1914-0.35547 1.6758-0.57812 0.23437-0.10938 0.55859-0.25391 0.61328-0.26562 0.42578 0.12891 1.6484 0.16016 1.7852 0.16406zm-4.9453 11.691c-0.41016 0.082031-0.96875 0.097656-1.0781 0.007812-0.21094-0.30469-0.47656-2.4922-0.59375-3.4258-0.054688-0.44531-0.097657-0.80469-0.12891-0.98047-0.070312-0.41016 0.42578-3.9023 0.92969-6.9961 0.26953-0.63281 0.80469-1.5586 1.1836-1.707 0.55078-0.21484 1.8203-0.53516 2.2539-0.64453 0.45703 0.3125 1.3516 0.9375 1.5859 1.1523 0.0625 0.054688 0.12109 0.125 0.17578 0.19141-0.39844-0.023437-0.80078-0.058594-0.96094-0.10938-0.26562-0.082031-0.57812 0.0625-1.0977 0.29688-0.64062 0.29297-1.5234 0.69531-2.1211 0.48828l-0.22266 0.64844c0.085937 0.03125 0.17578 0.046875 0.26562 0.0625-0.035157 1.125-0.082031 3.5938 0.16016 4.2305 0.039063 0.10547 0.089844 0.23047 0.14453 0.36719 0.3125 0.76562 0.83594 2.0469 0.73828 3.5977l0.68359 0.042968c0.046875-0.75781-0.039062-1.4414-0.17578-2.0508 0.33984-0.44531 2.8242-3.7422 3.2695-5.5117 0.39844-1.5977 2.6562-2.3203 2.6406-2.3203 0.25-0.039063 0.57031-0.13281 0.91406-0.25 0.066406 0.58594 0 1.4922-0.64844 2.582-0.30469 0.51172-0.55859 1.0469-0.78516 1.5938l-0.26562-0.38672-0.5625 0.38672 0.53906 0.78516c-0.21484 0.80469-0.30859 1.9062-0.33594 3.0156-0.60938 0.80859-3.1992 4.0508-6.5078 4.9336zm6.2656 44.801c-0.13672 0.20312-0.36328 0.40234-0.58203 0.58984-0.32812 0.28125-0.63672 0.54688-0.73047 0.89844-0.09375 0.32813-1.4922 1.8359-2.582 1.8906-0.92578 0.046874-1.4922-0.15234-1.5117-0.5 0.042968-0.28125 0.90625-1.5859 1.4766-2.4531 0.48828-0.73828 0.92578-1.4023 1.2031-1.8906 0.10938 0.15234 0.22266 0.26562 0.32422 0.30859l0.19922 0.058594 0.14063-0.070313c0.16016-0.078124 1.1172-0.67187 1.9258-1.3047 0.20703 1.1562 0.27734 2.2656 0.13672 2.4727zm1.2578-18.879-0.035156 0.13672c-0.003906 0.035156-0.16406 3.5586-0.35547 4.4062-0.078125 0.34766-0.10938 1.543-0.14844 3.6211-0.046876 2.3984-0.13281 6.418-0.40234 6.8828-0.40234 0.58984-1.9492 1.6172-2.5117 1.957-0.22656-0.33984-0.625-1.2344-0.73438-1.5156-0.039062-0.78125-0.21094-11.918-0.27734-16.211 0.14453-5.7266 2.7734-14.375 3.7383-17.367 0.78906 0.39453 2.7617 1.1602 6.043 1.125l0.10938 4.6445-0.011719-0.003906c-0.035156 0.097656-4.2266 9.9062-5.4141 12.324zm11.715 8.207c-0.042969-2.0781-0.070313-3.2695-0.14844-3.6211-0.19141-0.84375-0.35156-4.3711-0.35547-4.4062l-0.035157-0.13672c-1.1406-2.3164-4.7422-11.461-5.0586-12.27l-0.10938-4.7422c3.0391 0.015625 5.0195-0.58984 5.9297-0.95703 0.99609 3.1016 3.5586 11.594 3.6992 17.23-0.0625 4.3047-0.23828 15.445-0.27734 16.223-0.10547 0.27734-0.50391 1.1758-0.73438 1.5156-0.5625-0.33984-2.1055-1.3672-2.5078-1.9531-0.26953-0.46484-0.35156-4.4844-0.40234-6.8828zm0.85938 8.25c0.80859 0.63281 1.7656 1.2266 1.9258 1.3047l0.19531 0.070312 0.14453-0.058594c0.10156-0.042968 0.21094-0.15625 0.32422-0.30859 0.27344 0.48828 0.71484 1.1523 1.2031 1.8867 0.57031 0.86328 1.4375 2.1719 1.4766 2.4297-0.019531 0.37109-0.58203 0.56641-1.5117 0.52344-1.0898-0.050781-2.4883-1.5586-2.582-1.8906-0.09375-0.35156-0.40234-0.61719-0.73047-0.89844-0.21875-0.1875-0.44531-0.38672-0.58203-0.58984-0.14062-0.20703-0.074219-1.3164 0.13672-2.4688z"/>
 <path d="m59.027 97.652c0.089844 0 0.17969-0.003906 0.27734-0.007813 1.4336-0.066406 3.0625-1.8398 3.2109-2.3945 0.039063-0.14844 0.29297-0.36719 0.51562-0.55859 0.24219-0.21094 0.51953-0.44531 0.70703-0.72656 0.41016-0.61328 0.027344-2.6875-0.10156-3.3047l-0.085938 0.015625c0.20703-0.19141 0.38281-0.375 0.49609-0.53906 0.32812-0.48047 0.42578-2.6289 0.51953-7.2578 0.03125-1.5664 0.066406-3.1836 0.13281-3.4805 0.19141-0.84375 0.34375-3.9297 0.36719-4.457 1.0352-2.1289 4.1016-9.2539 5.0898-11.562 0.90625 2.2891 3.7461 9.4414 4.7969 11.609 0.023437 0.52344 0.17578 3.6094 0.36719 4.4531 0.066407 0.29688 0.10156 1.918 0.13281 3.4805 0.09375 4.6289 0.19141 6.7773 0.51953 7.2578 0.11328 0.16406 0.28906 0.35156 0.49609 0.53906l-0.085938-0.019531c-0.125 0.62109-0.50781 2.6914-0.10156 3.3047 0.1875 0.28125 0.46484 0.51953 0.70703 0.73047 0.22266 0.19141 0.47656 0.41016 0.51562 0.55859 0.14844 0.55859 1.7773 2.3281 3.2109 2.3945 0.097656 0.003906 0.1875 0.007812 0.27734 0.007812 1.6953 0 1.9297-0.8125 1.9531-1.1719 0.019532-0.37109-0.44531-1.1133-1.5898-2.8477-0.57031-0.85938-1.207-1.8242-1.3633-2.2148 0.25391-0.51563 0.44922-1.0352 0.45312-1.0469 0.023438-0.066406 0.058594-0.17187 0.30078-16.41-0.14453-5.8203-2.8086-14.57-3.7812-17.574 0.039062-0.48438-0.29688-3.1484-0.35547-3.8789-0.12891-1.5078 0.23828-7.6172-0.054687-10.441h0.035156c0.003906-0.03125 0.015625-0.14453 0.035156-0.32422l0.03125-0.29688c0.09375-0.84375 0.36719-3.3672 0.35938-4.3984 0.27734-0.71875 2.7305-7.2188 3.0781-14.691 0.11328-0.38281 0.91016-3.0742 0.9375-4.7578 0.027344-1.5703-0.53125-6.7461-0.66797-7.9883 0.26562-0.13281 0.63281-0.41016 0.73047-0.94531 0.125-0.66016 0.054688-3.168 0.046875-3.4531l-0.91016-2.9492-1.957 0.32812-0.058594 0.21094c-0.019532 0.078125-0.42969 1.5586-0.63281 2.5469l-0.57812-0.49609v0.73047c0 0.011719 0 1.125-0.078125 2.0625-0.074219 0.89062 0.49609 1.5234 0.76953 1.7734-0.019531 0.95312-0.15234 5.8594-0.70312 7.4883-0.60156 1.7773-0.375 3.9961-0.32422 4.4062-0.078125 0.33984-0.48438 2.0703-0.88672 3.3242-0.41016 1.2891-1.2227 4.1094-1.3594 4.5938-0.95703 1.1328-1.4531 2.1641-1.707 3v-0.45703c0.67578-1.1055 1.1914-2.5039 1.1914-3.7188 0-3.1758-1.6445-5.4805-3.9062-5.4805-2.2656 0-3.9102 2.3047-3.9102 5.4805 0 1.2266 0.53125 2.6406 1.2148 3.7539v0.40234c-0.27344-0.85156-0.78125-1.875-1.707-2.9727-0.14062-0.48438-0.94922-3.3047-1.3594-4.5938-0.39844-1.2539-0.80859-2.9844-0.88672-3.3242 0.050782-0.41016 0.27734-2.6289-0.32422-4.4062-0.55078-1.6289-0.68359-6.5312-0.70312-7.4883 0.27734-0.25391 0.84375-0.88672 0.76953-1.7734-0.078125-0.9375-0.078125-2.0508-0.078125-2.0625v-0.73047l-0.58594 0.48828c-0.20313-0.98438-0.60938-2.4688-0.63281-2.5469l-0.058594-0.21094-1.957-0.32812-0.89453 2.8594-0.015625 0.09375c-0.007813 0.28516-0.078125 2.793 0.046875 3.4531 0.10156 0.53516 0.46484 0.8125 0.73047 0.94531-0.13672 1.2422-0.69531 6.418-0.66797 7.9883 0.027343 1.6836 0.82031 4.3789 0.9375 4.7578 0.35156 7.4727 2.8008 13.973 3.0781 14.691-0.007813 1.0547 0.28125 3.6602 0.39062 4.6523 0.019531 0.19141 0.035156 0.3125 0.039062 0.35156-0.27734 2.3203 0.125 6.9766 0.125 7.418-0.003906 1.2344-0.019531 2.4727-0.027343 3.707-0.003907 0.75781-0.085938 1.4766-0.15625 2.2109-0.37891 1.125-3.9258 11.793-4.0938 18.547 0.24219 16.227 0.27734 16.328 0.30078 16.398 0.003906 0.007813 0.19922 0.52734 0.45312 1.043-0.15625 0.39062-0.79688 1.3555-1.3633 2.2148-1.1445 1.7305-1.6094 2.4727-1.5898 2.8438 0.023437 0.35938 0.25781 1.1719 1.9531 1.1719zm21.762-3.5977c0.57031 0.86328 1.4375 2.1719 1.4766 2.4297-0.019531 0.37109-0.57812 0.56641-1.5117 0.52344-1.0898-0.050781-2.4883-1.5586-2.582-1.8906-0.09375-0.35156-0.40234-0.61719-0.73047-0.89844-0.21875-0.1875-0.44531-0.38672-0.58203-0.58984-0.13672-0.20703-0.070313-1.3164 0.14062-2.4688 0.80859 0.63281 1.7656 1.2266 1.9258 1.3047l0.19531 0.070312 0.14453-0.058594c0.10156-0.042968 0.21094-0.15625 0.32422-0.30859 0.26953 0.48828 0.71094 1.1484 1.1992 1.8867zm-1.0039-3.8203c-0.10547 0.27734-0.50391 1.1758-0.73438 1.5156-0.5625-0.33984-2.1055-1.3672-2.5078-1.9531-0.27344-0.47266-0.35547-4.4883-0.40625-6.8867-0.042969-2.0781-0.070313-3.2695-0.14844-3.6211-0.19141-0.84375-0.35156-4.3711-0.35547-4.4062l-0.035156-0.13672c-1.1406-2.3164-4.7422-11.461-5.0586-12.27l-0.10937-4.7422c3.0391 0.015625 5.0195-0.58984 5.9297-0.95703 0.99609 3.1016 3.5586 11.594 3.6992 17.23-0.058594 4.3086-0.23438 15.449-0.27344 16.227zm-4.793-60.57 0.070312-0.12891c0.007812-0.03125 0.92969-3.25 1.375-4.6445 0.45312-1.4141 0.91016-3.418 0.91406-3.4375l0.015626-0.058594-0.007813-0.0625c-0.003906-0.023437-0.3125-2.3906 0.28516-4.1602 0.64453-1.8984 0.73828-7.6172 0.74219-7.8594v-0.17578l-0.14062-0.10547c-0.007813-0.003906-0.69922-0.52734-0.63672-1.2852 0.039063-0.48047 0.0625-0.99609 0.070313-1.3984l0.42187 0.35156 0.066407-0.63672c0.0625-0.59766 0.5-2.2461 0.65625-2.832l0.9375-0.15625 0.70312 2.2461c0.023437 0.78516 0.054687 2.7695-0.035156 3.2578-0.078126 0.40625-0.48828 0.51172-0.5 0.51172l-0.30078 0.066406 0.035156 0.30469c0.007813 0.0625 0.72266 6.457 0.69141 8.1641-0.027344 1.6797-0.91016 4.582-0.92188 4.6133l-0.015625 0.085938c-0.35547 7.7812-3.0312 14.508-3.0586 14.574l-0.027344 0.066406v0.070312c0.015625 0.66797-0.125 2.168-0.23828 3.2852-0.23047-0.61719-0.49219-1.2266-0.81641-1.8086-0.70312-1.2617-1.6016-3.293-2.1289-4.5273-0.027344-0.64062 0.10547-2.2891 1.8438-4.3203zm-7.7422-1.1523 0.17578-1.4805c1.1016-0.0625 2.8477-0.32031 4.1016-1.2422 0.19141 0.32422 0.53906 0.73828 1.082 1.043l0.25781 1.75 0.32812-0.046875c-0.17187 1.6133-1.2266 3.5273-2.1914 4.3047-0.58594 0.47266-1.4102 0.47656-1.9961 0-0.97656-0.78906-2.0508-2.7539-2.1953-4.3828zm1.3203 4.8594c0.42188 0.33984 0.92578 0.50781 1.4297 0.50781s1.0078-0.17188 1.4297-0.50781c0.19922-0.16016 0.40234-0.375 0.60156-0.61328v1.8516h0.41797c0 0.89844-0.12109 1.9141-0.94922 2.2617-0.36328 0.15234-2.5352 0.28516-3.2031-0.12891-0.51172-0.31641-0.625-1.3398-0.71094-2.1797h0.40625v-1.7773c0.19531 0.22656 0.38672 0.43359 0.57812 0.58594zm-7.9648-11.047-0.015625-0.085938c-0.007813-0.027343-0.89062-2.9297-0.92188-4.6133-0.03125-1.707 0.68359-8.0977 0.69141-8.1641l0.035156-0.30469-0.30078-0.066406c-0.003906 0-0.42188-0.097656-0.5-0.51172-0.089844-0.48828-0.058594-2.4727-0.035156-3.2578l0.70312-2.2461 0.9375 0.15625c0.16016 0.58594 0.59375 2.2344 0.65625 2.832l0.066406 0.63672 0.42578-0.35156c0.011719 0.40234 0.03125 0.91797 0.070313 1.3984 0.0625 0.75781-0.62891 1.2812-0.63672 1.2852l-0.14453 0.10547 0.003906 0.17578c0.003906 0.24219 0.097656 5.9609 0.74219 7.8594 0.59766 1.7695 0.28906 4.1367 0.28516 4.1602l-0.007813 0.0625 0.015625 0.058594c0.003907 0.019531 0.46094 2.0234 0.91406 3.4375 0.44531 1.3984 1.3672 4.6133 1.375 4.6445l0.070312 0.12891c2.1289 2.4922 1.9023 4.582 1.875 4.7734-0.51172 1.0703-1.3594 2.7773-2.0977 4.0156-0.35156 0.58984-0.64453 1.2031-0.88672 1.8359-0.12109-1.168-0.25-2.6016-0.23828-3.2539v-0.070312l-0.027344-0.066406c-0.023437-0.066407-2.6992-6.793-3.0547-14.574zm3.0977 34.289c0.78906 0.39453 2.7617 1.1602 6.043 1.125l0.10938 4.6445-0.011719-0.003906c-0.042969 0.097656-4.2305 9.9062-5.4219 12.324l-0.035156 0.13672c-0.003907 0.035156-0.16406 3.5586-0.35547 4.4062-0.078125 0.34766-0.10938 1.543-0.14844 3.6211-0.046874 2.3984-0.13281 6.418-0.40234 6.8828-0.40234 0.58984-1.9492 1.6172-2.5117 1.957-0.22656-0.33984-0.625-1.2344-0.73438-1.5156-0.039063-0.78125-0.21094-11.918-0.27734-16.211 0.14844-5.7305 2.7812-14.379 3.7461-17.367zm-4.4648 37.398c0.48828-0.73828 0.92578-1.4023 1.2031-1.8906 0.10938 0.15234 0.22266 0.26562 0.32422 0.30859l0.19922 0.058593 0.14062-0.070312c0.16016-0.078125 1.1172-0.67188 1.9258-1.3047 0.21094 1.1523 0.27734 2.2617 0.14062 2.4688-0.13672 0.20312-0.36328 0.40234-0.58203 0.58984-0.32812 0.28125-0.63672 0.54688-0.73047 0.89844-0.09375 0.32813-1.4922 1.8359-2.582 1.8906-0.92188 0.046874-1.4922-0.15234-1.5117-0.5 0.035156-0.28125 0.89844-1.5859 1.4727-2.4492z"/></svg>