<svg xmlns="http://www.w3.org/2000/svg" version="1.1" viewBox="2.128 8.989 95.629 86.183">
 <path d="m93.926 30.109c1.2617-0.26172 1.75-1.6016 1.8242-2.3398 0.37109-2.1992-0.125-3.3398-0.60547-3.9102-0.38672-0.45703-0.90234-0.70703-1.457-0.70703-0.71875 0-1.0039-0.15234-1.5742-0.45703-0.17969-0.097656-0.38281-0.20312-0.62109-0.32031-1.0469-0.50391-3.1094-0.30469-3.5352-0.25781-0.12891-0.16406-0.26172-0.30469-0.40234-0.41016-0.90625-0.67969-5.4219-1.8477-9.9727-2.9844-0.8125-0.20312-1.4688-0.36719-1.8594-0.47266-1.8633-0.5-5.8594-0.49609-8.7891-0.49219h-0.67578c-0.19922 0-2.0977-0.10547-3.1133-0.32422-0.29297-0.0625-0.96094-0.25781-1.7305-0.48438-2.7383-0.80469-5.2656-1.5156-6.4258-1.4766l-0.39453-0.4375-4.2891-0.47656c-0.57813-0.22266-6.0859-2.3438-7.5-2.9141-1.5508-0.62891-5.6523-0.80859-5.8516-0.81641-2.1875 0.03125-7.5234 0.92188-9.5312 1.2578-0.35547 0.058593-0.58203 0.097656-0.59375 0.10156-0.10938 0-1.2305 0.035156-1.2305 0.035156l-0.089844 0.011719c-2.0273 0.52734-2.9727 1.9922-2.7344 4.2305 0.085937 0.8125-0.0625 1.2617-0.14453 1.4414-0.48438 0.007812-1.0312-0.30469-1.2617-0.46484-0.32813-1.3906-1.0078-2.8828-1.9453-3.832-1.1367-1.1484-2.4766-1.9297-3.7734-2.1914-1.2695-0.25781-2.4219 0-3.293 0.71484l-0.003907-0.015624-1.4062 0.16406-1.5 2.2695 0.10938 3.7227c-0.21484 0.47266-1.3203 2.8555-2.8047 5.3516-1.6836 2.832-2.7148 5.8203-2.7578 5.9492l-0.019532 0.10156c-0.003906 0.054688-0.070312 1.3672 1.9023 1.957 1.7148 0.51172 12.098-0.92969 13.289-1.0977 0.039063-0.007812 3.9922-0.67578 5.1602-0.67578 1.0078 0 7.4102 0.39453 11.043 0.84375 3.7812 0.89453 8.6289 2.0859 8.6289 2.0859s0.019531-0.33984 0.039062-0.89844c5.3359 0.67188 16.059 1.9688 18.805 1.8594 1.9219-0.074219 3.7266 0.015625 6.0117 0.12891 2.0352 0.10156 4.3438 0.21484 7.4297 0.25391 0.10547 0 0.21484 0.003907 0.32422 0.003907 1.6484 0 3.8359-0.14062 5.9531-0.27734 2.7734-0.17969 5.6406-0.36719 6.5781-0.16016l0.53516 0.11719-0.019531-0.25c0.65234 0.39844 1.3594 0.97266 2 1.5 1.0273 0.84375 1.8359 1.5078 2.4688 1.5508l0.125 0.003906c0.39062 0 0.73047-0.13672 0.99609-0.39453 0.52344-0.51172 0.73828-1.4883 0.66016-2.9766-0.10547-1.8828-1.0078-2.707-1.9766-3.1406zm-6.3438-1.4297c-0.10938-0.070313-0.22656-0.13672-0.34766-0.19141l-0.15234-0.035156c-0.0625 0-6.3477-0.14844-8.7734-0.56641-2.3789-0.41016-6.7461-0.10156-7.3438-0.058594-0.80078-0.17969-7.7383-1.7422-12.113-2.6289 4.1172-0.30078 8.4844-0.66406 8.9727-0.70703 0.67578 0.089843 7.4844 1 8.9727 1.0469 1.4844 0.046876 8.4688 1.3164 9.9102 1.6133 0.44531 0.09375 0.86719 0.125 1.2422 0.125 0.41016 0 0.76172-0.039063 1.0195-0.082032 0.36719 0.21094 0.80469 0.61328 1.2695 1.0508 0.035157 0.035156 0.074219 0.070312 0.10938 0.10547-0.79688-0.26562-2.1406 0.11328-2.7656 0.32813zm3.5508-5.5742c0.23047 0.11328 0.42188 0.21484 0.59375 0.30469 0.60156 0.32031 1.0352 0.55078 1.957 0.55078 0.31641 0 0.60547 0.14453 0.83984 0.42187 0.30469 0.35938 0.76172 1.2578 0.42187 3.2773-0.007812 0.070313-0.19531 1.6914-1.4688 1.6914h-0.03125c-0.87109-0.019531-1.8203-0.91016-2.6602-1.6953-0.35938-0.33984-0.71094-0.65625-1.0469-0.91406l-0.027343-0.12109c-0.066407-0.29688-0.53906-2.3164-1.2734-3.7305 0.78906-0.058594 2.0781-0.082031 2.6953 0.21484zm-29.949-5.3789c0.82031 0.24219 1.4648 0.42969 1.7891 0.5 1.1562 0.25 3.1523 0.34375 3.2852 0.34375h0.67578c2.8867 0 6.8164-0.007812 8.5781 0.46484 0.39453 0.10547 1.0586 0.27344 1.875 0.47656 2.8672 0.71875 8.832 2.207 9.6836 2.8477 0.74609 0.55859 1.4492 2.8281 1.7578 4.043-0.42188 0.066406-1.1484 0.12891-1.957-0.039063-1.1758-0.24219-8.4219-1.582-10.047-1.6328-1.4883-0.046875-8.8594-1.0352-8.9336-1.0469l-0.042969-0.007813-0.042968 0.003907c-0.11719 0.011718-11.867 1.0039-15.441 1.0977-2.3086 0.058594-6.0703-0.19531-8.4648-0.38281-0.25781-2.25-0.8125-6.5234-1.1367-7.9844 0.49609-0.10156 0.91797-0.16406 1.2148-0.15234v-0.007812c0.97656 0.070312 1.6719 0.078125 1.6875 0.078125 0.45703 0 2.1602 0.39062 3.3281 0.68359 0.19922 0.42578 0.73828 0.67969 1.2227 0.91406 0.23047 0.10938 0.46875 0.22266 0.61719 0.33203 0.39453 0.28906 0.91797 0.98438 1.0859 1.2305l0.10156 0.14453 0.17578 0.027344c0.050782 0.007813 0.13672 0.015625 0.23828 0.015625 0.22656 0 0.53906-0.046875 0.73438-0.26953 0.085937-0.10156 0.21875-0.32031 0.12109-0.65625l-0.046874-0.15234 2.0547 0.82812 2.1445-1.2461-1.6562-1.8281c1.4102 0.20703 3.832 0.91797 5.3984 1.375zm-20.852-1.5742c-1.4922 0.37109-3.1016 0.75391-4.2305 0.69922-1.2344-0.050781-2.5859-0.48828-3.5352-0.85547l6.1836-0.76562c0.65625 0.30078 1.5078 0.51953 2.3828 0.67969-0.26172 0.066406-0.53125 0.15234-0.80078 0.24219zm-14.664-3.1211c0.21094-0.007812 1.0664-0.035156 1.1562-0.035156 0.050781 0 0.050781 0 0.73047-0.11328 1.8008-0.30078 7.2852-1.2188 9.3867-1.2461 0.042969 0.003906 4.1367 0.18359 5.5586 0.75781 1.4883 0.60156 7.5 2.9141 7.5625 2.9375l4.1367 0.47266 1.9609 2.1641-0.93359 0.54297-3.6172-1.457 0.53516 0.98828c0 0.003906 0.16797 0.31641 0.32422 0.80859h-0.003906c-0.21875-0.30078-0.71094-0.92969-1.1562-1.2578-0.21094-0.15234-0.48438-0.28516-0.75-0.41016-0.25-0.11719-0.83203-0.39453-0.83984-0.53906l-0.019531-0.29297-0.28516-0.074218c-0.30469-0.078125-3.0078-0.76562-3.7539-0.76562-0.94531 0-4.8516-0.17969-6.6602-1.0664l-0.10938-0.054687-9.3555 1.1602 0.10156 0.80469 0.64062-0.078125c-0.25 0.35938-0.80859 0.83984-2.0508 1.2148-1.7695 0.53516-3.8203-0.078126-4.625-0.36719 0.011719-0.22266 0.007813-0.46484-0.019531-0.75-0.19922-1.8125 0.48438-2.9102 2.0859-3.3438zm-4.1055 6.6328c0.039062-0.34766 0.023438-0.76172-0.027344-1.1953 0.41016 0.18359 0.94141 0.33594 1.4375 0.20312l0.11719-0.03125 0.082031-0.089844c0.007813-0.007812 0.019531-0.023437 0.035156-0.042969 0.82031 0.27344 2.7852 1.0039 2.7578 1.7109-0.035156 0.89453-1.0391 4.4414-2.4336 4.6914-1.0352 0.1875-2.6797-0.73047-3.4609-1.2188 0.011719-0.082031 0.003907-0.14844-0.007812-0.19531l-0.03125-0.12109-1.6367-1.4883c0.16406 0.011719 0.32812 0.027343 0.48047 0.027343s0.29297-0.007812 0.42969-0.019531c1.1953-0.12109 2.1211-1.0391 2.2578-2.2305zm-8.2852 0.019532c0.89453 0.90625 2.2852 1.5742 3.6133 1.9336l2.2305 2.0273c-0.078125 0.046875-0.19141 0.10547-0.35938 0.17188-0.23438 0.089844-0.44922 0.14844-0.68359 0.21094-0.59766 0.16016-1.3438 0.35938-2.7617 1.1328-1.2812 0.69922-3.1953 1.1055-4.2969 1.293 0.12891-0.66406 0.24609-1.5742 0.30859-2.8359 0.34766-2.0391 0.72656-3.7148 0.84766-4.2422l0.55078-0.30469c0.17188 0.21094 0.35547 0.41797 0.55078 0.61328zm7.4766-0.10938c-0.089844 0.80859-0.71875 1.4336-1.5312 1.5156-0.52734 0.054687-1.2109-0.019532-1.9219-0.19531l-0.011719-0.011719-0.007812 0.007813c-1.1133-0.27734-2.293-0.8125-3.125-1.5117l0.38672-0.30078-1.0078-1.293c0.80859-0.90234 1.9531-2.4375 2.2148-4.1094 0.39453 0.10156 0.96875 0.16016 1.6133-0.007812l1.5664 1.1797 0.21875-0.28906c1.1055 1.3828 1.7539 3.6758 1.6055 5.0156zm-1.7188 10.16c-4.5547 0.64453-11.758 1.4727-12.934 1.1211-1.1562-0.34375-1.3008-0.93359-1.3203-1.0859 0.16406-0.46094 1.1562-3.1953 2.6641-5.7266 1.6758-2.8164 2.875-5.4922 2.8867-5.5195l0.039063-0.085938-0.10547-3.6523 1.1484-1.7422 0.15625-0.019531c-0.48828 0.80078-0.64844 1.7891-0.44141 2.8633 0.16406 0.84375 0.54688 1.7109 1.1055 2.5273l-0.76172 0.42188-0.042968 0.17187c-0.003907 0.019532-0.47266 1.9766-0.90625 4.5156-0.074219 1.4727-0.22266 2.4336-0.35938 3.0547-0.16406 0.74219-0.31641 0.98828-0.32031 0.99219l0.65234 0.48047c0.03125-0.039062 0.16406-0.23438 0.31641-0.74609 1.0469-0.16016 3.3438-0.59375 4.8906-1.4375 1.3359-0.72656 2-0.90625 2.5859-1.0625 0.26563-0.070313 0.50781-0.13672 0.76953-0.23828 0.011718-0.003906 0.023437-0.011718 0.035156-0.015625 0.62109 0.5625 1.8438 1.6758 1.9648 1.8203 1.1484 1.375 2.7148 2.2344 3.7539 2.6875-0.21094-0.007813-0.39453-0.015625-0.49609-0.015625-1.2344 0.007812-5.1289 0.66406-5.2812 0.69141zm63.465 3.3125c-2.2461 0.14453-4.5586 0.29688-6.2148 0.27734-3.0703-0.039063-5.3711-0.15234-7.3984-0.25391-2.3086-0.11328-4.1289-0.20703-6.082-0.12891-2.6719 0.097656-13.457-1.1992-18.746-1.8633 0.039062-1.375 0.066406-3.3867-0.027344-5.3242-0.003906-0.085937-0.023438-0.27734-0.046875-0.53516 2.418 0.1875 6.1094 0.43359 8.3945 0.37109 0.78516-0.019532 1.9648-0.085938 3.3281-0.17188l-0.003906 0.023437c2.6719 0.375 15.023 3.1641 15.148 3.1914l0.058594 0.011719 0.0625-0.003906c0.046875-0.003906 4.7969-0.37109 7.2031 0.042969 2.3555 0.40625 8.0117 0.55859 8.8047 0.57812 1.0977 0.54688 1.6055 2.4414 1.7773 3.5664-1.2812-0.10547-3.6172 0.046875-6.2578 0.21875zm12.168 2.5938c-0.125 0.125-0.27734 0.17188-0.49219 0.16016-0.37891-0.027343-1.2461-0.74219-2.0156-1.3711-0.83203-0.68359-1.7656-1.4375-2.625-1.8477-0.14062-0.84766-0.48438-2.293-1.2695-3.2695 0.72656-0.20703 1.5469-0.34766 1.8711-0.1875 0.24609 0.12109 0.49219 0.28516 0.75781 0.46094 0.54688 0.35937 1.1641 0.76953 2.043 1.0195 1.0586 0.30469 2.0547 0.83594 2.1523 2.6797 0.082031 1.6094-0.23047 2.168-0.42188 2.3555z"/>
 <path d="m93.156 86.539c-0.75781-0.21484-1.2969-0.57031-1.8164-0.91797-0.28516-0.1875-0.55078-0.36328-0.83984-0.50781-0.75781-0.37891-2.25 0.050781-2.918 0.27734-0.10938-0.074219-0.22656-0.13672-0.34766-0.19141l-0.15234-0.035157c-0.0625 0-6.3477-0.14844-8.7734-0.56641-2.3594-0.40625-6.6602-0.10938-7.3242-0.058594-1.2773-0.41016-14.652-4.6914-18.809-5.6445 0.035157-0.027343 0.078125-0.042969 0.10938-0.070312 2.3516-1.8789 11.512-14.445 11.781-14.992 0.28516-0.39062 9.5938-10.117 12.898-11.496l0.19141-0.082032 0.046875-0.20312c0.035156-0.14844 0.13281-0.60547 0.17578-1.1211 0.24219 0.007812 0.55469 0.015624 0.89844 0.015624l0.19141-0.50391v0.50391h0.13281c0.63281 0 1.7227-0.78125 2.1289-1.7539 0.078125-0.1875 0.37109-0.53516 0.67969-0.90625 0.92578-1.1055 2.3242-2.7734 2.0664-4.6445-0.089843-0.65625-0.36719-1.0742-0.82031-1.2344-1.0117-0.36328-2.4883 0.74219-4.3906 2.5117-1.332 1.2383-3.5469 2.9453-4.0078 3.2969-0.20312-0.035156-0.39453-0.070313-0.54297-0.089844l-0.14453-0.019531-0.125 0.074219c-0.42578 0.25-10.473 6.2109-15.273 11.82-0.39453 0.40625-8.332 7.2188-12.984 10.594-4.3867-1.7617-8.1719-1.8594-8.3438-1.8633-1.8477 0.023437-6.0352 0.10156-8.3711 0.14062-0.95703 0.015625-1.6055 0.027344-1.6484 0.027344-0.10938 0-1.2305 0.035156-1.2305 0.035156l-0.089844 0.011718c-2.0273 0.52734-2.9727 1.9922-2.7344 4.2305 0.085938 0.8125-0.0625 1.2578-0.14453 1.4414-0.48438 0.019531-1.0312-0.30469-1.2617-0.46094-0.32812-1.3906-1.0078-2.8828-1.9453-3.832-1.1367-1.1484-2.4766-1.9297-3.7734-2.1914-1.2695-0.25781-2.4219 0-3.293 0.71484l-0.003906-0.015625-1.4062 0.16406-1.5 2.2695 0.10938 3.7227c-0.21484 0.47266-1.3203 2.8555-2.8047 5.3516-1.6836 2.832-2.7148 5.8203-2.7578 5.9492l-0.019531 0.10156c-0.003906 0.054687-0.070312 1.3672 1.9023 1.957 1.7148 0.51172 12.098-0.92969 13.289-1.0977 0.039063-0.007812 3.9922-0.67578 5.1602-0.67578 1.0078 0 7.4102 0.39453 11.043 0.84375 3.7812 0.89453 8.6289 2.0859 8.6289 2.0859s0.019531-0.33984 0.039062-0.89844c5.3359 0.67578 16.059 1.9688 18.805 1.8555 1.9219-0.078126 3.7266 0.011718 6.0117 0.12891 2.0352 0.10156 4.3438 0.21484 7.4297 0.25391 0.10547 0 0.21484 0.003906 0.32422 0.003906 1.6484 0 3.8359-0.14062 5.9531-0.27734 2.7734-0.17969 5.6406-0.36719 6.5781-0.16016l0.53516 0.11719-0.019531-0.25c0.65234 0.39844 1.3594 0.97266 2 1.5 1.0273 0.84375 1.8359 1.5078 2.4688 1.5508l0.125 0.003906c0.39062 0 0.73047-0.13672 0.99609-0.39453 0.52344-0.51172 0.73828-1.4883 0.66016-2.9766-0.125-2.375-1.5312-3.0742-2.7422-3.4219zm-14.336-41.023c1.8594-1.7305 3.0547-2.5195 3.5664-2.3398 0.17969 0.0625 0.25391 0.35156 0.28516 0.58203 0.20703 1.5156-1 2.957-1.8828 4.0117-0.38281 0.45703-0.68359 0.81641-0.80859 1.1172-0.31641 0.76172-1.1602 1.2539-1.3789 1.2539l-0.015624 0.097656v-0.097656h-0.30469c-0.33984 0-0.65625-0.007813-0.89062-0.015625-0.023437-0.25391-0.070313-0.48828-0.16797-0.67969-0.22656-0.45312-1.0742-0.77734-1.9258-1 0.87109-0.67969 2.4492-1.9336 3.5234-2.9297zm-20.039 15.02c4.4414-5.1875 13.77-10.871 14.953-11.586 1.332 0.21484 2.6016 0.60547 2.7539 0.85547 0.16797 0.33594 0.085938 1.2305-0.039062 1.8711-3.6641 1.7344-12.852 11.285-13.078 11.738-0.35156 0.58984-9.3555 12.984-11.594 14.773-1.9141 1.5312-6.7031 1.4297-8.0703 1.3633-0.28906-2.3281-0.69922-5.3359-0.95703-6.4727 3.2695-1.4453 15.953-12.449 16.031-12.543zm-22.68 13.031c-0.625-0.027344-1.2578-0.13672-1.8438-0.28125l3.4375 0.15234c-0.58594 0.09375-1.1328 0.14844-1.5938 0.12891zm-10.434-3.8203c0.21094-0.007813 1.0664-0.035156 1.1562-0.035156 0.03125 0 0.6875-0.011719 1.6641-0.03125 2.3359-0.042969 6.5234-0.11719 8.3555-0.14063 0.035156 0 3.5117 0.089844 7.5547 1.6133-0.89844 0.62109-1.6211 1.0664-2.0586 1.2305-0.12109 0.027344-0.25781 0.058594-0.38281 0.089844-0.35938 0.027344-0.81641 0.14062-1.2891 0.28516l-11.066-0.49219-0.035156 0.8125 0.625 0.027344c-0.28516 0.34375-0.84766 0.76953-1.9648 1.1055-1.7695 0.53516-3.8203-0.078126-4.625-0.36719 0.011719-0.22266 0.007813-0.46484-0.019531-0.75-0.19922-1.8203 0.48438-2.9141 2.0859-3.3477zm-4.1055 6.6328c0.039062-0.34766 0.023438-0.76172-0.027344-1.1992 0.30469 0.13672 0.67188 0.25391 1.0469 0.25391 0.13281 0 0.26172-0.015625 0.39062-0.046875l0.11719-0.03125 0.082031-0.089844c0.007813-0.007813 0.019531-0.023437 0.035156-0.042969 0.82031 0.27344 2.7852 1.0039 2.7578 1.7109-0.035156 0.89453-1.0391 4.4414-2.4336 4.6914-1.0352 0.1875-2.6797-0.73047-3.4609-1.2188 0.011719-0.082031 0.003907-0.14844-0.007812-0.19531l-0.03125-0.12109-1.6328-1.4883c0.16406 0.011719 0.32812 0.027344 0.48047 0.027344s0.29297-0.007812 0.42969-0.019531c1.1914-0.12109 2.1172-1.0391 2.2539-2.2305zm-8.2852 0.019532c0.89453 0.90625 2.2852 1.5742 3.6133 1.9336l2.2305 2.0273c-0.078125 0.046875-0.19141 0.10547-0.35938 0.16797-0.23438 0.089844-0.44922 0.14844-0.68359 0.21094-0.59766 0.16016-1.3438 0.35938-2.7617 1.1328-1.2812 0.69922-3.1953 1.1055-4.2969 1.293 0.12891-0.66406 0.24609-1.5742 0.30859-2.8359 0.34766-2.0391 0.72656-3.7148 0.84766-4.2422l0.55078-0.30469c0.17188 0.21094 0.35547 0.41797 0.55078 0.61719zm7.4766-0.11328c-0.089844 0.80859-0.71875 1.4336-1.5312 1.5156-0.52734 0.054688-1.207-0.019531-1.9219-0.19531l-0.011719-0.011719-0.007812 0.007812c-1.1133-0.27734-2.293-0.8125-3.125-1.5117l0.38672-0.30078-1.0078-1.293c0.80859-0.90234 1.9531-2.4375 2.2148-4.1094 0.39453 0.10156 0.96875 0.16016 1.6133-0.007813l1.5664 1.1797 0.21875-0.28906c1.1055 1.3867 1.7539 3.6758 1.6055 5.0156zm-1.7188 10.164c-4.5547 0.64453-11.758 1.4727-12.934 1.1211-1.1562-0.34375-1.3008-0.93359-1.3203-1.0859 0.16406-0.46094 1.1562-3.1953 2.6641-5.7266 1.6758-2.8164 2.875-5.4922 2.8867-5.5195l0.039063-0.085937-0.10547-3.6523 1.1484-1.7422 0.15625-0.019531c-0.48828 0.80078-0.64844 1.7891-0.44141 2.8633 0.16406 0.84375 0.54688 1.7109 1.1055 2.5273l-0.76172 0.42188-0.042968 0.17188c-0.003907 0.019532-0.47266 1.9766-0.90625 4.5156-0.074219 1.4727-0.22266 2.4336-0.35938 3.0547-0.16406 0.74219-0.31641 0.98828-0.32031 0.99219l0.65234 0.48047c0.03125-0.039063 0.16406-0.23438 0.31641-0.74609 1.0469-0.16406 3.3438-0.59375 4.8906-1.4375 1.3359-0.72656 2-0.90625 2.5859-1.0625 0.26563-0.070312 0.50781-0.13672 0.76953-0.23828 0.011718-0.003906 0.023437-0.011719 0.035156-0.015625 0.62109 0.5625 1.8438 1.6758 1.9648 1.8203 1.1484 1.375 2.7148 2.2344 3.7539 2.6875-0.21094-0.007813-0.39062-0.015626-0.49609-0.015626-1.2344 0.003907-5.1289 0.66406-5.2812 0.69141zm63.465 3.3125c-2.2461 0.14453-4.5586 0.29297-6.2148 0.27734-3.0703-0.039062-5.3711-0.15234-7.3984-0.25391-2.3086-0.11328-4.1289-0.20703-6.082-0.12891-2.6719 0.10547-13.457-1.1992-18.746-1.8633 0.039062-1.375 0.066406-3.3867-0.027344-5.3242-0.011719-0.21484-0.097656-1.0273-0.22656-2.0938 0.3125 0.011719 0.73828 0.027344 1.2383 0.027344 1.7383 0 4.3594-0.16406 6.1797-0.96875l-0.015625 0.097656c2.6562 0.37109 19.43 5.7539 19.602 5.8086l0.078125 0.023437 0.078125-0.007812c0.046875-0.003907 4.7969-0.375 7.2031 0.042969 2.3555 0.40625 8.0117 0.55859 8.8047 0.57812 1.0977 0.54688 1.6055 2.4414 1.7773 3.5664-1.2734-0.10547-3.6094 0.046875-6.25 0.21875zm12.168 2.5938c-0.125 0.125-0.27734 0.17578-0.49219 0.16016-0.37891-0.027344-1.2461-0.74219-2.0156-1.3711-0.83203-0.68359-1.7656-1.4375-2.625-1.8477-0.14062-0.84766-0.48438-2.293-1.2695-3.2695 0.72656-0.20703 1.5469-0.34766 1.8711-0.1875 0.24609 0.12109 0.49219 0.28516 0.75781 0.46094 0.54688 0.35938 1.1641 0.76953 2.043 1.0195 1.0586 0.30469 2.0547 0.83594 2.1523 2.6797 0.082031 1.6094-0.23047 2.1641-0.42188 2.3555z"/></svg>